<svg class="rich-terminal" viewBox="0 0 994 635.5999999999999" xmlns="http://www.w3.org/2000/svg">
    <!-- Generated with Rich https://www.textualize.io -->
    <style>

    @font-face {
        font-family: "Fira Code";
        src: local("FiraCode-Regular"),
                url("https://cdnjs.cloudflare.com/ajax/libs/firacode/6.2.0/woff2/FiraCode-Regular.woff2") format("woff2"),
                url("https://cdnjs.cloudflare.com/ajax/libs/firacode/6.2.0/woff/FiraCode-Regular.woff") format("woff");
        font-style: normal;
        font-weight: 400;
    }
    @font-face {
        font-family: "Fira Code";
        src: local("FiraCode-Bold"),
                url("https://cdnjs.cloudflare.com/ajax/libs/firacode/6.2.0/woff2/FiraCode-Bold.woff2") format("woff2"),
                url("https://cdnjs.cloudflare.com/ajax/libs/firacode/6.2.0/woff/FiraCode-Bold.woff") format("woff");
        font-style: bold;
        font-weight: 700;
    }

    .terminal-935384917-matrix {
        font-family: Fira Code, monospace;
        font-size: 20px;
        line-height: 24.4px;
        font-variant-east-asian: full-width;
    }

    .terminal-935384917-title {
        font-size: 18px;
        font-weight: bold;
        font-family: arial;
    }

    .terminal-935384917-r1 { fill: #c5c8c6 }
.terminal-935384917-r2 { fill: #c89450;font-weight: bold }
.terminal-935384917-r3 { fill: #fd971f }
.terminal-935384917-r4 { fill: #e0e0e0;font-weight: bold }
.terminal-935384917-r5 { fill: #e0e0e0 }
.terminal-935384917-r6 { fill: #98e024 }
.terminal-935384917-r7 { fill: #97989c }
.terminal-935384917-r8 { fill: #e0e0e0;font-style: italic; }
.terminal-935384917-r9 { fill: #2a3050 }
.terminal-935384917-r10 { fill: #0a0d18 }
.terminal-935384917-r11 { fill: #ff00ff;font-weight: bold }
.terminal-935384917-r12 { fill: #b4bcd4 }
.terminal-935384917-r13 { fill: #abacb0 }
.terminal-935384917-r14 { fill: #008000 }
.terminal-935384917-r15 { fill: #8890b0 }
.terminal-935384917-r16 { fill: #5f6680 }
.terminal-935384917-r17 { fill: #00ffff }
.terminal-935384917-r18 { fill: #c89450 }
.terminal-935384917-r19 { fill: #a080d0 }
.terminal-935384917-r20 { fill: #ffff00 }
.terminal-935384917-r21 { fill: #5ca8c8;font-weight: bold }
.terminal-935384917-r22 { fill: #6f717b }
    </style>

    <defs>
    <clipPath id="terminal-935384917-clip-terminal">
      <rect x="0" y="0" width="975.0" height="584.5999999999999" />
    </clipPath>
    <clipPath id="terminal-935384917-line-0">
    <rect x="0" y="1.5" width="976" height="24.65"/>
            </clipPath>
<clipPath id="terminal-935384917-line-1">
    <rect x="0" y="25.9" width="976" height="24.65"/>
            </clipPath>
<clipPath id="terminal-935384917-line-2">
    <rect x="0" y="50.3" width="976" height="24.65"/>
            </clipPath>
<clipPath id="terminal-935384917-line-3">
    <rect x="0" y="74.7" width="976" height="24.65"/>
            </clipPath>
<clipPath id="terminal-935384917-line-4">
    <rect x="0" y="99.1" width="976" height="24.65"/>
            </clipPath>
<clipPath id="terminal-935384917-line-5">
    <rect x="0" y="123.5" width="976" height="24.65"/>
            </clipPath>
<clipPath id="terminal-935384917-line-6">
    <rect x="0" y="147.9" width="976" height="24.65"/>
            </clipPath>
<clipPath id="terminal-935384917-line-7">
    <rect x="0" y="172.3" width="976" height="24.65"/>
            </clipPath>
<clipPath id="terminal-935384917-line-8">
    <rect x="0" y="196.7" width="976" height="24.65"/>
            </clipPath>
<clipPath id="terminal-935384917-line-9">
    <rect x="0" y="221.1" width="976" height="24.65"/>
            </clipPath>
<clipPath id="terminal-935384917-line-10">
    <rect x="0" y="245.5" width="976" height="24.65"/>
            </clipPath>
<clipPath id="terminal-935384917-line-11">
    <rect x="0" y="269.9" width="976" height="24.65"/>
            </clipPath>
<clipPath id="terminal-935384917-line-12">
    <rect x="0" y="294.3" width="976" height="24.65"/>
            </clipPath>
<clipPath id="terminal-935384917-line-13">
    <rect x="0" y="318.7" width="976" height="24.65"/>
            </clipPath>
<clipPath id="terminal-935384917-line-14">
    <rect x="0" y="343.1" width="976" height="24.65"/>
            </clipPath>
<clipPath id="terminal-935384917-line-15">
    <rect x="0" y="367.5" width="976" height="24.65"/>
            </clipPath>
<clipPath id="terminal-935384917-line-16">
    <rect x="0" y="391.9" width="976" height="24.65"/>
            </clipPath>
<clipPath id="terminal-935384917-line-17">
    <rect x="0" y="416.3" width="976" height="24.65"/>
            </clipPath>
<clipPath id="terminal-935384917-line-18">
    <rect x="0" y="440.7" width="976" height="24.65"/>
            </clipPath>
<clipPath id="terminal-935384917-line-19">
    <rect x="0" y="465.1" width="976" height="24.65"/>
            </clipPath>
<clipPath id="terminal-935384917-line-20">
    <rect x="0" y="489.5" width="976" height="24.65"/>
            </clipPath>
<clipPath id="terminal-935384917-line-21">
    <rect x="0" y="513.9" width="976" height="24.65"/>
            </clipPath>
<clipPath id="terminal-935384917-line-22">
    <rect x="0" y="538.3" width="976" height="24.65"/>
            </clipPath>
    </defs>

    <rect fill="#292929" stroke="rgba(255,255,255,0.35)" stroke-width="1" x="1" y="1" width="992" height="633.6" rx="8"/><text class="terminal-935384917-title" fill="#c5c8c6" text-anchor="middle" x="496" y="27">Moon&#160;Traveler&#160;Terminal</text>
            <g transform="translate(26,22)">
            <circle cx="0" cy="0" r="7" fill="#ff5f57"/>
            <circle cx="22" cy="0" r="7" fill="#febc2e"/>
            <circle cx="44" cy="0" r="7" fill="#28c840"/>
            </g>

    <g transform="translate(9, 41)" clip-path="url(#terminal-935384917-clip-terminal)">
    <rect fill="#111525" x="0" y="1.5" width="24.4" height="24.65" shape-rendering="crispEdges"/><rect fill="#111525" x="24.4" y="1.5" width="268.4" height="24.65" shape-rendering="crispEdges"/><rect fill="#111525" x="292.8" y="1.5" width="658.8" height="24.65" shape-rendering="crispEdges"/><rect fill="#111525" x="951.6" y="1.5" width="24.4" height="24.65" shape-rendering="crispEdges"/><rect fill="#0a0d18" x="0" y="25.9" width="12.2" height="24.65" shape-rendering="crispEdges"/><rect fill="#0a0d18" x="12.2" y="25.9" width="12.2" height="24.65" shape-rendering="crispEdges"/><rect fill="#0a0d18" x="24.4" y="25.9" width="12.2" height="24.65" shape-rendering="crispEdges"/><rect fill="#0a0d18" x="36.6" y="25.9" width="244" height="24.65" shape-rendering="crispEdges"/><rect fill="#0a0d18" x="280.6" y="25.9" width="12.2" height="24.65" shape-rendering="crispEdges"/><rect fill="#0a0d18" x="292.8" y="25.9" width="12.2" height="24.65" shape-rendering="crispEdges"/><rect fill="#0a0d18" x="305" y="25.9" width="12.2" height="24.65" shape-rendering="crispEdges"/><rect fill="#0a0d18" x="317.2" y="25.9" width="170.8" height="24.65" shape-rendering="crispEdges"/><rect fill="#0a0d18" x="488" y="25.9" width="12.2" height="24.65" shape-rendering="crispEdges"/><rect fill="#0a0d18" x="500.2" y="25.9" width="12.2" height="24.65" shape-rendering="crispEdges"/><rect fill="#0a0d18" x="512.4" y="25.9" width="427" height="24.65" shape-rendering="crispEdges"/><rect fill="#111525" x="939.4" y="25.9" width="24.4" height="24.65" shape-rendering="crispEdges"/><rect fill="#0a0d18" x="963.8" y="25.9" width="12.2" height="24.65" shape-rendering="crispEdges"/><rect fill="#0a0d18" x="0" y="50.3" width="12.2" height="24.65" shape-rendering="crispEdges"/><rect fill="#0a0d18" x="12.2" y="50.3" width="12.2" height="24.65" shape-rendering="crispEdges"/><rect fill="#0a0d18" x="24.4" y="50.3" width="12.2" height="24.65" shape-rendering="crispEdges"/><rect fill="#0a0d18" x="36.6" y="50.3" width="244" height="24.65" shape-rendering="crispEdges"/><rect fill="#0a0d18" x="280.6" y="50.3" width="12.2" height="24.65" shape-rendering="crispEdges"/><rect fill="#0a0d18" x="292.8" y="50.3" width="12.2" height="24.65" shape-rendering="crispEdges"/><rect fill="#0a0d18" x="305" y="50.3" width="12.2" height="24.65" shape-rendering="crispEdges"/><rect fill="#0a0d18" x="317.2" y="50.3" width="170.8" height="24.65" shape-rendering="crispEdges"/><rect fill="#0a0d18" x="488" y="50.3" width="12.2" height="24.65" shape-rendering="crispEdges"/><rect fill="#0a0d18" x="500.2" y="50.3" width="12.2" height="24.65" shape-rendering="crispEdges"/><rect fill="#0a0d18" x="512.4" y="50.3" width="427" height="24.65" shape-rendering="crispEdges"/><rect fill="#111525" x="939.4" y="50.3" width="24.4" height="24.65" shape-rendering="crispEdges"/><rect fill="#0a0d18" x="963.8" y="50.3" width="12.2" height="24.65" shape-rendering="crispEdges"/><rect fill="#0a0d18" x="0" y="74.7" width="12.2" height="24.65" shape-rendering="crispEdges"/><rect fill="#0a0d18" x="12.2" y="74.7" width="12.2" height="24.65" shape-rendering="crispEdges"/><rect fill="#0a0d18" x="24.4" y="74.7" width="12.2" height="24.65" shape-rendering="crispEdges"/><rect fill="#0a0d18" x="36.6" y="74.7" width="244" height="24.65" shape-rendering="crispEdges"/><rect fill="#0a0d18" x="280.6" y="74.7" width="12.2" height="24.65" shape-rendering="crispEdges"/><rect fill="#0a0d18" x="292.8" y="74.7" width="12.2" height="24.65" shape-rendering="crispEdges"/><rect fill="#0a0d18" x="305" y="74.7" width="12.2" height="24.65" shape-rendering="crispEdges"/><rect fill="#0a0d18" x="317.2" y="74.7" width="170.8" height="24.65" shape-rendering="crispEdges"/><rect fill="#0a0d18" x="488" y="74.7" width="12.2" height="24.65" shape-rendering="crispEdges"/><rect fill="#0a0d18" x="500.2" y="74.7" width="12.2" height="24.65" shape-rendering="crispEdges"/><rect fill="#0a0d18" x="512.4" y="74.7" width="427" height="24.65" shape-rendering="crispEdges"/><rect fill="#111525" x="939.4" y="74.7" width="24.4" height="24.65" shape-rendering="crispEdges"/><rect fill="#0a0d18" x="963.8" y="74.7" width="12.2" height="24.65" shape-rendering="crispEdges"/><rect fill="#0a0d18" x="0" y="99.1" width="12.2" height="24.65" shape-rendering="crispEdges"/><rect fill="#0a0d18" x="12.2" y="99.1" width="12.2" height="24.65" shape-rendering="crispEdges"/><rect fill="#0a0d18" x="24.4" y="99.1" width="12.2" height="24.65" shape-rendering="crispEdges"/><rect fill="#0a0d18" x="36.6" y="99.1" width="244" height="24.65" shape-rendering="crispEdges"/><rect fill="#0a0d18" x="280.6" y="99.1" width="12.2" height="24.65" shape-rendering="crispEdges"/><rect fill="#0a0d18" x="292.8" y="99.1" width="12.2" height="24.65" shape-rendering="crispEdges"/><rect fill="#0a0d18" x="305" y="99.1" width="12.2" height="24.65" shape-rendering="crispEdges"/><rect fill="#0a0d18" x="317.2" y="99.1" width="170.8" height="24.65" shape-rendering="crispEdges"/><rect fill="#0a0d18" x="488" y="99.1" width="12.2" height="24.65" shape-rendering="crispEdges"/><rect fill="#0a0d18" x="500.2" y="99.1" width="12.2" height="24.65" shape-rendering="crispEdges"/><rect fill="#0a0d18" x="512.4" y="99.1" width="427" height="24.65" shape-rendering="crispEdges"/><rect fill="#111525" x="939.4" y="99.1" width="24.4" height="24.65" shape-rendering="crispEdges"/><rect fill="#0a0d18" x="963.8" y="99.1" width="12.2" height="24.65" shape-rendering="crispEdges"/><rect fill="#0a0d18" x="0" y="123.5" width="12.2" height="24.65" shape-rendering="crispEdges"/><rect fill="#0a0d18" x="12.2" y="123.5" width="12.2" height="24.65" shape-rendering="crispEdges"/><rect fill="#0a0d18" x="24.4" y="123.5" width="12.2" height="24.65" shape-rendering="crispEdges"/><rect fill="#0a0d18" x="36.6" y="123.5" width="244" height="24.65" shape-rendering="crispEdges"/><rect fill="#0a0d18" x="280.6" y="123.5" width="12.2" height="24.65" shape-rendering="crispEdges"/><rect fill="#0a0d18" x="292.8" y="123.5" width="12.2" height="24.65" shape-rendering="crispEdges"/><rect fill="#0a0d18" x="305" y="123.5" width="12.2" height="24.65" shape-rendering="crispEdges"/><rect fill="#0a0d18" x="317.2" y="123.5" width="170.8" height="24.65" shape-rendering="crispEdges"/><rect fill="#0a0d18" x="488" y="123.5" width="12.2" height="24.65" shape-rendering="crispEdges"/><rect fill="#0a0d18" x="500.2" y="123.5" width="12.2" height="24.65" shape-rendering="crispEdges"/><rect fill="#0a0d18" x="512.4" y="123.5" width="427" height="24.65" shape-rendering="crispEdges"/><rect fill="#111525" x="939.4" y="123.5" width="24.4" height="24.65" shape-rendering="crispEdges"/><rect fill="#0a0d18" x="963.8" y="123.5" width="12.2" height="24.65" shape-rendering="crispEdges"/><rect fill="#0a0d18" x="0" y="147.9" width="12.2" height="24.65" shape-rendering="crispEdges"/><rect fill="#0a0d18" x="12.2" y="147.9" width="12.2" height="24.65" shape-rendering="crispEdges"/><rect fill="#0a0d18" x="24.4" y="147.9" width="12.2" height="24.65" shape-rendering="crispEdges"/><rect fill="#0a0d18" x="36.6" y="147.9" width="244" height="24.65" shape-rendering="crispEdges"/><rect fill="#0a0d18" x="280.6" y="147.9" width="12.2" height="24.65" shape-rendering="crispEdges"/><rect fill="#0a0d18" x="292.8" y="147.9" width="12.2" height="24.65" shape-rendering="crispEdges"/><rect fill="#0a0d18" x="305" y="147.9" width="12.2" height="24.65" shape-rendering="crispEdges"/><rect fill="#0a0d18" x="317.2" y="147.9" width="170.8" height="24.65" shape-rendering="crispEdges"/><rect fill="#0a0d18" x="488" y="147.9" width="12.2" height="24.65" shape-rendering="crispEdges"/><rect fill="#0a0d18" x="500.2" y="147.9" width="12.2" height="24.65" shape-rendering="crispEdges"/><rect fill="#0a0d18" x="512.4" y="147.9" width="427" height="24.65" shape-rendering="crispEdges"/><rect fill="#111525" x="939.4" y="147.9" width="24.4" height="24.65" shape-rendering="crispEdges"/><rect fill="#0a0d18" x="963.8" y="147.9" width="12.2" height="24.65" shape-rendering="crispEdges"/><rect fill="#0a0d18" x="0" y="172.3" width="12.2" height="24.65" shape-rendering="crispEdges"/><rect fill="#0a0d18" x="12.2" y="172.3" width="12.2" height="24.65" shape-rendering="crispEdges"/><rect fill="#0a0d18" x="24.4" y="172.3" width="12.2" height="24.65" shape-rendering="crispEdges"/><rect fill="#0a0d18" x="36.6" y="172.3" width="244" height="24.65" shape-rendering="crispEdges"/><rect fill="#0a0d18" x="280.6" y="172.3" width="12.2" height="24.65" shape-rendering="crispEdges"/><rect fill="#0a0d18" x="292.8" y="172.3" width="12.2" height="24.65" shape-rendering="crispEdges"/><rect fill="#0a0d18" x="305" y="172.3" width="12.2" height="24.65" shape-rendering="crispEdges"/><rect fill="#0a0d18" x="317.2" y="172.3" width="170.8" height="24.65" shape-rendering="crispEdges"/><rect fill="#0a0d18" x="488" y="172.3" width="12.2" height="24.65" shape-rendering="crispEdges"/><rect fill="#0a0d18" x="500.2" y="172.3" width="12.2" height="24.65" shape-rendering="crispEdges"/><rect fill="#0a0d18" x="512.4" y="172.3" width="427" height="24.65" shape-rendering="crispEdges"/><rect fill="#111525" x="939.4" y="172.3" width="24.4" height="24.65" shape-rendering="crispEdges"/><rect fill="#0a0d18" x="963.8" y="172.3" width="12.2" height="24.65" shape-rendering="crispEdges"/><rect fill="#0a0d18" x="0" y="196.7" width="12.2" height="24.65" shape-rendering="crispEdges"/><rect fill="#0a0d18" x="12.2" y="196.7" width="12.2" height="24.65" shape-rendering="crispEdges"/><rect fill="#0a0d18" x="24.4" y="196.7" width="12.2" height="24.65" shape-rendering="crispEdges"/><rect fill="#0a0d18" x="36.6" y="196.7" width="244" height="24.65" shape-rendering="crispEdges"/><rect fill="#0a0d18" x="280.6" y="196.7" width="12.2" height="24.65" shape-rendering="crispEdges"/><rect fill="#0a0d18" x="292.8" y="196.7" width="12.2" height="24.65" shape-rendering="crispEdges"/><rect fill="#0a0d18" x="305" y="196.7" width="12.2" height="24.65" shape-rendering="crispEdges"/><rect fill="#0a0d18" x="317.2" y="196.7" width="36.6" height="24.65" shape-rendering="crispEdges"/><rect fill="#0a0d18" x="353.8" y="196.7" width="134.2" height="24.65" shape-rendering="crispEdges"/><rect fill="#0a0d18" x="488" y="196.7" width="12.2" height="24.65" shape-rendering="crispEdges"/><rect fill="#0a0d18" x="500.2" y="196.7" width="12.2" height="24.65" shape-rendering="crispEdges"/><rect fill="#0a0d18" x="512.4" y="196.7" width="427" height="24.65" shape-rendering="crispEdges"/><rect fill="#111525" x="939.4" y="196.7" width="24.4" height="24.65" shape-rendering="crispEdges"/><rect fill="#0a0d18" x="963.8" y="196.7" width="12.2" height="24.65" shape-rendering="crispEdges"/><rect fill="#0a0d18" x="0" y="221.1" width="12.2" height="24.65" shape-rendering="crispEdges"/><rect fill="#0a0d18" x="12.2" y="221.1" width="12.2" height="24.65" shape-rendering="crispEdges"/><rect fill="#0a0d18" x="24.4" y="221.1" width="12.2" height="24.65" shape-rendering="crispEdges"/><rect fill="#0a0d18" x="36.6" y="221.1" width="244" height="24.65" shape-rendering="crispEdges"/><rect fill="#0a0d18" x="280.6" y="221.1" width="12.2" height="24.65" shape-rendering="crispEdges"/><rect fill="#0a0d18" x="292.8" y="221.1" width="12.2" height="24.65" shape-rendering="crispEdges"/><rect fill="#0a0d18" x="305" y="221.1" width="12.2" height="24.65" shape-rendering="crispEdges"/><rect fill="#0a0d18" x="317.2" y="221.1" width="12.2" height="24.65" shape-rendering="crispEdges"/><rect fill="#0a0d18" x="329.4" y="221.1" width="158.6" height="24.65" shape-rendering="crispEdges"/><rect fill="#0a0d18" x="488" y="221.1" width="12.2" height="24.65" shape-rendering="crispEdges"/><rect fill="#0a0d18" x="500.2" y="221.1" width="12.2" height="24.65" shape-rendering="crispEdges"/><rect fill="#0a0d18" x="512.4" y="221.1" width="427" height="24.65" shape-rendering="crispEdges"/><rect fill="#111525" x="939.4" y="221.1" width="24.4" height="24.65" shape-rendering="crispEdges"/><rect fill="#0a0d18" x="963.8" y="221.1" width="12.2" height="24.65" shape-rendering="crispEdges"/><rect fill="#0a0d18" x="0" y="245.5" width="12.2" height="24.65" shape-rendering="crispEdges"/><rect fill="#0a0d18" x="12.2" y="245.5" width="500.2" height="24.65" shape-rendering="crispEdges"/><rect fill="#0a0d18" x="512.4" y="245.5" width="427" height="24.65" shape-rendering="crispEdges"/><rect fill="#111525" x="939.4" y="245.5" width="24.4" height="24.65" shape-rendering="crispEdges"/><rect fill="#0a0d18" x="963.8" y="245.5" width="12.2" height="24.65" shape-rendering="crispEdges"/><rect fill="#0a0d18" x="0" y="269.9" width="12.2" height="24.65" shape-rendering="crispEdges"/><rect fill="#0a0d18" x="12.2" y="269.9" width="927.2" height="24.65" shape-rendering="crispEdges"/><rect fill="#111525" x="939.4" y="269.9" width="24.4" height="24.65" shape-rendering="crispEdges"/><rect fill="#0a0d18" x="963.8" y="269.9" width="12.2" height="24.65" shape-rendering="crispEdges"/><rect fill="#0a0d18" x="0" y="294.3" width="12.2" height="24.65" shape-rendering="crispEdges"/><rect fill="#0a0d18" x="12.2" y="294.3" width="24.4" height="24.65" shape-rendering="crispEdges"/><rect fill="#0a0d18" x="36.6" y="294.3" width="61" height="24.65" shape-rendering="crispEdges"/><rect fill="#0a0d18" x="97.6" y="294.3" width="12.2" height="24.65" shape-rendering="crispEdges"/><rect fill="#0a0d18" x="109.8" y="294.3" width="805.2" height="24.65" shape-rendering="crispEdges"/><rect fill="#0a0d18" x="915" y="294.3" width="24.4" height="24.65" shape-rendering="crispEdges"/><rect fill="#111525" x="939.4" y="294.3" width="24.4" height="24.65" shape-rendering="crispEdges"/><rect fill="#0a0d18" x="963.8" y="294.3" width="12.2" height="24.65" shape-rendering="crispEdges"/><rect fill="#0a0d18" x="0" y="318.7" width="12.2" height="24.65" shape-rendering="crispEdges"/><rect fill="#0a0d18" x="12.2" y="318.7" width="329.4" height="24.65" shape-rendering="crispEdges"/><rect fill="#0a0d18" x="341.6" y="318.7" width="597.8" height="24.65" shape-rendering="crispEdges"/><rect fill="#111525" x="939.4" y="318.7" width="24.4" height="24.65" shape-rendering="crispEdges"/><rect fill="#0a0d18" x="963.8" y="318.7" width="12.2" height="24.65" shape-rendering="crispEdges"/><rect fill="#0a0d18" x="0" y="343.1" width="12.2" height="24.65" shape-rendering="crispEdges"/><rect fill="#0a0d18" x="12.2" y="343.1" width="927.2" height="24.65" shape-rendering="crispEdges"/><rect fill="#111525" x="939.4" y="343.1" width="24.4" height="24.65" shape-rendering="crispEdges"/><rect fill="#0a0d18" x="963.8" y="343.1" width="12.2" height="24.65" shape-rendering="crispEdges"/><rect fill="#0a0d18" x="0" y="367.5" width="12.2" height="24.65" shape-rendering="crispEdges"/><rect fill="#0a0d18" x="12.2" y="367.5" width="927.2" height="24.65" shape-rendering="crispEdges"/><rect fill="#2a3050" x="939.4" y="367.5" width="24.4" height="24.65" shape-rendering="crispEdges"/><rect fill="#0a0d18" x="963.8" y="367.5" width="12.2" height="24.65" shape-rendering="crispEdges"/><rect fill="#0a0d18" x="0" y="391.9" width="12.2" height="24.65" shape-rendering="crispEdges"/><rect fill="#2a3050" x="12.2" y="391.9" width="12.2" height="24.65" shape-rendering="crispEdges"/><rect fill="#2a3050" x="24.4" y="391.9" width="12.2" height="24.65" shape-rendering="crispEdges"/><rect fill="#2a3050" x="36.6" y="391.9" width="12.2" height="24.65" shape-rendering="crispEdges"/><rect fill="#2a3050" x="48.8" y="391.9" width="12.2" height="24.65" shape-rendering="crispEdges"/><rect fill="#2a3050" x="61" y="391.9" width="12.2" height="24.65" shape-rendering="crispEdges"/><rect fill="#2a3050" x="73.2" y="391.9" width="12.2" height="24.65" shape-rendering="crispEdges"/><rect fill="#2a3050" x="85.4" y="391.9" width="12.2" height="24.65" shape-rendering="crispEdges"/><rect fill="#2a3050" x="97.6" y="391.9" width="12.2" height="24.65" shape-rendering="crispEdges"/><rect fill="#2a3050" x="109.8" y="391.9" width="12.2" height="24.65" shape-rendering="crispEdges"/><rect fill="#2a3050" x="122" y="391.9" width="12.2" height="24.65" shape-rendering="crispEdges"/><rect fill="#2a3050" x="134.2" y="391.9" width="12.2" height="24.65" shape-rendering="crispEdges"/><rect fill="#2a3050" x="146.4" y="391.9" width="12.2" height="24.65" shape-rendering="crispEdges"/><rect fill="#2a3050" x="158.6" y="391.9" width="12.2" height="24.65" shape-rendering="crispEdges"/><rect fill="#2a3050" x="170.8" y="391.9" width="12.2" height="24.65" shape-rendering="crispEdges"/><rect fill="#2a3050" x="183" y="391.9" width="12.2" height="24.65" shape-rendering="crispEdges"/><rect fill="#2a3050" x="195.2" y="391.9" width="12.2" height="24.65" shape-rendering="crispEdges"/><rect fill="#2a3050" x="207.4" y="391.9" width="12.2" height="24.65" shape-rendering="crispEdges"/><rect fill="#2a3050" x="219.6" y="391.9" width="12.2" height="24.65" shape-rendering="crispEdges"/><rect fill="#2a3050" x="231.8" y="391.9" width="12.2" height="24.65" shape-rendering="crispEdges"/><rect fill="#2a3050" x="244" y="391.9" width="12.2" height="24.65" shape-rendering="crispEdges"/><rect fill="#2a3050" x="256.2" y="391.9" width="12.2" height="24.65" shape-rendering="crispEdges"/><rect fill="#2a3050" x="268.4" y="391.9" width="12.2" height="24.65" shape-rendering="crispEdges"/><rect fill="#2a3050" x="280.6" y="391.9" width="12.2" height="24.65" shape-rendering="crispEdges"/><rect fill="#2a3050" x="292.8" y="391.9" width="12.2" height="24.65" shape-rendering="crispEdges"/><rect fill="#2a3050" x="305" y="391.9" width="12.2" height="24.65" shape-rendering="crispEdges"/><rect fill="#2a3050" x="317.2" y="391.9" width="12.2" height="24.65" shape-rendering="crispEdges"/><rect fill="#2a3050" x="329.4" y="391.9" width="12.2" height="24.65" shape-rendering="crispEdges"/><rect fill="#2a3050" x="341.6" y="391.9" width="12.2" height="24.65" shape-rendering="crispEdges"/><rect fill="#2a3050" x="353.8" y="391.9" width="12.2" height="24.65" shape-rendering="crispEdges"/><rect fill="#2a3050" x="366" y="391.9" width="12.2" height="24.65" shape-rendering="crispEdges"/><rect fill="#2a3050" x="378.2" y="391.9" width="12.2" height="24.65" shape-rendering="crispEdges"/><rect fill="#2a3050" x="390.4" y="391.9" width="12.2" height="24.65" shape-rendering="crispEdges"/><rect fill="#2a3050" x="402.6" y="391.9" width="12.2" height="24.65" shape-rendering="crispEdges"/><rect fill="#2a3050" x="414.8" y="391.9" width="12.2" height="24.65" shape-rendering="crispEdges"/><rect fill="#2a3050" x="427" y="391.9" width="12.2" height="24.65" shape-rendering="crispEdges"/><rect fill="#2a3050" x="439.2" y="391.9" width="12.2" height="24.65" shape-rendering="crispEdges"/><rect fill="#2a3050" x="451.4" y="391.9" width="12.2" height="24.65" shape-rendering="crispEdges"/><rect fill="#2a3050" x="463.6" y="391.9" width="12.2" height="24.65" shape-rendering="crispEdges"/><rect fill="#2a3050" x="475.8" y="391.9" width="12.2" height="24.65" shape-rendering="crispEdges"/><rect fill="#2a3050" x="488" y="391.9" width="12.2" height="24.65" shape-rendering="crispEdges"/><rect fill="#2a3050" x="500.2" y="391.9" width="12.2" height="24.65" shape-rendering="crispEdges"/><rect fill="#2a3050" x="512.4" y="391.9" width="12.2" height="24.65" shape-rendering="crispEdges"/><rect fill="#2a3050" x="524.6" y="391.9" width="12.2" height="24.65" shape-rendering="crispEdges"/><rect fill="#2a3050" x="536.8" y="391.9" width="12.2" height="24.65" shape-rendering="crispEdges"/><rect fill="#2a3050" x="549" y="391.9" width="12.2" height="24.65" shape-rendering="crispEdges"/><rect fill="#2a3050" x="561.2" y="391.9" width="12.2" height="24.65" shape-rendering="crispEdges"/><rect fill="#2a3050" x="573.4" y="391.9" width="12.2" height="24.65" shape-rendering="crispEdges"/><rect fill="#2a3050" x="585.6" y="391.9" width="12.2" height="24.65" shape-rendering="crispEdges"/><rect fill="#2a3050" x="597.8" y="391.9" width="12.2" height="24.65" shape-rendering="crispEdges"/><rect fill="#2a3050" x="610" y="391.9" width="12.2" height="24.65" shape-rendering="crispEdges"/><rect fill="#2a3050" x="622.2" y="391.9" width="12.2" height="24.65" shape-rendering="crispEdges"/><rect fill="#2a3050" x="634.4" y="391.9" width="12.2" height="24.65" shape-rendering="crispEdges"/><rect fill="#2a3050" x="646.6" y="391.9" width="12.2" height="24.65" shape-rendering="crispEdges"/><rect fill="#2a3050" x="658.8" y="391.9" width="12.2" height="24.65" shape-rendering="crispEdges"/><rect fill="#2a3050" x="671" y="391.9" width="12.2" height="24.65" shape-rendering="crispEdges"/><rect fill="#2a3050" x="683.2" y="391.9" width="12.2" height="24.65" shape-rendering="crispEdges"/><rect fill="#2a3050" x="695.4" y="391.9" width="12.2" height="24.65" shape-rendering="crispEdges"/><rect fill="#2a3050" x="707.6" y="391.9" width="12.2" height="24.65" shape-rendering="crispEdges"/><rect fill="#2a3050" x="719.8" y="391.9" width="12.2" height="24.65" shape-rendering="crispEdges"/><rect fill="#2a3050" x="732" y="391.9" width="12.2" height="24.65" shape-rendering="crispEdges"/><rect fill="#2a3050" x="744.2" y="391.9" width="12.2" height="24.65" shape-rendering="crispEdges"/><rect fill="#2a3050" x="756.4" y="391.9" width="12.2" height="24.65" shape-rendering="crispEdges"/><rect fill="#2a3050" x="768.6" y="391.9" width="12.2" height="24.65" shape-rendering="crispEdges"/><rect fill="#2a3050" x="780.8" y="391.9" width="12.2" height="24.65" shape-rendering="crispEdges"/><rect fill="#2a3050" x="793" y="391.9" width="12.2" height="24.65" shape-rendering="crispEdges"/><rect fill="#2a3050" x="805.2" y="391.9" width="12.2" height="24.65" shape-rendering="crispEdges"/><rect fill="#2a3050" x="817.4" y="391.9" width="12.2" height="24.65" shape-rendering="crispEdges"/><rect fill="#2a3050" x="829.6" y="391.9" width="12.2" height="24.65" shape-rendering="crispEdges"/><rect fill="#2a3050" x="841.8" y="391.9" width="12.2" height="24.65" shape-rendering="crispEdges"/><rect fill="#2a3050" x="854" y="391.9" width="12.2" height="24.65" shape-rendering="crispEdges"/><rect fill="#2a3050" x="866.2" y="391.9" width="12.2" height="24.65" shape-rendering="crispEdges"/><rect fill="#2a3050" x="878.4" y="391.9" width="12.2" height="24.65" shape-rendering="crispEdges"/><rect fill="#2a3050" x="890.6" y="391.9" width="12.2" height="24.65" shape-rendering="crispEdges"/><rect fill="#2a3050" x="902.8" y="391.9" width="12.2" height="24.65" shape-rendering="crispEdges"/><rect fill="#111525" x="915" y="391.9" width="12.2" height="24.65" shape-rendering="crispEdges"/><rect fill="#111525" x="927.2" y="391.9" width="12.2" height="24.65" shape-rendering="crispEdges"/><rect fill="#000000" x="939.4" y="391.9" width="24.4" height="24.65" shape-rendering="crispEdges"/><rect fill="#0a0d18" x="963.8" y="391.9" width="12.2" height="24.65" shape-rendering="crispEdges"/><rect fill="#0a0d18" x="0" y="416.3" width="24.4" height="24.65" shape-rendering="crispEdges"/><rect fill="#0a0d18" x="24.4" y="416.3" width="73.2" height="24.65" shape-rendering="crispEdges"/><rect fill="#0a0d18" x="97.6" y="416.3" width="12.2" height="24.65" shape-rendering="crispEdges"/><rect fill="#0a0d18" x="109.8" y="416.3" width="634.4" height="24.65" shape-rendering="crispEdges"/><rect fill="#0a0d18" x="744.2" y="416.3" width="207.4" height="24.65" shape-rendering="crispEdges"/><rect fill="#0a0d18" x="951.6" y="416.3" width="24.4" height="24.65" shape-rendering="crispEdges"/><rect fill="#0a0d18" x="0" y="440.7" width="24.4" height="24.65" shape-rendering="crispEdges"/><rect fill="#0a0d18" x="24.4" y="440.7" width="927.2" height="24.65" shape-rendering="crispEdges"/><rect fill="#0a0d18" x="951.6" y="440.7" width="24.4" height="24.65" shape-rendering="crispEdges"/><rect fill="#111525" x="0" y="465.1" width="24.4" height="24.65" shape-rendering="crispEdges"/><rect fill="#111525" x="24.4" y="465.1" width="48.8" height="24.65" shape-rendering="crispEdges"/><rect fill="#111525" x="73.2" y="465.1" width="12.2" height="24.65" shape-rendering="crispEdges"/><rect fill="#111525" x="85.4" y="465.1" width="61" height="24.65" shape-rendering="crispEdges"/><rect fill="#111525" x="146.4" y="465.1" width="12.2" height="24.65" shape-rendering="crispEdges"/><rect fill="#111525" x="158.6" y="465.1" width="36.6" height="24.65" shape-rendering="crispEdges"/><rect fill="#111525" x="195.2" y="465.1" width="24.4" height="24.65" shape-rendering="crispEdges"/><rect fill="#111525" x="219.6" y="465.1" width="61" height="24.65" shape-rendering="crispEdges"/><rect fill="#111525" x="280.6" y="465.1" width="12.2" height="24.65" shape-rendering="crispEdges"/><rect fill="#111525" x="292.8" y="465.1" width="48.8" height="24.65" shape-rendering="crispEdges"/><rect fill="#111525" x="341.6" y="465.1" width="12.2" height="24.65" shape-rendering="crispEdges"/><rect fill="#111525" x="353.8" y="465.1" width="12.2" height="24.65" shape-rendering="crispEdges"/><rect fill="#111525" x="366" y="465.1" width="36.6" height="24.65" shape-rendering="crispEdges"/><rect fill="#111525" x="402.6" y="465.1" width="24.4" height="24.65" shape-rendering="crispEdges"/><rect fill="#111525" x="427" y="465.1" width="48.8" height="24.65" shape-rendering="crispEdges"/><rect fill="#111525" x="475.8" y="465.1" width="12.2" height="24.65" shape-rendering="crispEdges"/><rect fill="#111525" x="488" y="465.1" width="48.8" height="24.65" shape-rendering="crispEdges"/><rect fill="#111525" x="536.8" y="465.1" width="12.2" height="24.65" shape-rendering="crispEdges"/><rect fill="#111525" x="549" y="465.1" width="12.2" height="24.65" shape-rendering="crispEdges"/><rect fill="#111525" x="561.2" y="465.1" width="36.6" height="24.65" shape-rendering="crispEdges"/><rect fill="#111525" x="597.8" y="465.1" width="24.4" height="24.65" shape-rendering="crispEdges"/><rect fill="#111525" x="622.2" y="465.1" width="48.8" height="24.65" shape-rendering="crispEdges"/><rect fill="#111525" x="671" y="465.1" width="12.2" height="24.65" shape-rendering="crispEdges"/><rect fill="#111525" x="683.2" y="465.1" width="36.6" height="24.65" shape-rendering="crispEdges"/><rect fill="#111525" x="719.8" y="465.1" width="24.4" height="24.65" shape-rendering="crispEdges"/><rect fill="#111525" x="744.2" y="465.1" width="12.2" height="24.65" shape-rendering="crispEdges"/><rect fill="#111525" x="756.4" y="465.1" width="36.6" height="24.65" shape-rendering="crispEdges"/><rect fill="#111525" x="793" y="465.1" width="158.6" height="24.65" shape-rendering="crispEdges"/><rect fill="#111525" x="951.6" y="465.1" width="24.4" height="24.65" shape-rendering="crispEdges"/><rect fill="#111525" x="0" y="489.5" width="24.4" height="24.65" shape-rendering="crispEdges"/><rect fill="#111525" x="24.4" y="489.5" width="97.6" height="24.65" shape-rendering="crispEdges"/><rect fill="#111525" x="122" y="489.5" width="24.4" height="24.65" shape-rendering="crispEdges"/><rect fill="#111525" x="146.4" y="489.5" width="97.6" height="24.65" shape-rendering="crispEdges"/><rect fill="#111525" x="244" y="489.5" width="24.4" height="24.65" shape-rendering="crispEdges"/><rect fill="#111525" x="268.4" y="489.5" width="48.8" height="24.65" shape-rendering="crispEdges"/><rect fill="#111525" x="317.2" y="489.5" width="634.4" height="24.65" shape-rendering="crispEdges"/><rect fill="#111525" x="951.6" y="489.5" width="24.4" height="24.65" shape-rendering="crispEdges"/><rect fill="#0e1122" x="0" y="513.9" width="12.2" height="24.65" shape-rendering="crispEdges"/><rect fill="#0e1122" x="12.2" y="513.9" width="256.2" height="24.65" shape-rendering="crispEdges"/><rect fill="#0e1122" x="268.4" y="513.9" width="12.2" height="24.65" shape-rendering="crispEdges"/><rect fill="#181b2b" x="280.6" y="513.9" width="24.4" height="24.65" shape-rendering="crispEdges"/><rect fill="#181b2b" x="305" y="513.9" width="195.2" height="24.65" shape-rendering="crispEdges"/><rect fill="#181b2b" x="500.2" y="513.9" width="439.2" height="24.65" shape-rendering="crispEdges"/><rect fill="#181b2b" x="939.4" y="513.9" width="24.4" height="24.65" shape-rendering="crispEdges"/><rect fill="#0e1122" x="963.8" y="513.9" width="12.2" height="24.65" shape-rendering="crispEdges"/><rect fill="#0e1122" x="0" y="538.3" width="12.2" height="24.65" shape-rendering="crispEdges"/><rect fill="#0e1122" x="12.2" y="538.3" width="268.4" height="24.65" shape-rendering="crispEdges"/><rect fill="#181b2b" x="280.6" y="538.3" width="24.4" height="24.65" shape-rendering="crispEdges"/><rect fill="#181b2b" x="305" y="538.3" width="634.4" height="24.65" shape-rendering="crispEdges"/><rect fill="#181b2b" x="939.4" y="538.3" width="24.4" height="24.65" shape-rendering="crispEdges"/><rect fill="#0e1122" x="963.8" y="538.3" width="12.2" height="24.65" shape-rendering="crispEdges"/><rect fill="#0e1122" x="0" y="562.7" width="12.2" height="24.65" shape-rendering="crispEdges"/><rect fill="#0e1122" x="12.2" y="562.7" width="268.4" height="24.65" shape-rendering="crispEdges"/><rect fill="#181b2b" x="280.6" y="562.7" width="24.4" height="24.65" shape-rendering="crispEdges"/><rect fill="#181b2b" x="305" y="562.7" width="634.4" height="24.65" shape-rendering="crispEdges"/><rect fill="#181b2b" x="939.4" y="562.7" width="24.4" height="24.65" shape-rendering="crispEdges"/><rect fill="#0e1122" x="963.8" y="562.7" width="12.2" height="24.65" shape-rendering="crispEdges"/>
    <g class="terminal-935384917-matrix">
    <text class="terminal-935384917-r2" x="24.4" y="20" textLength="268.4" clip-path="url(#terminal-935384917-line-0)">Moon&#160;Traveler&#160;Terminal</text><text class="terminal-935384917-r1" x="976" y="20" textLength="12.2" clip-path="url(#terminal-935384917-line-0)">
</text><text class="terminal-935384917-r3" x="12.2" y="44.4" textLength="12.2" clip-path="url(#terminal-935384917-line-1)">│</text><text class="terminal-935384917-r4" x="36.6" y="44.4" textLength="244" clip-path="url(#terminal-935384917-line-1)">Creatures&#160;befriended</text><text class="terminal-935384917-r3" x="292.8" y="44.4" textLength="12.2" clip-path="url(#terminal-935384917-line-1)">│</text><text class="terminal-935384917-r5" x="317.2" y="44.4" textLength="170.8" clip-path="url(#terminal-935384917-line-1)">5&#160;(trust&#160;&gt;&#160;50)</text><text class="terminal-935384917-r3" x="500.2" y="44.4" textLength="12.2" clip-path="url(#terminal-935384917-line-1)">│</text><text class="terminal-935384917-r1" x="976" y="44.4" textLength="12.2" clip-path="url(#terminal-935384917-line-1)">
</text><text class="terminal-935384917-r3" x="12.2" y="68.8" textLength="12.2" clip-path="url(#terminal-935384917-line-2)">│</text><text class="terminal-935384917-r4" x="36.6" y="68.8" textLength="244" clip-path="url(#terminal-935384917-line-2)">Creatures&#160;talked&#160;to&#160;</text><text class="terminal-935384917-r3" x="292.8" y="68.8" textLength="12.2" clip-path="url(#terminal-935384917-line-2)">│</text><text class="terminal-935384917-r5" x="317.2" y="68.8" textLength="170.8" clip-path="url(#terminal-935384917-line-2)">1&#160;&#160;&#160;&#160;&#160;&#160;&#160;&#160;&#160;&#160;&#160;&#160;&#160;</text><text class="terminal-935384917-r3" x="500.2" y="68.8" textLength="12.2" clip-path="url(#terminal-935384917-line-2)">│</text><text class="terminal-935384917-r1" x="976" y="68.8" textLength="12.2" clip-path="url(#terminal-935384917-line-2)">
</text><text class="terminal-935384917-r3" x="12.2" y="93.2" textLength="12.2" clip-path="url(#terminal-935384917-line-3)">│</text><text class="terminal-935384917-r4" x="36.6" y="93.2" textLength="244" clip-path="url(#terminal-935384917-line-3)">Hazards&#160;survived&#160;&#160;&#160;&#160;</text><text class="terminal-935384917-r3" x="292.8" y="93.2" textLength="12.2" clip-path="url(#terminal-935384917-line-3)">│</text><text class="terminal-935384917-r5" x="317.2" y="93.2" textLength="170.8" clip-path="url(#terminal-935384917-line-3)">1&#160;&#160;&#160;&#160;&#160;&#160;&#160;&#160;&#160;&#160;&#160;&#160;&#160;</text><text class="terminal-935384917-r3" x="500.2" y="93.2" textLength="12.2" clip-path="url(#terminal-935384917-line-3)">│</text><text class="terminal-935384917-r1" x="976" y="93.2" textLength="12.2" clip-path="url(#terminal-935384917-line-3)">
</text><text class="terminal-935384917-r3" x="12.2" y="117.6" textLength="12.2" clip-path="url(#terminal-935384917-line-4)">│</text><text class="terminal-935384917-r4" x="36.6" y="117.6" textLength="244" clip-path="url(#terminal-935384917-line-4)">Trades&#160;completed&#160;&#160;&#160;&#160;</text><text class="terminal-935384917-r3" x="292.8" y="117.6" textLength="12.2" clip-path="url(#terminal-935384917-line-4)">│</text><text class="terminal-935384917-r5" x="317.2" y="117.6" textLength="170.8" clip-path="url(#terminal-935384917-line-4)">0&#160;&#160;&#160;&#160;&#160;&#160;&#160;&#160;&#160;&#160;&#160;&#160;&#160;</text><text class="terminal-935384917-r3" x="500.2" y="117.6" textLength="12.2" clip-path="url(#terminal-935384917-line-4)">│</text><text class="terminal-935384917-r1" x="976" y="117.6" textLength="12.2" clip-path="url(#terminal-935384917-line-4)">
</text><text class="terminal-935384917-r3" x="12.2" y="142" textLength="12.2" clip-path="url(#terminal-935384917-line-5)">│</text><text class="terminal-935384917-r4" x="36.6" y="142" textLength="244" clip-path="url(#terminal-935384917-line-5)">Gifts&#160;given&#160;&#160;&#160;&#160;&#160;&#160;&#160;&#160;&#160;</text><text class="terminal-935384917-r3" x="292.8" y="142" textLength="12.2" clip-path="url(#terminal-935384917-line-5)">│</text><text class="terminal-935384917-r5" x="317.2" y="142" textLength="170.8" clip-path="url(#terminal-935384917-line-5)">0&#160;&#160;&#160;&#160;&#160;&#160;&#160;&#160;&#160;&#160;&#160;&#160;&#160;</text><text class="terminal-935384917-r3" x="500.2" y="142" textLength="12.2" clip-path="url(#terminal-935384917-line-5)">│</text><text class="terminal-935384917-r1" x="976" y="142" textLength="12.2" clip-path="url(#terminal-935384917-line-5)">
</text><text class="terminal-935384917-r3" x="12.2" y="166.4" textLength="12.2" clip-path="url(#terminal-935384917-line-6)">│</text><text class="terminal-935384917-r4" x="36.6" y="166.4" textLength="244" clip-path="url(#terminal-935384917-line-6)">Items&#160;collected&#160;&#160;&#160;&#160;&#160;</text><text class="terminal-935384917-r3" x="292.8" y="166.4" textLength="12.2" clip-path="url(#terminal-935384917-line-6)">│</text><text class="terminal-935384917-r5" x="317.2" y="166.4" textLength="170.8" clip-path="url(#terminal-935384917-line-6)">0&#160;&#160;&#160;&#160;&#160;&#160;&#160;&#160;&#160;&#160;&#160;&#160;&#160;</text><text class="terminal-935384917-r3" x="500.2" y="166.4" textLength="12.2" clip-path="url(#terminal-935384917-line-6)">│</text><text class="terminal-935384917-r1" x="976" y="166.4" textLength="12.2" clip-path="url(#terminal-935384917-line-6)">
</text><text class="terminal-935384917-r3" x="12.2" y="190.8" textLength="12.2" clip-path="url(#terminal-935384917-line-7)">│</text><text class="terminal-935384917-r3" x="292.8" y="190.8" textLength="12.2" clip-path="url(#terminal-935384917-line-7)">│</text><text class="terminal-935384917-r3" x="500.2" y="190.8" textLength="12.2" clip-path="url(#terminal-935384917-line-7)">│</text><text class="terminal-935384917-r1" x="976" y="190.8" textLength="12.2" clip-path="url(#terminal-935384917-line-7)">
</text><text class="terminal-935384917-r3" x="12.2" y="215.2" textLength="12.2" clip-path="url(#terminal-935384917-line-8)">│</text><text class="terminal-935384917-r4" x="36.6" y="215.2" textLength="244" clip-path="url(#terminal-935384917-line-8)">Score&#160;&#160;&#160;&#160;&#160;&#160;&#160;&#160;&#160;&#160;&#160;&#160;&#160;&#160;&#160;</text><text class="terminal-935384917-r3" x="292.8" y="215.2" textLength="12.2" clip-path="url(#terminal-935384917-line-8)">│</text><text class="terminal-935384917-r6" x="317.2" y="215.2" textLength="36.6" clip-path="url(#terminal-935384917-line-8)">625</text><text class="terminal-935384917-r5" x="353.8" y="215.2" textLength="134.2" clip-path="url(#terminal-935384917-line-8)">&#160;/&#160;1000&#160;&#160;&#160;&#160;</text><text class="terminal-935384917-r3" x="500.2" y="215.2" textLength="12.2" clip-path="url(#terminal-935384917-line-8)">│</text><text class="terminal-935384917-r1" x="976" y="215.2" textLength="12.2" clip-path="url(#terminal-935384917-line-8)">
</text><text class="terminal-935384917-r3" x="12.2" y="239.6" textLength="12.2" clip-path="url(#terminal-935384917-line-9)">│</text><text class="terminal-935384917-r4" x="36.6" y="239.6" textLength="244" clip-path="url(#terminal-935384917-line-9)">Grade&#160;&#160;&#160;&#160;&#160;&#160;&#160;&#160;&#160;&#160;&#160;&#160;&#160;&#160;&#160;</text><text class="terminal-935384917-r3" x="292.8" y="239.6" textLength="12.2" clip-path="url(#terminal-935384917-line-9)">│</text><text class="terminal-935384917-r6" x="317.2" y="239.6" textLength="12.2" clip-path="url(#terminal-935384917-line-9)">B</text><text class="terminal-935384917-r3" x="500.2" y="239.6" textLength="12.2" clip-path="url(#terminal-935384917-line-9)">│</text><text class="terminal-935384917-r1" x="976" y="239.6" textLength="12.2" clip-path="url(#terminal-935384917-line-9)">
</text><text class="terminal-935384917-r3" x="12.2" y="264" textLength="500.2" clip-path="url(#terminal-935384917-line-10)">└──────────────────────┴────────────────┘</text><text class="terminal-935384917-r1" x="976" y="264" textLength="12.2" clip-path="url(#terminal-935384917-line-10)">
</text><text class="terminal-935384917-r1" x="976" y="288.4" textLength="12.2" clip-path="url(#terminal-935384917-line-11)">
</text><text class="terminal-935384917-r7" x="36.6" y="312.8" textLength="61" clip-path="url(#terminal-935384917-line-12)">ARIA:</text><text class="terminal-935384917-r8" x="109.8" y="312.8" textLength="805.2" clip-path="url(#terminal-935384917-line-12)">A&#160;respectable&#160;effort.&#160;The&#160;creatures&#160;helped&#160;where&#160;they&#160;could.&#160;Next&#160;</text><text class="terminal-935384917-r1" x="976" y="312.8" textLength="12.2" clip-path="url(#terminal-935384917-line-12)">
</text><text class="terminal-935384917-r8" x="12.2" y="337.2" textLength="329.4" clip-path="url(#terminal-935384917-line-13)">time,&#160;lean&#160;on&#160;them&#160;earlier.</text><text class="terminal-935384917-r1" x="976" y="337.2" textLength="12.2" clip-path="url(#terminal-935384917-line-13)">
</text><text class="terminal-935384917-r9" x="939.4" y="361.6" textLength="24.4" clip-path="url(#terminal-935384917-line-14)">▇▇</text><text class="terminal-935384917-r1" x="976" y="361.6" textLength="12.2" clip-path="url(#terminal-935384917-line-14)">
</text><text class="terminal-935384917-r1" x="976" y="386" textLength="12.2" clip-path="url(#terminal-935384917-line-15)">
</text><text class="terminal-935384917-r9" x="915" y="410.4" textLength="12.2" clip-path="url(#terminal-935384917-line-16)">▏</text><text class="terminal-935384917-r1" x="976" y="410.4" textLength="12.2" clip-path="url(#terminal-935384917-line-16)">
</text><text class="terminal-935384917-r11" x="24.4" y="434.8" textLength="73.2" clip-path="url(#terminal-935384917-line-17)">DRONE:</text><text class="terminal-935384917-r13" x="109.8" y="434.8" textLength="634.4" clip-path="url(#terminal-935384917-line-17)">Minor&#160;interference,&#160;but&#160;the&#160;meaning&#160;should&#160;be&#160;close.</text><text class="terminal-935384917-r1" x="976" y="434.8" textLength="12.2" clip-path="url(#terminal-935384917-line-17)">
</text><text class="terminal-935384917-r1" x="976" y="459.2" textLength="12.2" clip-path="url(#terminal-935384917-line-18)">
</text><text class="terminal-935384917-r14" x="24.4" y="483.6" textLength="48.8" clip-path="url(#terminal-935384917-line-19)">Food</text><text class="terminal-935384917-r14" x="85.4" y="483.6" textLength="61" clip-path="url(#terminal-935384917-line-19)">█████</text><text class="terminal-935384917-r16" x="158.6" y="483.6" textLength="36.6" clip-path="url(#terminal-935384917-line-19)">96%</text><text class="terminal-935384917-r17" x="219.6" y="483.6" textLength="61" clip-path="url(#terminal-935384917-line-19)">Water</text><text class="terminal-935384917-r14" x="292.8" y="483.6" textLength="48.8" clip-path="url(#terminal-935384917-line-19)">████</text><text class="terminal-935384917-r16" x="341.6" y="483.6" textLength="12.2" clip-path="url(#terminal-935384917-line-19)">░</text><text class="terminal-935384917-r16" x="366" y="483.6" textLength="36.6" clip-path="url(#terminal-935384917-line-19)">84%</text><text class="terminal-935384917-r18" x="427" y="483.6" textLength="48.8" clip-path="url(#terminal-935384917-line-19)">Suit</text><text class="terminal-935384917-r14" x="488" y="483.6" textLength="48.8" clip-path="url(#terminal-935384917-line-19)">████</text><text class="terminal-935384917-r16" x="536.8" y="483.6" textLength="12.2" clip-path="url(#terminal-935384917-line-19)">░</text><text class="terminal-935384917-r16" x="561.2" y="483.6" textLength="36.6" clip-path="url(#terminal-935384917-line-19)">84%</text><text class="terminal-935384917-r19" x="622.2" y="483.6" textLength="48.8" clip-path="url(#terminal-935384917-line-19)">Batt</text><text class="terminal-935384917-r14" x="683.2" y="483.6" textLength="36.6" clip-path="url(#terminal-935384917-line-19)">███</text><text class="terminal-935384917-r16" x="719.8" y="483.6" textLength="24.4" clip-path="url(#terminal-935384917-line-19)">░░</text><text class="terminal-935384917-r16" x="756.4" y="483.6" textLength="36.6" clip-path="url(#terminal-935384917-line-19)">51%</text><text class="terminal-935384917-r1" x="976" y="483.6" textLength="12.2" clip-path="url(#terminal-935384917-line-19)">
</text><text class="terminal-935384917-r20" x="24.4" y="508" textLength="97.6" clip-path="url(#terminal-935384917-line-20)">Ship&#160;1/3</text><text class="terminal-935384917-r16" x="146.4" y="508" textLength="97.6" clip-path="url(#terminal-935384917-line-20)">Inv&#160;5/15</text><text class="terminal-935384917-r16" x="268.4" y="508" textLength="48.8" clip-path="url(#terminal-935384917-line-20)">⏱&#160;2h</text><text class="terminal-935384917-r1" x="976" y="508" textLength="12.2" clip-path="url(#terminal-935384917-line-20)">
</text><text class="terminal-935384917-r21" x="12.2" y="532.4" textLength="256.2" clip-path="url(#terminal-935384917-line-21)">Play&#160;again?&#160;(y/n)&#160;&gt;&#160;&#160;</text><text class="terminal-935384917-r22" x="305" y="532.4" textLength="195.2" clip-path="url(#terminal-935384917-line-21)">Enter&#160;command...</text><text class="terminal-935384917-r1" x="976" y="532.4" textLength="12.2" clip-path="url(#terminal-935384917-line-21)">
</text><text class="terminal-935384917-r1" x="976" y="556.8" textLength="12.2" clip-path="url(#terminal-935384917-line-22)">
</text>
    </g>
    </g>
</svg>
