<svg class="rich-terminal" viewBox="0 0 1678 1001.5999999999999" xmlns="http://www.w3.org/2000/svg">
    <!-- Generated with Rich https://www.textualize.io -->
    <style>

    @font-face {
        font-family: "Fira Code";
        src: local("FiraCode-Regular"),
                url("https://cdnjs.cloudflare.com/ajax/libs/firacode/6.2.0/woff2/FiraCode-Regular.woff2") format("woff2"),
                url("https://cdnjs.cloudflare.com/ajax/libs/firacode/6.2.0/woff/FiraCode-Regular.woff") format("woff");
        font-style: normal;
        font-weight: 400;
    }
    @font-face {
        font-family: "Fira Code";
        src: local("FiraCode-Bold"),
                url("https://cdnjs.cloudflare.com/ajax/libs/firacode/6.2.0/woff2/FiraCode-Bold.woff2") format("woff2"),
                url("https://cdnjs.cloudflare.com/ajax/libs/firacode/6.2.0/woff/FiraCode-Bold.woff") format("woff");
        font-style: bold;
        font-weight: 700;
    }

    .terminal-580120135-matrix {
        font-family: Fira Code, monospace;
        font-size: 20px;
        line-height: 24.4px;
        font-variant-east-asian: full-width;
    }

    .terminal-580120135-title {
        font-size: 18px;
        font-weight: bold;
        font-family: arial;
    }

    .terminal-580120135-r1 { fill: #c5c8c6 }
.terminal-580120135-r2 { fill: #c89450;font-weight: bold }
.terminal-580120135-r3 { fill: #e0e0e0 }
.terminal-580120135-r4 { fill: #e0e0e0;font-weight: bold }
.terminal-580120135-r5 { fill: #58d1eb }
.terminal-580120135-r6 { fill: #2a3050 }
.terminal-580120135-r7 { fill: #0a0d18 }
.terminal-580120135-r8 { fill: #97989c }
.terminal-580120135-r9 { fill: #98e024 }
.terminal-580120135-r10 { fill: #f4005f;font-weight: bold }
.terminal-580120135-r11 { fill: #58d1eb;font-weight: bold }
.terminal-580120135-r12 { fill: #c4c5b5 }
.terminal-580120135-r13 { fill: #e0e0e0;font-style: italic; }
.terminal-580120135-r14 { fill: #008000 }
.terminal-580120135-r15 { fill: #8890b0 }
.terminal-580120135-r16 { fill: #5f6680 }
.terminal-580120135-r17 { fill: #00ffff }
.terminal-580120135-r18 { fill: #c89450 }
.terminal-580120135-r19 { fill: #a080d0 }
.terminal-580120135-r20 { fill: #ff0000 }
.terminal-580120135-r21 { fill: #5ca8c8;font-weight: bold }
.terminal-580120135-r22 { fill: #6f717b }
.terminal-580120135-r23 { fill: #b4bcd4 }
    </style>

    <defs>
    <clipPath id="terminal-580120135-clip-terminal">
      <rect x="0" y="0" width="1658.1999999999998" height="950.5999999999999" />
    </clipPath>
    <clipPath id="terminal-580120135-line-0">
    <rect x="0" y="1.5" width="1659.2" height="24.65"/>
            </clipPath>
<clipPath id="terminal-580120135-line-1">
    <rect x="0" y="25.9" width="1659.2" height="24.65"/>
            </clipPath>
<clipPath id="terminal-580120135-line-2">
    <rect x="0" y="50.3" width="1659.2" height="24.65"/>
            </clipPath>
<clipPath id="terminal-580120135-line-3">
    <rect x="0" y="74.7" width="1659.2" height="24.65"/>
            </clipPath>
<clipPath id="terminal-580120135-line-4">
    <rect x="0" y="99.1" width="1659.2" height="24.65"/>
            </clipPath>
<clipPath id="terminal-580120135-line-5">
    <rect x="0" y="123.5" width="1659.2" height="24.65"/>
            </clipPath>
<clipPath id="terminal-580120135-line-6">
    <rect x="0" y="147.9" width="1659.2" height="24.65"/>
            </clipPath>
<clipPath id="terminal-580120135-line-7">
    <rect x="0" y="172.3" width="1659.2" height="24.65"/>
            </clipPath>
<clipPath id="terminal-580120135-line-8">
    <rect x="0" y="196.7" width="1659.2" height="24.65"/>
            </clipPath>
<clipPath id="terminal-580120135-line-9">
    <rect x="0" y="221.1" width="1659.2" height="24.65"/>
            </clipPath>
<clipPath id="terminal-580120135-line-10">
    <rect x="0" y="245.5" width="1659.2" height="24.65"/>
            </clipPath>
<clipPath id="terminal-580120135-line-11">
    <rect x="0" y="269.9" width="1659.2" height="24.65"/>
            </clipPath>
<clipPath id="terminal-580120135-line-12">
    <rect x="0" y="294.3" width="1659.2" height="24.65"/>
            </clipPath>
<clipPath id="terminal-580120135-line-13">
    <rect x="0" y="318.7" width="1659.2" height="24.65"/>
            </clipPath>
<clipPath id="terminal-580120135-line-14">
    <rect x="0" y="343.1" width="1659.2" height="24.65"/>
            </clipPath>
<clipPath id="terminal-580120135-line-15">
    <rect x="0" y="367.5" width="1659.2" height="24.65"/>
            </clipPath>
<clipPath id="terminal-580120135-line-16">
    <rect x="0" y="391.9" width="1659.2" height="24.65"/>
            </clipPath>
<clipPath id="terminal-580120135-line-17">
    <rect x="0" y="416.3" width="1659.2" height="24.65"/>
            </clipPath>
<clipPath id="terminal-580120135-line-18">
    <rect x="0" y="440.7" width="1659.2" height="24.65"/>
            </clipPath>
<clipPath id="terminal-580120135-line-19">
    <rect x="0" y="465.1" width="1659.2" height="24.65"/>
            </clipPath>
<clipPath id="terminal-580120135-line-20">
    <rect x="0" y="489.5" width="1659.2" height="24.65"/>
            </clipPath>
<clipPath id="terminal-580120135-line-21">
    <rect x="0" y="513.9" width="1659.2" height="24.65"/>
            </clipPath>
<clipPath id="terminal-580120135-line-22">
    <rect x="0" y="538.3" width="1659.2" height="24.65"/>
            </clipPath>
<clipPath id="terminal-580120135-line-23">
    <rect x="0" y="562.7" width="1659.2" height="24.65"/>
            </clipPath>
<clipPath id="terminal-580120135-line-24">
    <rect x="0" y="587.1" width="1659.2" height="24.65"/>
            </clipPath>
<clipPath id="terminal-580120135-line-25">
    <rect x="0" y="611.5" width="1659.2" height="24.65"/>
            </clipPath>
<clipPath id="terminal-580120135-line-26">
    <rect x="0" y="635.9" width="1659.2" height="24.65"/>
            </clipPath>
<clipPath id="terminal-580120135-line-27">
    <rect x="0" y="660.3" width="1659.2" height="24.65"/>
            </clipPath>
<clipPath id="terminal-580120135-line-28">
    <rect x="0" y="684.7" width="1659.2" height="24.65"/>
            </clipPath>
<clipPath id="terminal-580120135-line-29">
    <rect x="0" y="709.1" width="1659.2" height="24.65"/>
            </clipPath>
<clipPath id="terminal-580120135-line-30">
    <rect x="0" y="733.5" width="1659.2" height="24.65"/>
            </clipPath>
<clipPath id="terminal-580120135-line-31">
    <rect x="0" y="757.9" width="1659.2" height="24.65"/>
            </clipPath>
<clipPath id="terminal-580120135-line-32">
    <rect x="0" y="782.3" width="1659.2" height="24.65"/>
            </clipPath>
<clipPath id="terminal-580120135-line-33">
    <rect x="0" y="806.7" width="1659.2" height="24.65"/>
            </clipPath>
<clipPath id="terminal-580120135-line-34">
    <rect x="0" y="831.1" width="1659.2" height="24.65"/>
            </clipPath>
<clipPath id="terminal-580120135-line-35">
    <rect x="0" y="855.5" width="1659.2" height="24.65"/>
            </clipPath>
<clipPath id="terminal-580120135-line-36">
    <rect x="0" y="879.9" width="1659.2" height="24.65"/>
            </clipPath>
<clipPath id="terminal-580120135-line-37">
    <rect x="0" y="904.3" width="1659.2" height="24.65"/>
            </clipPath>
    </defs>

    <rect fill="#292929" stroke="rgba(255,255,255,0.35)" stroke-width="1" x="1" y="1" width="1676" height="999.6" rx="8"/><text class="terminal-580120135-title" fill="#c5c8c6" text-anchor="middle" x="838" y="27">Moon&#160;Traveler&#160;Terminal</text>
            <g transform="translate(26,22)">
            <circle cx="0" cy="0" r="7" fill="#ff5f57"/>
            <circle cx="22" cy="0" r="7" fill="#febc2e"/>
            <circle cx="44" cy="0" r="7" fill="#28c840"/>
            </g>
        
    <g transform="translate(9, 41)" clip-path="url(#terminal-580120135-clip-terminal)">
    <rect fill="#111525" x="0" y="1.5" width="24.4" height="24.65" shape-rendering="crispEdges"/><rect fill="#111525" x="24.4" y="1.5" width="268.4" height="24.65" shape-rendering="crispEdges"/><rect fill="#111525" x="292.8" y="1.5" width="1342" height="24.65" shape-rendering="crispEdges"/><rect fill="#111525" x="1634.8" y="1.5" width="24.4" height="24.65" shape-rendering="crispEdges"/><rect fill="#0a0d18" x="0" y="25.9" width="12.2" height="24.65" shape-rendering="crispEdges"/><rect fill="#0a0d18" x="12.2" y="25.9" width="1610.4" height="24.65" shape-rendering="crispEdges"/><rect fill="#111525" x="1622.6" y="25.9" width="24.4" height="24.65" shape-rendering="crispEdges"/><rect fill="#0a0d18" x="1647" y="25.9" width="12.2" height="24.65" shape-rendering="crispEdges"/><rect fill="#0a0d18" x="0" y="50.3" width="12.2" height="24.65" shape-rendering="crispEdges"/><rect fill="#0a0d18" x="12.2" y="50.3" width="231.8" height="24.65" shape-rendering="crispEdges"/><rect fill="#0a0d18" x="244" y="50.3" width="1378.6" height="24.65" shape-rendering="crispEdges"/><rect fill="#111525" x="1622.6" y="50.3" width="24.4" height="24.65" shape-rendering="crispEdges"/><rect fill="#0a0d18" x="1647" y="50.3" width="12.2" height="24.65" shape-rendering="crispEdges"/><rect fill="#0a0d18" x="0" y="74.7" width="12.2" height="24.65" shape-rendering="crispEdges"/><rect fill="#0a0d18" x="12.2" y="74.7" width="24.4" height="24.65" shape-rendering="crispEdges"/><rect fill="#0a0d18" x="36.6" y="74.7" width="12.2" height="24.65" shape-rendering="crispEdges"/><rect fill="#0a0d18" x="48.8" y="74.7" width="195.2" height="24.65" shape-rendering="crispEdges"/><rect fill="#0a0d18" x="244" y="74.7" width="1378.6" height="24.65" shape-rendering="crispEdges"/><rect fill="#111525" x="1622.6" y="74.7" width="24.4" height="24.65" shape-rendering="crispEdges"/><rect fill="#0a0d18" x="1647" y="74.7" width="12.2" height="24.65" shape-rendering="crispEdges"/><rect fill="#0a0d18" x="0" y="99.1" width="12.2" height="24.65" shape-rendering="crispEdges"/><rect fill="#0a0d18" x="12.2" y="99.1" width="24.4" height="24.65" shape-rendering="crispEdges"/><rect fill="#0a0d18" x="36.6" y="99.1" width="12.2" height="24.65" shape-rendering="crispEdges"/><rect fill="#0a0d18" x="48.8" y="99.1" width="256.2" height="24.65" shape-rendering="crispEdges"/><rect fill="#0a0d18" x="305" y="99.1" width="1317.6" height="24.65" shape-rendering="crispEdges"/><rect fill="#111525" x="1622.6" y="99.1" width="24.4" height="24.65" shape-rendering="crispEdges"/><rect fill="#0a0d18" x="1647" y="99.1" width="12.2" height="24.65" shape-rendering="crispEdges"/><rect fill="#0a0d18" x="0" y="123.5" width="12.2" height="24.65" shape-rendering="crispEdges"/><rect fill="#0a0d18" x="12.2" y="123.5" width="24.4" height="24.65" shape-rendering="crispEdges"/><rect fill="#0a0d18" x="36.6" y="123.5" width="12.2" height="24.65" shape-rendering="crispEdges"/><rect fill="#0a0d18" x="48.8" y="123.5" width="219.6" height="24.65" shape-rendering="crispEdges"/><rect fill="#0a0d18" x="268.4" y="123.5" width="1354.2" height="24.65" shape-rendering="crispEdges"/><rect fill="#2a3050" x="1622.6" y="123.5" width="24.4" height="24.65" shape-rendering="crispEdges"/><rect fill="#0a0d18" x="1647" y="123.5" width="12.2" height="24.65" shape-rendering="crispEdges"/><rect fill="#0a0d18" x="0" y="147.9" width="12.2" height="24.65" shape-rendering="crispEdges"/><rect fill="#0a0d18" x="12.2" y="147.9" width="24.4" height="24.65" shape-rendering="crispEdges"/><rect fill="#0a0d18" x="36.6" y="147.9" width="12.2" height="24.65" shape-rendering="crispEdges"/><rect fill="#0a0d18" x="48.8" y="147.9" width="244" height="24.65" shape-rendering="crispEdges"/><rect fill="#0a0d18" x="292.8" y="147.9" width="1329.8" height="24.65" shape-rendering="crispEdges"/><rect fill="#2a3050" x="1622.6" y="147.9" width="24.4" height="24.65" shape-rendering="crispEdges"/><rect fill="#0a0d18" x="1647" y="147.9" width="12.2" height="24.65" shape-rendering="crispEdges"/><rect fill="#0a0d18" x="0" y="172.3" width="12.2" height="24.65" shape-rendering="crispEdges"/><rect fill="#0a0d18" x="12.2" y="172.3" width="902.8" height="24.65" shape-rendering="crispEdges"/><rect fill="#0a0d18" x="915" y="172.3" width="707.6" height="24.65" shape-rendering="crispEdges"/><rect fill="#2a3050" x="1622.6" y="172.3" width="24.4" height="24.65" shape-rendering="crispEdges"/><rect fill="#0a0d18" x="1647" y="172.3" width="12.2" height="24.65" shape-rendering="crispEdges"/><rect fill="#0a0d18" x="0" y="196.7" width="12.2" height="24.65" shape-rendering="crispEdges"/><rect fill="#0a0d18" x="12.2" y="196.7" width="719.8" height="24.65" shape-rendering="crispEdges"/><rect fill="#0a0d18" x="732" y="196.7" width="890.6" height="24.65" shape-rendering="crispEdges"/><rect fill="#2a3050" x="1622.6" y="196.7" width="24.4" height="24.65" shape-rendering="crispEdges"/><rect fill="#0a0d18" x="1647" y="196.7" width="12.2" height="24.65" shape-rendering="crispEdges"/><rect fill="#0a0d18" x="0" y="221.1" width="12.2" height="24.65" shape-rendering="crispEdges"/><rect fill="#0a0d18" x="12.2" y="221.1" width="524.6" height="24.65" shape-rendering="crispEdges"/><rect fill="#0a0d18" x="536.8" y="221.1" width="1085.8" height="24.65" shape-rendering="crispEdges"/><rect fill="#2a3050" x="1622.6" y="221.1" width="24.4" height="24.65" shape-rendering="crispEdges"/><rect fill="#0a0d18" x="1647" y="221.1" width="12.2" height="24.65" shape-rendering="crispEdges"/><rect fill="#0a0d18" x="0" y="245.5" width="12.2" height="24.65" shape-rendering="crispEdges"/><rect fill="#0a0d18" x="12.2" y="245.5" width="500.2" height="24.65" shape-rendering="crispEdges"/><rect fill="#0a0d18" x="512.4" y="245.5" width="1110.2" height="24.65" shape-rendering="crispEdges"/><rect fill="#2a3050" x="1622.6" y="245.5" width="24.4" height="24.65" shape-rendering="crispEdges"/><rect fill="#0a0d18" x="1647" y="245.5" width="12.2" height="24.65" shape-rendering="crispEdges"/><rect fill="#0a0d18" x="0" y="269.9" width="12.2" height="24.65" shape-rendering="crispEdges"/><rect fill="#0a0d18" x="12.2" y="269.9" width="244" height="24.65" shape-rendering="crispEdges"/><rect fill="#0a0d18" x="256.2" y="269.9" width="1366.4" height="24.65" shape-rendering="crispEdges"/><rect fill="#2a3050" x="1622.6" y="269.9" width="24.4" height="24.65" shape-rendering="crispEdges"/><rect fill="#0a0d18" x="1647" y="269.9" width="12.2" height="24.65" shape-rendering="crispEdges"/><rect fill="#0a0d18" x="0" y="294.3" width="12.2" height="24.65" shape-rendering="crispEdges"/><rect fill="#0a0d18" x="12.2" y="294.3" width="744.2" height="24.65" shape-rendering="crispEdges"/><rect fill="#0a0d18" x="756.4" y="294.3" width="866.2" height="24.65" shape-rendering="crispEdges"/><rect fill="#2a3050" x="1622.6" y="294.3" width="24.4" height="24.65" shape-rendering="crispEdges"/><rect fill="#0a0d18" x="1647" y="294.3" width="12.2" height="24.65" shape-rendering="crispEdges"/><rect fill="#0a0d18" x="0" y="318.7" width="12.2" height="24.65" shape-rendering="crispEdges"/><rect fill="#0a0d18" x="12.2" y="318.7" width="488" height="24.65" shape-rendering="crispEdges"/><rect fill="#0a0d18" x="500.2" y="318.7" width="1122.4" height="24.65" shape-rendering="crispEdges"/><rect fill="#2a3050" x="1622.6" y="318.7" width="24.4" height="24.65" shape-rendering="crispEdges"/><rect fill="#0a0d18" x="1647" y="318.7" width="12.2" height="24.65" shape-rendering="crispEdges"/><rect fill="#0a0d18" x="0" y="343.1" width="12.2" height="24.65" shape-rendering="crispEdges"/><rect fill="#0a0d18" x="12.2" y="343.1" width="1610.4" height="24.65" shape-rendering="crispEdges"/><rect fill="#2a3050" x="1622.6" y="343.1" width="24.4" height="24.65" shape-rendering="crispEdges"/><rect fill="#0a0d18" x="1647" y="343.1" width="12.2" height="24.65" shape-rendering="crispEdges"/><rect fill="#0a0d18" x="0" y="367.5" width="12.2" height="24.65" shape-rendering="crispEdges"/><rect fill="#0a0d18" x="12.2" y="367.5" width="1610.4" height="24.65" shape-rendering="crispEdges"/><rect fill="#2a3050" x="1622.6" y="367.5" width="24.4" height="24.65" shape-rendering="crispEdges"/><rect fill="#0a0d18" x="1647" y="367.5" width="12.2" height="24.65" shape-rendering="crispEdges"/><rect fill="#0a0d18" x="0" y="391.9" width="12.2" height="24.65" shape-rendering="crispEdges"/><rect fill="#0a0d18" x="12.2" y="391.9" width="1610.4" height="24.65" shape-rendering="crispEdges"/><rect fill="#2a3050" x="1622.6" y="391.9" width="24.4" height="24.65" shape-rendering="crispEdges"/><rect fill="#0a0d18" x="1647" y="391.9" width="12.2" height="24.65" shape-rendering="crispEdges"/><rect fill="#0a0d18" x="0" y="416.3" width="12.2" height="24.65" shape-rendering="crispEdges"/><rect fill="#0a0d18" x="12.2" y="416.3" width="793" height="24.65" shape-rendering="crispEdges"/><rect fill="#0a0d18" x="805.2" y="416.3" width="817.4" height="24.65" shape-rendering="crispEdges"/><rect fill="#2a3050" x="1622.6" y="416.3" width="24.4" height="24.65" shape-rendering="crispEdges"/><rect fill="#0a0d18" x="1647" y="416.3" width="12.2" height="24.65" shape-rendering="crispEdges"/><rect fill="#0a0d18" x="0" y="440.7" width="12.2" height="24.65" shape-rendering="crispEdges"/><rect fill="#0a0d18" x="12.2" y="440.7" width="927.2" height="24.65" shape-rendering="crispEdges"/><rect fill="#0a0d18" x="939.4" y="440.7" width="683.2" height="24.65" shape-rendering="crispEdges"/><rect fill="#2a3050" x="1622.6" y="440.7" width="24.4" height="24.65" shape-rendering="crispEdges"/><rect fill="#0a0d18" x="1647" y="440.7" width="12.2" height="24.65" shape-rendering="crispEdges"/><rect fill="#0a0d18" x="0" y="465.1" width="12.2" height="24.65" shape-rendering="crispEdges"/><rect fill="#0a0d18" x="12.2" y="465.1" width="939.4" height="24.65" shape-rendering="crispEdges"/><rect fill="#0a0d18" x="951.6" y="465.1" width="671" height="24.65" shape-rendering="crispEdges"/><rect fill="#2a3050" x="1622.6" y="465.1" width="24.4" height="24.65" shape-rendering="crispEdges"/><rect fill="#0a0d18" x="1647" y="465.1" width="12.2" height="24.65" shape-rendering="crispEdges"/><rect fill="#0a0d18" x="0" y="489.5" width="12.2" height="24.65" shape-rendering="crispEdges"/><rect fill="#0a0d18" x="12.2" y="489.5" width="890.6" height="24.65" shape-rendering="crispEdges"/><rect fill="#0a0d18" x="902.8" y="489.5" width="719.8" height="24.65" shape-rendering="crispEdges"/><rect fill="#2a3050" x="1622.6" y="489.5" width="24.4" height="24.65" shape-rendering="crispEdges"/><rect fill="#0a0d18" x="1647" y="489.5" width="12.2" height="24.65" shape-rendering="crispEdges"/><rect fill="#0a0d18" x="0" y="513.9" width="12.2" height="24.65" shape-rendering="crispEdges"/><rect fill="#0a0d18" x="12.2" y="513.9" width="878.4" height="24.65" shape-rendering="crispEdges"/><rect fill="#0a0d18" x="890.6" y="513.9" width="732" height="24.65" shape-rendering="crispEdges"/><rect fill="#2a3050" x="1622.6" y="513.9" width="24.4" height="24.65" shape-rendering="crispEdges"/><rect fill="#0a0d18" x="1647" y="513.9" width="12.2" height="24.65" shape-rendering="crispEdges"/><rect fill="#0a0d18" x="0" y="538.3" width="12.2" height="24.65" shape-rendering="crispEdges"/><rect fill="#0a0d18" x="12.2" y="538.3" width="1610.4" height="24.65" shape-rendering="crispEdges"/><rect fill="#2a3050" x="1622.6" y="538.3" width="24.4" height="24.65" shape-rendering="crispEdges"/><rect fill="#0a0d18" x="1647" y="538.3" width="12.2" height="24.65" shape-rendering="crispEdges"/><rect fill="#0a0d18" x="0" y="562.7" width="12.2" height="24.65" shape-rendering="crispEdges"/><rect fill="#0a0d18" x="12.2" y="562.7" width="658.8" height="24.65" shape-rendering="crispEdges"/><rect fill="#0a0d18" x="671" y="562.7" width="951.6" height="24.65" shape-rendering="crispEdges"/><rect fill="#2a3050" x="1622.6" y="562.7" width="24.4" height="24.65" shape-rendering="crispEdges"/><rect fill="#0a0d18" x="1647" y="562.7" width="12.2" height="24.65" shape-rendering="crispEdges"/><rect fill="#0a0d18" x="0" y="587.1" width="12.2" height="24.65" shape-rendering="crispEdges"/><rect fill="#0a0d18" x="12.2" y="587.1" width="1610.4" height="24.65" shape-rendering="crispEdges"/><rect fill="#2a3050" x="1622.6" y="587.1" width="24.4" height="24.65" shape-rendering="crispEdges"/><rect fill="#0a0d18" x="1647" y="587.1" width="12.2" height="24.65" shape-rendering="crispEdges"/><rect fill="#0a0d18" x="0" y="611.5" width="12.2" height="24.65" shape-rendering="crispEdges"/><rect fill="#0a0d18" x="12.2" y="611.5" width="1610.4" height="24.65" shape-rendering="crispEdges"/><rect fill="#2a3050" x="1622.6" y="611.5" width="24.4" height="24.65" shape-rendering="crispEdges"/><rect fill="#0a0d18" x="1647" y="611.5" width="12.2" height="24.65" shape-rendering="crispEdges"/><rect fill="#0a0d18" x="0" y="635.9" width="12.2" height="24.65" shape-rendering="crispEdges"/><rect fill="#0a0d18" x="12.2" y="635.9" width="73.2" height="24.65" shape-rendering="crispEdges"/><rect fill="#0a0d18" x="85.4" y="635.9" width="12.2" height="24.65" shape-rendering="crispEdges"/><rect fill="#0a0d18" x="97.6" y="635.9" width="488" height="24.65" shape-rendering="crispEdges"/><rect fill="#0a0d18" x="585.6" y="635.9" width="1037" height="24.65" shape-rendering="crispEdges"/><rect fill="#2a3050" x="1622.6" y="635.9" width="24.4" height="24.65" shape-rendering="crispEdges"/><rect fill="#0a0d18" x="1647" y="635.9" width="12.2" height="24.65" shape-rendering="crispEdges"/><rect fill="#0a0d18" x="0" y="660.3" width="12.2" height="24.65" shape-rendering="crispEdges"/><rect fill="#0a0d18" x="12.2" y="660.3" width="1610.4" height="24.65" shape-rendering="crispEdges"/><rect fill="#2a3050" x="1622.6" y="660.3" width="24.4" height="24.65" shape-rendering="crispEdges"/><rect fill="#0a0d18" x="1647" y="660.3" width="12.2" height="24.65" shape-rendering="crispEdges"/><rect fill="#0a0d18" x="0" y="684.7" width="12.2" height="24.65" shape-rendering="crispEdges"/><rect fill="#0a0d18" x="12.2" y="684.7" width="24.4" height="24.65" shape-rendering="crispEdges"/><rect fill="#0a0d18" x="36.6" y="684.7" width="573.4" height="24.65" shape-rendering="crispEdges"/><rect fill="#0a0d18" x="610" y="684.7" width="12.2" height="24.65" shape-rendering="crispEdges"/><rect fill="#0a0d18" x="622.2" y="684.7" width="122" height="24.65" shape-rendering="crispEdges"/><rect fill="#0a0d18" x="744.2" y="684.7" width="170.8" height="24.65" shape-rendering="crispEdges"/><rect fill="#0a0d18" x="915" y="684.7" width="585.6" height="24.65" shape-rendering="crispEdges"/><rect fill="#0a0d18" x="1500.6" y="684.7" width="24.4" height="24.65" shape-rendering="crispEdges"/><rect fill="#0a0d18" x="1525" y="684.7" width="97.6" height="24.65" shape-rendering="crispEdges"/><rect fill="#2a3050" x="1622.6" y="684.7" width="24.4" height="24.65" shape-rendering="crispEdges"/><rect fill="#0a0d18" x="1647" y="684.7" width="12.2" height="24.65" shape-rendering="crispEdges"/><rect fill="#0a0d18" x="0" y="709.1" width="12.2" height="24.65" shape-rendering="crispEdges"/><rect fill="#0a0d18" x="12.2" y="709.1" width="12.2" height="24.65" shape-rendering="crispEdges"/><rect fill="#0a0d18" x="24.4" y="709.1" width="12.2" height="24.65" shape-rendering="crispEdges"/><rect fill="#0a0d18" x="36.6" y="709.1" width="1464" height="24.65" shape-rendering="crispEdges"/><rect fill="#0a0d18" x="1500.6" y="709.1" width="12.2" height="24.65" shape-rendering="crispEdges"/><rect fill="#0a0d18" x="1512.8" y="709.1" width="12.2" height="24.65" shape-rendering="crispEdges"/><rect fill="#0a0d18" x="1525" y="709.1" width="97.6" height="24.65" shape-rendering="crispEdges"/><rect fill="#2a3050" x="1622.6" y="709.1" width="24.4" height="24.65" shape-rendering="crispEdges"/><rect fill="#0a0d18" x="1647" y="709.1" width="12.2" height="24.65" shape-rendering="crispEdges"/><rect fill="#0a0d18" x="0" y="733.5" width="12.2" height="24.65" shape-rendering="crispEdges"/><rect fill="#0a0d18" x="12.2" y="733.5" width="1512.8" height="24.65" shape-rendering="crispEdges"/><rect fill="#0a0d18" x="1525" y="733.5" width="97.6" height="24.65" shape-rendering="crispEdges"/><rect fill="#2a3050" x="1622.6" y="733.5" width="24.4" height="24.65" shape-rendering="crispEdges"/><rect fill="#0a0d18" x="1647" y="733.5" width="12.2" height="24.65" shape-rendering="crispEdges"/><rect fill="#0a0d18" x="0" y="757.9" width="12.2" height="24.65" shape-rendering="crispEdges"/><rect fill="#0a0d18" x="12.2" y="757.9" width="1610.4" height="24.65" shape-rendering="crispEdges"/><rect fill="#2a3050" x="1622.6" y="757.9" width="24.4" height="24.65" shape-rendering="crispEdges"/><rect fill="#0a0d18" x="1647" y="757.9" width="12.2" height="24.65" shape-rendering="crispEdges"/><rect fill="#0a0d18" x="0" y="782.3" width="12.2" height="24.65" shape-rendering="crispEdges"/><rect fill="#0a0d18" x="12.2" y="782.3" width="24.4" height="24.65" shape-rendering="crispEdges"/><rect fill="#0a0d18" x="36.6" y="782.3" width="573.4" height="24.65" shape-rendering="crispEdges"/><rect fill="#0a0d18" x="610" y="782.3" width="12.2" height="24.65" shape-rendering="crispEdges"/><rect fill="#0a0d18" x="622.2" y="782.3" width="122" height="24.65" shape-rendering="crispEdges"/><rect fill="#0a0d18" x="744.2" y="782.3" width="170.8" height="24.65" shape-rendering="crispEdges"/><rect fill="#0a0d18" x="915" y="782.3" width="585.6" height="24.65" shape-rendering="crispEdges"/><rect fill="#0a0d18" x="1500.6" y="782.3" width="24.4" height="24.65" shape-rendering="crispEdges"/><rect fill="#0a0d18" x="1525" y="782.3" width="97.6" height="24.65" shape-rendering="crispEdges"/><rect fill="#2a3050" x="1622.6" y="782.3" width="24.4" height="24.65" shape-rendering="crispEdges"/><rect fill="#0a0d18" x="1647" y="782.3" width="12.2" height="24.65" shape-rendering="crispEdges"/><rect fill="#0a0d18" x="0" y="806.7" width="12.2" height="24.65" shape-rendering="crispEdges"/><rect fill="#0a0d18" x="12.2" y="806.7" width="12.2" height="24.65" shape-rendering="crispEdges"/><rect fill="#0a0d18" x="24.4" y="806.7" width="12.2" height="24.65" shape-rendering="crispEdges"/><rect fill="#0a0d18" x="36.6" y="806.7" width="1464" height="24.65" shape-rendering="crispEdges"/><rect fill="#0a0d18" x="1500.6" y="806.7" width="12.2" height="24.65" shape-rendering="crispEdges"/><rect fill="#0a0d18" x="1512.8" y="806.7" width="12.2" height="24.65" shape-rendering="crispEdges"/><rect fill="#0a0d18" x="1525" y="806.7" width="97.6" height="24.65" shape-rendering="crispEdges"/><rect fill="#2a3050" x="1622.6" y="806.7" width="24.4" height="24.65" shape-rendering="crispEdges"/><rect fill="#0a0d18" x="1647" y="806.7" width="12.2" height="24.65" shape-rendering="crispEdges"/><rect fill="#0a0d18" x="0" y="831.1" width="12.2" height="24.65" shape-rendering="crispEdges"/><rect fill="#0a0d18" x="12.2" y="831.1" width="1512.8" height="24.65" shape-rendering="crispEdges"/><rect fill="#0a0d18" x="1525" y="831.1" width="97.6" height="24.65" shape-rendering="crispEdges"/><rect fill="#2a3050" x="1622.6" y="831.1" width="24.4" height="24.65" shape-rendering="crispEdges"/><rect fill="#0a0d18" x="1647" y="831.1" width="12.2" height="24.65" shape-rendering="crispEdges"/><rect fill="#111525" x="0" y="855.5" width="24.4" height="24.65" shape-rendering="crispEdges"/><rect fill="#111525" x="24.4" y="855.5" width="48.8" height="24.65" shape-rendering="crispEdges"/><rect fill="#111525" x="73.2" y="855.5" width="12.2" height="24.65" shape-rendering="crispEdges"/><rect fill="#111525" x="85.4" y="855.5" width="61" height="24.65" shape-rendering="crispEdges"/><rect fill="#111525" x="146.4" y="855.5" width="12.2" height="24.65" shape-rendering="crispEdges"/><rect fill="#111525" x="158.6" y="855.5" width="48.8" height="24.65" shape-rendering="crispEdges"/><rect fill="#111525" x="207.4" y="855.5" width="24.4" height="24.65" shape-rendering="crispEdges"/><rect fill="#111525" x="231.8" y="855.5" width="61" height="24.65" shape-rendering="crispEdges"/><rect fill="#111525" x="292.8" y="855.5" width="12.2" height="24.65" shape-rendering="crispEdges"/><rect fill="#111525" x="305" y="855.5" width="61" height="24.65" shape-rendering="crispEdges"/><rect fill="#111525" x="366" y="855.5" width="12.2" height="24.65" shape-rendering="crispEdges"/><rect fill="#111525" x="378.2" y="855.5" width="48.8" height="24.65" shape-rendering="crispEdges"/><rect fill="#111525" x="427" y="855.5" width="24.4" height="24.65" shape-rendering="crispEdges"/><rect fill="#111525" x="451.4" y="855.5" width="48.8" height="24.65" shape-rendering="crispEdges"/><rect fill="#111525" x="500.2" y="855.5" width="12.2" height="24.65" shape-rendering="crispEdges"/><rect fill="#111525" x="512.4" y="855.5" width="61" height="24.65" shape-rendering="crispEdges"/><rect fill="#111525" x="573.4" y="855.5" width="12.2" height="24.65" shape-rendering="crispEdges"/><rect fill="#111525" x="585.6" y="855.5" width="48.8" height="24.65" shape-rendering="crispEdges"/><rect fill="#111525" x="634.4" y="855.5" width="24.4" height="24.65" shape-rendering="crispEdges"/><rect fill="#111525" x="658.8" y="855.5" width="48.8" height="24.65" shape-rendering="crispEdges"/><rect fill="#111525" x="707.6" y="855.5" width="12.2" height="24.65" shape-rendering="crispEdges"/><rect fill="#111525" x="719.8" y="855.5" width="73.2" height="24.65" shape-rendering="crispEdges"/><rect fill="#111525" x="793" y="855.5" width="12.2" height="24.65" shape-rendering="crispEdges"/><rect fill="#111525" x="805.2" y="855.5" width="48.8" height="24.65" shape-rendering="crispEdges"/><rect fill="#111525" x="854" y="855.5" width="24.4" height="24.65" shape-rendering="crispEdges"/><rect fill="#111525" x="878.4" y="855.5" width="97.6" height="24.65" shape-rendering="crispEdges"/><rect fill="#111525" x="976" y="855.5" width="24.4" height="24.65" shape-rendering="crispEdges"/><rect fill="#111525" x="1000.4" y="855.5" width="97.6" height="24.65" shape-rendering="crispEdges"/><rect fill="#111525" x="1098" y="855.5" width="24.4" height="24.65" shape-rendering="crispEdges"/><rect fill="#111525" x="1122.4" y="855.5" width="48.8" height="24.65" shape-rendering="crispEdges"/><rect fill="#111525" x="1171.2" y="855.5" width="463.6" height="24.65" shape-rendering="crispEdges"/><rect fill="#111525" x="1634.8" y="855.5" width="24.4" height="24.65" shape-rendering="crispEdges"/><rect fill="#0e1122" x="0" y="879.9" width="12.2" height="24.65" shape-rendering="crispEdges"/><rect fill="#0e1122" x="12.2" y="879.9" width="158.6" height="24.65" shape-rendering="crispEdges"/><rect fill="#0e1122" x="170.8" y="879.9" width="12.2" height="24.65" shape-rendering="crispEdges"/><rect fill="#181b2b" x="183" y="879.9" width="24.4" height="24.65" shape-rendering="crispEdges"/><rect fill="#181b2b" x="207.4" y="879.9" width="195.2" height="24.65" shape-rendering="crispEdges"/><rect fill="#181b2b" x="402.6" y="879.9" width="1220" height="24.65" shape-rendering="crispEdges"/><rect fill="#181b2b" x="1622.6" y="879.9" width="24.4" height="24.65" shape-rendering="crispEdges"/><rect fill="#0e1122" x="1647" y="879.9" width="12.2" height="24.65" shape-rendering="crispEdges"/><rect fill="#0e1122" x="0" y="904.3" width="12.2" height="24.65" shape-rendering="crispEdges"/><rect fill="#0e1122" x="12.2" y="904.3" width="170.8" height="24.65" shape-rendering="crispEdges"/><rect fill="#181b2b" x="183" y="904.3" width="24.4" height="24.65" shape-rendering="crispEdges"/><rect fill="#181b2b" x="207.4" y="904.3" width="1415.2" height="24.65" shape-rendering="crispEdges"/><rect fill="#181b2b" x="1622.6" y="904.3" width="24.4" height="24.65" shape-rendering="crispEdges"/><rect fill="#0e1122" x="1647" y="904.3" width="12.2" height="24.65" shape-rendering="crispEdges"/><rect fill="#0e1122" x="0" y="928.7" width="12.2" height="24.65" shape-rendering="crispEdges"/><rect fill="#0e1122" x="12.2" y="928.7" width="170.8" height="24.65" shape-rendering="crispEdges"/><rect fill="#181b2b" x="183" y="928.7" width="24.4" height="24.65" shape-rendering="crispEdges"/><rect fill="#181b2b" x="207.4" y="928.7" width="1415.2" height="24.65" shape-rendering="crispEdges"/><rect fill="#181b2b" x="1622.6" y="928.7" width="24.4" height="24.65" shape-rendering="crispEdges"/><rect fill="#0e1122" x="1647" y="928.7" width="12.2" height="24.65" shape-rendering="crispEdges"/>
    <g class="terminal-580120135-matrix">
    <text class="terminal-580120135-r2" x="24.4" y="20" textLength="268.4" clip-path="url(#terminal-580120135-line-0)">Moon&#160;Traveler&#160;Terminal</text><text class="terminal-580120135-r1" x="1659.2" y="20" textLength="12.2" clip-path="url(#terminal-580120135-line-0)">
</text><text class="terminal-580120135-r1" x="1659.2" y="44.4" textLength="12.2" clip-path="url(#terminal-580120135-line-1)">
</text><text class="terminal-580120135-r4" x="12.2" y="68.8" textLength="231.8" clip-path="url(#terminal-580120135-line-2)">Choose&#160;game&#160;length:</text><text class="terminal-580120135-r1" x="1659.2" y="68.8" textLength="12.2" clip-path="url(#terminal-580120135-line-2)">
</text><text class="terminal-580120135-r5" x="36.6" y="93.2" textLength="12.2" clip-path="url(#terminal-580120135-line-3)">1</text><text class="terminal-580120135-r3" x="48.8" y="93.2" textLength="195.2" clip-path="url(#terminal-580120135-line-3)">.&#160;Easy&#160;(~30&#160;min)</text><text class="terminal-580120135-r1" x="1659.2" y="93.2" textLength="12.2" clip-path="url(#terminal-580120135-line-3)">
</text><text class="terminal-580120135-r5" x="36.6" y="117.6" textLength="12.2" clip-path="url(#terminal-580120135-line-4)">2</text><text class="terminal-580120135-r3" x="48.8" y="117.6" textLength="256.2" clip-path="url(#terminal-580120135-line-4)">.&#160;Medium&#160;(~1-2&#160;hours)</text><text class="terminal-580120135-r6" x="1622.6" y="117.6" textLength="24.4" clip-path="url(#terminal-580120135-line-4)">▄▄</text><text class="terminal-580120135-r1" x="1659.2" y="117.6" textLength="12.2" clip-path="url(#terminal-580120135-line-4)">
</text><text class="terminal-580120135-r5" x="36.6" y="142" textLength="12.2" clip-path="url(#terminal-580120135-line-5)">3</text><text class="terminal-580120135-r3" x="48.8" y="142" textLength="219.6" clip-path="url(#terminal-580120135-line-5)">.&#160;Hard&#160;(~3+&#160;hours)</text><text class="terminal-580120135-r1" x="1659.2" y="142" textLength="12.2" clip-path="url(#terminal-580120135-line-5)">
</text><text class="terminal-580120135-r5" x="36.6" y="166.4" textLength="12.2" clip-path="url(#terminal-580120135-line-6)">4</text><text class="terminal-580120135-r3" x="48.8" y="166.4" textLength="244" clip-path="url(#terminal-580120135-line-6)">.&#160;Brutal&#160;(~5+&#160;hours)</text><text class="terminal-580120135-r1" x="1659.2" y="166.4" textLength="12.2" clip-path="url(#terminal-580120135-line-6)">
</text><text class="terminal-580120135-r8" x="12.2" y="190.8" textLength="902.8" clip-path="url(#terminal-580120135-line-7)">Compute&#160;mode:&#160;CPU&#160;only&#160;(change&#160;with&#160;&#x27;config&#160;gpu&#160;cpu&#x27;&#160;or&#160;&#x27;config&#160;gpu&#160;auto&#x27;)</text><text class="terminal-580120135-r1" x="1659.2" y="190.8" textLength="12.2" clip-path="url(#terminal-580120135-line-7)">
</text><text class="terminal-580120135-r5" x="12.2" y="215.2" textLength="719.8" clip-path="url(#terminal-580120135-line-8)">Loading&#160;LLM&#160;model:&#160;gemma-4-E2B-it-Q4_K_M.gguf&#160;(CPU&#160;only)...</text><text class="terminal-580120135-r1" x="1659.2" y="215.2" textLength="12.2" clip-path="url(#terminal-580120135-line-8)">
</text><text class="terminal-580120135-r8" x="12.2" y="239.6" textLength="524.6" clip-path="url(#terminal-580120135-line-9)">(This&#160;may&#160;take&#160;30-60&#160;seconds&#160;on&#160;first&#160;load)</text><text class="terminal-580120135-r1" x="1659.2" y="239.6" textLength="12.2" clip-path="url(#terminal-580120135-line-9)">
</text><text class="terminal-580120135-r9" x="12.2" y="264" textLength="500.2" clip-path="url(#terminal-580120135-line-10)">LLM&#160;model&#160;loaded&#160;successfully!&#160;(CPU&#160;only)</text><text class="terminal-580120135-r1" x="1659.2" y="264" textLength="12.2" clip-path="url(#terminal-580120135-line-10)">
</text><text class="terminal-580120135-r10" x="12.2" y="288.4" textLength="244" clip-path="url(#terminal-580120135-line-11)">SUPER&#160;MODE&#160;ACTIVATED</text><text class="terminal-580120135-r1" x="1659.2" y="288.4" textLength="12.2" clip-path="url(#terminal-580120135-line-11)">
</text><text class="terminal-580120135-r8" x="12.2" y="312.8" textLength="744.2" clip-path="url(#terminal-580120135-line-12)">&#160;&#160;All&#160;creatures&#160;trust&#160;you.&#160;All&#160;repair&#160;materials&#160;in&#160;inventory.</text><text class="terminal-580120135-r1" x="1659.2" y="312.8" textLength="12.2" clip-path="url(#terminal-580120135-line-12)">
</text><text class="terminal-580120135-r8" x="12.2" y="337.2" textLength="488" clip-path="url(#terminal-580120135-line-13)">&#160;&#160;Drone&#160;fully&#160;upgraded.&#160;Resources&#160;maxed.</text><text class="terminal-580120135-r1" x="1659.2" y="337.2" textLength="12.2" clip-path="url(#terminal-580120135-line-13)">
</text><text class="terminal-580120135-r1" x="1659.2" y="361.6" textLength="12.2" clip-path="url(#terminal-580120135-line-14)">
</text><text class="terminal-580120135-r1" x="1659.2" y="386" textLength="12.2" clip-path="url(#terminal-580120135-line-15)">
</text><text class="terminal-580120135-r1" x="1659.2" y="410.4" textLength="12.2" clip-path="url(#terminal-580120135-line-16)">
</text><text class="terminal-580120135-r11" x="12.2" y="434.8" textLength="793" clip-path="url(#terminal-580120135-line-17)">&#160;&#160;&#160;&#160;__&#160;&#160;___&#160;&#160;&#160;&#160;&#160;&#160;&#160;&#160;&#160;&#160;&#160;&#160;&#160;&#160;&#160;&#160;&#160;&#160;&#160;&#160;&#160;______&#160;&#160;&#160;&#160;&#160;&#160;&#160;&#160;&#160;&#160;&#160;&#160;&#160;&#160;&#160;&#160;&#160;&#160;&#160;&#160;&#160;&#160;&#160;&#160;&#160;__</text><text class="terminal-580120135-r1" x="1659.2" y="434.8" textLength="12.2" clip-path="url(#terminal-580120135-line-17)">
</text><text class="terminal-580120135-r11" x="12.2" y="459.2" textLength="927.2" clip-path="url(#terminal-580120135-line-18)">&#160;&#160;&#160;/&#160;&#160;|/&#160;&#160;/____&#160;&#160;&#160;____&#160;&#160;&#160;____&#160;&#160;/_&#160;&#160;__/_____&#160;____&#160;_&#160;_&#160;&#160;&#160;__&#160;___&#160;/&#160;/___&#160;&#160;&#160;_____</text><text class="terminal-580120135-r1" x="1659.2" y="459.2" textLength="12.2" clip-path="url(#terminal-580120135-line-18)">
</text><text class="terminal-580120135-r11" x="12.2" y="483.6" textLength="939.4" clip-path="url(#terminal-580120135-line-19)">&#160;&#160;/&#160;/|_/&#160;//&#160;__&#160;\&#160;/&#160;__&#160;\&#160;/&#160;__&#160;\&#160;&#160;/&#160;/&#160;&#160;/&#160;___//&#160;__&#160;`/|&#160;|&#160;/&#160;//&#160;_&#160;\/&#160;//&#160;_&#160;\&#160;/&#160;___/</text><text class="terminal-580120135-r1" x="1659.2" y="483.6" textLength="12.2" clip-path="url(#terminal-580120135-line-19)">
</text><text class="terminal-580120135-r11" x="12.2" y="508" textLength="890.6" clip-path="url(#terminal-580120135-line-20)">&#160;/&#160;/&#160;&#160;/&#160;//&#160;/_/&#160;//&#160;/_/&#160;//&#160;/&#160;/&#160;/&#160;/&#160;/&#160;&#160;/&#160;/&#160;&#160;&#160;/&#160;/_/&#160;/&#160;|&#160;|/&#160;//&#160;&#160;__/&#160;//&#160;&#160;__//&#160;/</text><text class="terminal-580120135-r1" x="1659.2" y="508" textLength="12.2" clip-path="url(#terminal-580120135-line-20)">
</text><text class="terminal-580120135-r11" x="12.2" y="532.4" textLength="878.4" clip-path="url(#terminal-580120135-line-21)">/_/&#160;&#160;/_/&#160;\____/&#160;\____//_/&#160;/_/&#160;/_/&#160;&#160;/_/&#160;&#160;&#160;&#160;\__,_/&#160;&#160;|___/&#160;\___/_/&#160;\___//_/</text><text class="terminal-580120135-r1" x="1659.2" y="532.4" textLength="12.2" clip-path="url(#terminal-580120135-line-21)">
</text><text class="terminal-580120135-r1" x="1659.2" y="556.8" textLength="12.2" clip-path="url(#terminal-580120135-line-22)">
</text><text class="terminal-580120135-r8" x="12.2" y="581.2" textLength="658.8" clip-path="url(#terminal-580120135-line-23)">&#160;&#160;&#160;&#160;&#160;&#160;&#160;&#160;&#160;&#160;&#160;&#160;A&#160;survival&#160;game&#160;on&#160;Saturn&#x27;s&#160;moon&#160;Enceladus</text><text class="terminal-580120135-r1" x="1659.2" y="581.2" textLength="12.2" clip-path="url(#terminal-580120135-line-23)">
</text><text class="terminal-580120135-r1" x="1659.2" y="605.6" textLength="12.2" clip-path="url(#terminal-580120135-line-24)">
</text><text class="terminal-580120135-r1" x="1659.2" y="630" textLength="12.2" clip-path="url(#terminal-580120135-line-25)">
</text><text class="terminal-580120135-r10" x="12.2" y="654.4" textLength="73.2" clip-path="url(#terminal-580120135-line-26)">DRONE:</text><text class="terminal-580120135-r12" x="97.6" y="654.4" textLength="488" clip-path="url(#terminal-580120135-line-26)">Systems&#160;online.&#160;Welcome&#160;back,&#160;Commander.</text><text class="terminal-580120135-r1" x="1659.2" y="654.4" textLength="12.2" clip-path="url(#terminal-580120135-line-26)">
</text><text class="terminal-580120135-r1" x="1659.2" y="678.8" textLength="12.2" clip-path="url(#terminal-580120135-line-27)">
</text><text class="terminal-580120135-r5" x="12.2" y="703.2" textLength="24.4" clip-path="url(#terminal-580120135-line-28)">╭─</text><text class="terminal-580120135-r5" x="36.6" y="703.2" textLength="573.4" clip-path="url(#terminal-580120135-line-28)">───────────────────────────────────────────────</text><text class="terminal-580120135-r11" x="622.2" y="703.2" textLength="122" clip-path="url(#terminal-580120135-line-28)">Crash&#160;Site</text><text class="terminal-580120135-r5" x="744.2" y="703.2" textLength="170.8" clip-path="url(#terminal-580120135-line-28)">&#160;[Crash&#160;Site]&#160;</text><text class="terminal-580120135-r5" x="915" y="703.2" textLength="585.6" clip-path="url(#terminal-580120135-line-28)">────────────────────────────────────────────────</text><text class="terminal-580120135-r5" x="1500.6" y="703.2" textLength="24.4" clip-path="url(#terminal-580120135-line-28)">─╮</text><text class="terminal-580120135-r1" x="1659.2" y="703.2" textLength="12.2" clip-path="url(#terminal-580120135-line-28)">
</text><text class="terminal-580120135-r5" x="12.2" y="727.6" textLength="12.2" clip-path="url(#terminal-580120135-line-29)">│</text><text class="terminal-580120135-r13" x="36.6" y="727.6" textLength="1464" clip-path="url(#terminal-580120135-line-29)">Your&#160;ship&#160;lies&#160;crumpled&#160;in&#160;a&#160;shallow&#160;crater,&#160;venting&#160;steam&#160;into&#160;the&#160;thin&#160;atmosphere.&#160;Debris&#160;is&#160;scattered&#160;across&#160;the&#160;ice.</text><text class="terminal-580120135-r5" x="1512.8" y="727.6" textLength="12.2" clip-path="url(#terminal-580120135-line-29)">│</text><text class="terminal-580120135-r1" x="1659.2" y="727.6" textLength="12.2" clip-path="url(#terminal-580120135-line-29)">
</text><text class="terminal-580120135-r5" x="12.2" y="752" textLength="1512.8" clip-path="url(#terminal-580120135-line-30)">╰──────────────────────────────────────────────────────────────────────────────────────────────────────────────────────────╯</text><text class="terminal-580120135-r1" x="1659.2" y="752" textLength="12.2" clip-path="url(#terminal-580120135-line-30)">
</text><text class="terminal-580120135-r1" x="1659.2" y="776.4" textLength="12.2" clip-path="url(#terminal-580120135-line-31)">
</text><text class="terminal-580120135-r5" x="12.2" y="800.8" textLength="24.4" clip-path="url(#terminal-580120135-line-32)">╭─</text><text class="terminal-580120135-r5" x="36.6" y="800.8" textLength="573.4" clip-path="url(#terminal-580120135-line-32)">───────────────────────────────────────────────</text><text class="terminal-580120135-r11" x="622.2" y="800.8" textLength="122" clip-path="url(#terminal-580120135-line-32)">Crash&#160;Site</text><text class="terminal-580120135-r5" x="744.2" y="800.8" textLength="170.8" clip-path="url(#terminal-580120135-line-32)">&#160;[Crash&#160;Site]&#160;</text><text class="terminal-580120135-r5" x="915" y="800.8" textLength="585.6" clip-path="url(#terminal-580120135-line-32)">────────────────────────────────────────────────</text><text class="terminal-580120135-r5" x="1500.6" y="800.8" textLength="24.4" clip-path="url(#terminal-580120135-line-32)">─╮</text><text class="terminal-580120135-r1" x="1659.2" y="800.8" textLength="12.2" clip-path="url(#terminal-580120135-line-32)">
</text><text class="terminal-580120135-r5" x="12.2" y="825.2" textLength="12.2" clip-path="url(#terminal-580120135-line-33)">│</text><text class="terminal-580120135-r13" x="36.6" y="825.2" textLength="1464" clip-path="url(#terminal-580120135-line-33)">Your&#160;ship&#160;lies&#160;crumpled&#160;in&#160;a&#160;shallow&#160;crater,&#160;venting&#160;steam&#160;into&#160;the&#160;thin&#160;atmosphere.&#160;Debris&#160;is&#160;scattered&#160;across&#160;the&#160;ice.</text><text class="terminal-580120135-r5" x="1512.8" y="825.2" textLength="12.2" clip-path="url(#terminal-580120135-line-33)">│</text><text class="terminal-580120135-r1" x="1659.2" y="825.2" textLength="12.2" clip-path="url(#terminal-580120135-line-33)">
</text><text class="terminal-580120135-r5" x="12.2" y="849.6" textLength="1512.8" clip-path="url(#terminal-580120135-line-34)">╰──────────────────────────────────────────────────────────────────────────────────────────────────────────────────────────╯</text><text class="terminal-580120135-r1" x="1659.2" y="849.6" textLength="12.2" clip-path="url(#terminal-580120135-line-34)">
</text><text class="terminal-580120135-r14" x="24.4" y="874" textLength="48.8" clip-path="url(#terminal-580120135-line-35)">Food</text><text class="terminal-580120135-r14" x="85.4" y="874" textLength="61" clip-path="url(#terminal-580120135-line-35)">█████</text><text class="terminal-580120135-r16" x="158.6" y="874" textLength="48.8" clip-path="url(#terminal-580120135-line-35)">100%</text><text class="terminal-580120135-r17" x="231.8" y="874" textLength="61" clip-path="url(#terminal-580120135-line-35)">Water</text><text class="terminal-580120135-r14" x="305" y="874" textLength="61" clip-path="url(#terminal-580120135-line-35)">█████</text><text class="terminal-580120135-r16" x="378.2" y="874" textLength="48.8" clip-path="url(#terminal-580120135-line-35)">100%</text><text class="terminal-580120135-r18" x="451.4" y="874" textLength="48.8" clip-path="url(#terminal-580120135-line-35)">Suit</text><text class="terminal-580120135-r14" x="512.4" y="874" textLength="61" clip-path="url(#terminal-580120135-line-35)">█████</text><text class="terminal-580120135-r16" x="585.6" y="874" textLength="48.8" clip-path="url(#terminal-580120135-line-35)">100%</text><text class="terminal-580120135-r19" x="658.8" y="874" textLength="48.8" clip-path="url(#terminal-580120135-line-35)">Batt</text><text class="terminal-580120135-r14" x="719.8" y="874" textLength="73.2" clip-path="url(#terminal-580120135-line-35)">██████</text><text class="terminal-580120135-r16" x="805.2" y="874" textLength="48.8" clip-path="url(#terminal-580120135-line-35)">125%</text><text class="terminal-580120135-r20" x="878.4" y="874" textLength="97.6" clip-path="url(#terminal-580120135-line-35)">Ship&#160;0/3</text><text class="terminal-580120135-r16" x="1000.4" y="874" textLength="97.6" clip-path="url(#terminal-580120135-line-35)">Inv&#160;3/15</text><text class="terminal-580120135-r16" x="1122.4" y="874" textLength="48.8" clip-path="url(#terminal-580120135-line-35)">⏱&#160;0h</text><text class="terminal-580120135-r1" x="1659.2" y="874" textLength="12.2" clip-path="url(#terminal-580120135-line-35)">
</text><text class="terminal-580120135-r21" x="12.2" y="898.4" textLength="158.6" clip-path="url(#terminal-580120135-line-36)">Crash&#160;Site&#160;&gt;&#160;</text><text class="terminal-580120135-r22" x="207.4" y="898.4" textLength="195.2" clip-path="url(#terminal-580120135-line-36)">Enter&#160;command...</text><text class="terminal-580120135-r1" x="1659.2" y="898.4" textLength="12.2" clip-path="url(#terminal-580120135-line-36)">
</text><text class="terminal-580120135-r1" x="1659.2" y="922.8" textLength="12.2" clip-path="url(#terminal-580120135-line-37)">
</text>
    </g>
    </g>
</svg>
