<svg class="rich-terminal" viewBox="0 0 1678 1001.5999999999999" xmlns="http://www.w3.org/2000/svg">
    <!-- Generated with Rich https://www.textualize.io -->
    <style>

    @font-face {
        font-family: "Fira Code";
        src: local("FiraCode-Regular"),
                url("https://cdnjs.cloudflare.com/ajax/libs/firacode/6.2.0/woff2/FiraCode-Regular.woff2") format("woff2"),
                url("https://cdnjs.cloudflare.com/ajax/libs/firacode/6.2.0/woff/FiraCode-Regular.woff") format("woff");
        font-style: normal;
        font-weight: 400;
    }
    @font-face {
        font-family: "Fira Code";
        src: local("FiraCode-Bold"),
                url("https://cdnjs.cloudflare.com/ajax/libs/firacode/6.2.0/woff2/FiraCode-Bold.woff2") format("woff2"),
                url("https://cdnjs.cloudflare.com/ajax/libs/firacode/6.2.0/woff/FiraCode-Bold.woff") format("woff");
        font-style: bold;
        font-weight: 700;
    }

    .terminal-3086065318-matrix {
        font-family: Fira Code, monospace;
        font-size: 20px;
        line-height: 24.4px;
        font-variant-east-asian: full-width;
    }

    .terminal-3086065318-title {
        font-size: 18px;
        font-weight: bold;
        font-family: arial;
    }

    .terminal-3086065318-r1 { fill: #c5c8c6 }
.terminal-3086065318-r2 { fill: #c89450;font-weight: bold }
.terminal-3086065318-r3 { fill: #98e024;font-weight: bold }
.terminal-3086065318-r4 { fill: #e0e0e0 }
.terminal-3086065318-r5 { fill: #fd971f;font-weight: bold }
.terminal-3086065318-r6 { fill: #f4005f;font-weight: bold }
.terminal-3086065318-r7 { fill: #67981f;font-weight: bold }
.terminal-3086065318-r8 { fill: #e0e0e0;font-style: italic; }
.terminal-3086065318-r9 { fill: #2a3050 }
.terminal-3086065318-r10 { fill: #e0e0e0;font-weight: bold }
.terminal-3086065318-r11 { fill: #0a0d18 }
.terminal-3086065318-r12 { fill: #98e024 }
.terminal-3086065318-r13 { fill: #97989c }
.terminal-3086065318-r14 { fill: #f4005f }
.terminal-3086065318-r15 { fill: #fd971f }
.terminal-3086065318-r16 { fill: #58d1eb }
.terminal-3086065318-r17 { fill: #008000 }
.terminal-3086065318-r18 { fill: #8890b0 }
.terminal-3086065318-r19 { fill: #5f6680 }
.terminal-3086065318-r20 { fill: #00ffff }
.terminal-3086065318-r21 { fill: #c89450 }
.terminal-3086065318-r22 { fill: #a080d0 }
.terminal-3086065318-r23 { fill: #ffff00 }
.terminal-3086065318-r24 { fill: #5ca8c8;font-weight: bold }
.terminal-3086065318-r25 { fill: #6f717b }
.terminal-3086065318-r26 { fill: #b4bcd4 }
    </style>

    <defs>
    <clipPath id="terminal-3086065318-clip-terminal">
      <rect x="0" y="0" width="1658.1999999999998" height="950.5999999999999" />
    </clipPath>
    <clipPath id="terminal-3086065318-line-0">
    <rect x="0" y="1.5" width="1659.2" height="24.65"/>
            </clipPath>
<clipPath id="terminal-3086065318-line-1">
    <rect x="0" y="25.9" width="1659.2" height="24.65"/>
            </clipPath>
<clipPath id="terminal-3086065318-line-2">
    <rect x="0" y="50.3" width="1659.2" height="24.65"/>
            </clipPath>
<clipPath id="terminal-3086065318-line-3">
    <rect x="0" y="74.7" width="1659.2" height="24.65"/>
            </clipPath>
<clipPath id="terminal-3086065318-line-4">
    <rect x="0" y="99.1" width="1659.2" height="24.65"/>
            </clipPath>
<clipPath id="terminal-3086065318-line-5">
    <rect x="0" y="123.5" width="1659.2" height="24.65"/>
            </clipPath>
<clipPath id="terminal-3086065318-line-6">
    <rect x="0" y="147.9" width="1659.2" height="24.65"/>
            </clipPath>
<clipPath id="terminal-3086065318-line-7">
    <rect x="0" y="172.3" width="1659.2" height="24.65"/>
            </clipPath>
<clipPath id="terminal-3086065318-line-8">
    <rect x="0" y="196.7" width="1659.2" height="24.65"/>
            </clipPath>
<clipPath id="terminal-3086065318-line-9">
    <rect x="0" y="221.1" width="1659.2" height="24.65"/>
            </clipPath>
<clipPath id="terminal-3086065318-line-10">
    <rect x="0" y="245.5" width="1659.2" height="24.65"/>
            </clipPath>
<clipPath id="terminal-3086065318-line-11">
    <rect x="0" y="269.9" width="1659.2" height="24.65"/>
            </clipPath>
<clipPath id="terminal-3086065318-line-12">
    <rect x="0" y="294.3" width="1659.2" height="24.65"/>
            </clipPath>
<clipPath id="terminal-3086065318-line-13">
    <rect x="0" y="318.7" width="1659.2" height="24.65"/>
            </clipPath>
<clipPath id="terminal-3086065318-line-14">
    <rect x="0" y="343.1" width="1659.2" height="24.65"/>
            </clipPath>
<clipPath id="terminal-3086065318-line-15">
    <rect x="0" y="367.5" width="1659.2" height="24.65"/>
            </clipPath>
<clipPath id="terminal-3086065318-line-16">
    <rect x="0" y="391.9" width="1659.2" height="24.65"/>
            </clipPath>
<clipPath id="terminal-3086065318-line-17">
    <rect x="0" y="416.3" width="1659.2" height="24.65"/>
            </clipPath>
<clipPath id="terminal-3086065318-line-18">
    <rect x="0" y="440.7" width="1659.2" height="24.65"/>
            </clipPath>
<clipPath id="terminal-3086065318-line-19">
    <rect x="0" y="465.1" width="1659.2" height="24.65"/>
            </clipPath>
<clipPath id="terminal-3086065318-line-20">
    <rect x="0" y="489.5" width="1659.2" height="24.65"/>
            </clipPath>
<clipPath id="terminal-3086065318-line-21">
    <rect x="0" y="513.9" width="1659.2" height="24.65"/>
            </clipPath>
<clipPath id="terminal-3086065318-line-22">
    <rect x="0" y="538.3" width="1659.2" height="24.65"/>
            </clipPath>
<clipPath id="terminal-3086065318-line-23">
    <rect x="0" y="562.7" width="1659.2" height="24.65"/>
            </clipPath>
<clipPath id="terminal-3086065318-line-24">
    <rect x="0" y="587.1" width="1659.2" height="24.65"/>
            </clipPath>
<clipPath id="terminal-3086065318-line-25">
    <rect x="0" y="611.5" width="1659.2" height="24.65"/>
            </clipPath>
<clipPath id="terminal-3086065318-line-26">
    <rect x="0" y="635.9" width="1659.2" height="24.65"/>
            </clipPath>
<clipPath id="terminal-3086065318-line-27">
    <rect x="0" y="660.3" width="1659.2" height="24.65"/>
            </clipPath>
<clipPath id="terminal-3086065318-line-28">
    <rect x="0" y="684.7" width="1659.2" height="24.65"/>
            </clipPath>
<clipPath id="terminal-3086065318-line-29">
    <rect x="0" y="709.1" width="1659.2" height="24.65"/>
            </clipPath>
<clipPath id="terminal-3086065318-line-30">
    <rect x="0" y="733.5" width="1659.2" height="24.65"/>
            </clipPath>
<clipPath id="terminal-3086065318-line-31">
    <rect x="0" y="757.9" width="1659.2" height="24.65"/>
            </clipPath>
<clipPath id="terminal-3086065318-line-32">
    <rect x="0" y="782.3" width="1659.2" height="24.65"/>
            </clipPath>
<clipPath id="terminal-3086065318-line-33">
    <rect x="0" y="806.7" width="1659.2" height="24.65"/>
            </clipPath>
<clipPath id="terminal-3086065318-line-34">
    <rect x="0" y="831.1" width="1659.2" height="24.65"/>
            </clipPath>
<clipPath id="terminal-3086065318-line-35">
    <rect x="0" y="855.5" width="1659.2" height="24.65"/>
            </clipPath>
<clipPath id="terminal-3086065318-line-36">
    <rect x="0" y="879.9" width="1659.2" height="24.65"/>
            </clipPath>
<clipPath id="terminal-3086065318-line-37">
    <rect x="0" y="904.3" width="1659.2" height="24.65"/>
            </clipPath>
    </defs>

    <rect fill="#292929" stroke="rgba(255,255,255,0.35)" stroke-width="1" x="1" y="1" width="1676" height="999.6" rx="8"/><text class="terminal-3086065318-title" fill="#c5c8c6" text-anchor="middle" x="838" y="27">Moon&#160;Traveler&#160;Terminal</text>
            <g transform="translate(26,22)">
            <circle cx="0" cy="0" r="7" fill="#ff5f57"/>
            <circle cx="22" cy="0" r="7" fill="#febc2e"/>
            <circle cx="44" cy="0" r="7" fill="#28c840"/>
            </g>
        
    <g transform="translate(9, 41)" clip-path="url(#terminal-3086065318-clip-terminal)">
    <rect fill="#111525" x="0" y="1.5" width="24.4" height="24.65" shape-rendering="crispEdges"/><rect fill="#111525" x="24.4" y="1.5" width="268.4" height="24.65" shape-rendering="crispEdges"/><rect fill="#111525" x="292.8" y="1.5" width="1342" height="24.65" shape-rendering="crispEdges"/><rect fill="#111525" x="1634.8" y="1.5" width="24.4" height="24.65" shape-rendering="crispEdges"/><rect fill="#0a0d18" x="0" y="25.9" width="12.2" height="24.65" shape-rendering="crispEdges"/><rect fill="#0a0d18" x="12.2" y="25.9" width="439.2" height="24.65" shape-rendering="crispEdges"/><rect fill="#0a0d18" x="451.4" y="25.9" width="1171.2" height="24.65" shape-rendering="crispEdges"/><rect fill="#111525" x="1622.6" y="25.9" width="24.4" height="24.65" shape-rendering="crispEdges"/><rect fill="#0a0d18" x="1647" y="25.9" width="12.2" height="24.65" shape-rendering="crispEdges"/><rect fill="#0a0d18" x="0" y="50.3" width="12.2" height="24.65" shape-rendering="crispEdges"/><rect fill="#0a0d18" x="12.2" y="50.3" width="451.4" height="24.65" shape-rendering="crispEdges"/><rect fill="#0a0d18" x="463.6" y="50.3" width="1159" height="24.65" shape-rendering="crispEdges"/><rect fill="#111525" x="1622.6" y="50.3" width="24.4" height="24.65" shape-rendering="crispEdges"/><rect fill="#0a0d18" x="1647" y="50.3" width="12.2" height="24.65" shape-rendering="crispEdges"/><rect fill="#0a0d18" x="0" y="74.7" width="12.2" height="24.65" shape-rendering="crispEdges"/><rect fill="#0a0d18" x="12.2" y="74.7" width="463.6" height="24.65" shape-rendering="crispEdges"/><rect fill="#0a0d18" x="475.8" y="74.7" width="1146.8" height="24.65" shape-rendering="crispEdges"/><rect fill="#111525" x="1622.6" y="74.7" width="24.4" height="24.65" shape-rendering="crispEdges"/><rect fill="#0a0d18" x="1647" y="74.7" width="12.2" height="24.65" shape-rendering="crispEdges"/><rect fill="#0a0d18" x="0" y="99.1" width="12.2" height="24.65" shape-rendering="crispEdges"/><rect fill="#0a0d18" x="12.2" y="99.1" width="475.8" height="24.65" shape-rendering="crispEdges"/><rect fill="#0a0d18" x="488" y="99.1" width="1134.6" height="24.65" shape-rendering="crispEdges"/><rect fill="#111525" x="1622.6" y="99.1" width="24.4" height="24.65" shape-rendering="crispEdges"/><rect fill="#0a0d18" x="1647" y="99.1" width="12.2" height="24.65" shape-rendering="crispEdges"/><rect fill="#0a0d18" x="0" y="123.5" width="12.2" height="24.65" shape-rendering="crispEdges"/><rect fill="#0a0d18" x="12.2" y="123.5" width="292.8" height="24.65" shape-rendering="crispEdges"/><rect fill="#0a0d18" x="305" y="123.5" width="170.8" height="24.65" shape-rendering="crispEdges"/><rect fill="#0a0d18" x="475.8" y="123.5" width="1146.8" height="24.65" shape-rendering="crispEdges"/><rect fill="#111525" x="1622.6" y="123.5" width="24.4" height="24.65" shape-rendering="crispEdges"/><rect fill="#0a0d18" x="1647" y="123.5" width="12.2" height="24.65" shape-rendering="crispEdges"/><rect fill="#0a0d18" x="0" y="147.9" width="12.2" height="24.65" shape-rendering="crispEdges"/><rect fill="#0a0d18" x="12.2" y="147.9" width="280.6" height="24.65" shape-rendering="crispEdges"/><rect fill="#0a0d18" x="292.8" y="147.9" width="146.4" height="24.65" shape-rendering="crispEdges"/><rect fill="#0a0d18" x="439.2" y="147.9" width="1183.4" height="24.65" shape-rendering="crispEdges"/><rect fill="#111525" x="1622.6" y="147.9" width="24.4" height="24.65" shape-rendering="crispEdges"/><rect fill="#0a0d18" x="1647" y="147.9" width="12.2" height="24.65" shape-rendering="crispEdges"/><rect fill="#0a0d18" x="0" y="172.3" width="12.2" height="24.65" shape-rendering="crispEdges"/><rect fill="#0a0d18" x="12.2" y="172.3" width="268.4" height="24.65" shape-rendering="crispEdges"/><rect fill="#0a0d18" x="280.6" y="172.3" width="48.8" height="24.65" shape-rendering="crispEdges"/><rect fill="#0a0d18" x="329.4" y="172.3" width="24.4" height="24.65" shape-rendering="crispEdges"/><rect fill="#0a0d18" x="353.8" y="172.3" width="48.8" height="24.65" shape-rendering="crispEdges"/><rect fill="#0a0d18" x="402.6" y="172.3" width="24.4" height="24.65" shape-rendering="crispEdges"/><rect fill="#0a0d18" x="427" y="172.3" width="48.8" height="24.65" shape-rendering="crispEdges"/><rect fill="#0a0d18" x="475.8" y="172.3" width="1146.8" height="24.65" shape-rendering="crispEdges"/><rect fill="#111525" x="1622.6" y="172.3" width="24.4" height="24.65" shape-rendering="crispEdges"/><rect fill="#0a0d18" x="1647" y="172.3" width="12.2" height="24.65" shape-rendering="crispEdges"/><rect fill="#0a0d18" x="0" y="196.7" width="12.2" height="24.65" shape-rendering="crispEdges"/><rect fill="#0a0d18" x="12.2" y="196.7" width="256.2" height="24.65" shape-rendering="crispEdges"/><rect fill="#0a0d18" x="268.4" y="196.7" width="48.8" height="24.65" shape-rendering="crispEdges"/><rect fill="#0a0d18" x="317.2" y="196.7" width="48.8" height="24.65" shape-rendering="crispEdges"/><rect fill="#0a0d18" x="366" y="196.7" width="48.8" height="24.65" shape-rendering="crispEdges"/><rect fill="#0a0d18" x="414.8" y="196.7" width="36.6" height="24.65" shape-rendering="crispEdges"/><rect fill="#0a0d18" x="451.4" y="196.7" width="48.8" height="24.65" shape-rendering="crispEdges"/><rect fill="#0a0d18" x="500.2" y="196.7" width="1122.4" height="24.65" shape-rendering="crispEdges"/><rect fill="#111525" x="1622.6" y="196.7" width="24.4" height="24.65" shape-rendering="crispEdges"/><rect fill="#0a0d18" x="1647" y="196.7" width="12.2" height="24.65" shape-rendering="crispEdges"/><rect fill="#0a0d18" x="0" y="221.1" width="12.2" height="24.65" shape-rendering="crispEdges"/><rect fill="#0a0d18" x="12.2" y="221.1" width="244" height="24.65" shape-rendering="crispEdges"/><rect fill="#0a0d18" x="256.2" y="221.1" width="48.8" height="24.65" shape-rendering="crispEdges"/><rect fill="#0a0d18" x="305" y="221.1" width="73.2" height="24.65" shape-rendering="crispEdges"/><rect fill="#0a0d18" x="378.2" y="221.1" width="48.8" height="24.65" shape-rendering="crispEdges"/><rect fill="#0a0d18" x="427" y="221.1" width="48.8" height="24.65" shape-rendering="crispEdges"/><rect fill="#0a0d18" x="475.8" y="221.1" width="48.8" height="24.65" shape-rendering="crispEdges"/><rect fill="#0a0d18" x="524.6" y="221.1" width="1098" height="24.65" shape-rendering="crispEdges"/><rect fill="#111525" x="1622.6" y="221.1" width="24.4" height="24.65" shape-rendering="crispEdges"/><rect fill="#0a0d18" x="1647" y="221.1" width="12.2" height="24.65" shape-rendering="crispEdges"/><rect fill="#0a0d18" x="0" y="245.5" width="12.2" height="24.65" shape-rendering="crispEdges"/><rect fill="#0a0d18" x="12.2" y="245.5" width="1610.4" height="24.65" shape-rendering="crispEdges"/><rect fill="#111525" x="1622.6" y="245.5" width="24.4" height="24.65" shape-rendering="crispEdges"/><rect fill="#0a0d18" x="1647" y="245.5" width="12.2" height="24.65" shape-rendering="crispEdges"/><rect fill="#0a0d18" x="0" y="269.9" width="12.2" height="24.65" shape-rendering="crispEdges"/><rect fill="#0a0d18" x="12.2" y="269.9" width="646.6" height="24.65" shape-rendering="crispEdges"/><rect fill="#0a0d18" x="658.8" y="269.9" width="963.8" height="24.65" shape-rendering="crispEdges"/><rect fill="#111525" x="1622.6" y="269.9" width="24.4" height="24.65" shape-rendering="crispEdges"/><rect fill="#0a0d18" x="1647" y="269.9" width="12.2" height="24.65" shape-rendering="crispEdges"/><rect fill="#0a0d18" x="0" y="294.3" width="12.2" height="24.65" shape-rendering="crispEdges"/><rect fill="#0a0d18" x="12.2" y="294.3" width="1610.4" height="24.65" shape-rendering="crispEdges"/><rect fill="#111525" x="1622.6" y="294.3" width="24.4" height="24.65" shape-rendering="crispEdges"/><rect fill="#0a0d18" x="1647" y="294.3" width="12.2" height="24.65" shape-rendering="crispEdges"/><rect fill="#0a0d18" x="0" y="318.7" width="12.2" height="24.65" shape-rendering="crispEdges"/><rect fill="#0a0d18" x="12.2" y="318.7" width="24.4" height="24.65" shape-rendering="crispEdges"/><rect fill="#0a0d18" x="36.6" y="318.7" width="719.8" height="24.65" shape-rendering="crispEdges"/><rect fill="#0a0d18" x="756.4" y="318.7" width="866.2" height="24.65" shape-rendering="crispEdges"/><rect fill="#111525" x="1622.6" y="318.7" width="24.4" height="24.65" shape-rendering="crispEdges"/><rect fill="#0a0d18" x="1647" y="318.7" width="12.2" height="24.65" shape-rendering="crispEdges"/><rect fill="#0a0d18" x="0" y="343.1" width="12.2" height="24.65" shape-rendering="crispEdges"/><rect fill="#0a0d18" x="12.2" y="343.1" width="24.4" height="24.65" shape-rendering="crispEdges"/><rect fill="#0a0d18" x="36.6" y="343.1" width="658.8" height="24.65" shape-rendering="crispEdges"/><rect fill="#0a0d18" x="695.4" y="343.1" width="927.2" height="24.65" shape-rendering="crispEdges"/><rect fill="#111525" x="1622.6" y="343.1" width="24.4" height="24.65" shape-rendering="crispEdges"/><rect fill="#0a0d18" x="1647" y="343.1" width="12.2" height="24.65" shape-rendering="crispEdges"/><rect fill="#0a0d18" x="0" y="367.5" width="12.2" height="24.65" shape-rendering="crispEdges"/><rect fill="#0a0d18" x="12.2" y="367.5" width="24.4" height="24.65" shape-rendering="crispEdges"/><rect fill="#0a0d18" x="36.6" y="367.5" width="353.8" height="24.65" shape-rendering="crispEdges"/><rect fill="#0a0d18" x="390.4" y="367.5" width="1232.2" height="24.65" shape-rendering="crispEdges"/><rect fill="#111525" x="1622.6" y="367.5" width="24.4" height="24.65" shape-rendering="crispEdges"/><rect fill="#0a0d18" x="1647" y="367.5" width="12.2" height="24.65" shape-rendering="crispEdges"/><rect fill="#0a0d18" x="0" y="391.9" width="12.2" height="24.65" shape-rendering="crispEdges"/><rect fill="#0a0d18" x="12.2" y="391.9" width="24.4" height="24.65" shape-rendering="crispEdges"/><rect fill="#0a0d18" x="36.6" y="391.9" width="1586" height="24.65" shape-rendering="crispEdges"/><rect fill="#111525" x="1622.6" y="391.9" width="24.4" height="24.65" shape-rendering="crispEdges"/><rect fill="#0a0d18" x="1647" y="391.9" width="12.2" height="24.65" shape-rendering="crispEdges"/><rect fill="#0a0d18" x="0" y="416.3" width="12.2" height="24.65" shape-rendering="crispEdges"/><rect fill="#0a0d18" x="12.2" y="416.3" width="24.4" height="24.65" shape-rendering="crispEdges"/><rect fill="#0a0d18" x="36.6" y="416.3" width="793" height="24.65" shape-rendering="crispEdges"/><rect fill="#0a0d18" x="829.6" y="416.3" width="793" height="24.65" shape-rendering="crispEdges"/><rect fill="#111525" x="1622.6" y="416.3" width="24.4" height="24.65" shape-rendering="crispEdges"/><rect fill="#0a0d18" x="1647" y="416.3" width="12.2" height="24.65" shape-rendering="crispEdges"/><rect fill="#0a0d18" x="0" y="440.7" width="12.2" height="24.65" shape-rendering="crispEdges"/><rect fill="#0a0d18" x="12.2" y="440.7" width="24.4" height="24.65" shape-rendering="crispEdges"/><rect fill="#0a0d18" x="36.6" y="440.7" width="1586" height="24.65" shape-rendering="crispEdges"/><rect fill="#111525" x="1622.6" y="440.7" width="24.4" height="24.65" shape-rendering="crispEdges"/><rect fill="#0a0d18" x="1647" y="440.7" width="12.2" height="24.65" shape-rendering="crispEdges"/><rect fill="#0a0d18" x="0" y="465.1" width="12.2" height="24.65" shape-rendering="crispEdges"/><rect fill="#0a0d18" x="12.2" y="465.1" width="24.4" height="24.65" shape-rendering="crispEdges"/><rect fill="#0a0d18" x="36.6" y="465.1" width="280.6" height="24.65" shape-rendering="crispEdges"/><rect fill="#0a0d18" x="317.2" y="465.1" width="1305.4" height="24.65" shape-rendering="crispEdges"/><rect fill="#111525" x="1622.6" y="465.1" width="24.4" height="24.65" shape-rendering="crispEdges"/><rect fill="#0a0d18" x="1647" y="465.1" width="12.2" height="24.65" shape-rendering="crispEdges"/><rect fill="#0a0d18" x="0" y="489.5" width="12.2" height="24.65" shape-rendering="crispEdges"/><rect fill="#0a0d18" x="12.2" y="489.5" width="24.4" height="24.65" shape-rendering="crispEdges"/><rect fill="#0a0d18" x="36.6" y="489.5" width="1586" height="24.65" shape-rendering="crispEdges"/><rect fill="#111525" x="1622.6" y="489.5" width="24.4" height="24.65" shape-rendering="crispEdges"/><rect fill="#0a0d18" x="1647" y="489.5" width="12.2" height="24.65" shape-rendering="crispEdges"/><rect fill="#0a0d18" x="0" y="513.9" width="12.2" height="24.65" shape-rendering="crispEdges"/><rect fill="#0a0d18" x="12.2" y="513.9" width="24.4" height="24.65" shape-rendering="crispEdges"/><rect fill="#0a0d18" x="36.6" y="513.9" width="207.4" height="24.65" shape-rendering="crispEdges"/><rect fill="#0a0d18" x="244" y="513.9" width="1378.6" height="24.65" shape-rendering="crispEdges"/><rect fill="#111525" x="1622.6" y="513.9" width="24.4" height="24.65" shape-rendering="crispEdges"/><rect fill="#0a0d18" x="1647" y="513.9" width="12.2" height="24.65" shape-rendering="crispEdges"/><rect fill="#0a0d18" x="0" y="538.3" width="12.2" height="24.65" shape-rendering="crispEdges"/><rect fill="#0a0d18" x="12.2" y="538.3" width="1610.4" height="24.65" shape-rendering="crispEdges"/><rect fill="#111525" x="1622.6" y="538.3" width="24.4" height="24.65" shape-rendering="crispEdges"/><rect fill="#0a0d18" x="1647" y="538.3" width="12.2" height="24.65" shape-rendering="crispEdges"/><rect fill="#0a0d18" x="0" y="562.7" width="12.2" height="24.65" shape-rendering="crispEdges"/><rect fill="#0a0d18" x="12.2" y="562.7" width="256.2" height="24.65" shape-rendering="crispEdges"/><rect fill="#0a0d18" x="268.4" y="562.7" width="1354.2" height="24.65" shape-rendering="crispEdges"/><rect fill="#2a3050" x="1622.6" y="562.7" width="24.4" height="24.65" shape-rendering="crispEdges"/><rect fill="#0a0d18" x="1647" y="562.7" width="12.2" height="24.65" shape-rendering="crispEdges"/><rect fill="#0a0d18" x="0" y="587.1" width="12.2" height="24.65" shape-rendering="crispEdges"/><rect fill="#0a0d18" x="12.2" y="587.1" width="24.4" height="24.65" shape-rendering="crispEdges"/><rect fill="#0a0d18" x="36.6" y="587.1" width="61" height="24.65" shape-rendering="crispEdges"/><rect fill="#0a0d18" x="97.6" y="587.1" width="12.2" height="24.65" shape-rendering="crispEdges"/><rect fill="#0a0d18" x="109.8" y="587.1" width="366" height="24.65" shape-rendering="crispEdges"/><rect fill="#0a0d18" x="475.8" y="587.1" width="1146.8" height="24.65" shape-rendering="crispEdges"/><rect fill="#2a3050" x="1622.6" y="587.1" width="24.4" height="24.65" shape-rendering="crispEdges"/><rect fill="#0a0d18" x="1647" y="587.1" width="12.2" height="24.65" shape-rendering="crispEdges"/><rect fill="#0a0d18" x="0" y="611.5" width="12.2" height="24.65" shape-rendering="crispEdges"/><rect fill="#0a0d18" x="12.2" y="611.5" width="24.4" height="24.65" shape-rendering="crispEdges"/><rect fill="#0a0d18" x="36.6" y="611.5" width="73.2" height="24.65" shape-rendering="crispEdges"/><rect fill="#0a0d18" x="109.8" y="611.5" width="12.2" height="24.65" shape-rendering="crispEdges"/><rect fill="#0a0d18" x="122" y="611.5" width="292.8" height="24.65" shape-rendering="crispEdges"/><rect fill="#0a0d18" x="414.8" y="611.5" width="1207.8" height="24.65" shape-rendering="crispEdges"/><rect fill="#2a3050" x="1622.6" y="611.5" width="24.4" height="24.65" shape-rendering="crispEdges"/><rect fill="#0a0d18" x="1647" y="611.5" width="12.2" height="24.65" shape-rendering="crispEdges"/><rect fill="#0a0d18" x="0" y="635.9" width="12.2" height="24.65" shape-rendering="crispEdges"/><rect fill="#0a0d18" x="12.2" y="635.9" width="24.4" height="24.65" shape-rendering="crispEdges"/><rect fill="#0a0d18" x="36.6" y="635.9" width="73.2" height="24.65" shape-rendering="crispEdges"/><rect fill="#0a0d18" x="109.8" y="635.9" width="12.2" height="24.65" shape-rendering="crispEdges"/><rect fill="#0a0d18" x="122" y="635.9" width="292.8" height="24.65" shape-rendering="crispEdges"/><rect fill="#0a0d18" x="414.8" y="635.9" width="1207.8" height="24.65" shape-rendering="crispEdges"/><rect fill="#2a3050" x="1622.6" y="635.9" width="24.4" height="24.65" shape-rendering="crispEdges"/><rect fill="#0a0d18" x="1647" y="635.9" width="12.2" height="24.65" shape-rendering="crispEdges"/><rect fill="#0a0d18" x="0" y="660.3" width="12.2" height="24.65" shape-rendering="crispEdges"/><rect fill="#0a0d18" x="12.2" y="660.3" width="24.4" height="24.65" shape-rendering="crispEdges"/><rect fill="#0a0d18" x="36.6" y="660.3" width="73.2" height="24.65" shape-rendering="crispEdges"/><rect fill="#0a0d18" x="109.8" y="660.3" width="12.2" height="24.65" shape-rendering="crispEdges"/><rect fill="#0a0d18" x="122" y="660.3" width="341.6" height="24.65" shape-rendering="crispEdges"/><rect fill="#0a0d18" x="463.6" y="660.3" width="1159" height="24.65" shape-rendering="crispEdges"/><rect fill="#2a3050" x="1622.6" y="660.3" width="24.4" height="24.65" shape-rendering="crispEdges"/><rect fill="#0a0d18" x="1647" y="660.3" width="12.2" height="24.65" shape-rendering="crispEdges"/><rect fill="#0a0d18" x="0" y="684.7" width="12.2" height="24.65" shape-rendering="crispEdges"/><rect fill="#0a0d18" x="12.2" y="684.7" width="24.4" height="24.65" shape-rendering="crispEdges"/><rect fill="#0a0d18" x="36.6" y="684.7" width="73.2" height="24.65" shape-rendering="crispEdges"/><rect fill="#0a0d18" x="109.8" y="684.7" width="12.2" height="24.65" shape-rendering="crispEdges"/><rect fill="#0a0d18" x="122" y="684.7" width="317.2" height="24.65" shape-rendering="crispEdges"/><rect fill="#0a0d18" x="439.2" y="684.7" width="1183.4" height="24.65" shape-rendering="crispEdges"/><rect fill="#2a3050" x="1622.6" y="684.7" width="24.4" height="24.65" shape-rendering="crispEdges"/><rect fill="#0a0d18" x="1647" y="684.7" width="12.2" height="24.65" shape-rendering="crispEdges"/><rect fill="#0a0d18" x="0" y="709.1" width="12.2" height="24.65" shape-rendering="crispEdges"/><rect fill="#0a0d18" x="12.2" y="709.1" width="1610.4" height="24.65" shape-rendering="crispEdges"/><rect fill="#2a3050" x="1622.6" y="709.1" width="24.4" height="24.65" shape-rendering="crispEdges"/><rect fill="#0a0d18" x="1647" y="709.1" width="12.2" height="24.65" shape-rendering="crispEdges"/><rect fill="#0a0d18" x="0" y="733.5" width="12.2" height="24.65" shape-rendering="crispEdges"/><rect fill="#0a0d18" x="12.2" y="733.5" width="732" height="24.65" shape-rendering="crispEdges"/><rect fill="#0a0d18" x="744.2" y="733.5" width="878.4" height="24.65" shape-rendering="crispEdges"/><rect fill="#2a3050" x="1622.6" y="733.5" width="24.4" height="24.65" shape-rendering="crispEdges"/><rect fill="#0a0d18" x="1647" y="733.5" width="12.2" height="24.65" shape-rendering="crispEdges"/><rect fill="#0a0d18" x="0" y="757.9" width="12.2" height="24.65" shape-rendering="crispEdges"/><rect fill="#0a0d18" x="12.2" y="757.9" width="1610.4" height="24.65" shape-rendering="crispEdges"/><rect fill="#2a3050" x="1622.6" y="757.9" width="24.4" height="24.65" shape-rendering="crispEdges"/><rect fill="#0a0d18" x="1647" y="757.9" width="12.2" height="24.65" shape-rendering="crispEdges"/><rect fill="#0a0d18" x="0" y="782.3" width="12.2" height="24.65" shape-rendering="crispEdges"/><rect fill="#0a0d18" x="12.2" y="782.3" width="195.2" height="24.65" shape-rendering="crispEdges"/><rect fill="#0a0d18" x="207.4" y="782.3" width="1415.2" height="24.65" shape-rendering="crispEdges"/><rect fill="#2a3050" x="1622.6" y="782.3" width="24.4" height="24.65" shape-rendering="crispEdges"/><rect fill="#0a0d18" x="1647" y="782.3" width="12.2" height="24.65" shape-rendering="crispEdges"/><rect fill="#0a0d18" x="0" y="806.7" width="12.2" height="24.65" shape-rendering="crispEdges"/><rect fill="#0a0d18" x="12.2" y="806.7" width="1610.4" height="24.65" shape-rendering="crispEdges"/><rect fill="#2a3050" x="1622.6" y="806.7" width="24.4" height="24.65" shape-rendering="crispEdges"/><rect fill="#0a0d18" x="1647" y="806.7" width="12.2" height="24.65" shape-rendering="crispEdges"/><rect fill="#0a0d18" x="0" y="831.1" width="12.2" height="24.65" shape-rendering="crispEdges"/><rect fill="#0a0d18" x="12.2" y="831.1" width="1610.4" height="24.65" shape-rendering="crispEdges"/><rect fill="#2a3050" x="1622.6" y="831.1" width="24.4" height="24.65" shape-rendering="crispEdges"/><rect fill="#0a0d18" x="1647" y="831.1" width="12.2" height="24.65" shape-rendering="crispEdges"/><rect fill="#111525" x="0" y="855.5" width="24.4" height="24.65" shape-rendering="crispEdges"/><rect fill="#111525" x="24.4" y="855.5" width="48.8" height="24.65" shape-rendering="crispEdges"/><rect fill="#111525" x="73.2" y="855.5" width="12.2" height="24.65" shape-rendering="crispEdges"/><rect fill="#111525" x="85.4" y="855.5" width="61" height="24.65" shape-rendering="crispEdges"/><rect fill="#111525" x="146.4" y="855.5" width="12.2" height="24.65" shape-rendering="crispEdges"/><rect fill="#111525" x="158.6" y="855.5" width="36.6" height="24.65" shape-rendering="crispEdges"/><rect fill="#111525" x="195.2" y="855.5" width="24.4" height="24.65" shape-rendering="crispEdges"/><rect fill="#111525" x="219.6" y="855.5" width="61" height="24.65" shape-rendering="crispEdges"/><rect fill="#111525" x="280.6" y="855.5" width="12.2" height="24.65" shape-rendering="crispEdges"/><rect fill="#111525" x="292.8" y="855.5" width="61" height="24.65" shape-rendering="crispEdges"/><rect fill="#111525" x="353.8" y="855.5" width="12.2" height="24.65" shape-rendering="crispEdges"/><rect fill="#111525" x="366" y="855.5" width="36.6" height="24.65" shape-rendering="crispEdges"/><rect fill="#111525" x="402.6" y="855.5" width="24.4" height="24.65" shape-rendering="crispEdges"/><rect fill="#111525" x="427" y="855.5" width="48.8" height="24.65" shape-rendering="crispEdges"/><rect fill="#111525" x="475.8" y="855.5" width="12.2" height="24.65" shape-rendering="crispEdges"/><rect fill="#111525" x="488" y="855.5" width="61" height="24.65" shape-rendering="crispEdges"/><rect fill="#111525" x="549" y="855.5" width="12.2" height="24.65" shape-rendering="crispEdges"/><rect fill="#111525" x="561.2" y="855.5" width="36.6" height="24.65" shape-rendering="crispEdges"/><rect fill="#111525" x="597.8" y="855.5" width="24.4" height="24.65" shape-rendering="crispEdges"/><rect fill="#111525" x="622.2" y="855.5" width="48.8" height="24.65" shape-rendering="crispEdges"/><rect fill="#111525" x="671" y="855.5" width="12.2" height="24.65" shape-rendering="crispEdges"/><rect fill="#111525" x="683.2" y="855.5" width="36.6" height="24.65" shape-rendering="crispEdges"/><rect fill="#111525" x="719.8" y="855.5" width="24.4" height="24.65" shape-rendering="crispEdges"/><rect fill="#111525" x="744.2" y="855.5" width="12.2" height="24.65" shape-rendering="crispEdges"/><rect fill="#111525" x="756.4" y="855.5" width="36.6" height="24.65" shape-rendering="crispEdges"/><rect fill="#111525" x="793" y="855.5" width="24.4" height="24.65" shape-rendering="crispEdges"/><rect fill="#111525" x="817.4" y="855.5" width="97.6" height="24.65" shape-rendering="crispEdges"/><rect fill="#111525" x="915" y="855.5" width="24.4" height="24.65" shape-rendering="crispEdges"/><rect fill="#111525" x="939.4" y="855.5" width="97.6" height="24.65" shape-rendering="crispEdges"/><rect fill="#111525" x="1037" y="855.5" width="24.4" height="24.65" shape-rendering="crispEdges"/><rect fill="#111525" x="1061.4" y="855.5" width="48.8" height="24.65" shape-rendering="crispEdges"/><rect fill="#111525" x="1110.2" y="855.5" width="524.6" height="24.65" shape-rendering="crispEdges"/><rect fill="#111525" x="1634.8" y="855.5" width="24.4" height="24.65" shape-rendering="crispEdges"/><rect fill="#0e1122" x="0" y="879.9" width="12.2" height="24.65" shape-rendering="crispEdges"/><rect fill="#0e1122" x="12.2" y="879.9" width="256.2" height="24.65" shape-rendering="crispEdges"/><rect fill="#0e1122" x="268.4" y="879.9" width="12.2" height="24.65" shape-rendering="crispEdges"/><rect fill="#181b2b" x="280.6" y="879.9" width="24.4" height="24.65" shape-rendering="crispEdges"/><rect fill="#181b2b" x="305" y="879.9" width="195.2" height="24.65" shape-rendering="crispEdges"/><rect fill="#181b2b" x="500.2" y="879.9" width="1122.4" height="24.65" shape-rendering="crispEdges"/><rect fill="#181b2b" x="1622.6" y="879.9" width="24.4" height="24.65" shape-rendering="crispEdges"/><rect fill="#0e1122" x="1647" y="879.9" width="12.2" height="24.65" shape-rendering="crispEdges"/><rect fill="#0e1122" x="0" y="904.3" width="12.2" height="24.65" shape-rendering="crispEdges"/><rect fill="#0e1122" x="12.2" y="904.3" width="268.4" height="24.65" shape-rendering="crispEdges"/><rect fill="#181b2b" x="280.6" y="904.3" width="24.4" height="24.65" shape-rendering="crispEdges"/><rect fill="#181b2b" x="305" y="904.3" width="1317.6" height="24.65" shape-rendering="crispEdges"/><rect fill="#181b2b" x="1622.6" y="904.3" width="24.4" height="24.65" shape-rendering="crispEdges"/><rect fill="#0e1122" x="1647" y="904.3" width="12.2" height="24.65" shape-rendering="crispEdges"/><rect fill="#0e1122" x="0" y="928.7" width="12.2" height="24.65" shape-rendering="crispEdges"/><rect fill="#0e1122" x="12.2" y="928.7" width="268.4" height="24.65" shape-rendering="crispEdges"/><rect fill="#181b2b" x="280.6" y="928.7" width="24.4" height="24.65" shape-rendering="crispEdges"/><rect fill="#181b2b" x="305" y="928.7" width="1317.6" height="24.65" shape-rendering="crispEdges"/><rect fill="#181b2b" x="1622.6" y="928.7" width="24.4" height="24.65" shape-rendering="crispEdges"/><rect fill="#0e1122" x="1647" y="928.7" width="12.2" height="24.65" shape-rendering="crispEdges"/>
    <g class="terminal-3086065318-matrix">
    <text class="terminal-3086065318-r2" x="24.4" y="20" textLength="268.4" clip-path="url(#terminal-3086065318-line-0)">Moon&#160;Traveler&#160;Terminal</text><text class="terminal-3086065318-r1" x="1659.2" y="20" textLength="12.2" clip-path="url(#terminal-3086065318-line-0)">
</text><text class="terminal-3086065318-r3" x="12.2" y="44.4" textLength="439.2" clip-path="url(#terminal-3086065318-line-1)">&#160;&#160;&#160;&#160;&#160;&#160;&#160;&#160;&#160;&#160;&#160;&#160;&#160;&#160;&#160;&#160;&#160;&#160;&#160;&#160;&#160;&#160;&#160;&#160;&#160;&#160;/|&#160;/--\&#160;|\</text><text class="terminal-3086065318-r1" x="1659.2" y="44.4" textLength="12.2" clip-path="url(#terminal-3086065318-line-1)">
</text><text class="terminal-3086065318-r3" x="12.2" y="68.8" textLength="451.4" clip-path="url(#terminal-3086065318-line-2)">&#160;&#160;&#160;&#160;&#160;&#160;&#160;&#160;&#160;&#160;&#160;&#160;&#160;&#160;&#160;&#160;&#160;&#160;&#160;&#160;&#160;&#160;&#160;&#160;&#160;/&#160;|/&#160;&#160;&#160;&#160;\|&#160;\</text><text class="terminal-3086065318-r1" x="1659.2" y="68.8" textLength="12.2" clip-path="url(#terminal-3086065318-line-2)">
</text><text class="terminal-3086065318-r3" x="12.2" y="93.2" textLength="463.6" clip-path="url(#terminal-3086065318-line-3)">&#160;&#160;&#160;&#160;&#160;&#160;&#160;&#160;&#160;&#160;&#160;&#160;&#160;&#160;&#160;&#160;&#160;&#160;&#160;&#160;&#160;&#160;&#160;&#160;/&#160;&#160;||&#160;&#160;&#160;&#160;||&#160;&#160;\</text><text class="terminal-3086065318-r1" x="1659.2" y="93.2" textLength="12.2" clip-path="url(#terminal-3086065318-line-3)">
</text><text class="terminal-3086065318-r3" x="12.2" y="117.6" textLength="475.8" clip-path="url(#terminal-3086065318-line-4)">&#160;&#160;&#160;&#160;&#160;&#160;&#160;&#160;&#160;&#160;&#160;&#160;&#160;&#160;&#160;&#160;&#160;&#160;&#160;&#160;&#160;&#160;&#160;/___|_\&#160;&#160;/_|___\</text><text class="terminal-3086065318-r1" x="1659.2" y="117.6" textLength="12.2" clip-path="url(#terminal-3086065318-line-4)">
</text><text class="terminal-3086065318-r5" x="305" y="142" textLength="170.8" clip-path="url(#terminal-3086065318-line-5)">////&#160;\\\\&#160;////</text><text class="terminal-3086065318-r1" x="1659.2" y="142" textLength="12.2" clip-path="url(#terminal-3086065318-line-5)">
</text><text class="terminal-3086065318-r5" x="292.8" y="166.4" textLength="146.4" clip-path="url(#terminal-3086065318-line-6)">///&#160;&#160;\\\\///</text><text class="terminal-3086065318-r1" x="1659.2" y="166.4" textLength="12.2" clip-path="url(#terminal-3086065318-line-6)">
</text><text class="terminal-3086065318-r6" x="280.6" y="190.8" textLength="48.8" clip-path="url(#terminal-3086065318-line-7)">{{{{</text><text class="terminal-3086065318-r6" x="353.8" y="190.8" textLength="48.8" clip-path="url(#terminal-3086065318-line-7)">}}}}</text><text class="terminal-3086065318-r6" x="427" y="190.8" textLength="48.8" clip-path="url(#terminal-3086065318-line-7)">{{{{</text><text class="terminal-3086065318-r1" x="1659.2" y="190.8" textLength="12.2" clip-path="url(#terminal-3086065318-line-7)">
</text><text class="terminal-3086065318-r6" x="268.4" y="215.2" textLength="48.8" clip-path="url(#terminal-3086065318-line-8)">{{{{</text><text class="terminal-3086065318-r6" x="366" y="215.2" textLength="48.8" clip-path="url(#terminal-3086065318-line-8)">}}}}</text><text class="terminal-3086065318-r6" x="451.4" y="215.2" textLength="48.8" clip-path="url(#terminal-3086065318-line-8)">{{{{</text><text class="terminal-3086065318-r1" x="1659.2" y="215.2" textLength="12.2" clip-path="url(#terminal-3086065318-line-8)">
</text><text class="terminal-3086065318-r6" x="256.2" y="239.6" textLength="48.8" clip-path="url(#terminal-3086065318-line-9)">{{{{</text><text class="terminal-3086065318-r6" x="378.2" y="239.6" textLength="48.8" clip-path="url(#terminal-3086065318-line-9)">}}}}</text><text class="terminal-3086065318-r6" x="475.8" y="239.6" textLength="48.8" clip-path="url(#terminal-3086065318-line-9)">{{{{</text><text class="terminal-3086065318-r1" x="1659.2" y="239.6" textLength="12.2" clip-path="url(#terminal-3086065318-line-9)">
</text><text class="terminal-3086065318-r1" x="1659.2" y="264" textLength="12.2" clip-path="url(#terminal-3086065318-line-10)">
</text><text class="terminal-3086065318-r7" x="12.2" y="288.4" textLength="646.6" clip-path="url(#terminal-3086065318-line-11)">~~~~~~~~~~~~~~~~~~~~~~~~~~~~~~~~~~~~~~~~~~~~~~~~~~~~~</text><text class="terminal-3086065318-r1" x="1659.2" y="288.4" textLength="12.2" clip-path="url(#terminal-3086065318-line-11)">
</text><text class="terminal-3086065318-r1" x="1659.2" y="312.8" textLength="12.2" clip-path="url(#terminal-3086065318-line-12)">
</text><text class="terminal-3086065318-r8" x="36.6" y="337.2" textLength="719.8" clip-path="url(#terminal-3086065318-line-13)">The&#160;thrusters&#160;ignite.&#160;The&#160;ice&#160;beneath&#160;you&#160;melts&#160;and&#160;steams.</text><text class="terminal-3086065318-r1" x="1659.2" y="337.2" textLength="12.2" clip-path="url(#terminal-3086065318-line-13)">
</text><text class="terminal-3086065318-r8" x="36.6" y="361.6" textLength="658.8" clip-path="url(#terminal-3086065318-line-14)">You&#160;rise&#160;—&#160;slowly&#160;at&#160;first,&#160;then&#160;faster,&#160;breaking&#160;free</text><text class="terminal-3086065318-r1" x="1659.2" y="361.6" textLength="12.2" clip-path="url(#terminal-3086065318-line-14)">
</text><text class="terminal-3086065318-r8" x="36.6" y="386" textLength="353.8" clip-path="url(#terminal-3086065318-line-15)">of&#160;the&#160;moon&#x27;s&#160;gentle&#160;gravity.</text><text class="terminal-3086065318-r1" x="1659.2" y="386" textLength="12.2" clip-path="url(#terminal-3086065318-line-15)">
</text><text class="terminal-3086065318-r1" x="1659.2" y="410.4" textLength="12.2" clip-path="url(#terminal-3086065318-line-16)">
</text><text class="terminal-3086065318-r8" x="36.6" y="434.8" textLength="793" clip-path="url(#terminal-3086065318-line-17)">Enceladus&#160;shrinks&#160;below&#160;you,&#160;a&#160;pale&#160;jewel&#160;against&#160;Saturn&#x27;s&#160;rings.</text><text class="terminal-3086065318-r1" x="1659.2" y="434.8" textLength="12.2" clip-path="url(#terminal-3086065318-line-17)">
</text><text class="terminal-3086065318-r1" x="1659.2" y="459.2" textLength="12.2" clip-path="url(#terminal-3086065318-line-18)">
</text><text class="terminal-3086065318-r8" x="36.6" y="483.6" textLength="280.6" clip-path="url(#terminal-3086065318-line-19)">Time&#160;survived:&#160;2&#160;hours.</text><text class="terminal-3086065318-r1" x="1659.2" y="483.6" textLength="12.2" clip-path="url(#terminal-3086065318-line-19)">
</text><text class="terminal-3086065318-r1" x="1659.2" y="508" textLength="12.2" clip-path="url(#terminal-3086065318-line-20)">
</text><text class="terminal-3086065318-r8" x="36.6" y="532.4" textLength="207.4" clip-path="url(#terminal-3086065318-line-21)">You&#160;made&#160;it&#160;home.</text><text class="terminal-3086065318-r1" x="1659.2" y="532.4" textLength="12.2" clip-path="url(#terminal-3086065318-line-21)">
</text><text class="terminal-3086065318-r9" x="1622.6" y="556.8" textLength="24.4" clip-path="url(#terminal-3086065318-line-22)">▃▃</text><text class="terminal-3086065318-r1" x="1659.2" y="556.8" textLength="12.2" clip-path="url(#terminal-3086065318-line-22)">
</text><text class="terminal-3086065318-r10" x="12.2" y="581.2" textLength="256.2" clip-path="url(#terminal-3086065318-line-23)">Those&#160;who&#160;helped&#160;you:</text><text class="terminal-3086065318-r1" x="1659.2" y="581.2" textLength="12.2" clip-path="url(#terminal-3086065318-line-23)">
</text><text class="terminal-3086065318-r12" x="36.6" y="605.6" textLength="61" clip-path="url(#terminal-3086065318-line-24)">Iyren</text><text class="terminal-3086065318-r13" x="109.8" y="605.6" textLength="366" clip-path="url(#terminal-3086065318-line-24)">the&#160;Builder&#160;—&#160;came&#160;to&#160;the&#160;ship</text><text class="terminal-3086065318-r1" x="1659.2" y="605.6" textLength="12.2" clip-path="url(#terminal-3086065318-line-24)">
</text><text class="terminal-3086065318-r14" x="36.6" y="630" textLength="73.2" clip-path="url(#terminal-3086065318-line-25)">Lissel</text><text class="terminal-3086065318-r13" x="122" y="630" textLength="292.8" clip-path="url(#terminal-3086065318-line-25)">the&#160;Healer&#160;—&#160;a&#160;true&#160;ally</text><text class="terminal-3086065318-r1" x="1659.2" y="630" textLength="12.2" clip-path="url(#terminal-3086065318-line-25)">
</text><text class="terminal-3086065318-r15" x="36.6" y="654.4" textLength="73.2" clip-path="url(#terminal-3086065318-line-26)">Gorran</text><text class="terminal-3086065318-r13" x="122" y="654.4" textLength="292.8" clip-path="url(#terminal-3086065318-line-26)">the&#160;Hermit&#160;—&#160;a&#160;true&#160;ally</text><text class="terminal-3086065318-r1" x="1659.2" y="654.4" textLength="12.2" clip-path="url(#terminal-3086065318-line-26)">
</text><text class="terminal-3086065318-r16" x="36.6" y="678.8" textLength="73.2" clip-path="url(#terminal-3086065318-line-27)">Vessen</text><text class="terminal-3086065318-r13" x="122" y="678.8" textLength="341.6" clip-path="url(#terminal-3086065318-line-27)">the&#160;Wise&#160;Elder&#160;—&#160;a&#160;true&#160;ally</text><text class="terminal-3086065318-r1" x="1659.2" y="678.8" textLength="12.2" clip-path="url(#terminal-3086065318-line-27)">
</text><text class="terminal-3086065318-r14" x="36.6" y="703.2" textLength="73.2" clip-path="url(#terminal-3086065318-line-28)">Zirren</text><text class="terminal-3086065318-r13" x="122" y="703.2" textLength="317.2" clip-path="url(#terminal-3086065318-line-28)">the&#160;Merchant&#160;—&#160;a&#160;true&#160;ally</text><text class="terminal-3086065318-r1" x="1659.2" y="703.2" textLength="12.2" clip-path="url(#terminal-3086065318-line-28)">
</text><text class="terminal-3086065318-r1" x="1659.2" y="727.6" textLength="12.2" clip-path="url(#terminal-3086065318-line-29)">
</text><text class="terminal-3086065318-r3" x="12.2" y="752" textLength="732" clip-path="url(#terminal-3086065318-line-30)">============================================================</text><text class="terminal-3086065318-r1" x="1659.2" y="752" textLength="12.2" clip-path="url(#terminal-3086065318-line-30)">
</text><text class="terminal-3086065318-r1" x="1659.2" y="776.4" textLength="12.2" clip-path="url(#terminal-3086065318-line-31)">
</text><text class="terminal-3086065318-r10" x="12.2" y="800.8" textLength="195.2" clip-path="url(#terminal-3086065318-line-32)">MISSION&#160;COMPLETE</text><text class="terminal-3086065318-r1" x="1659.2" y="800.8" textLength="12.2" clip-path="url(#terminal-3086065318-line-32)">
</text><text class="terminal-3086065318-r1" x="1659.2" y="825.2" textLength="12.2" clip-path="url(#terminal-3086065318-line-33)">
</text><text class="terminal-3086065318-r1" x="1659.2" y="849.6" textLength="12.2" clip-path="url(#terminal-3086065318-line-34)">
</text><text class="terminal-3086065318-r17" x="24.4" y="874" textLength="48.8" clip-path="url(#terminal-3086065318-line-35)">Food</text><text class="terminal-3086065318-r17" x="85.4" y="874" textLength="61" clip-path="url(#terminal-3086065318-line-35)">█████</text><text class="terminal-3086065318-r19" x="158.6" y="874" textLength="36.6" clip-path="url(#terminal-3086065318-line-35)">96%</text><text class="terminal-3086065318-r20" x="219.6" y="874" textLength="61" clip-path="url(#terminal-3086065318-line-35)">Water</text><text class="terminal-3086065318-r17" x="292.8" y="874" textLength="61" clip-path="url(#terminal-3086065318-line-35)">█████</text><text class="terminal-3086065318-r19" x="366" y="874" textLength="36.6" clip-path="url(#terminal-3086065318-line-35)">94%</text><text class="terminal-3086065318-r21" x="427" y="874" textLength="48.8" clip-path="url(#terminal-3086065318-line-35)">Suit</text><text class="terminal-3086065318-r17" x="488" y="874" textLength="61" clip-path="url(#terminal-3086065318-line-35)">█████</text><text class="terminal-3086065318-r19" x="561.2" y="874" textLength="36.6" clip-path="url(#terminal-3086065318-line-35)">99%</text><text class="terminal-3086065318-r22" x="622.2" y="874" textLength="48.8" clip-path="url(#terminal-3086065318-line-35)">Batt</text><text class="terminal-3086065318-r17" x="683.2" y="874" textLength="36.6" clip-path="url(#terminal-3086065318-line-35)">███</text><text class="terminal-3086065318-r19" x="719.8" y="874" textLength="24.4" clip-path="url(#terminal-3086065318-line-35)">░░</text><text class="terminal-3086065318-r19" x="756.4" y="874" textLength="36.6" clip-path="url(#terminal-3086065318-line-35)">52%</text><text class="terminal-3086065318-r23" x="817.4" y="874" textLength="97.6" clip-path="url(#terminal-3086065318-line-35)">Ship&#160;1/3</text><text class="terminal-3086065318-r19" x="939.4" y="874" textLength="97.6" clip-path="url(#terminal-3086065318-line-35)">Inv&#160;4/15</text><text class="terminal-3086065318-r19" x="1061.4" y="874" textLength="48.8" clip-path="url(#terminal-3086065318-line-35)">⏱&#160;2h</text><text class="terminal-3086065318-r1" x="1659.2" y="874" textLength="12.2" clip-path="url(#terminal-3086065318-line-35)">
</text><text class="terminal-3086065318-r24" x="12.2" y="898.4" textLength="256.2" clip-path="url(#terminal-3086065318-line-36)">Play&#160;again?&#160;(y/n)&#160;&gt;&#160;&#160;</text><text class="terminal-3086065318-r25" x="305" y="898.4" textLength="195.2" clip-path="url(#terminal-3086065318-line-36)">Enter&#160;command...</text><text class="terminal-3086065318-r1" x="1659.2" y="898.4" textLength="12.2" clip-path="url(#terminal-3086065318-line-36)">
</text><text class="terminal-3086065318-r1" x="1659.2" y="922.8" textLength="12.2" clip-path="url(#terminal-3086065318-line-37)">
</text>
    </g>
    </g>
</svg>
