<svg class="rich-terminal" viewBox="0 0 1678 1001.5999999999999" xmlns="http://www.w3.org/2000/svg">
    <!-- Generated with Rich https://www.textualize.io -->
    <style>

    @font-face {
        font-family: "Fira Code";
        src: local("FiraCode-Regular"),
                url("https://cdnjs.cloudflare.com/ajax/libs/firacode/6.2.0/woff2/FiraCode-Regular.woff2") format("woff2"),
                url("https://cdnjs.cloudflare.com/ajax/libs/firacode/6.2.0/woff/FiraCode-Regular.woff") format("woff");
        font-style: normal;
        font-weight: 400;
    }
    @font-face {
        font-family: "Fira Code";
        src: local("FiraCode-Bold"),
                url("https://cdnjs.cloudflare.com/ajax/libs/firacode/6.2.0/woff2/FiraCode-Bold.woff2") format("woff2"),
                url("https://cdnjs.cloudflare.com/ajax/libs/firacode/6.2.0/woff/FiraCode-Bold.woff") format("woff");
        font-style: bold;
        font-weight: 700;
    }

    .terminal-2121270576-matrix {
        font-family: Fira Code, monospace;
        font-size: 20px;
        line-height: 24.4px;
        font-variant-east-asian: full-width;
    }

    .terminal-2121270576-title {
        font-size: 18px;
        font-weight: bold;
        font-family: arial;
    }

    .terminal-2121270576-r1 { fill: #c5c8c6 }
.terminal-2121270576-r2 { fill: #c89450;font-weight: bold }
.terminal-2121270576-r3 { fill: #f6f6ef;font-weight: bold }
.terminal-2121270576-r4 { fill: #e0e0e0 }
.terminal-2121270576-r5 { fill: #c4c5b5 }
.terminal-2121270576-r6 { fill: #f4005f }
.terminal-2121270576-r7 { fill: #58d1eb }
.terminal-2121270576-r8 { fill: #58d1eb;font-weight: bold }
.terminal-2121270576-r9 { fill: #e0e0e0;font-style: italic; }
.terminal-2121270576-r10 { fill: #0a0d18 }
.terminal-2121270576-r11 { fill: #97989c }
.terminal-2121270576-r12 { fill: #98e024 }
.terminal-2121270576-r13 { fill: #e0e0e0;font-weight: bold }
.terminal-2121270576-r14 { fill: #fd971f }
.terminal-2121270576-r15 { fill: #008000 }
.terminal-2121270576-r16 { fill: #8890b0 }
.terminal-2121270576-r17 { fill: #5f6680 }
.terminal-2121270576-r18 { fill: #00ffff }
.terminal-2121270576-r19 { fill: #c89450 }
.terminal-2121270576-r20 { fill: #a080d0 }
.terminal-2121270576-r21 { fill: #ff0000 }
.terminal-2121270576-r22 { fill: #5ca8c8;font-weight: bold }
.terminal-2121270576-r23 { fill: #121212 }
.terminal-2121270576-r24 { fill: #6f717b }
.terminal-2121270576-r25 { fill: #b4bcd4 }
    </style>

    <defs>
    <clipPath id="terminal-2121270576-clip-terminal">
      <rect x="0" y="0" width="1658.1999999999998" height="950.5999999999999" />
    </clipPath>
    <clipPath id="terminal-2121270576-line-0">
    <rect x="0" y="1.5" width="1659.2" height="24.65"/>
            </clipPath>
<clipPath id="terminal-2121270576-line-1">
    <rect x="0" y="25.9" width="1659.2" height="24.65"/>
            </clipPath>
<clipPath id="terminal-2121270576-line-2">
    <rect x="0" y="50.3" width="1659.2" height="24.65"/>
            </clipPath>
<clipPath id="terminal-2121270576-line-3">
    <rect x="0" y="74.7" width="1659.2" height="24.65"/>
            </clipPath>
<clipPath id="terminal-2121270576-line-4">
    <rect x="0" y="99.1" width="1659.2" height="24.65"/>
            </clipPath>
<clipPath id="terminal-2121270576-line-5">
    <rect x="0" y="123.5" width="1659.2" height="24.65"/>
            </clipPath>
<clipPath id="terminal-2121270576-line-6">
    <rect x="0" y="147.9" width="1659.2" height="24.65"/>
            </clipPath>
<clipPath id="terminal-2121270576-line-7">
    <rect x="0" y="172.3" width="1659.2" height="24.65"/>
            </clipPath>
<clipPath id="terminal-2121270576-line-8">
    <rect x="0" y="196.7" width="1659.2" height="24.65"/>
            </clipPath>
<clipPath id="terminal-2121270576-line-9">
    <rect x="0" y="221.1" width="1659.2" height="24.65"/>
            </clipPath>
<clipPath id="terminal-2121270576-line-10">
    <rect x="0" y="245.5" width="1659.2" height="24.65"/>
            </clipPath>
<clipPath id="terminal-2121270576-line-11">
    <rect x="0" y="269.9" width="1659.2" height="24.65"/>
            </clipPath>
<clipPath id="terminal-2121270576-line-12">
    <rect x="0" y="294.3" width="1659.2" height="24.65"/>
            </clipPath>
<clipPath id="terminal-2121270576-line-13">
    <rect x="0" y="318.7" width="1659.2" height="24.65"/>
            </clipPath>
<clipPath id="terminal-2121270576-line-14">
    <rect x="0" y="343.1" width="1659.2" height="24.65"/>
            </clipPath>
<clipPath id="terminal-2121270576-line-15">
    <rect x="0" y="367.5" width="1659.2" height="24.65"/>
            </clipPath>
<clipPath id="terminal-2121270576-line-16">
    <rect x="0" y="391.9" width="1659.2" height="24.65"/>
            </clipPath>
<clipPath id="terminal-2121270576-line-17">
    <rect x="0" y="416.3" width="1659.2" height="24.65"/>
            </clipPath>
<clipPath id="terminal-2121270576-line-18">
    <rect x="0" y="440.7" width="1659.2" height="24.65"/>
            </clipPath>
<clipPath id="terminal-2121270576-line-19">
    <rect x="0" y="465.1" width="1659.2" height="24.65"/>
            </clipPath>
<clipPath id="terminal-2121270576-line-20">
    <rect x="0" y="489.5" width="1659.2" height="24.65"/>
            </clipPath>
<clipPath id="terminal-2121270576-line-21">
    <rect x="0" y="513.9" width="1659.2" height="24.65"/>
            </clipPath>
<clipPath id="terminal-2121270576-line-22">
    <rect x="0" y="538.3" width="1659.2" height="24.65"/>
            </clipPath>
<clipPath id="terminal-2121270576-line-23">
    <rect x="0" y="562.7" width="1659.2" height="24.65"/>
            </clipPath>
<clipPath id="terminal-2121270576-line-24">
    <rect x="0" y="587.1" width="1659.2" height="24.65"/>
            </clipPath>
<clipPath id="terminal-2121270576-line-25">
    <rect x="0" y="611.5" width="1659.2" height="24.65"/>
            </clipPath>
<clipPath id="terminal-2121270576-line-26">
    <rect x="0" y="635.9" width="1659.2" height="24.65"/>
            </clipPath>
<clipPath id="terminal-2121270576-line-27">
    <rect x="0" y="660.3" width="1659.2" height="24.65"/>
            </clipPath>
<clipPath id="terminal-2121270576-line-28">
    <rect x="0" y="684.7" width="1659.2" height="24.65"/>
            </clipPath>
<clipPath id="terminal-2121270576-line-29">
    <rect x="0" y="709.1" width="1659.2" height="24.65"/>
            </clipPath>
<clipPath id="terminal-2121270576-line-30">
    <rect x="0" y="733.5" width="1659.2" height="24.65"/>
            </clipPath>
<clipPath id="terminal-2121270576-line-31">
    <rect x="0" y="757.9" width="1659.2" height="24.65"/>
            </clipPath>
<clipPath id="terminal-2121270576-line-32">
    <rect x="0" y="782.3" width="1659.2" height="24.65"/>
            </clipPath>
<clipPath id="terminal-2121270576-line-33">
    <rect x="0" y="806.7" width="1659.2" height="24.65"/>
            </clipPath>
<clipPath id="terminal-2121270576-line-34">
    <rect x="0" y="831.1" width="1659.2" height="24.65"/>
            </clipPath>
<clipPath id="terminal-2121270576-line-35">
    <rect x="0" y="855.5" width="1659.2" height="24.65"/>
            </clipPath>
<clipPath id="terminal-2121270576-line-36">
    <rect x="0" y="879.9" width="1659.2" height="24.65"/>
            </clipPath>
<clipPath id="terminal-2121270576-line-37">
    <rect x="0" y="904.3" width="1659.2" height="24.65"/>
            </clipPath>
    </defs>

    <rect fill="#292929" stroke="rgba(255,255,255,0.35)" stroke-width="1" x="1" y="1" width="1676" height="999.6" rx="8"/><text class="terminal-2121270576-title" fill="#c5c8c6" text-anchor="middle" x="838" y="27">Moon&#160;Traveler&#160;Terminal</text>
            <g transform="translate(26,22)">
            <circle cx="0" cy="0" r="7" fill="#ff5f57"/>
            <circle cx="22" cy="0" r="7" fill="#febc2e"/>
            <circle cx="44" cy="0" r="7" fill="#28c840"/>
            </g>
        
    <g transform="translate(9, 41)" clip-path="url(#terminal-2121270576-clip-terminal)">
    <rect fill="#111525" x="0" y="1.5" width="24.4" height="24.65" shape-rendering="crispEdges"/><rect fill="#111525" x="24.4" y="1.5" width="268.4" height="24.65" shape-rendering="crispEdges"/><rect fill="#111525" x="292.8" y="1.5" width="1342" height="24.65" shape-rendering="crispEdges"/><rect fill="#111525" x="1634.8" y="1.5" width="24.4" height="24.65" shape-rendering="crispEdges"/><rect fill="#0a0d18" x="0" y="25.9" width="12.2" height="24.65" shape-rendering="crispEdges"/><rect fill="#0a0d18" x="12.2" y="25.9" width="61" height="24.65" shape-rendering="crispEdges"/><rect fill="#0a0d18" x="73.2" y="25.9" width="12.2" height="24.65" shape-rendering="crispEdges"/><rect fill="#0a0d18" x="85.4" y="25.9" width="1134.6" height="24.65" shape-rendering="crispEdges"/><rect fill="#0a0d18" x="1220" y="25.9" width="402.6" height="24.65" shape-rendering="crispEdges"/><rect fill="#111525" x="1622.6" y="25.9" width="24.4" height="24.65" shape-rendering="crispEdges"/><rect fill="#0a0d18" x="1647" y="25.9" width="12.2" height="24.65" shape-rendering="crispEdges"/><rect fill="#0a0d18" x="0" y="50.3" width="12.2" height="24.65" shape-rendering="crispEdges"/><rect fill="#0a0d18" x="12.2" y="50.3" width="366" height="24.65" shape-rendering="crispEdges"/><rect fill="#0a0d18" x="378.2" y="50.3" width="1244.4" height="24.65" shape-rendering="crispEdges"/><rect fill="#111525" x="1622.6" y="50.3" width="24.4" height="24.65" shape-rendering="crispEdges"/><rect fill="#0a0d18" x="1647" y="50.3" width="12.2" height="24.65" shape-rendering="crispEdges"/><rect fill="#0a0d18" x="0" y="74.7" width="12.2" height="24.65" shape-rendering="crispEdges"/><rect fill="#0a0d18" x="12.2" y="74.7" width="1610.4" height="24.65" shape-rendering="crispEdges"/><rect fill="#111525" x="1622.6" y="74.7" width="24.4" height="24.65" shape-rendering="crispEdges"/><rect fill="#0a0d18" x="1647" y="74.7" width="12.2" height="24.65" shape-rendering="crispEdges"/><rect fill="#0a0d18" x="0" y="99.1" width="12.2" height="24.65" shape-rendering="crispEdges"/><rect fill="#0a0d18" x="12.2" y="99.1" width="24.4" height="24.65" shape-rendering="crispEdges"/><rect fill="#0a0d18" x="36.6" y="99.1" width="573.4" height="24.65" shape-rendering="crispEdges"/><rect fill="#0a0d18" x="610" y="99.1" width="12.2" height="24.65" shape-rendering="crispEdges"/><rect fill="#0a0d18" x="622.2" y="99.1" width="122" height="24.65" shape-rendering="crispEdges"/><rect fill="#0a0d18" x="744.2" y="99.1" width="170.8" height="24.65" shape-rendering="crispEdges"/><rect fill="#0a0d18" x="915" y="99.1" width="585.6" height="24.65" shape-rendering="crispEdges"/><rect fill="#0a0d18" x="1500.6" y="99.1" width="24.4" height="24.65" shape-rendering="crispEdges"/><rect fill="#0a0d18" x="1525" y="99.1" width="97.6" height="24.65" shape-rendering="crispEdges"/><rect fill="#111525" x="1622.6" y="99.1" width="24.4" height="24.65" shape-rendering="crispEdges"/><rect fill="#0a0d18" x="1647" y="99.1" width="12.2" height="24.65" shape-rendering="crispEdges"/><rect fill="#0a0d18" x="0" y="123.5" width="12.2" height="24.65" shape-rendering="crispEdges"/><rect fill="#0a0d18" x="12.2" y="123.5" width="12.2" height="24.65" shape-rendering="crispEdges"/><rect fill="#0a0d18" x="24.4" y="123.5" width="12.2" height="24.65" shape-rendering="crispEdges"/><rect fill="#0a0d18" x="36.6" y="123.5" width="1464" height="24.65" shape-rendering="crispEdges"/><rect fill="#0a0d18" x="1500.6" y="123.5" width="12.2" height="24.65" shape-rendering="crispEdges"/><rect fill="#0a0d18" x="1512.8" y="123.5" width="12.2" height="24.65" shape-rendering="crispEdges"/><rect fill="#0a0d18" x="1525" y="123.5" width="97.6" height="24.65" shape-rendering="crispEdges"/><rect fill="#111525" x="1622.6" y="123.5" width="24.4" height="24.65" shape-rendering="crispEdges"/><rect fill="#0a0d18" x="1647" y="123.5" width="12.2" height="24.65" shape-rendering="crispEdges"/><rect fill="#0a0d18" x="0" y="147.9" width="12.2" height="24.65" shape-rendering="crispEdges"/><rect fill="#0a0d18" x="12.2" y="147.9" width="1512.8" height="24.65" shape-rendering="crispEdges"/><rect fill="#0a0d18" x="1525" y="147.9" width="97.6" height="24.65" shape-rendering="crispEdges"/><rect fill="#2a3050" x="1622.6" y="147.9" width="24.4" height="24.65" shape-rendering="crispEdges"/><rect fill="#0a0d18" x="1647" y="147.9" width="12.2" height="24.65" shape-rendering="crispEdges"/><rect fill="#0a0d18" x="0" y="172.3" width="12.2" height="24.65" shape-rendering="crispEdges"/><rect fill="#0a0d18" x="12.2" y="172.3" width="402.6" height="24.65" shape-rendering="crispEdges"/><rect fill="#0a0d18" x="414.8" y="172.3" width="1207.8" height="24.65" shape-rendering="crispEdges"/><rect fill="#2a3050" x="1622.6" y="172.3" width="24.4" height="24.65" shape-rendering="crispEdges"/><rect fill="#0a0d18" x="1647" y="172.3" width="12.2" height="24.65" shape-rendering="crispEdges"/><rect fill="#0a0d18" x="0" y="196.7" width="12.2" height="24.65" shape-rendering="crispEdges"/><rect fill="#0a0d18" x="12.2" y="196.7" width="317.2" height="24.65" shape-rendering="crispEdges"/><rect fill="#0a0d18" x="329.4" y="196.7" width="1293.2" height="24.65" shape-rendering="crispEdges"/><rect fill="#2a3050" x="1622.6" y="196.7" width="24.4" height="24.65" shape-rendering="crispEdges"/><rect fill="#0a0d18" x="1647" y="196.7" width="12.2" height="24.65" shape-rendering="crispEdges"/><rect fill="#0a0d18" x="0" y="221.1" width="12.2" height="24.65" shape-rendering="crispEdges"/><rect fill="#0a0d18" x="12.2" y="221.1" width="353.8" height="24.65" shape-rendering="crispEdges"/><rect fill="#0a0d18" x="366" y="221.1" width="1256.6" height="24.65" shape-rendering="crispEdges"/><rect fill="#2a3050" x="1622.6" y="221.1" width="24.4" height="24.65" shape-rendering="crispEdges"/><rect fill="#0a0d18" x="1647" y="221.1" width="12.2" height="24.65" shape-rendering="crispEdges"/><rect fill="#0a0d18" x="0" y="245.5" width="12.2" height="24.65" shape-rendering="crispEdges"/><rect fill="#0a0d18" x="12.2" y="245.5" width="24.4" height="24.65" shape-rendering="crispEdges"/><rect fill="#0a0d18" x="36.6" y="245.5" width="122" height="24.65" shape-rendering="crispEdges"/><rect fill="#0a0d18" x="158.6" y="245.5" width="280.6" height="24.65" shape-rendering="crispEdges"/><rect fill="#0a0d18" x="439.2" y="245.5" width="1183.4" height="24.65" shape-rendering="crispEdges"/><rect fill="#2a3050" x="1622.6" y="245.5" width="24.4" height="24.65" shape-rendering="crispEdges"/><rect fill="#0a0d18" x="1647" y="245.5" width="12.2" height="24.65" shape-rendering="crispEdges"/><rect fill="#0a0d18" x="0" y="269.9" width="12.2" height="24.65" shape-rendering="crispEdges"/><rect fill="#0a0d18" x="12.2" y="269.9" width="61" height="24.65" shape-rendering="crispEdges"/><rect fill="#0a0d18" x="73.2" y="269.9" width="12.2" height="24.65" shape-rendering="crispEdges"/><rect fill="#0a0d18" x="85.4" y="269.9" width="463.6" height="24.65" shape-rendering="crispEdges"/><rect fill="#0a0d18" x="549" y="269.9" width="1073.6" height="24.65" shape-rendering="crispEdges"/><rect fill="#2a3050" x="1622.6" y="269.9" width="24.4" height="24.65" shape-rendering="crispEdges"/><rect fill="#0a0d18" x="1647" y="269.9" width="12.2" height="24.65" shape-rendering="crispEdges"/><rect fill="#0a0d18" x="0" y="294.3" width="12.2" height="24.65" shape-rendering="crispEdges"/><rect fill="#0a0d18" x="12.2" y="294.3" width="231.8" height="24.65" shape-rendering="crispEdges"/><rect fill="#0a0d18" x="244" y="294.3" width="1378.6" height="24.65" shape-rendering="crispEdges"/><rect fill="#2a3050" x="1622.6" y="294.3" width="24.4" height="24.65" shape-rendering="crispEdges"/><rect fill="#0a0d18" x="1647" y="294.3" width="12.2" height="24.65" shape-rendering="crispEdges"/><rect fill="#0a0d18" x="0" y="318.7" width="12.2" height="24.65" shape-rendering="crispEdges"/><rect fill="#0a0d18" x="12.2" y="318.7" width="24.4" height="24.65" shape-rendering="crispEdges"/><rect fill="#0a0d18" x="36.6" y="318.7" width="73.2" height="24.65" shape-rendering="crispEdges"/><rect fill="#0a0d18" x="109.8" y="318.7" width="12.2" height="24.65" shape-rendering="crispEdges"/><rect fill="#0a0d18" x="122" y="318.7" width="207.4" height="24.65" shape-rendering="crispEdges"/><rect fill="#0a0d18" x="329.4" y="318.7" width="1293.2" height="24.65" shape-rendering="crispEdges"/><rect fill="#2a3050" x="1622.6" y="318.7" width="24.4" height="24.65" shape-rendering="crispEdges"/><rect fill="#0a0d18" x="1647" y="318.7" width="12.2" height="24.65" shape-rendering="crispEdges"/><rect fill="#0a0d18" x="0" y="343.1" width="12.2" height="24.65" shape-rendering="crispEdges"/><rect fill="#0a0d18" x="12.2" y="343.1" width="1610.4" height="24.65" shape-rendering="crispEdges"/><rect fill="#2a3050" x="1622.6" y="343.1" width="24.4" height="24.65" shape-rendering="crispEdges"/><rect fill="#0a0d18" x="1647" y="343.1" width="12.2" height="24.65" shape-rendering="crispEdges"/><rect fill="#0a0d18" x="0" y="367.5" width="12.2" height="24.65" shape-rendering="crispEdges"/><rect fill="#0a0d18" x="12.2" y="367.5" width="341.6" height="24.65" shape-rendering="crispEdges"/><rect fill="#0a0d18" x="353.8" y="367.5" width="1268.8" height="24.65" shape-rendering="crispEdges"/><rect fill="#2a3050" x="1622.6" y="367.5" width="24.4" height="24.65" shape-rendering="crispEdges"/><rect fill="#0a0d18" x="1647" y="367.5" width="12.2" height="24.65" shape-rendering="crispEdges"/><rect fill="#0a0d18" x="0" y="391.9" width="12.2" height="24.65" shape-rendering="crispEdges"/><rect fill="#0a0d18" x="12.2" y="391.9" width="1610.4" height="24.65" shape-rendering="crispEdges"/><rect fill="#2a3050" x="1622.6" y="391.9" width="24.4" height="24.65" shape-rendering="crispEdges"/><rect fill="#0a0d18" x="1647" y="391.9" width="12.2" height="24.65" shape-rendering="crispEdges"/><rect fill="#0a0d18" x="0" y="416.3" width="12.2" height="24.65" shape-rendering="crispEdges"/><rect fill="#0a0d18" x="12.2" y="416.3" width="24.4" height="24.65" shape-rendering="crispEdges"/><rect fill="#0a0d18" x="36.6" y="416.3" width="73.2" height="24.65" shape-rendering="crispEdges"/><rect fill="#0a0d18" x="109.8" y="416.3" width="256.2" height="24.65" shape-rendering="crispEdges"/><rect fill="#0a0d18" x="366" y="416.3" width="1256.6" height="24.65" shape-rendering="crispEdges"/><rect fill="#2a3050" x="1622.6" y="416.3" width="24.4" height="24.65" shape-rendering="crispEdges"/><rect fill="#0a0d18" x="1647" y="416.3" width="12.2" height="24.65" shape-rendering="crispEdges"/><rect fill="#0a0d18" x="0" y="440.7" width="12.2" height="24.65" shape-rendering="crispEdges"/><rect fill="#0a0d18" x="12.2" y="440.7" width="475.8" height="24.65" shape-rendering="crispEdges"/><rect fill="#0a0d18" x="488" y="440.7" width="1134.6" height="24.65" shape-rendering="crispEdges"/><rect fill="#2a3050" x="1622.6" y="440.7" width="24.4" height="24.65" shape-rendering="crispEdges"/><rect fill="#0a0d18" x="1647" y="440.7" width="12.2" height="24.65" shape-rendering="crispEdges"/><rect fill="#0a0d18" x="0" y="465.1" width="12.2" height="24.65" shape-rendering="crispEdges"/><rect fill="#0a0d18" x="12.2" y="465.1" width="573.4" height="24.65" shape-rendering="crispEdges"/><rect fill="#0a0d18" x="585.6" y="465.1" width="1037" height="24.65" shape-rendering="crispEdges"/><rect fill="#2a3050" x="1622.6" y="465.1" width="24.4" height="24.65" shape-rendering="crispEdges"/><rect fill="#0a0d18" x="1647" y="465.1" width="12.2" height="24.65" shape-rendering="crispEdges"/><rect fill="#0a0d18" x="0" y="489.5" width="12.2" height="24.65" shape-rendering="crispEdges"/><rect fill="#0a0d18" x="12.2" y="489.5" width="402.6" height="24.65" shape-rendering="crispEdges"/><rect fill="#0a0d18" x="414.8" y="489.5" width="1207.8" height="24.65" shape-rendering="crispEdges"/><rect fill="#2a3050" x="1622.6" y="489.5" width="24.4" height="24.65" shape-rendering="crispEdges"/><rect fill="#0a0d18" x="1647" y="489.5" width="12.2" height="24.65" shape-rendering="crispEdges"/><rect fill="#0a0d18" x="0" y="513.9" width="12.2" height="24.65" shape-rendering="crispEdges"/><rect fill="#0a0d18" x="12.2" y="513.9" width="353.8" height="24.65" shape-rendering="crispEdges"/><rect fill="#0a0d18" x="366" y="513.9" width="1256.6" height="24.65" shape-rendering="crispEdges"/><rect fill="#2a3050" x="1622.6" y="513.9" width="24.4" height="24.65" shape-rendering="crispEdges"/><rect fill="#0a0d18" x="1647" y="513.9" width="12.2" height="24.65" shape-rendering="crispEdges"/><rect fill="#0a0d18" x="0" y="538.3" width="12.2" height="24.65" shape-rendering="crispEdges"/><rect fill="#0a0d18" x="12.2" y="538.3" width="158.6" height="24.65" shape-rendering="crispEdges"/><rect fill="#0a0d18" x="170.8" y="538.3" width="1451.8" height="24.65" shape-rendering="crispEdges"/><rect fill="#2a3050" x="1622.6" y="538.3" width="24.4" height="24.65" shape-rendering="crispEdges"/><rect fill="#0a0d18" x="1647" y="538.3" width="12.2" height="24.65" shape-rendering="crispEdges"/><rect fill="#0a0d18" x="0" y="562.7" width="12.2" height="24.65" shape-rendering="crispEdges"/><rect fill="#0a0d18" x="12.2" y="562.7" width="1610.4" height="24.65" shape-rendering="crispEdges"/><rect fill="#2a3050" x="1622.6" y="562.7" width="24.4" height="24.65" shape-rendering="crispEdges"/><rect fill="#0a0d18" x="1647" y="562.7" width="12.2" height="24.65" shape-rendering="crispEdges"/><rect fill="#0a0d18" x="0" y="587.1" width="12.2" height="24.65" shape-rendering="crispEdges"/><rect fill="#0a0d18" x="12.2" y="587.1" width="549" height="24.65" shape-rendering="crispEdges"/><rect fill="#0a0d18" x="561.2" y="587.1" width="1061.4" height="24.65" shape-rendering="crispEdges"/><rect fill="#2a3050" x="1622.6" y="587.1" width="24.4" height="24.65" shape-rendering="crispEdges"/><rect fill="#0a0d18" x="1647" y="587.1" width="12.2" height="24.65" shape-rendering="crispEdges"/><rect fill="#0a0d18" x="0" y="611.5" width="12.2" height="24.65" shape-rendering="crispEdges"/><rect fill="#0a0d18" x="12.2" y="611.5" width="390.4" height="24.65" shape-rendering="crispEdges"/><rect fill="#0a0d18" x="402.6" y="611.5" width="1220" height="24.65" shape-rendering="crispEdges"/><rect fill="#2a3050" x="1622.6" y="611.5" width="24.4" height="24.65" shape-rendering="crispEdges"/><rect fill="#0a0d18" x="1647" y="611.5" width="12.2" height="24.65" shape-rendering="crispEdges"/><rect fill="#0a0d18" x="0" y="635.9" width="12.2" height="24.65" shape-rendering="crispEdges"/><rect fill="#0a0d18" x="12.2" y="635.9" width="24.4" height="24.65" shape-rendering="crispEdges"/><rect fill="#0a0d18" x="36.6" y="635.9" width="573.4" height="24.65" shape-rendering="crispEdges"/><rect fill="#0a0d18" x="610" y="635.9" width="12.2" height="24.65" shape-rendering="crispEdges"/><rect fill="#0a0d18" x="622.2" y="635.9" width="122" height="24.65" shape-rendering="crispEdges"/><rect fill="#0a0d18" x="744.2" y="635.9" width="170.8" height="24.65" shape-rendering="crispEdges"/><rect fill="#0a0d18" x="915" y="635.9" width="585.6" height="24.65" shape-rendering="crispEdges"/><rect fill="#0a0d18" x="1500.6" y="635.9" width="24.4" height="24.65" shape-rendering="crispEdges"/><rect fill="#0a0d18" x="1525" y="635.9" width="97.6" height="24.65" shape-rendering="crispEdges"/><rect fill="#2a3050" x="1622.6" y="635.9" width="24.4" height="24.65" shape-rendering="crispEdges"/><rect fill="#0a0d18" x="1647" y="635.9" width="12.2" height="24.65" shape-rendering="crispEdges"/><rect fill="#0a0d18" x="0" y="660.3" width="12.2" height="24.65" shape-rendering="crispEdges"/><rect fill="#0a0d18" x="12.2" y="660.3" width="12.2" height="24.65" shape-rendering="crispEdges"/><rect fill="#0a0d18" x="24.4" y="660.3" width="12.2" height="24.65" shape-rendering="crispEdges"/><rect fill="#0a0d18" x="36.6" y="660.3" width="1464" height="24.65" shape-rendering="crispEdges"/><rect fill="#0a0d18" x="1500.6" y="660.3" width="12.2" height="24.65" shape-rendering="crispEdges"/><rect fill="#0a0d18" x="1512.8" y="660.3" width="12.2" height="24.65" shape-rendering="crispEdges"/><rect fill="#0a0d18" x="1525" y="660.3" width="97.6" height="24.65" shape-rendering="crispEdges"/><rect fill="#2a3050" x="1622.6" y="660.3" width="24.4" height="24.65" shape-rendering="crispEdges"/><rect fill="#0a0d18" x="1647" y="660.3" width="12.2" height="24.65" shape-rendering="crispEdges"/><rect fill="#0a0d18" x="0" y="684.7" width="12.2" height="24.65" shape-rendering="crispEdges"/><rect fill="#0a0d18" x="12.2" y="684.7" width="1512.8" height="24.65" shape-rendering="crispEdges"/><rect fill="#0a0d18" x="1525" y="684.7" width="97.6" height="24.65" shape-rendering="crispEdges"/><rect fill="#2a3050" x="1622.6" y="684.7" width="24.4" height="24.65" shape-rendering="crispEdges"/><rect fill="#0a0d18" x="1647" y="684.7" width="12.2" height="24.65" shape-rendering="crispEdges"/><rect fill="#0a0d18" x="0" y="709.1" width="12.2" height="24.65" shape-rendering="crispEdges"/><rect fill="#0a0d18" x="12.2" y="709.1" width="1610.4" height="24.65" shape-rendering="crispEdges"/><rect fill="#2a3050" x="1622.6" y="709.1" width="24.4" height="24.65" shape-rendering="crispEdges"/><rect fill="#0a0d18" x="1647" y="709.1" width="12.2" height="24.65" shape-rendering="crispEdges"/><rect fill="#0a0d18" x="0" y="733.5" width="12.2" height="24.65" shape-rendering="crispEdges"/><rect fill="#0a0d18" x="12.2" y="733.5" width="329.4" height="24.65" shape-rendering="crispEdges"/><rect fill="#0a0d18" x="341.6" y="733.5" width="1281" height="24.65" shape-rendering="crispEdges"/><rect fill="#2a3050" x="1622.6" y="733.5" width="24.4" height="24.65" shape-rendering="crispEdges"/><rect fill="#0a0d18" x="1647" y="733.5" width="12.2" height="24.65" shape-rendering="crispEdges"/><rect fill="#0a0d18" x="0" y="757.9" width="12.2" height="24.65" shape-rendering="crispEdges"/><rect fill="#0a0d18" x="12.2" y="757.9" width="24.4" height="24.65" shape-rendering="crispEdges"/><rect fill="#0a0d18" x="36.6" y="757.9" width="134.2" height="24.65" shape-rendering="crispEdges"/><rect fill="#0a0d18" x="170.8" y="757.9" width="1451.8" height="24.65" shape-rendering="crispEdges"/><rect fill="#2a3050" x="1622.6" y="757.9" width="24.4" height="24.65" shape-rendering="crispEdges"/><rect fill="#0a0d18" x="1647" y="757.9" width="12.2" height="24.65" shape-rendering="crispEdges"/><rect fill="#0a0d18" x="0" y="782.3" width="12.2" height="24.65" shape-rendering="crispEdges"/><rect fill="#0a0d18" x="12.2" y="782.3" width="24.4" height="24.65" shape-rendering="crispEdges"/><rect fill="#0a0d18" x="36.6" y="782.3" width="134.2" height="24.65" shape-rendering="crispEdges"/><rect fill="#0a0d18" x="170.8" y="782.3" width="1451.8" height="24.65" shape-rendering="crispEdges"/><rect fill="#2a3050" x="1622.6" y="782.3" width="24.4" height="24.65" shape-rendering="crispEdges"/><rect fill="#0a0d18" x="1647" y="782.3" width="12.2" height="24.65" shape-rendering="crispEdges"/><rect fill="#0a0d18" x="0" y="806.7" width="12.2" height="24.65" shape-rendering="crispEdges"/><rect fill="#0a0d18" x="12.2" y="806.7" width="24.4" height="24.65" shape-rendering="crispEdges"/><rect fill="#0a0d18" x="36.6" y="806.7" width="85.4" height="24.65" shape-rendering="crispEdges"/><rect fill="#0a0d18" x="122" y="806.7" width="1500.6" height="24.65" shape-rendering="crispEdges"/><rect fill="#2a3050" x="1622.6" y="806.7" width="24.4" height="24.65" shape-rendering="crispEdges"/><rect fill="#0a0d18" x="1647" y="806.7" width="12.2" height="24.65" shape-rendering="crispEdges"/><rect fill="#0a0d18" x="0" y="831.1" width="12.2" height="24.65" shape-rendering="crispEdges"/><rect fill="#0a0d18" x="12.2" y="831.1" width="1610.4" height="24.65" shape-rendering="crispEdges"/><rect fill="#2a3050" x="1622.6" y="831.1" width="24.4" height="24.65" shape-rendering="crispEdges"/><rect fill="#0a0d18" x="1647" y="831.1" width="12.2" height="24.65" shape-rendering="crispEdges"/><rect fill="#111525" x="0" y="855.5" width="24.4" height="24.65" shape-rendering="crispEdges"/><rect fill="#111525" x="24.4" y="855.5" width="48.8" height="24.65" shape-rendering="crispEdges"/><rect fill="#111525" x="73.2" y="855.5" width="12.2" height="24.65" shape-rendering="crispEdges"/><rect fill="#111525" x="85.4" y="855.5" width="61" height="24.65" shape-rendering="crispEdges"/><rect fill="#111525" x="146.4" y="855.5" width="12.2" height="24.65" shape-rendering="crispEdges"/><rect fill="#111525" x="158.6" y="855.5" width="48.8" height="24.65" shape-rendering="crispEdges"/><rect fill="#111525" x="207.4" y="855.5" width="24.4" height="24.65" shape-rendering="crispEdges"/><rect fill="#111525" x="231.8" y="855.5" width="61" height="24.65" shape-rendering="crispEdges"/><rect fill="#111525" x="292.8" y="855.5" width="12.2" height="24.65" shape-rendering="crispEdges"/><rect fill="#111525" x="305" y="855.5" width="61" height="24.65" shape-rendering="crispEdges"/><rect fill="#111525" x="366" y="855.5" width="12.2" height="24.65" shape-rendering="crispEdges"/><rect fill="#111525" x="378.2" y="855.5" width="48.8" height="24.65" shape-rendering="crispEdges"/><rect fill="#111525" x="427" y="855.5" width="24.4" height="24.65" shape-rendering="crispEdges"/><rect fill="#111525" x="451.4" y="855.5" width="48.8" height="24.65" shape-rendering="crispEdges"/><rect fill="#111525" x="500.2" y="855.5" width="12.2" height="24.65" shape-rendering="crispEdges"/><rect fill="#111525" x="512.4" y="855.5" width="61" height="24.65" shape-rendering="crispEdges"/><rect fill="#111525" x="573.4" y="855.5" width="12.2" height="24.65" shape-rendering="crispEdges"/><rect fill="#111525" x="585.6" y="855.5" width="48.8" height="24.65" shape-rendering="crispEdges"/><rect fill="#111525" x="634.4" y="855.5" width="24.4" height="24.65" shape-rendering="crispEdges"/><rect fill="#111525" x="658.8" y="855.5" width="48.8" height="24.65" shape-rendering="crispEdges"/><rect fill="#111525" x="707.6" y="855.5" width="12.2" height="24.65" shape-rendering="crispEdges"/><rect fill="#111525" x="719.8" y="855.5" width="73.2" height="24.65" shape-rendering="crispEdges"/><rect fill="#111525" x="793" y="855.5" width="12.2" height="24.65" shape-rendering="crispEdges"/><rect fill="#111525" x="805.2" y="855.5" width="48.8" height="24.65" shape-rendering="crispEdges"/><rect fill="#111525" x="854" y="855.5" width="24.4" height="24.65" shape-rendering="crispEdges"/><rect fill="#111525" x="878.4" y="855.5" width="97.6" height="24.65" shape-rendering="crispEdges"/><rect fill="#111525" x="976" y="855.5" width="24.4" height="24.65" shape-rendering="crispEdges"/><rect fill="#111525" x="1000.4" y="855.5" width="97.6" height="24.65" shape-rendering="crispEdges"/><rect fill="#111525" x="1098" y="855.5" width="24.4" height="24.65" shape-rendering="crispEdges"/><rect fill="#111525" x="1122.4" y="855.5" width="48.8" height="24.65" shape-rendering="crispEdges"/><rect fill="#111525" x="1171.2" y="855.5" width="463.6" height="24.65" shape-rendering="crispEdges"/><rect fill="#111525" x="1634.8" y="855.5" width="24.4" height="24.65" shape-rendering="crispEdges"/><rect fill="#0e1122" x="0" y="879.9" width="12.2" height="24.65" shape-rendering="crispEdges"/><rect fill="#0e1122" x="12.2" y="879.9" width="500.2" height="24.65" shape-rendering="crispEdges"/><rect fill="#0e1122" x="512.4" y="879.9" width="12.2" height="24.65" shape-rendering="crispEdges"/><rect fill="#181b2b" x="524.6" y="879.9" width="24.4" height="24.65" shape-rendering="crispEdges"/><rect fill="#e0e0e0" x="549" y="879.9" width="12.2" height="24.65" shape-rendering="crispEdges"/><rect fill="#181b2b" x="561.2" y="879.9" width="183" height="24.65" shape-rendering="crispEdges"/><rect fill="#181b2b" x="744.2" y="879.9" width="878.4" height="24.65" shape-rendering="crispEdges"/><rect fill="#181b2b" x="1622.6" y="879.9" width="24.4" height="24.65" shape-rendering="crispEdges"/><rect fill="#0e1122" x="1647" y="879.9" width="12.2" height="24.65" shape-rendering="crispEdges"/><rect fill="#0e1122" x="0" y="904.3" width="12.2" height="24.65" shape-rendering="crispEdges"/><rect fill="#0e1122" x="12.2" y="904.3" width="512.4" height="24.65" shape-rendering="crispEdges"/><rect fill="#181b2b" x="524.6" y="904.3" width="24.4" height="24.65" shape-rendering="crispEdges"/><rect fill="#181b2b" x="549" y="904.3" width="1073.6" height="24.65" shape-rendering="crispEdges"/><rect fill="#181b2b" x="1622.6" y="904.3" width="24.4" height="24.65" shape-rendering="crispEdges"/><rect fill="#0e1122" x="1647" y="904.3" width="12.2" height="24.65" shape-rendering="crispEdges"/><rect fill="#0e1122" x="0" y="928.7" width="12.2" height="24.65" shape-rendering="crispEdges"/><rect fill="#0e1122" x="12.2" y="928.7" width="512.4" height="24.65" shape-rendering="crispEdges"/><rect fill="#181b2b" x="524.6" y="928.7" width="24.4" height="24.65" shape-rendering="crispEdges"/><rect fill="#181b2b" x="549" y="928.7" width="1073.6" height="24.65" shape-rendering="crispEdges"/><rect fill="#181b2b" x="1622.6" y="928.7" width="24.4" height="24.65" shape-rendering="crispEdges"/><rect fill="#0e1122" x="1647" y="928.7" width="12.2" height="24.65" shape-rendering="crispEdges"/>
    <g class="terminal-2121270576-matrix">
    <text class="terminal-2121270576-r2" x="24.4" y="20" textLength="268.4" clip-path="url(#terminal-2121270576-line-0)">Moon&#160;Traveler&#160;Terminal</text><text class="terminal-2121270576-r1" x="1659.2" y="20" textLength="12.2" clip-path="url(#terminal-2121270576-line-0)">
</text><text class="terminal-2121270576-r3" x="12.2" y="44.4" textLength="61" clip-path="url(#terminal-2121270576-line-1)">ARIA:</text><text class="terminal-2121270576-r5" x="85.4" y="44.4" textLength="1134.6" clip-path="url(#terminal-2121270576-line-1)">Arrived&#160;at&#160;Crash&#160;Site.&#160;Food:&#160;86%&#160;(-2)&#160;|&#160;Water:&#160;97%&#160;(-3)&#160;|&#160;Suit:&#160;90%&#160;(-10)&#160;|&#160;Battery:&#160;99%&#160;(-3)</text><text class="terminal-2121270576-r1" x="1659.2" y="44.4" textLength="12.2" clip-path="url(#terminal-2121270576-line-1)">
</text><text class="terminal-2121270576-r6" x="12.2" y="68.8" textLength="366" clip-path="url(#terminal-2121270576-line-2)">Drone&#160;recharged&#160;at&#160;crash&#160;site.</text><text class="terminal-2121270576-r1" x="1659.2" y="68.8" textLength="12.2" clip-path="url(#terminal-2121270576-line-2)">
</text><text class="terminal-2121270576-r1" x="1659.2" y="93.2" textLength="12.2" clip-path="url(#terminal-2121270576-line-3)">
</text><text class="terminal-2121270576-r7" x="12.2" y="117.6" textLength="24.4" clip-path="url(#terminal-2121270576-line-4)">╭─</text><text class="terminal-2121270576-r7" x="36.6" y="117.6" textLength="573.4" clip-path="url(#terminal-2121270576-line-4)">───────────────────────────────────────────────</text><text class="terminal-2121270576-r8" x="622.2" y="117.6" textLength="122" clip-path="url(#terminal-2121270576-line-4)">Crash&#160;Site</text><text class="terminal-2121270576-r7" x="744.2" y="117.6" textLength="170.8" clip-path="url(#terminal-2121270576-line-4)">&#160;[Crash&#160;Site]&#160;</text><text class="terminal-2121270576-r7" x="915" y="117.6" textLength="585.6" clip-path="url(#terminal-2121270576-line-4)">────────────────────────────────────────────────</text><text class="terminal-2121270576-r7" x="1500.6" y="117.6" textLength="24.4" clip-path="url(#terminal-2121270576-line-4)">─╮</text><text class="terminal-2121270576-r1" x="1659.2" y="117.6" textLength="12.2" clip-path="url(#terminal-2121270576-line-4)">
</text><text class="terminal-2121270576-r7" x="12.2" y="142" textLength="12.2" clip-path="url(#terminal-2121270576-line-5)">│</text><text class="terminal-2121270576-r9" x="36.6" y="142" textLength="1464" clip-path="url(#terminal-2121270576-line-5)">Your&#160;ship&#160;lies&#160;crumpled&#160;in&#160;a&#160;shallow&#160;crater,&#160;venting&#160;steam&#160;into&#160;the&#160;thin&#160;atmosphere.&#160;Debris&#160;is&#160;scattered&#160;across&#160;the&#160;ice.</text><text class="terminal-2121270576-r7" x="1512.8" y="142" textLength="12.2" clip-path="url(#terminal-2121270576-line-5)">│</text><text class="terminal-2121270576-r1" x="1659.2" y="142" textLength="12.2" clip-path="url(#terminal-2121270576-line-5)">
</text><text class="terminal-2121270576-r7" x="12.2" y="166.4" textLength="1512.8" clip-path="url(#terminal-2121270576-line-6)">╰──────────────────────────────────────────────────────────────────────────────────────────────────────────────────────────╯</text><text class="terminal-2121270576-r1" x="1659.2" y="166.4" textLength="12.2" clip-path="url(#terminal-2121270576-line-6)">
</text><text class="terminal-2121270576-r11" x="12.2" y="190.8" textLength="402.6" clip-path="url(#terminal-2121270576-line-7)">Drone&#160;autopilot:&#160;scanning&#160;area...</text><text class="terminal-2121270576-r1" x="1659.2" y="190.8" textLength="12.2" clip-path="url(#terminal-2121270576-line-7)">
</text><text class="terminal-2121270576-r4" x="12.2" y="215.2" textLength="317.2" clip-path="url(#terminal-2121270576-line-8)">&#160;&#160;Scanning&#160;surroundings...</text><text class="terminal-2121270576-r1" x="1659.2" y="215.2" textLength="12.2" clip-path="url(#terminal-2121270576-line-8)">
</text><text class="terminal-2121270576-r12" x="12.2" y="239.6" textLength="353.8" clip-path="url(#terminal-2121270576-line-9)">Discovered&#160;1&#160;new&#160;location(s):</text><text class="terminal-2121270576-r1" x="1659.2" y="239.6" textLength="12.2" clip-path="url(#terminal-2121270576-line-9)">
</text><text class="terminal-2121270576-r7" x="36.6" y="264" textLength="122" clip-path="url(#terminal-2121270576-line-10)">Ashen&#160;Rift</text><text class="terminal-2121270576-r4" x="158.6" y="264" textLength="280.6" clip-path="url(#terminal-2121270576-line-10)">&#160;(canyon)&#160;—&#160;9.9&#160;km&#160;away</text><text class="terminal-2121270576-r1" x="1659.2" y="264" textLength="12.2" clip-path="url(#terminal-2121270576-line-10)">
</text><text class="terminal-2121270576-r3" x="12.2" y="288.4" textLength="61" clip-path="url(#terminal-2121270576-line-11)">ARIA:</text><text class="terminal-2121270576-r5" x="85.4" y="288.4" textLength="463.6" clip-path="url(#terminal-2121270576-line-11)">Scan&#160;complete.&#160;1&#160;new&#160;signature&#160;logged.</text><text class="terminal-2121270576-r1" x="1659.2" y="288.4" textLength="12.2" clip-path="url(#terminal-2121270576-line-11)">
</text><text class="terminal-2121270576-r11" x="12.2" y="312.8" textLength="231.8" clip-path="url(#terminal-2121270576-line-12)">Drone&#160;battery:&#160;115%</text><text class="terminal-2121270576-r1" x="1659.2" y="312.8" textLength="12.2" clip-path="url(#terminal-2121270576-line-12)">
</text><text class="terminal-2121270576-r12" x="36.6" y="337.2" textLength="73.2" clip-path="url(#terminal-2121270576-line-13)">Aurren</text><text class="terminal-2121270576-r11" x="122" y="337.2" textLength="207.4" clip-path="url(#terminal-2121270576-line-13)">travels&#160;with&#160;you.</text><text class="terminal-2121270576-r1" x="1659.2" y="337.2" textLength="12.2" clip-path="url(#terminal-2121270576-line-13)">
</text><text class="terminal-2121270576-r1" x="1659.2" y="361.6" textLength="12.2" clip-path="url(#terminal-2121270576-line-14)">
</text><text class="terminal-2121270576-r13" x="12.2" y="386" textLength="341.6" clip-path="url(#terminal-2121270576-line-15)">──&#160;Companions&#160;at&#160;the&#160;Ship&#160;──</text><text class="terminal-2121270576-r1" x="1659.2" y="386" textLength="12.2" clip-path="url(#terminal-2121270576-line-15)">
</text><text class="terminal-2121270576-r1" x="1659.2" y="410.4" textLength="12.2" clip-path="url(#terminal-2121270576-line-16)">
</text><text class="terminal-2121270576-r12" x="36.6" y="434.8" textLength="73.2" clip-path="url(#terminal-2121270576-line-17)">Aurren</text><text class="terminal-2121270576-r4" x="109.8" y="434.8" textLength="256.2" clip-path="url(#terminal-2121270576-line-17)">&#160;examines&#160;the&#160;ship...</text><text class="terminal-2121270576-r1" x="1659.2" y="434.8" textLength="12.2" clip-path="url(#terminal-2121270576-line-17)">
</text><text class="terminal-2121270576-r12" x="12.2" y="459.2" textLength="475.8" clip-path="url(#terminal-2121270576-line-18)">&#160;&#160;Aurren&#160;tends&#160;to&#160;your&#160;suit.&#160;Suit&#160;+10%!</text><text class="terminal-2121270576-r1" x="1659.2" y="459.2" textLength="12.2" clip-path="url(#terminal-2121270576-line-18)">
</text><text class="terminal-2121270576-r12" x="12.2" y="483.6" textLength="573.4" clip-path="url(#terminal-2121270576-line-19)">&#160;&#160;Aurren&#160;provides&#160;nourishment.&#160;Food/Water&#160;+25%!</text><text class="terminal-2121270576-r1" x="1659.2" y="483.6" textLength="12.2" clip-path="url(#terminal-2121270576-line-19)">
</text><text class="terminal-2121270576-r12" x="12.2" y="508" textLength="402.6" clip-path="url(#terminal-2121270576-line-20)">&#160;&#160;Aurren&#160;contributes:&#160;Ice&#160;Crystal</text><text class="terminal-2121270576-r1" x="1659.2" y="508" textLength="12.2" clip-path="url(#terminal-2121270576-line-20)">
</text><text class="terminal-2121270576-r12" x="12.2" y="532.4" textLength="353.8" clip-path="url(#terminal-2121270576-line-21)">&#160;&#160;Aurren&#160;contributes:&#160;Bio&#160;Gel</text><text class="terminal-2121270576-r1" x="1659.2" y="532.4" textLength="12.2" clip-path="url(#terminal-2121270576-line-21)">
</text><text class="terminal-2121270576-r11" x="12.2" y="556.8" textLength="158.6" clip-path="url(#terminal-2121270576-line-22)">&#160;&#160;(+10&#160;trust)</text><text class="terminal-2121270576-r1" x="1659.2" y="556.8" textLength="12.2" clip-path="url(#terminal-2121270576-line-22)">
</text><text class="terminal-2121270576-r1" x="1659.2" y="581.2" textLength="12.2" clip-path="url(#terminal-2121270576-line-23)">
</text><text class="terminal-2121270576-r13" x="12.2" y="605.6" textLength="549" clip-path="url(#terminal-2121270576-line-24)">Your&#160;companions&#160;can&#160;stay&#160;here&#160;or&#160;return&#160;home.</text><text class="terminal-2121270576-r1" x="1659.2" y="605.6" textLength="12.2" clip-path="url(#terminal-2121270576-line-24)">
</text><text class="terminal-2121270576-r11" x="12.2" y="630" textLength="390.4" clip-path="url(#terminal-2121270576-line-25)">&#160;&#160;Aurren&#160;returns&#160;to&#160;Titan&#160;Basin.</text><text class="terminal-2121270576-r1" x="1659.2" y="630" textLength="12.2" clip-path="url(#terminal-2121270576-line-25)">
</text><text class="terminal-2121270576-r7" x="12.2" y="654.4" textLength="24.4" clip-path="url(#terminal-2121270576-line-26)">╭─</text><text class="terminal-2121270576-r7" x="36.6" y="654.4" textLength="573.4" clip-path="url(#terminal-2121270576-line-26)">───────────────────────────────────────────────</text><text class="terminal-2121270576-r8" x="622.2" y="654.4" textLength="122" clip-path="url(#terminal-2121270576-line-26)">Crash&#160;Site</text><text class="terminal-2121270576-r7" x="744.2" y="654.4" textLength="170.8" clip-path="url(#terminal-2121270576-line-26)">&#160;[Crash&#160;Site]&#160;</text><text class="terminal-2121270576-r7" x="915" y="654.4" textLength="585.6" clip-path="url(#terminal-2121270576-line-26)">────────────────────────────────────────────────</text><text class="terminal-2121270576-r7" x="1500.6" y="654.4" textLength="24.4" clip-path="url(#terminal-2121270576-line-26)">─╮</text><text class="terminal-2121270576-r1" x="1659.2" y="654.4" textLength="12.2" clip-path="url(#terminal-2121270576-line-26)">
</text><text class="terminal-2121270576-r7" x="12.2" y="678.8" textLength="12.2" clip-path="url(#terminal-2121270576-line-27)">│</text><text class="terminal-2121270576-r9" x="36.6" y="678.8" textLength="1464" clip-path="url(#terminal-2121270576-line-27)">Your&#160;ship&#160;lies&#160;crumpled&#160;in&#160;a&#160;shallow&#160;crater,&#160;venting&#160;steam&#160;into&#160;the&#160;thin&#160;atmosphere.&#160;Debris&#160;is&#160;scattered&#160;across&#160;the&#160;ice.</text><text class="terminal-2121270576-r7" x="1512.8" y="678.8" textLength="12.2" clip-path="url(#terminal-2121270576-line-27)">│</text><text class="terminal-2121270576-r1" x="1659.2" y="678.8" textLength="12.2" clip-path="url(#terminal-2121270576-line-27)">
</text><text class="terminal-2121270576-r7" x="12.2" y="703.2" textLength="1512.8" clip-path="url(#terminal-2121270576-line-28)">╰──────────────────────────────────────────────────────────────────────────────────────────────────────────────────────────╯</text><text class="terminal-2121270576-r1" x="1659.2" y="703.2" textLength="12.2" clip-path="url(#terminal-2121270576-line-28)">
</text><text class="terminal-2121270576-r1" x="1659.2" y="727.6" textLength="12.2" clip-path="url(#terminal-2121270576-line-29)">
</text><text class="terminal-2121270576-r13" x="12.2" y="752" textLength="329.4" clip-path="url(#terminal-2121270576-line-30)">Materials&#160;ready&#160;to&#160;install:</text><text class="terminal-2121270576-r1" x="1659.2" y="752" textLength="12.2" clip-path="url(#terminal-2121270576-line-30)">
</text><text class="terminal-2121270576-r14" x="36.6" y="776.4" textLength="134.2" clip-path="url(#terminal-2121270576-line-31)">Ice&#160;Crystal</text><text class="terminal-2121270576-r1" x="1659.2" y="776.4" textLength="12.2" clip-path="url(#terminal-2121270576-line-31)">
</text><text class="terminal-2121270576-r14" x="36.6" y="800.8" textLength="134.2" clip-path="url(#terminal-2121270576-line-32)">Metal&#160;Shard</text><text class="terminal-2121270576-r1" x="1659.2" y="800.8" textLength="12.2" clip-path="url(#terminal-2121270576-line-32)">
</text><text class="terminal-2121270576-r14" x="36.6" y="825.2" textLength="85.4" clip-path="url(#terminal-2121270576-line-33)">Bio&#160;Gel</text><text class="terminal-2121270576-r1" x="1659.2" y="825.2" textLength="12.2" clip-path="url(#terminal-2121270576-line-33)">
</text><text class="terminal-2121270576-r1" x="1659.2" y="849.6" textLength="12.2" clip-path="url(#terminal-2121270576-line-34)">
</text><text class="terminal-2121270576-r15" x="24.4" y="874" textLength="48.8" clip-path="url(#terminal-2121270576-line-35)">Food</text><text class="terminal-2121270576-r15" x="85.4" y="874" textLength="61" clip-path="url(#terminal-2121270576-line-35)">█████</text><text class="terminal-2121270576-r17" x="158.6" y="874" textLength="48.8" clip-path="url(#terminal-2121270576-line-35)">100%</text><text class="terminal-2121270576-r18" x="231.8" y="874" textLength="61" clip-path="url(#terminal-2121270576-line-35)">Water</text><text class="terminal-2121270576-r15" x="305" y="874" textLength="61" clip-path="url(#terminal-2121270576-line-35)">█████</text><text class="terminal-2121270576-r17" x="378.2" y="874" textLength="48.8" clip-path="url(#terminal-2121270576-line-35)">100%</text><text class="terminal-2121270576-r19" x="451.4" y="874" textLength="48.8" clip-path="url(#terminal-2121270576-line-35)">Suit</text><text class="terminal-2121270576-r15" x="512.4" y="874" textLength="61" clip-path="url(#terminal-2121270576-line-35)">█████</text><text class="terminal-2121270576-r17" x="585.6" y="874" textLength="48.8" clip-path="url(#terminal-2121270576-line-35)">100%</text><text class="terminal-2121270576-r20" x="658.8" y="874" textLength="48.8" clip-path="url(#terminal-2121270576-line-35)">Batt</text><text class="terminal-2121270576-r15" x="719.8" y="874" textLength="73.2" clip-path="url(#terminal-2121270576-line-35)">██████</text><text class="terminal-2121270576-r17" x="805.2" y="874" textLength="48.8" clip-path="url(#terminal-2121270576-line-35)">115%</text><text class="terminal-2121270576-r21" x="878.4" y="874" textLength="97.6" clip-path="url(#terminal-2121270576-line-35)">Ship&#160;0/3</text><text class="terminal-2121270576-r17" x="1000.4" y="874" textLength="97.6" clip-path="url(#terminal-2121270576-line-35)">Inv&#160;6/15</text><text class="terminal-2121270576-r17" x="1122.4" y="874" textLength="48.8" clip-path="url(#terminal-2121270576-line-35)">⏱&#160;2h</text><text class="terminal-2121270576-r1" x="1659.2" y="874" textLength="12.2" clip-path="url(#terminal-2121270576-line-35)">
</text><text class="terminal-2121270576-r22" x="12.2" y="898.4" textLength="500.2" clip-path="url(#terminal-2121270576-line-36)">Install&#160;all&#160;available&#160;materials?&#160;(y/n)&#160;&gt;&#160;</text><text class="terminal-2121270576-r23" x="549" y="898.4" textLength="12.2" clip-path="url(#terminal-2121270576-line-36)">E</text><text class="terminal-2121270576-r24" x="561.2" y="898.4" textLength="183" clip-path="url(#terminal-2121270576-line-36)">nter&#160;command...</text><text class="terminal-2121270576-r1" x="1659.2" y="898.4" textLength="12.2" clip-path="url(#terminal-2121270576-line-36)">
</text><text class="terminal-2121270576-r1" x="1659.2" y="922.8" textLength="12.2" clip-path="url(#terminal-2121270576-line-37)">
</text>
    </g>
    </g>
</svg>
