<svg class="rich-terminal" viewBox="0 0 1678 1001.5999999999999" xmlns="http://www.w3.org/2000/svg">
    <!-- Generated with Rich https://www.textualize.io -->
    <style>

    @font-face {
        font-family: "Fira Code";
        src: local("FiraCode-Regular"),
                url("https://cdnjs.cloudflare.com/ajax/libs/firacode/6.2.0/woff2/FiraCode-Regular.woff2") format("woff2"),
                url("https://cdnjs.cloudflare.com/ajax/libs/firacode/6.2.0/woff/FiraCode-Regular.woff") format("woff");
        font-style: normal;
        font-weight: 400;
    }
    @font-face {
        font-family: "Fira Code";
        src: local("FiraCode-Bold"),
                url("https://cdnjs.cloudflare.com/ajax/libs/firacode/6.2.0/woff2/FiraCode-Bold.woff2") format("woff2"),
                url("https://cdnjs.cloudflare.com/ajax/libs/firacode/6.2.0/woff/FiraCode-Bold.woff") format("woff");
        font-style: bold;
        font-weight: 700;
    }

    .terminal-2205953398-matrix {
        font-family: Fira Code, monospace;
        font-size: 20px;
        line-height: 24.4px;
        font-variant-east-asian: full-width;
    }

    .terminal-2205953398-title {
        font-size: 18px;
        font-weight: bold;
        font-family: arial;
    }

    .terminal-2205953398-r1 { fill: #c5c8c6 }
.terminal-2205953398-r2 { fill: #c89450;font-weight: bold }
.terminal-2205953398-r3 { fill: #e0e0e0 }
.terminal-2205953398-r4 { fill: #58d1eb }
.terminal-2205953398-r5 { fill: #e0e0e0;font-weight: bold }
.terminal-2205953398-r6 { fill: #0a0d18 }
.terminal-2205953398-r7 { fill: #fd971f }
.terminal-2205953398-r8 { fill: #008000 }
.terminal-2205953398-r9 { fill: #8890b0 }
.terminal-2205953398-r10 { fill: #5f6680 }
.terminal-2205953398-r11 { fill: #00ffff }
.terminal-2205953398-r12 { fill: #c89450 }
.terminal-2205953398-r13 { fill: #a080d0 }
.terminal-2205953398-r14 { fill: #ff0000 }
.terminal-2205953398-r15 { fill: #5ca8c8;font-weight: bold }
.terminal-2205953398-r16 { fill: #6f717b }
.terminal-2205953398-r17 { fill: #b4bcd4 }
    </style>

    <defs>
    <clipPath id="terminal-2205953398-clip-terminal">
      <rect x="0" y="0" width="1658.1999999999998" height="950.5999999999999" />
    </clipPath>
    <clipPath id="terminal-2205953398-line-0">
    <rect x="0" y="1.5" width="1659.2" height="24.65"/>
            </clipPath>
<clipPath id="terminal-2205953398-line-1">
    <rect x="0" y="25.9" width="1659.2" height="24.65"/>
            </clipPath>
<clipPath id="terminal-2205953398-line-2">
    <rect x="0" y="50.3" width="1659.2" height="24.65"/>
            </clipPath>
<clipPath id="terminal-2205953398-line-3">
    <rect x="0" y="74.7" width="1659.2" height="24.65"/>
            </clipPath>
<clipPath id="terminal-2205953398-line-4">
    <rect x="0" y="99.1" width="1659.2" height="24.65"/>
            </clipPath>
<clipPath id="terminal-2205953398-line-5">
    <rect x="0" y="123.5" width="1659.2" height="24.65"/>
            </clipPath>
<clipPath id="terminal-2205953398-line-6">
    <rect x="0" y="147.9" width="1659.2" height="24.65"/>
            </clipPath>
<clipPath id="terminal-2205953398-line-7">
    <rect x="0" y="172.3" width="1659.2" height="24.65"/>
            </clipPath>
<clipPath id="terminal-2205953398-line-8">
    <rect x="0" y="196.7" width="1659.2" height="24.65"/>
            </clipPath>
<clipPath id="terminal-2205953398-line-9">
    <rect x="0" y="221.1" width="1659.2" height="24.65"/>
            </clipPath>
<clipPath id="terminal-2205953398-line-10">
    <rect x="0" y="245.5" width="1659.2" height="24.65"/>
            </clipPath>
<clipPath id="terminal-2205953398-line-11">
    <rect x="0" y="269.9" width="1659.2" height="24.65"/>
            </clipPath>
<clipPath id="terminal-2205953398-line-12">
    <rect x="0" y="294.3" width="1659.2" height="24.65"/>
            </clipPath>
<clipPath id="terminal-2205953398-line-13">
    <rect x="0" y="318.7" width="1659.2" height="24.65"/>
            </clipPath>
<clipPath id="terminal-2205953398-line-14">
    <rect x="0" y="343.1" width="1659.2" height="24.65"/>
            </clipPath>
<clipPath id="terminal-2205953398-line-15">
    <rect x="0" y="367.5" width="1659.2" height="24.65"/>
            </clipPath>
<clipPath id="terminal-2205953398-line-16">
    <rect x="0" y="391.9" width="1659.2" height="24.65"/>
            </clipPath>
<clipPath id="terminal-2205953398-line-17">
    <rect x="0" y="416.3" width="1659.2" height="24.65"/>
            </clipPath>
<clipPath id="terminal-2205953398-line-18">
    <rect x="0" y="440.7" width="1659.2" height="24.65"/>
            </clipPath>
<clipPath id="terminal-2205953398-line-19">
    <rect x="0" y="465.1" width="1659.2" height="24.65"/>
            </clipPath>
<clipPath id="terminal-2205953398-line-20">
    <rect x="0" y="489.5" width="1659.2" height="24.65"/>
            </clipPath>
<clipPath id="terminal-2205953398-line-21">
    <rect x="0" y="513.9" width="1659.2" height="24.65"/>
            </clipPath>
<clipPath id="terminal-2205953398-line-22">
    <rect x="0" y="538.3" width="1659.2" height="24.65"/>
            </clipPath>
<clipPath id="terminal-2205953398-line-23">
    <rect x="0" y="562.7" width="1659.2" height="24.65"/>
            </clipPath>
<clipPath id="terminal-2205953398-line-24">
    <rect x="0" y="587.1" width="1659.2" height="24.65"/>
            </clipPath>
<clipPath id="terminal-2205953398-line-25">
    <rect x="0" y="611.5" width="1659.2" height="24.65"/>
            </clipPath>
<clipPath id="terminal-2205953398-line-26">
    <rect x="0" y="635.9" width="1659.2" height="24.65"/>
            </clipPath>
<clipPath id="terminal-2205953398-line-27">
    <rect x="0" y="660.3" width="1659.2" height="24.65"/>
            </clipPath>
<clipPath id="terminal-2205953398-line-28">
    <rect x="0" y="684.7" width="1659.2" height="24.65"/>
            </clipPath>
<clipPath id="terminal-2205953398-line-29">
    <rect x="0" y="709.1" width="1659.2" height="24.65"/>
            </clipPath>
<clipPath id="terminal-2205953398-line-30">
    <rect x="0" y="733.5" width="1659.2" height="24.65"/>
            </clipPath>
<clipPath id="terminal-2205953398-line-31">
    <rect x="0" y="757.9" width="1659.2" height="24.65"/>
            </clipPath>
<clipPath id="terminal-2205953398-line-32">
    <rect x="0" y="782.3" width="1659.2" height="24.65"/>
            </clipPath>
<clipPath id="terminal-2205953398-line-33">
    <rect x="0" y="806.7" width="1659.2" height="24.65"/>
            </clipPath>
<clipPath id="terminal-2205953398-line-34">
    <rect x="0" y="831.1" width="1659.2" height="24.65"/>
            </clipPath>
<clipPath id="terminal-2205953398-line-35">
    <rect x="0" y="855.5" width="1659.2" height="24.65"/>
            </clipPath>
<clipPath id="terminal-2205953398-line-36">
    <rect x="0" y="879.9" width="1659.2" height="24.65"/>
            </clipPath>
<clipPath id="terminal-2205953398-line-37">
    <rect x="0" y="904.3" width="1659.2" height="24.65"/>
            </clipPath>
    </defs>

    <rect fill="#292929" stroke="rgba(255,255,255,0.35)" stroke-width="1" x="1" y="1" width="1676" height="999.6" rx="8"/><text class="terminal-2205953398-title" fill="#c5c8c6" text-anchor="middle" x="838" y="27">Moon&#160;Traveler&#160;Terminal</text>
            <g transform="translate(26,22)">
            <circle cx="0" cy="0" r="7" fill="#ff5f57"/>
            <circle cx="22" cy="0" r="7" fill="#febc2e"/>
            <circle cx="44" cy="0" r="7" fill="#28c840"/>
            </g>

    <g transform="translate(9, 41)" clip-path="url(#terminal-2205953398-clip-terminal)">
    <rect fill="#111525" x="0" y="1.5" width="24.4" height="24.65" shape-rendering="crispEdges"/><rect fill="#111525" x="24.4" y="1.5" width="268.4" height="24.65" shape-rendering="crispEdges"/><rect fill="#111525" x="292.8" y="1.5" width="1342" height="24.65" shape-rendering="crispEdges"/><rect fill="#111525" x="1634.8" y="1.5" width="24.4" height="24.65" shape-rendering="crispEdges"/><rect fill="#0a0d18" x="0" y="25.9" width="12.2" height="24.65" shape-rendering="crispEdges"/><rect fill="#0a0d18" x="12.2" y="25.9" width="24.4" height="24.65" shape-rendering="crispEdges"/><rect fill="#0a0d18" x="36.6" y="25.9" width="146.4" height="24.65" shape-rendering="crispEdges"/><rect fill="#0a0d18" x="183" y="25.9" width="658.8" height="24.65" shape-rendering="crispEdges"/><rect fill="#0a0d18" x="841.8" y="25.9" width="780.8" height="24.65" shape-rendering="crispEdges"/><rect fill="#111525" x="1622.6" y="25.9" width="24.4" height="24.65" shape-rendering="crispEdges"/><rect fill="#0a0d18" x="1647" y="25.9" width="12.2" height="24.65" shape-rendering="crispEdges"/><rect fill="#0a0d18" x="0" y="50.3" width="12.2" height="24.65" shape-rendering="crispEdges"/><rect fill="#0a0d18" x="12.2" y="50.3" width="1610.4" height="24.65" shape-rendering="crispEdges"/><rect fill="#111525" x="1622.6" y="50.3" width="24.4" height="24.65" shape-rendering="crispEdges"/><rect fill="#0a0d18" x="1647" y="50.3" width="12.2" height="24.65" shape-rendering="crispEdges"/><rect fill="#0a0d18" x="0" y="74.7" width="12.2" height="24.65" shape-rendering="crispEdges"/><rect fill="#0a0d18" x="12.2" y="74.7" width="85.4" height="24.65" shape-rendering="crispEdges"/><rect fill="#0a0d18" x="97.6" y="74.7" width="1525" height="24.65" shape-rendering="crispEdges"/><rect fill="#111525" x="1622.6" y="74.7" width="24.4" height="24.65" shape-rendering="crispEdges"/><rect fill="#0a0d18" x="1647" y="74.7" width="12.2" height="24.65" shape-rendering="crispEdges"/><rect fill="#0a0d18" x="0" y="99.1" width="12.2" height="24.65" shape-rendering="crispEdges"/><rect fill="#0a0d18" x="12.2" y="99.1" width="24.4" height="24.65" shape-rendering="crispEdges"/><rect fill="#0a0d18" x="36.6" y="99.1" width="73.2" height="24.65" shape-rendering="crispEdges"/><rect fill="#0a0d18" x="109.8" y="99.1" width="744.2" height="24.65" shape-rendering="crispEdges"/><rect fill="#0a0d18" x="854" y="99.1" width="768.6" height="24.65" shape-rendering="crispEdges"/><rect fill="#111525" x="1622.6" y="99.1" width="24.4" height="24.65" shape-rendering="crispEdges"/><rect fill="#0a0d18" x="1647" y="99.1" width="12.2" height="24.65" shape-rendering="crispEdges"/><rect fill="#0a0d18" x="0" y="123.5" width="12.2" height="24.65" shape-rendering="crispEdges"/><rect fill="#0a0d18" x="12.2" y="123.5" width="24.4" height="24.65" shape-rendering="crispEdges"/><rect fill="#0a0d18" x="36.6" y="123.5" width="48.8" height="24.65" shape-rendering="crispEdges"/><rect fill="#0a0d18" x="85.4" y="123.5" width="756.4" height="24.65" shape-rendering="crispEdges"/><rect fill="#0a0d18" x="841.8" y="123.5" width="780.8" height="24.65" shape-rendering="crispEdges"/><rect fill="#111525" x="1622.6" y="123.5" width="24.4" height="24.65" shape-rendering="crispEdges"/><rect fill="#0a0d18" x="1647" y="123.5" width="12.2" height="24.65" shape-rendering="crispEdges"/><rect fill="#0a0d18" x="0" y="147.9" width="12.2" height="24.65" shape-rendering="crispEdges"/><rect fill="#0a0d18" x="12.2" y="147.9" width="1610.4" height="24.65" shape-rendering="crispEdges"/><rect fill="#111525" x="1622.6" y="147.9" width="24.4" height="24.65" shape-rendering="crispEdges"/><rect fill="#0a0d18" x="1647" y="147.9" width="12.2" height="24.65" shape-rendering="crispEdges"/><rect fill="#0a0d18" x="0" y="172.3" width="12.2" height="24.65" shape-rendering="crispEdges"/><rect fill="#0a0d18" x="12.2" y="172.3" width="61" height="24.65" shape-rendering="crispEdges"/><rect fill="#0a0d18" x="73.2" y="172.3" width="1549.4" height="24.65" shape-rendering="crispEdges"/><rect fill="#111525" x="1622.6" y="172.3" width="24.4" height="24.65" shape-rendering="crispEdges"/><rect fill="#0a0d18" x="1647" y="172.3" width="12.2" height="24.65" shape-rendering="crispEdges"/><rect fill="#0a0d18" x="0" y="196.7" width="12.2" height="24.65" shape-rendering="crispEdges"/><rect fill="#0a0d18" x="12.2" y="196.7" width="24.4" height="24.65" shape-rendering="crispEdges"/><rect fill="#0a0d18" x="36.6" y="196.7" width="48.8" height="24.65" shape-rendering="crispEdges"/><rect fill="#0a0d18" x="85.4" y="196.7" width="854" height="24.65" shape-rendering="crispEdges"/><rect fill="#0a0d18" x="939.4" y="196.7" width="683.2" height="24.65" shape-rendering="crispEdges"/><rect fill="#111525" x="1622.6" y="196.7" width="24.4" height="24.65" shape-rendering="crispEdges"/><rect fill="#0a0d18" x="1647" y="196.7" width="12.2" height="24.65" shape-rendering="crispEdges"/><rect fill="#0a0d18" x="0" y="221.1" width="12.2" height="24.65" shape-rendering="crispEdges"/><rect fill="#0a0d18" x="12.2" y="221.1" width="1610.4" height="24.65" shape-rendering="crispEdges"/><rect fill="#111525" x="1622.6" y="221.1" width="24.4" height="24.65" shape-rendering="crispEdges"/><rect fill="#0a0d18" x="1647" y="221.1" width="12.2" height="24.65" shape-rendering="crispEdges"/><rect fill="#0a0d18" x="0" y="245.5" width="12.2" height="24.65" shape-rendering="crispEdges"/><rect fill="#0a0d18" x="12.2" y="245.5" width="85.4" height="24.65" shape-rendering="crispEdges"/><rect fill="#0a0d18" x="97.6" y="245.5" width="1525" height="24.65" shape-rendering="crispEdges"/><rect fill="#111525" x="1622.6" y="245.5" width="24.4" height="24.65" shape-rendering="crispEdges"/><rect fill="#0a0d18" x="1647" y="245.5" width="12.2" height="24.65" shape-rendering="crispEdges"/><rect fill="#0a0d18" x="0" y="269.9" width="12.2" height="24.65" shape-rendering="crispEdges"/><rect fill="#0a0d18" x="12.2" y="269.9" width="24.4" height="24.65" shape-rendering="crispEdges"/><rect fill="#0a0d18" x="36.6" y="269.9" width="48.8" height="24.65" shape-rendering="crispEdges"/><rect fill="#0a0d18" x="85.4" y="269.9" width="12.2" height="24.65" shape-rendering="crispEdges"/><rect fill="#0a0d18" x="97.6" y="269.9" width="500.2" height="24.65" shape-rendering="crispEdges"/><rect fill="#0a0d18" x="597.8" y="269.9" width="1024.8" height="24.65" shape-rendering="crispEdges"/><rect fill="#111525" x="1622.6" y="269.9" width="24.4" height="24.65" shape-rendering="crispEdges"/><rect fill="#0a0d18" x="1647" y="269.9" width="12.2" height="24.65" shape-rendering="crispEdges"/><rect fill="#0a0d18" x="0" y="294.3" width="12.2" height="24.65" shape-rendering="crispEdges"/><rect fill="#0a0d18" x="12.2" y="294.3" width="24.4" height="24.65" shape-rendering="crispEdges"/><rect fill="#0a0d18" x="36.6" y="294.3" width="48.8" height="24.65" shape-rendering="crispEdges"/><rect fill="#0a0d18" x="85.4" y="294.3" width="12.2" height="24.65" shape-rendering="crispEdges"/><rect fill="#0a0d18" x="97.6" y="294.3" width="353.8" height="24.65" shape-rendering="crispEdges"/><rect fill="#0a0d18" x="451.4" y="294.3" width="1171.2" height="24.65" shape-rendering="crispEdges"/><rect fill="#111525" x="1622.6" y="294.3" width="24.4" height="24.65" shape-rendering="crispEdges"/><rect fill="#0a0d18" x="1647" y="294.3" width="12.2" height="24.65" shape-rendering="crispEdges"/><rect fill="#0a0d18" x="0" y="318.7" width="12.2" height="24.65" shape-rendering="crispEdges"/><rect fill="#0a0d18" x="12.2" y="318.7" width="24.4" height="24.65" shape-rendering="crispEdges"/><rect fill="#0a0d18" x="36.6" y="318.7" width="61" height="24.65" shape-rendering="crispEdges"/><rect fill="#0a0d18" x="97.6" y="318.7" width="463.6" height="24.65" shape-rendering="crispEdges"/><rect fill="#0a0d18" x="561.2" y="318.7" width="1061.4" height="24.65" shape-rendering="crispEdges"/><rect fill="#111525" x="1622.6" y="318.7" width="24.4" height="24.65" shape-rendering="crispEdges"/><rect fill="#0a0d18" x="1647" y="318.7" width="12.2" height="24.65" shape-rendering="crispEdges"/><rect fill="#0a0d18" x="0" y="343.1" width="12.2" height="24.65" shape-rendering="crispEdges"/><rect fill="#0a0d18" x="12.2" y="343.1" width="24.4" height="24.65" shape-rendering="crispEdges"/><rect fill="#0a0d18" x="36.6" y="343.1" width="122" height="24.65" shape-rendering="crispEdges"/><rect fill="#0a0d18" x="158.6" y="343.1" width="439.2" height="24.65" shape-rendering="crispEdges"/><rect fill="#0a0d18" x="597.8" y="343.1" width="1024.8" height="24.65" shape-rendering="crispEdges"/><rect fill="#111525" x="1622.6" y="343.1" width="24.4" height="24.65" shape-rendering="crispEdges"/><rect fill="#0a0d18" x="1647" y="343.1" width="12.2" height="24.65" shape-rendering="crispEdges"/><rect fill="#0a0d18" x="0" y="367.5" width="12.2" height="24.65" shape-rendering="crispEdges"/><rect fill="#0a0d18" x="12.2" y="367.5" width="24.4" height="24.65" shape-rendering="crispEdges"/><rect fill="#0a0d18" x="36.6" y="367.5" width="97.6" height="24.65" shape-rendering="crispEdges"/><rect fill="#0a0d18" x="134.2" y="367.5" width="414.8" height="24.65" shape-rendering="crispEdges"/><rect fill="#0a0d18" x="549" y="367.5" width="1073.6" height="24.65" shape-rendering="crispEdges"/><rect fill="#111525" x="1622.6" y="367.5" width="24.4" height="24.65" shape-rendering="crispEdges"/><rect fill="#0a0d18" x="1647" y="367.5" width="12.2" height="24.65" shape-rendering="crispEdges"/><rect fill="#0a0d18" x="0" y="391.9" width="12.2" height="24.65" shape-rendering="crispEdges"/><rect fill="#0a0d18" x="12.2" y="391.9" width="24.4" height="24.65" shape-rendering="crispEdges"/><rect fill="#0a0d18" x="36.6" y="391.9" width="73.2" height="24.65" shape-rendering="crispEdges"/><rect fill="#0a0d18" x="109.8" y="391.9" width="683.2" height="24.65" shape-rendering="crispEdges"/><rect fill="#0a0d18" x="793" y="391.9" width="829.6" height="24.65" shape-rendering="crispEdges"/><rect fill="#111525" x="1622.6" y="391.9" width="24.4" height="24.65" shape-rendering="crispEdges"/><rect fill="#0a0d18" x="1647" y="391.9" width="12.2" height="24.65" shape-rendering="crispEdges"/><rect fill="#0a0d18" x="0" y="416.3" width="12.2" height="24.65" shape-rendering="crispEdges"/><rect fill="#0a0d18" x="12.2" y="416.3" width="24.4" height="24.65" shape-rendering="crispEdges"/><rect fill="#0a0d18" x="36.6" y="416.3" width="61" height="24.65" shape-rendering="crispEdges"/><rect fill="#0a0d18" x="97.6" y="416.3" width="36.6" height="24.65" shape-rendering="crispEdges"/><rect fill="#0a0d18" x="134.2" y="416.3" width="36.6" height="24.65" shape-rendering="crispEdges"/><rect fill="#0a0d18" x="170.8" y="416.3" width="341.6" height="24.65" shape-rendering="crispEdges"/><rect fill="#0a0d18" x="512.4" y="416.3" width="1110.2" height="24.65" shape-rendering="crispEdges"/><rect fill="#111525" x="1622.6" y="416.3" width="24.4" height="24.65" shape-rendering="crispEdges"/><rect fill="#0a0d18" x="1647" y="416.3" width="12.2" height="24.65" shape-rendering="crispEdges"/><rect fill="#0a0d18" x="0" y="440.7" width="12.2" height="24.65" shape-rendering="crispEdges"/><rect fill="#0a0d18" x="12.2" y="440.7" width="24.4" height="24.65" shape-rendering="crispEdges"/><rect fill="#0a0d18" x="36.6" y="440.7" width="48.8" height="24.65" shape-rendering="crispEdges"/><rect fill="#0a0d18" x="85.4" y="440.7" width="500.2" height="24.65" shape-rendering="crispEdges"/><rect fill="#0a0d18" x="585.6" y="440.7" width="1037" height="24.65" shape-rendering="crispEdges"/><rect fill="#111525" x="1622.6" y="440.7" width="24.4" height="24.65" shape-rendering="crispEdges"/><rect fill="#0a0d18" x="1647" y="440.7" width="12.2" height="24.65" shape-rendering="crispEdges"/><rect fill="#0a0d18" x="0" y="465.1" width="12.2" height="24.65" shape-rendering="crispEdges"/><rect fill="#0a0d18" x="12.2" y="465.1" width="24.4" height="24.65" shape-rendering="crispEdges"/><rect fill="#0a0d18" x="36.6" y="465.1" width="48.8" height="24.65" shape-rendering="crispEdges"/><rect fill="#0a0d18" x="85.4" y="465.1" width="36.6" height="24.65" shape-rendering="crispEdges"/><rect fill="#0a0d18" x="122" y="465.1" width="48.8" height="24.65" shape-rendering="crispEdges"/><rect fill="#0a0d18" x="170.8" y="465.1" width="268.4" height="24.65" shape-rendering="crispEdges"/><rect fill="#0a0d18" x="439.2" y="465.1" width="1183.4" height="24.65" shape-rendering="crispEdges"/><rect fill="#111525" x="1622.6" y="465.1" width="24.4" height="24.65" shape-rendering="crispEdges"/><rect fill="#0a0d18" x="1647" y="465.1" width="12.2" height="24.65" shape-rendering="crispEdges"/><rect fill="#0a0d18" x="0" y="489.5" width="12.2" height="24.65" shape-rendering="crispEdges"/><rect fill="#0a0d18" x="12.2" y="489.5" width="1610.4" height="24.65" shape-rendering="crispEdges"/><rect fill="#111525" x="1622.6" y="489.5" width="24.4" height="24.65" shape-rendering="crispEdges"/><rect fill="#0a0d18" x="1647" y="489.5" width="12.2" height="24.65" shape-rendering="crispEdges"/><rect fill="#0a0d18" x="0" y="513.9" width="12.2" height="24.65" shape-rendering="crispEdges"/><rect fill="#0a0d18" x="12.2" y="513.9" width="1610.4" height="24.65" shape-rendering="crispEdges"/><rect fill="#111525" x="1622.6" y="513.9" width="24.4" height="24.65" shape-rendering="crispEdges"/><rect fill="#0a0d18" x="1647" y="513.9" width="12.2" height="24.65" shape-rendering="crispEdges"/><rect fill="#0a0d18" x="0" y="538.3" width="12.2" height="24.65" shape-rendering="crispEdges"/><rect fill="#0a0d18" x="12.2" y="538.3" width="280.6" height="24.65" shape-rendering="crispEdges"/><rect fill="#0a0d18" x="292.8" y="538.3" width="1329.8" height="24.65" shape-rendering="crispEdges"/><rect fill="#111525" x="1622.6" y="538.3" width="24.4" height="24.65" shape-rendering="crispEdges"/><rect fill="#0a0d18" x="1647" y="538.3" width="12.2" height="24.65" shape-rendering="crispEdges"/><rect fill="#0a0d18" x="0" y="562.7" width="12.2" height="24.65" shape-rendering="crispEdges"/><rect fill="#0a0d18" x="12.2" y="562.7" width="24.4" height="24.65" shape-rendering="crispEdges"/><rect fill="#0a0d18" x="36.6" y="562.7" width="134.2" height="24.65" shape-rendering="crispEdges"/><rect fill="#0a0d18" x="170.8" y="562.7" width="634.4" height="24.65" shape-rendering="crispEdges"/><rect fill="#0a0d18" x="805.2" y="562.7" width="817.4" height="24.65" shape-rendering="crispEdges"/><rect fill="#111525" x="1622.6" y="562.7" width="24.4" height="24.65" shape-rendering="crispEdges"/><rect fill="#0a0d18" x="1647" y="562.7" width="12.2" height="24.65" shape-rendering="crispEdges"/><rect fill="#0a0d18" x="0" y="587.1" width="12.2" height="24.65" shape-rendering="crispEdges"/><rect fill="#0a0d18" x="12.2" y="587.1" width="24.4" height="24.65" shape-rendering="crispEdges"/><rect fill="#0a0d18" x="36.6" y="587.1" width="146.4" height="24.65" shape-rendering="crispEdges"/><rect fill="#0a0d18" x="183" y="587.1" width="597.8" height="24.65" shape-rendering="crispEdges"/><rect fill="#0a0d18" x="780.8" y="587.1" width="841.8" height="24.65" shape-rendering="crispEdges"/><rect fill="#111525" x="1622.6" y="587.1" width="24.4" height="24.65" shape-rendering="crispEdges"/><rect fill="#0a0d18" x="1647" y="587.1" width="12.2" height="24.65" shape-rendering="crispEdges"/><rect fill="#0a0d18" x="0" y="611.5" width="12.2" height="24.65" shape-rendering="crispEdges"/><rect fill="#0a0d18" x="12.2" y="611.5" width="24.4" height="24.65" shape-rendering="crispEdges"/><rect fill="#0a0d18" x="36.6" y="611.5" width="146.4" height="24.65" shape-rendering="crispEdges"/><rect fill="#0a0d18" x="183" y="611.5" width="768.6" height="24.65" shape-rendering="crispEdges"/><rect fill="#0a0d18" x="951.6" y="611.5" width="671" height="24.65" shape-rendering="crispEdges"/><rect fill="#111525" x="1622.6" y="611.5" width="24.4" height="24.65" shape-rendering="crispEdges"/><rect fill="#0a0d18" x="1647" y="611.5" width="12.2" height="24.65" shape-rendering="crispEdges"/><rect fill="#0a0d18" x="0" y="635.9" width="12.2" height="24.65" shape-rendering="crispEdges"/><rect fill="#0a0d18" x="12.2" y="635.9" width="24.4" height="24.65" shape-rendering="crispEdges"/><rect fill="#0a0d18" x="36.6" y="635.9" width="158.6" height="24.65" shape-rendering="crispEdges"/><rect fill="#0a0d18" x="195.2" y="635.9" width="780.8" height="24.65" shape-rendering="crispEdges"/><rect fill="#0a0d18" x="976" y="635.9" width="646.6" height="24.65" shape-rendering="crispEdges"/><rect fill="#111525" x="1622.6" y="635.9" width="24.4" height="24.65" shape-rendering="crispEdges"/><rect fill="#0a0d18" x="1647" y="635.9" width="12.2" height="24.65" shape-rendering="crispEdges"/><rect fill="#0a0d18" x="0" y="660.3" width="12.2" height="24.65" shape-rendering="crispEdges"/><rect fill="#0a0d18" x="12.2" y="660.3" width="24.4" height="24.65" shape-rendering="crispEdges"/><rect fill="#0a0d18" x="36.6" y="660.3" width="146.4" height="24.65" shape-rendering="crispEdges"/><rect fill="#0a0d18" x="183" y="660.3" width="695.4" height="24.65" shape-rendering="crispEdges"/><rect fill="#0a0d18" x="878.4" y="660.3" width="744.2" height="24.65" shape-rendering="crispEdges"/><rect fill="#111525" x="1622.6" y="660.3" width="24.4" height="24.65" shape-rendering="crispEdges"/><rect fill="#0a0d18" x="1647" y="660.3" width="12.2" height="24.65" shape-rendering="crispEdges"/><rect fill="#0a0d18" x="0" y="684.7" width="12.2" height="24.65" shape-rendering="crispEdges"/><rect fill="#0a0d18" x="12.2" y="684.7" width="1610.4" height="24.65" shape-rendering="crispEdges"/><rect fill="#2a3050" x="1622.6" y="684.7" width="24.4" height="24.65" shape-rendering="crispEdges"/><rect fill="#0a0d18" x="1647" y="684.7" width="12.2" height="24.65" shape-rendering="crispEdges"/><rect fill="#0a0d18" x="0" y="709.1" width="12.2" height="24.65" shape-rendering="crispEdges"/><rect fill="#0a0d18" x="12.2" y="709.1" width="1610.4" height="24.65" shape-rendering="crispEdges"/><rect fill="#2a3050" x="1622.6" y="709.1" width="24.4" height="24.65" shape-rendering="crispEdges"/><rect fill="#0a0d18" x="1647" y="709.1" width="12.2" height="24.65" shape-rendering="crispEdges"/><rect fill="#0a0d18" x="0" y="733.5" width="12.2" height="24.65" shape-rendering="crispEdges"/><rect fill="#0a0d18" x="12.2" y="733.5" width="134.2" height="24.65" shape-rendering="crispEdges"/><rect fill="#0a0d18" x="146.4" y="733.5" width="1476.2" height="24.65" shape-rendering="crispEdges"/><rect fill="#2a3050" x="1622.6" y="733.5" width="24.4" height="24.65" shape-rendering="crispEdges"/><rect fill="#0a0d18" x="1647" y="733.5" width="12.2" height="24.65" shape-rendering="crispEdges"/><rect fill="#0a0d18" x="0" y="757.9" width="12.2" height="24.65" shape-rendering="crispEdges"/><rect fill="#0a0d18" x="12.2" y="757.9" width="1573.8" height="24.65" shape-rendering="crispEdges"/><rect fill="#0a0d18" x="1586" y="757.9" width="36.6" height="24.65" shape-rendering="crispEdges"/><rect fill="#2a3050" x="1622.6" y="757.9" width="24.4" height="24.65" shape-rendering="crispEdges"/><rect fill="#0a0d18" x="1647" y="757.9" width="12.2" height="24.65" shape-rendering="crispEdges"/><rect fill="#0a0d18" x="0" y="782.3" width="12.2" height="24.65" shape-rendering="crispEdges"/><rect fill="#0a0d18" x="12.2" y="782.3" width="48.8" height="24.65" shape-rendering="crispEdges"/><rect fill="#0a0d18" x="61" y="782.3" width="1561.6" height="24.65" shape-rendering="crispEdges"/><rect fill="#2a3050" x="1622.6" y="782.3" width="24.4" height="24.65" shape-rendering="crispEdges"/><rect fill="#0a0d18" x="1647" y="782.3" width="12.2" height="24.65" shape-rendering="crispEdges"/><rect fill="#0a0d18" x="0" y="806.7" width="12.2" height="24.65" shape-rendering="crispEdges"/><rect fill="#0a0d18" x="12.2" y="806.7" width="24.4" height="24.65" shape-rendering="crispEdges"/><rect fill="#0a0d18" x="36.6" y="806.7" width="280.6" height="24.65" shape-rendering="crispEdges"/><rect fill="#0a0d18" x="317.2" y="806.7" width="1305.4" height="24.65" shape-rendering="crispEdges"/><rect fill="#2a3050" x="1622.6" y="806.7" width="24.4" height="24.65" shape-rendering="crispEdges"/><rect fill="#0a0d18" x="1647" y="806.7" width="12.2" height="24.65" shape-rendering="crispEdges"/><rect fill="#0a0d18" x="0" y="831.1" width="12.2" height="24.65" shape-rendering="crispEdges"/><rect fill="#0a0d18" x="12.2" y="831.1" width="1610.4" height="24.65" shape-rendering="crispEdges"/><rect fill="#2a3050" x="1622.6" y="831.1" width="24.4" height="24.65" shape-rendering="crispEdges"/><rect fill="#0a0d18" x="1647" y="831.1" width="12.2" height="24.65" shape-rendering="crispEdges"/><rect fill="#111525" x="0" y="855.5" width="24.4" height="24.65" shape-rendering="crispEdges"/><rect fill="#111525" x="24.4" y="855.5" width="48.8" height="24.65" shape-rendering="crispEdges"/><rect fill="#111525" x="73.2" y="855.5" width="12.2" height="24.65" shape-rendering="crispEdges"/><rect fill="#111525" x="85.4" y="855.5" width="61" height="24.65" shape-rendering="crispEdges"/><rect fill="#111525" x="146.4" y="855.5" width="12.2" height="24.65" shape-rendering="crispEdges"/><rect fill="#111525" x="158.6" y="855.5" width="48.8" height="24.65" shape-rendering="crispEdges"/><rect fill="#111525" x="207.4" y="855.5" width="24.4" height="24.65" shape-rendering="crispEdges"/><rect fill="#111525" x="231.8" y="855.5" width="61" height="24.65" shape-rendering="crispEdges"/><rect fill="#111525" x="292.8" y="855.5" width="12.2" height="24.65" shape-rendering="crispEdges"/><rect fill="#111525" x="305" y="855.5" width="61" height="24.65" shape-rendering="crispEdges"/><rect fill="#111525" x="366" y="855.5" width="12.2" height="24.65" shape-rendering="crispEdges"/><rect fill="#111525" x="378.2" y="855.5" width="48.8" height="24.65" shape-rendering="crispEdges"/><rect fill="#111525" x="427" y="855.5" width="24.4" height="24.65" shape-rendering="crispEdges"/><rect fill="#111525" x="451.4" y="855.5" width="48.8" height="24.65" shape-rendering="crispEdges"/><rect fill="#111525" x="500.2" y="855.5" width="12.2" height="24.65" shape-rendering="crispEdges"/><rect fill="#111525" x="512.4" y="855.5" width="61" height="24.65" shape-rendering="crispEdges"/><rect fill="#111525" x="573.4" y="855.5" width="12.2" height="24.65" shape-rendering="crispEdges"/><rect fill="#111525" x="585.6" y="855.5" width="48.8" height="24.65" shape-rendering="crispEdges"/><rect fill="#111525" x="634.4" y="855.5" width="24.4" height="24.65" shape-rendering="crispEdges"/><rect fill="#111525" x="658.8" y="855.5" width="48.8" height="24.65" shape-rendering="crispEdges"/><rect fill="#111525" x="707.6" y="855.5" width="12.2" height="24.65" shape-rendering="crispEdges"/><rect fill="#111525" x="719.8" y="855.5" width="73.2" height="24.65" shape-rendering="crispEdges"/><rect fill="#111525" x="793" y="855.5" width="12.2" height="24.65" shape-rendering="crispEdges"/><rect fill="#111525" x="805.2" y="855.5" width="48.8" height="24.65" shape-rendering="crispEdges"/><rect fill="#111525" x="854" y="855.5" width="24.4" height="24.65" shape-rendering="crispEdges"/><rect fill="#111525" x="878.4" y="855.5" width="97.6" height="24.65" shape-rendering="crispEdges"/><rect fill="#111525" x="976" y="855.5" width="24.4" height="24.65" shape-rendering="crispEdges"/><rect fill="#111525" x="1000.4" y="855.5" width="97.6" height="24.65" shape-rendering="crispEdges"/><rect fill="#111525" x="1098" y="855.5" width="24.4" height="24.65" shape-rendering="crispEdges"/><rect fill="#111525" x="1122.4" y="855.5" width="48.8" height="24.65" shape-rendering="crispEdges"/><rect fill="#111525" x="1171.2" y="855.5" width="463.6" height="24.65" shape-rendering="crispEdges"/><rect fill="#111525" x="1634.8" y="855.5" width="24.4" height="24.65" shape-rendering="crispEdges"/><rect fill="#0e1122" x="0" y="879.9" width="12.2" height="24.65" shape-rendering="crispEdges"/><rect fill="#0e1122" x="12.2" y="879.9" width="158.6" height="24.65" shape-rendering="crispEdges"/><rect fill="#0e1122" x="170.8" y="879.9" width="12.2" height="24.65" shape-rendering="crispEdges"/><rect fill="#181b2b" x="183" y="879.9" width="24.4" height="24.65" shape-rendering="crispEdges"/><rect fill="#181b2b" x="207.4" y="879.9" width="195.2" height="24.65" shape-rendering="crispEdges"/><rect fill="#181b2b" x="402.6" y="879.9" width="1220" height="24.65" shape-rendering="crispEdges"/><rect fill="#181b2b" x="1622.6" y="879.9" width="24.4" height="24.65" shape-rendering="crispEdges"/><rect fill="#0e1122" x="1647" y="879.9" width="12.2" height="24.65" shape-rendering="crispEdges"/><rect fill="#0e1122" x="0" y="904.3" width="12.2" height="24.65" shape-rendering="crispEdges"/><rect fill="#0e1122" x="12.2" y="904.3" width="170.8" height="24.65" shape-rendering="crispEdges"/><rect fill="#181b2b" x="183" y="904.3" width="24.4" height="24.65" shape-rendering="crispEdges"/><rect fill="#181b2b" x="207.4" y="904.3" width="1415.2" height="24.65" shape-rendering="crispEdges"/><rect fill="#181b2b" x="1622.6" y="904.3" width="24.4" height="24.65" shape-rendering="crispEdges"/><rect fill="#0e1122" x="1647" y="904.3" width="12.2" height="24.65" shape-rendering="crispEdges"/><rect fill="#0e1122" x="0" y="928.7" width="12.2" height="24.65" shape-rendering="crispEdges"/><rect fill="#0e1122" x="12.2" y="928.7" width="170.8" height="24.65" shape-rendering="crispEdges"/><rect fill="#181b2b" x="183" y="928.7" width="24.4" height="24.65" shape-rendering="crispEdges"/><rect fill="#181b2b" x="207.4" y="928.7" width="1415.2" height="24.65" shape-rendering="crispEdges"/><rect fill="#181b2b" x="1622.6" y="928.7" width="24.4" height="24.65" shape-rendering="crispEdges"/><rect fill="#0e1122" x="1647" y="928.7" width="12.2" height="24.65" shape-rendering="crispEdges"/>
    <g class="terminal-2205953398-matrix">
    <text class="terminal-2205953398-r2" x="24.4" y="20" textLength="268.4" clip-path="url(#terminal-2205953398-line-0)">Moon&#160;Traveler&#160;Terminal</text><text class="terminal-2205953398-r1" x="1659.2" y="20" textLength="12.2" clip-path="url(#terminal-2205953398-line-0)">
</text><text class="terminal-2205953398-r4" x="36.6" y="44.4" textLength="146.4" clip-path="url(#terminal-2205953398-line-1)">drone&#160;charge</text><text class="terminal-2205953398-r3" x="183" y="44.4" textLength="658.8" clip-path="url(#terminal-2205953398-line-1)">&#160;&#160;&#160;&#160;&#160;&#160;&#160;&#160;&#160;—&#160;Toggle&#160;auto-charge&#160;(requires&#160;Charge&#160;Module)</text><text class="terminal-2205953398-r1" x="1659.2" y="44.4" textLength="12.2" clip-path="url(#terminal-2205953398-line-1)">
</text><text class="terminal-2205953398-r1" x="1659.2" y="68.8" textLength="12.2" clip-path="url(#terminal-2205953398-line-2)">
</text><text class="terminal-2205953398-r5" x="12.2" y="93.2" textLength="85.4" clip-path="url(#terminal-2205953398-line-3)">Player:</text><text class="terminal-2205953398-r1" x="1659.2" y="93.2" textLength="12.2" clip-path="url(#terminal-2205953398-line-3)">
</text><text class="terminal-2205953398-r4" x="36.6" y="117.6" textLength="73.2" clip-path="url(#terminal-2205953398-line-4)">status</text><text class="terminal-2205953398-r3" x="109.8" y="117.6" textLength="744.2" clip-path="url(#terminal-2205953398-line-4)">&#160;&#160;&#160;&#160;&#160;&#160;&#160;&#160;&#160;&#160;&#160;&#160;&#160;&#160;&#160;—&#160;Show&#160;player&#160;vitals&#160;(food,&#160;water,&#160;suit,&#160;time)</text><text class="terminal-2205953398-r1" x="1659.2" y="117.6" textLength="12.2" clip-path="url(#terminal-2205953398-line-4)">
</text><text class="terminal-2205953398-r4" x="36.6" y="142" textLength="48.8" clip-path="url(#terminal-2205953398-line-5)">rest</text><text class="terminal-2205953398-r3" x="85.4" y="142" textLength="756.4" clip-path="url(#terminal-2205953398-line-5)">&#160;&#160;&#160;&#160;&#160;&#160;&#160;&#160;&#160;&#160;&#160;&#160;&#160;&#160;&#160;&#160;&#160;—&#160;Rest&#160;1&#160;hour&#160;(+10%&#160;food/water,&#160;+20%&#160;at&#160;ship)</text><text class="terminal-2205953398-r1" x="1659.2" y="142" textLength="12.2" clip-path="url(#terminal-2205953398-line-5)">
</text><text class="terminal-2205953398-r1" x="1659.2" y="166.4" textLength="12.2" clip-path="url(#terminal-2205953398-line-6)">
</text><text class="terminal-2205953398-r5" x="12.2" y="190.8" textLength="61" clip-path="url(#terminal-2205953398-line-7)">Ship:</text><text class="terminal-2205953398-r1" x="1659.2" y="190.8" textLength="12.2" clip-path="url(#terminal-2205953398-line-7)">
</text><text class="terminal-2205953398-r4" x="36.6" y="215.2" textLength="48.8" clip-path="url(#terminal-2205953398-line-8)">ship</text><text class="terminal-2205953398-r3" x="85.4" y="215.2" textLength="854" clip-path="url(#terminal-2205953398-line-8)">&#160;&#160;&#160;&#160;&#160;&#160;&#160;&#160;&#160;&#160;&#160;&#160;&#160;&#160;&#160;&#160;&#160;—&#160;Show&#160;repair&#160;progress&#160;(bays&#160;available&#160;at&#160;Crash&#160;Site)</text><text class="terminal-2205953398-r1" x="1659.2" y="215.2" textLength="12.2" clip-path="url(#terminal-2205953398-line-8)">
</text><text class="terminal-2205953398-r1" x="1659.2" y="239.6" textLength="12.2" clip-path="url(#terminal-2205953398-line-9)">
</text><text class="terminal-2205953398-r5" x="12.2" y="264" textLength="85.4" clip-path="url(#terminal-2205953398-line-10)">System:</text><text class="terminal-2205953398-r1" x="1659.2" y="264" textLength="12.2" clip-path="url(#terminal-2205953398-line-10)">
</text><text class="terminal-2205953398-r4" x="36.6" y="288.4" textLength="48.8" clip-path="url(#terminal-2205953398-line-11)">save</text><text class="terminal-2205953398-r3" x="97.6" y="288.4" textLength="500.2" clip-path="url(#terminal-2205953398-line-11)">&#160;&#160;&#160;&#160;&#160;&#160;&#160;&#160;&#160;&#160;—&#160;Save&#160;game&#160;(default:&#160;&#x27;manual&#x27;)</text><text class="terminal-2205953398-r1" x="1659.2" y="288.4" textLength="12.2" clip-path="url(#terminal-2205953398-line-11)">
</text><text class="terminal-2205953398-r4" x="36.6" y="312.8" textLength="48.8" clip-path="url(#terminal-2205953398-line-12)">load</text><text class="terminal-2205953398-r3" x="97.6" y="312.8" textLength="353.8" clip-path="url(#terminal-2205953398-line-12)">&#160;&#160;&#160;&#160;&#160;&#160;&#160;&#160;&#160;&#160;—&#160;Load&#160;a&#160;saved&#160;game</text><text class="terminal-2205953398-r1" x="1659.2" y="312.8" textLength="12.2" clip-path="url(#terminal-2205953398-line-12)">
</text><text class="terminal-2205953398-r4" x="36.6" y="337.2" textLength="61" clip-path="url(#terminal-2205953398-line-13)">sound</text><text class="terminal-2205953398-r3" x="97.6" y="337.2" textLength="463.6" clip-path="url(#terminal-2205953398-line-13)">&#160;&#160;&#160;&#160;&#160;&#160;&#160;&#160;&#160;&#160;&#160;&#160;&#160;&#160;&#160;&#160;—&#160;Toggle&#160;sound&#160;effects</text><text class="terminal-2205953398-r1" x="1659.2" y="337.2" textLength="12.2" clip-path="url(#terminal-2205953398-line-13)">
</text><text class="terminal-2205953398-r4" x="36.6" y="361.6" textLength="122" clip-path="url(#terminal-2205953398-line-14)">screenshot</text><text class="terminal-2205953398-r3" x="158.6" y="361.6" textLength="439.2" clip-path="url(#terminal-2205953398-line-14)">&#160;&#160;&#160;&#160;&#160;&#160;&#160;&#160;&#160;&#160;&#160;—&#160;Save&#160;a&#160;screenshot&#160;(F12)</text><text class="terminal-2205953398-r1" x="1659.2" y="361.6" textLength="12.2" clip-path="url(#terminal-2205953398-line-14)">
</text><text class="terminal-2205953398-r4" x="36.6" y="386" textLength="97.6" clip-path="url(#terminal-2205953398-line-15)">tutorial</text><text class="terminal-2205953398-r3" x="134.2" y="386" textLength="414.8" clip-path="url(#terminal-2205953398-line-15)">&#160;&#160;&#160;&#160;&#160;&#160;&#160;&#160;&#160;&#160;&#160;&#160;&#160;—&#160;Replay&#160;the&#160;tutorial</text><text class="terminal-2205953398-r1" x="1659.2" y="386" textLength="12.2" clip-path="url(#terminal-2205953398-line-15)">
</text><text class="terminal-2205953398-r4" x="36.6" y="410.4" textLength="73.2" clip-path="url(#terminal-2205953398-line-16)">config</text><text class="terminal-2205953398-r3" x="109.8" y="410.4" textLength="683.2" clip-path="url(#terminal-2205953398-line-16)">&#160;&#160;&#160;&#160;&#160;&#160;&#160;&#160;&#160;&#160;&#160;&#160;&#160;&#160;&#160;—&#160;Game&#160;settings&#160;(save&#160;path,&#160;GPU,&#160;context)</text><text class="terminal-2205953398-r1" x="1659.2" y="410.4" textLength="12.2" clip-path="url(#terminal-2205953398-line-16)">
</text><text class="terminal-2205953398-r4" x="36.6" y="434.8" textLength="61" clip-path="url(#terminal-2205953398-line-17)">clear</text><text class="terminal-2205953398-r3" x="97.6" y="434.8" textLength="36.6" clip-path="url(#terminal-2205953398-line-17)">&#160;/&#160;</text><text class="terminal-2205953398-r4" x="134.2" y="434.8" textLength="36.6" clip-path="url(#terminal-2205953398-line-17)">cls</text><text class="terminal-2205953398-r3" x="170.8" y="434.8" textLength="341.6" clip-path="url(#terminal-2205953398-line-17)">&#160;&#160;&#160;&#160;&#160;&#160;&#160;&#160;&#160;&#160;—&#160;Clear&#160;the&#160;screen</text><text class="terminal-2205953398-r1" x="1659.2" y="434.8" textLength="12.2" clip-path="url(#terminal-2205953398-line-17)">
</text><text class="terminal-2205953398-r4" x="36.6" y="459.2" textLength="48.8" clip-path="url(#terminal-2205953398-line-18)">help</text><text class="terminal-2205953398-r3" x="85.4" y="459.2" textLength="500.2" clip-path="url(#terminal-2205953398-line-18)">&#160;&#160;&#160;&#160;&#160;&#160;&#160;&#160;&#160;&#160;&#160;&#160;&#160;&#160;&#160;&#160;&#160;—&#160;Show&#160;this&#160;help&#160;message</text><text class="terminal-2205953398-r1" x="1659.2" y="459.2" textLength="12.2" clip-path="url(#terminal-2205953398-line-18)">
</text><text class="terminal-2205953398-r4" x="36.6" y="483.6" textLength="48.8" clip-path="url(#terminal-2205953398-line-19)">quit</text><text class="terminal-2205953398-r3" x="85.4" y="483.6" textLength="36.6" clip-path="url(#terminal-2205953398-line-19)">&#160;/&#160;</text><text class="terminal-2205953398-r4" x="122" y="483.6" textLength="48.8" clip-path="url(#terminal-2205953398-line-19)">exit</text><text class="terminal-2205953398-r3" x="170.8" y="483.6" textLength="268.4" clip-path="url(#terminal-2205953398-line-19)">&#160;&#160;&#160;&#160;&#160;&#160;&#160;&#160;&#160;&#160;&#160;—&#160;Exit&#160;game</text><text class="terminal-2205953398-r1" x="1659.2" y="483.6" textLength="12.2" clip-path="url(#terminal-2205953398-line-19)">
</text><text class="terminal-2205953398-r1" x="1659.2" y="508" textLength="12.2" clip-path="url(#terminal-2205953398-line-20)">
</text><text class="terminal-2205953398-r1" x="1659.2" y="532.4" textLength="12.2" clip-path="url(#terminal-2205953398-line-21)">
</text><text class="terminal-2205953398-r5" x="12.2" y="556.8" textLength="280.6" clip-path="url(#terminal-2205953398-line-22)">Ship&#160;Bays&#160;(Crash&#160;Site):</text><text class="terminal-2205953398-r1" x="1659.2" y="556.8" textLength="12.2" clip-path="url(#terminal-2205953398-line-22)">
</text><text class="terminal-2205953398-r4" x="36.6" y="581.2" textLength="134.2" clip-path="url(#terminal-2205953398-line-23)">ship&#160;repair</text><text class="terminal-2205953398-r3" x="170.8" y="581.2" textLength="634.4" clip-path="url(#terminal-2205953398-line-23)">&#160;&#160;&#160;&#160;&#160;&#160;&#160;&#160;&#160;&#160;—&#160;Install&#160;repair&#160;materials&#160;to&#160;fix&#160;the&#160;ship</text><text class="terminal-2205953398-r1" x="1659.2" y="581.2" textLength="12.2" clip-path="url(#terminal-2205953398-line-23)">
</text><text class="terminal-2205953398-r4" x="36.6" y="605.6" textLength="146.4" clip-path="url(#terminal-2205953398-line-24)">ship&#160;storage</text><text class="terminal-2205953398-r3" x="183" y="605.6" textLength="597.8" clip-path="url(#terminal-2205953398-line-24)">&#160;&#160;&#160;&#160;&#160;&#160;&#160;&#160;&#160;—&#160;Stash/retrieve&#160;items&#160;from&#160;ship&#160;storage</text><text class="terminal-2205953398-r1" x="1659.2" y="605.6" textLength="12.2" clip-path="url(#terminal-2205953398-line-24)">
</text><text class="terminal-2205953398-r4" x="36.6" y="630" textLength="146.4" clip-path="url(#terminal-2205953398-line-25)">ship&#160;kitchen</text><text class="terminal-2205953398-r3" x="183" y="630" textLength="768.6" clip-path="url(#terminal-2205953398-line-25)">&#160;&#160;&#160;&#160;&#160;&#160;&#160;&#160;&#160;—&#160;Cook&#160;bio_gel&#160;(+40%&#160;food)&#160;or&#160;ice_crystal&#160;(+40%&#160;water)</text><text class="terminal-2205953398-r1" x="1659.2" y="630" textLength="12.2" clip-path="url(#terminal-2205953398-line-25)">
</text><text class="terminal-2205953398-r4" x="36.6" y="654.4" textLength="158.6" clip-path="url(#terminal-2205953398-line-26)">ship&#160;charging</text><text class="terminal-2205953398-r3" x="195.2" y="654.4" textLength="780.8" clip-path="url(#terminal-2205953398-line-26)">&#160;&#160;&#160;&#160;&#160;&#160;&#160;&#160;—&#160;Recharge&#160;drone&#160;battery,&#160;overcharge,&#160;auto-charge&#160;toggle</text><text class="terminal-2205953398-r1" x="1659.2" y="654.4" textLength="12.2" clip-path="url(#terminal-2205953398-line-26)">
</text><text class="terminal-2205953398-r4" x="36.6" y="678.8" textLength="146.4" clip-path="url(#terminal-2205953398-line-27)">ship&#160;medical</text><text class="terminal-2205953398-r3" x="183" y="678.8" textLength="695.4" clip-path="url(#terminal-2205953398-line-27)">&#160;&#160;&#160;&#160;&#160;&#160;&#160;&#160;&#160;—&#160;Repair&#160;suit&#160;(costs&#160;battery)&#160;or&#160;rest&#160;to&#160;recover</text><text class="terminal-2205953398-r1" x="1659.2" y="678.8" textLength="12.2" clip-path="url(#terminal-2205953398-line-27)">
</text><text class="terminal-2205953398-r1" x="1659.2" y="703.2" textLength="12.2" clip-path="url(#terminal-2205953398-line-28)">
</text><text class="terminal-2205953398-r1" x="1659.2" y="727.6" textLength="12.2" clip-path="url(#terminal-2205953398-line-29)">
</text><text class="terminal-2205953398-r5" x="12.2" y="752" textLength="134.2" clip-path="url(#terminal-2205953398-line-30)">Ice&#160;Crystal</text><text class="terminal-2205953398-r1" x="1659.2" y="752" textLength="12.2" clip-path="url(#terminal-2205953398-line-30)">
</text><text class="terminal-2205953398-r3" x="12.2" y="776.4" textLength="1573.8" clip-path="url(#terminal-2205953398-line-31)">&#160;&#160;A&#160;pure&#160;crystalline&#160;structure&#160;harvested&#160;from&#160;the&#160;ice.&#160;Used&#160;for&#160;ship&#160;hull&#160;repairs&#160;and&#160;can&#160;be&#160;processed&#160;into&#160;water&#160;at&#160;the&#160;Kitchen&#160;</text><text class="terminal-2205953398-r1" x="1659.2" y="776.4" textLength="12.2" clip-path="url(#terminal-2205953398-line-31)">
</text><text class="terminal-2205953398-r3" x="12.2" y="800.8" textLength="48.8" clip-path="url(#terminal-2205953398-line-32)">Bay.</text><text class="terminal-2205953398-r1" x="1659.2" y="800.8" textLength="12.2" clip-path="url(#terminal-2205953398-line-32)">
</text><text class="terminal-2205953398-r7" x="36.6" y="825.2" textLength="280.6" clip-path="url(#terminal-2205953398-line-33)">Needed&#160;for&#160;ship&#160;repair!</text><text class="terminal-2205953398-r1" x="1659.2" y="825.2" textLength="12.2" clip-path="url(#terminal-2205953398-line-33)">
</text><text class="terminal-2205953398-r1" x="1659.2" y="849.6" textLength="12.2" clip-path="url(#terminal-2205953398-line-34)">
</text><text class="terminal-2205953398-r8" x="24.4" y="874" textLength="48.8" clip-path="url(#terminal-2205953398-line-35)">Food</text><text class="terminal-2205953398-r8" x="85.4" y="874" textLength="61" clip-path="url(#terminal-2205953398-line-35)">█████</text><text class="terminal-2205953398-r10" x="158.6" y="874" textLength="48.8" clip-path="url(#terminal-2205953398-line-35)">100%</text><text class="terminal-2205953398-r11" x="231.8" y="874" textLength="61" clip-path="url(#terminal-2205953398-line-35)">Water</text><text class="terminal-2205953398-r8" x="305" y="874" textLength="61" clip-path="url(#terminal-2205953398-line-35)">█████</text><text class="terminal-2205953398-r10" x="378.2" y="874" textLength="48.8" clip-path="url(#terminal-2205953398-line-35)">100%</text><text class="terminal-2205953398-r12" x="451.4" y="874" textLength="48.8" clip-path="url(#terminal-2205953398-line-35)">Suit</text><text class="terminal-2205953398-r8" x="512.4" y="874" textLength="61" clip-path="url(#terminal-2205953398-line-35)">█████</text><text class="terminal-2205953398-r10" x="585.6" y="874" textLength="48.8" clip-path="url(#terminal-2205953398-line-35)">100%</text><text class="terminal-2205953398-r13" x="658.8" y="874" textLength="48.8" clip-path="url(#terminal-2205953398-line-35)">Batt</text><text class="terminal-2205953398-r8" x="719.8" y="874" textLength="73.2" clip-path="url(#terminal-2205953398-line-35)">██████</text><text class="terminal-2205953398-r10" x="805.2" y="874" textLength="48.8" clip-path="url(#terminal-2205953398-line-35)">115%</text><text class="terminal-2205953398-r14" x="878.4" y="874" textLength="97.6" clip-path="url(#terminal-2205953398-line-35)">Ship&#160;0/3</text><text class="terminal-2205953398-r10" x="1000.4" y="874" textLength="97.6" clip-path="url(#terminal-2205953398-line-35)">Inv&#160;3/15</text><text class="terminal-2205953398-r10" x="1122.4" y="874" textLength="48.8" clip-path="url(#terminal-2205953398-line-35)">⏱&#160;0h</text><text class="terminal-2205953398-r1" x="1659.2" y="874" textLength="12.2" clip-path="url(#terminal-2205953398-line-35)">
</text><text class="terminal-2205953398-r15" x="12.2" y="898.4" textLength="158.6" clip-path="url(#terminal-2205953398-line-36)">Crash&#160;Site&#160;&gt;&#160;</text><text class="terminal-2205953398-r16" x="207.4" y="898.4" textLength="195.2" clip-path="url(#terminal-2205953398-line-36)">Enter&#160;command...</text><text class="terminal-2205953398-r1" x="1659.2" y="898.4" textLength="12.2" clip-path="url(#terminal-2205953398-line-36)">
</text><text class="terminal-2205953398-r1" x="1659.2" y="922.8" textLength="12.2" clip-path="url(#terminal-2205953398-line-37)">
</text>
    </g>
    </g>
</svg>
