<svg class="rich-terminal" viewBox="0 0 994 635.5999999999999" xmlns="http://www.w3.org/2000/svg">
    <!-- Generated with Rich https://www.textualize.io -->
    <style>

    @font-face {
        font-family: "Fira Code";
        src: local("FiraCode-Regular"),
                url("https://cdnjs.cloudflare.com/ajax/libs/firacode/6.2.0/woff2/FiraCode-Regular.woff2") format("woff2"),
                url("https://cdnjs.cloudflare.com/ajax/libs/firacode/6.2.0/woff/FiraCode-Regular.woff") format("woff");
        font-style: normal;
        font-weight: 400;
    }
    @font-face {
        font-family: "Fira Code";
        src: local("FiraCode-Bold"),
                url("https://cdnjs.cloudflare.com/ajax/libs/firacode/6.2.0/woff2/FiraCode-Bold.woff2") format("woff2"),
                url("https://cdnjs.cloudflare.com/ajax/libs/firacode/6.2.0/woff/FiraCode-Bold.woff") format("woff");
        font-style: bold;
        font-weight: 700;
    }

    .terminal-2315124752-matrix {
        font-family: Fira Code, monospace;
        font-size: 20px;
        line-height: 24.4px;
        font-variant-east-asian: full-width;
    }

    .terminal-2315124752-title {
        font-size: 18px;
        font-weight: bold;
        font-family: arial;
    }

    .terminal-2315124752-r1 { fill: #c5c8c6 }
.terminal-2315124752-r2 { fill: #c89450;font-weight: bold }
.terminal-2315124752-r3 { fill: #e0e0e0 }
.terminal-2315124752-r4 { fill: #97989c }
.terminal-2315124752-r5 { fill: #3d8ea3 }
.terminal-2315124752-r6 { fill: #67981f }
.terminal-2315124752-r7 { fill: #fd971f }
.terminal-2315124752-r8 { fill: #2a3050 }
.terminal-2315124752-r9 { fill: #0a0d18 }
.terminal-2315124752-r10 { fill: #f4005f;font-weight: bold }
.terminal-2315124752-r11 { fill: #c4c5b5 }
.terminal-2315124752-r12 { fill: #00ffff }
.terminal-2315124752-r13 { fill: #8890b0 }
.terminal-2315124752-r14 { fill: #5ca8c8;font-weight: bold }
.terminal-2315124752-r15 { fill: #6f717b }
.terminal-2315124752-r16 { fill: #b4bcd4 }
    </style>

    <defs>
    <clipPath id="terminal-2315124752-clip-terminal">
      <rect x="0" y="0" width="975.0" height="584.5999999999999" />
    </clipPath>
    <clipPath id="terminal-2315124752-line-0">
    <rect x="0" y="1.5" width="976" height="24.65"/>
            </clipPath>
<clipPath id="terminal-2315124752-line-1">
    <rect x="0" y="25.9" width="976" height="24.65"/>
            </clipPath>
<clipPath id="terminal-2315124752-line-2">
    <rect x="0" y="50.3" width="976" height="24.65"/>
            </clipPath>
<clipPath id="terminal-2315124752-line-3">
    <rect x="0" y="74.7" width="976" height="24.65"/>
            </clipPath>
<clipPath id="terminal-2315124752-line-4">
    <rect x="0" y="99.1" width="976" height="24.65"/>
            </clipPath>
<clipPath id="terminal-2315124752-line-5">
    <rect x="0" y="123.5" width="976" height="24.65"/>
            </clipPath>
<clipPath id="terminal-2315124752-line-6">
    <rect x="0" y="147.9" width="976" height="24.65"/>
            </clipPath>
<clipPath id="terminal-2315124752-line-7">
    <rect x="0" y="172.3" width="976" height="24.65"/>
            </clipPath>
<clipPath id="terminal-2315124752-line-8">
    <rect x="0" y="196.7" width="976" height="24.65"/>
            </clipPath>
<clipPath id="terminal-2315124752-line-9">
    <rect x="0" y="221.1" width="976" height="24.65"/>
            </clipPath>
<clipPath id="terminal-2315124752-line-10">
    <rect x="0" y="245.5" width="976" height="24.65"/>
            </clipPath>
<clipPath id="terminal-2315124752-line-11">
    <rect x="0" y="269.9" width="976" height="24.65"/>
            </clipPath>
<clipPath id="terminal-2315124752-line-12">
    <rect x="0" y="294.3" width="976" height="24.65"/>
            </clipPath>
<clipPath id="terminal-2315124752-line-13">
    <rect x="0" y="318.7" width="976" height="24.65"/>
            </clipPath>
<clipPath id="terminal-2315124752-line-14">
    <rect x="0" y="343.1" width="976" height="24.65"/>
            </clipPath>
<clipPath id="terminal-2315124752-line-15">
    <rect x="0" y="367.5" width="976" height="24.65"/>
            </clipPath>
<clipPath id="terminal-2315124752-line-16">
    <rect x="0" y="391.9" width="976" height="24.65"/>
            </clipPath>
<clipPath id="terminal-2315124752-line-17">
    <rect x="0" y="416.3" width="976" height="24.65"/>
            </clipPath>
<clipPath id="terminal-2315124752-line-18">
    <rect x="0" y="440.7" width="976" height="24.65"/>
            </clipPath>
<clipPath id="terminal-2315124752-line-19">
    <rect x="0" y="465.1" width="976" height="24.65"/>
            </clipPath>
<clipPath id="terminal-2315124752-line-20">
    <rect x="0" y="489.5" width="976" height="24.65"/>
            </clipPath>
<clipPath id="terminal-2315124752-line-21">
    <rect x="0" y="513.9" width="976" height="24.65"/>
            </clipPath>
<clipPath id="terminal-2315124752-line-22">
    <rect x="0" y="538.3" width="976" height="24.65"/>
            </clipPath>
    </defs>

    <rect fill="#292929" stroke="rgba(255,255,255,0.35)" stroke-width="1" x="1" y="1" width="992" height="633.6" rx="8"/><text class="terminal-2315124752-title" fill="#c5c8c6" text-anchor="middle" x="496" y="27">Moon&#160;Traveler&#160;Terminal</text>
            <g transform="translate(26,22)">
            <circle cx="0" cy="0" r="7" fill="#ff5f57"/>
            <circle cx="22" cy="0" r="7" fill="#febc2e"/>
            <circle cx="44" cy="0" r="7" fill="#28c840"/>
            </g>

    <g transform="translate(9, 41)" clip-path="url(#terminal-2315124752-clip-terminal)">
    <rect fill="#111525" x="0" y="1.5" width="24.4" height="24.65" shape-rendering="crispEdges"/><rect fill="#111525" x="24.4" y="1.5" width="268.4" height="24.65" shape-rendering="crispEdges"/><rect fill="#111525" x="292.8" y="1.5" width="658.8" height="24.65" shape-rendering="crispEdges"/><rect fill="#111525" x="951.6" y="1.5" width="24.4" height="24.65" shape-rendering="crispEdges"/><rect fill="#0a0d18" x="0" y="25.9" width="12.2" height="24.65" shape-rendering="crispEdges"/><rect fill="#0a0d18" x="12.2" y="25.9" width="24.4" height="24.65" shape-rendering="crispEdges"/><rect fill="#0a0d18" x="36.6" y="25.9" width="902.8" height="24.65" shape-rendering="crispEdges"/><rect fill="#111525" x="939.4" y="25.9" width="24.4" height="24.65" shape-rendering="crispEdges"/><rect fill="#0a0d18" x="963.8" y="25.9" width="12.2" height="24.65" shape-rendering="crispEdges"/><rect fill="#0a0d18" x="0" y="50.3" width="12.2" height="24.65" shape-rendering="crispEdges"/><rect fill="#0a0d18" x="12.2" y="50.3" width="24.4" height="24.65" shape-rendering="crispEdges"/><rect fill="#0a0d18" x="36.6" y="50.3" width="170.8" height="24.65" shape-rendering="crispEdges"/><rect fill="#0a0d18" x="207.4" y="50.3" width="73.2" height="24.65" shape-rendering="crispEdges"/><rect fill="#0a0d18" x="280.6" y="50.3" width="573.4" height="24.65" shape-rendering="crispEdges"/><rect fill="#0a0d18" x="854" y="50.3" width="85.4" height="24.65" shape-rendering="crispEdges"/><rect fill="#111525" x="939.4" y="50.3" width="24.4" height="24.65" shape-rendering="crispEdges"/><rect fill="#0a0d18" x="963.8" y="50.3" width="12.2" height="24.65" shape-rendering="crispEdges"/><rect fill="#0a0d18" x="0" y="74.7" width="12.2" height="24.65" shape-rendering="crispEdges"/><rect fill="#0a0d18" x="12.2" y="74.7" width="24.4" height="24.65" shape-rendering="crispEdges"/><rect fill="#0a0d18" x="36.6" y="74.7" width="854" height="24.65" shape-rendering="crispEdges"/><rect fill="#0a0d18" x="890.6" y="74.7" width="48.8" height="24.65" shape-rendering="crispEdges"/><rect fill="#111525" x="939.4" y="74.7" width="24.4" height="24.65" shape-rendering="crispEdges"/><rect fill="#0a0d18" x="963.8" y="74.7" width="12.2" height="24.65" shape-rendering="crispEdges"/><rect fill="#0a0d18" x="0" y="99.1" width="12.2" height="24.65" shape-rendering="crispEdges"/><rect fill="#0a0d18" x="12.2" y="99.1" width="24.4" height="24.65" shape-rendering="crispEdges"/><rect fill="#0a0d18" x="36.6" y="99.1" width="183" height="24.65" shape-rendering="crispEdges"/><rect fill="#0a0d18" x="219.6" y="99.1" width="48.8" height="24.65" shape-rendering="crispEdges"/><rect fill="#0a0d18" x="268.4" y="99.1" width="109.8" height="24.65" shape-rendering="crispEdges"/><rect fill="#0a0d18" x="378.2" y="99.1" width="48.8" height="24.65" shape-rendering="crispEdges"/><rect fill="#0a0d18" x="427" y="99.1" width="219.6" height="24.65" shape-rendering="crispEdges"/><rect fill="#0a0d18" x="646.6" y="99.1" width="292.8" height="24.65" shape-rendering="crispEdges"/><rect fill="#111525" x="939.4" y="99.1" width="24.4" height="24.65" shape-rendering="crispEdges"/><rect fill="#0a0d18" x="963.8" y="99.1" width="12.2" height="24.65" shape-rendering="crispEdges"/><rect fill="#0a0d18" x="0" y="123.5" width="12.2" height="24.65" shape-rendering="crispEdges"/><rect fill="#0a0d18" x="12.2" y="123.5" width="24.4" height="24.65" shape-rendering="crispEdges"/><rect fill="#0a0d18" x="36.6" y="123.5" width="829.6" height="24.65" shape-rendering="crispEdges"/><rect fill="#0a0d18" x="866.2" y="123.5" width="73.2" height="24.65" shape-rendering="crispEdges"/><rect fill="#111525" x="939.4" y="123.5" width="24.4" height="24.65" shape-rendering="crispEdges"/><rect fill="#0a0d18" x="963.8" y="123.5" width="12.2" height="24.65" shape-rendering="crispEdges"/><rect fill="#0a0d18" x="0" y="147.9" width="12.2" height="24.65" shape-rendering="crispEdges"/><rect fill="#0a0d18" x="12.2" y="147.9" width="24.4" height="24.65" shape-rendering="crispEdges"/><rect fill="#0a0d18" x="36.6" y="147.9" width="768.6" height="24.65" shape-rendering="crispEdges"/><rect fill="#0a0d18" x="805.2" y="147.9" width="36.6" height="24.65" shape-rendering="crispEdges"/><rect fill="#0a0d18" x="841.8" y="147.9" width="12.2" height="24.65" shape-rendering="crispEdges"/><rect fill="#0a0d18" x="854" y="147.9" width="85.4" height="24.65" shape-rendering="crispEdges"/><rect fill="#111525" x="939.4" y="147.9" width="24.4" height="24.65" shape-rendering="crispEdges"/><rect fill="#0a0d18" x="963.8" y="147.9" width="12.2" height="24.65" shape-rendering="crispEdges"/><rect fill="#0a0d18" x="0" y="172.3" width="12.2" height="24.65" shape-rendering="crispEdges"/><rect fill="#0a0d18" x="12.2" y="172.3" width="24.4" height="24.65" shape-rendering="crispEdges"/><rect fill="#0a0d18" x="36.6" y="172.3" width="902.8" height="24.65" shape-rendering="crispEdges"/><rect fill="#111525" x="939.4" y="172.3" width="24.4" height="24.65" shape-rendering="crispEdges"/><rect fill="#0a0d18" x="963.8" y="172.3" width="12.2" height="24.65" shape-rendering="crispEdges"/><rect fill="#0a0d18" x="0" y="196.7" width="12.2" height="24.65" shape-rendering="crispEdges"/><rect fill="#0a0d18" x="12.2" y="196.7" width="24.4" height="24.65" shape-rendering="crispEdges"/><rect fill="#0a0d18" x="36.6" y="196.7" width="500.2" height="24.65" shape-rendering="crispEdges"/><rect fill="#0a0d18" x="536.8" y="196.7" width="402.6" height="24.65" shape-rendering="crispEdges"/><rect fill="#111525" x="939.4" y="196.7" width="24.4" height="24.65" shape-rendering="crispEdges"/><rect fill="#0a0d18" x="963.8" y="196.7" width="12.2" height="24.65" shape-rendering="crispEdges"/><rect fill="#0a0d18" x="0" y="221.1" width="12.2" height="24.65" shape-rendering="crispEdges"/><rect fill="#0a0d18" x="12.2" y="221.1" width="24.4" height="24.65" shape-rendering="crispEdges"/><rect fill="#0a0d18" x="36.6" y="221.1" width="500.2" height="24.65" shape-rendering="crispEdges"/><rect fill="#0a0d18" x="536.8" y="221.1" width="402.6" height="24.65" shape-rendering="crispEdges"/><rect fill="#111525" x="939.4" y="221.1" width="24.4" height="24.65" shape-rendering="crispEdges"/><rect fill="#0a0d18" x="963.8" y="221.1" width="12.2" height="24.65" shape-rendering="crispEdges"/><rect fill="#0a0d18" x="0" y="245.5" width="12.2" height="24.65" shape-rendering="crispEdges"/><rect fill="#0a0d18" x="12.2" y="245.5" width="24.4" height="24.65" shape-rendering="crispEdges"/><rect fill="#0a0d18" x="36.6" y="245.5" width="549" height="24.65" shape-rendering="crispEdges"/><rect fill="#0a0d18" x="585.6" y="245.5" width="353.8" height="24.65" shape-rendering="crispEdges"/><rect fill="#111525" x="939.4" y="245.5" width="24.4" height="24.65" shape-rendering="crispEdges"/><rect fill="#0a0d18" x="963.8" y="245.5" width="12.2" height="24.65" shape-rendering="crispEdges"/><rect fill="#0a0d18" x="0" y="269.9" width="12.2" height="24.65" shape-rendering="crispEdges"/><rect fill="#0a0d18" x="12.2" y="269.9" width="24.4" height="24.65" shape-rendering="crispEdges"/><rect fill="#0a0d18" x="36.6" y="269.9" width="902.8" height="24.65" shape-rendering="crispEdges"/><rect fill="#111525" x="939.4" y="269.9" width="24.4" height="24.65" shape-rendering="crispEdges"/><rect fill="#0a0d18" x="963.8" y="269.9" width="12.2" height="24.65" shape-rendering="crispEdges"/><rect fill="#0a0d18" x="0" y="294.3" width="12.2" height="24.65" shape-rendering="crispEdges"/><rect fill="#0a0d18" x="12.2" y="294.3" width="24.4" height="24.65" shape-rendering="crispEdges"/><rect fill="#0a0d18" x="36.6" y="294.3" width="561.2" height="24.65" shape-rendering="crispEdges"/><rect fill="#0a0d18" x="597.8" y="294.3" width="341.6" height="24.65" shape-rendering="crispEdges"/><rect fill="#111525" x="939.4" y="294.3" width="24.4" height="24.65" shape-rendering="crispEdges"/><rect fill="#0a0d18" x="963.8" y="294.3" width="12.2" height="24.65" shape-rendering="crispEdges"/><rect fill="#0a0d18" x="0" y="318.7" width="12.2" height="24.65" shape-rendering="crispEdges"/><rect fill="#0a0d18" x="12.2" y="318.7" width="24.4" height="24.65" shape-rendering="crispEdges"/><rect fill="#0a0d18" x="36.6" y="318.7" width="744.2" height="24.65" shape-rendering="crispEdges"/><rect fill="#0a0d18" x="780.8" y="318.7" width="158.6" height="24.65" shape-rendering="crispEdges"/><rect fill="#2a3050" x="939.4" y="318.7" width="24.4" height="24.65" shape-rendering="crispEdges"/><rect fill="#0a0d18" x="963.8" y="318.7" width="12.2" height="24.65" shape-rendering="crispEdges"/><rect fill="#0a0d18" x="0" y="343.1" width="12.2" height="24.65" shape-rendering="crispEdges"/><rect fill="#0a0d18" x="12.2" y="343.1" width="927.2" height="24.65" shape-rendering="crispEdges"/><rect fill="#2a3050" x="939.4" y="343.1" width="24.4" height="24.65" shape-rendering="crispEdges"/><rect fill="#0a0d18" x="963.8" y="343.1" width="12.2" height="24.65" shape-rendering="crispEdges"/><rect fill="#0a0d18" x="0" y="367.5" width="12.2" height="24.65" shape-rendering="crispEdges"/><rect fill="#0a0d18" x="12.2" y="367.5" width="73.2" height="24.65" shape-rendering="crispEdges"/><rect fill="#0a0d18" x="85.4" y="367.5" width="12.2" height="24.65" shape-rendering="crispEdges"/><rect fill="#0a0d18" x="97.6" y="367.5" width="744.2" height="24.65" shape-rendering="crispEdges"/><rect fill="#0a0d18" x="841.8" y="367.5" width="97.6" height="24.65" shape-rendering="crispEdges"/><rect fill="#2a3050" x="939.4" y="367.5" width="24.4" height="24.65" shape-rendering="crispEdges"/><rect fill="#0a0d18" x="963.8" y="367.5" width="12.2" height="24.65" shape-rendering="crispEdges"/><rect fill="#0a0d18" x="0" y="391.9" width="12.2" height="24.65" shape-rendering="crispEdges"/><rect fill="#0a0d18" x="12.2" y="391.9" width="927.2" height="24.65" shape-rendering="crispEdges"/><rect fill="#2a3050" x="939.4" y="391.9" width="24.4" height="24.65" shape-rendering="crispEdges"/><rect fill="#0a0d18" x="963.8" y="391.9" width="12.2" height="24.65" shape-rendering="crispEdges"/><rect fill="#0a0d18" x="0" y="416.3" width="12.2" height="24.65" shape-rendering="crispEdges"/><rect fill="#2a3050" x="12.2" y="416.3" width="12.2" height="24.65" shape-rendering="crispEdges"/><rect fill="#2a3050" x="24.4" y="416.3" width="12.2" height="24.65" shape-rendering="crispEdges"/><rect fill="#2a3050" x="36.6" y="416.3" width="12.2" height="24.65" shape-rendering="crispEdges"/><rect fill="#2a3050" x="48.8" y="416.3" width="12.2" height="24.65" shape-rendering="crispEdges"/><rect fill="#2a3050" x="61" y="416.3" width="12.2" height="24.65" shape-rendering="crispEdges"/><rect fill="#2a3050" x="73.2" y="416.3" width="12.2" height="24.65" shape-rendering="crispEdges"/><rect fill="#2a3050" x="85.4" y="416.3" width="12.2" height="24.65" shape-rendering="crispEdges"/><rect fill="#2a3050" x="97.6" y="416.3" width="12.2" height="24.65" shape-rendering="crispEdges"/><rect fill="#2a3050" x="109.8" y="416.3" width="12.2" height="24.65" shape-rendering="crispEdges"/><rect fill="#2a3050" x="122" y="416.3" width="12.2" height="24.65" shape-rendering="crispEdges"/><rect fill="#2a3050" x="134.2" y="416.3" width="12.2" height="24.65" shape-rendering="crispEdges"/><rect fill="#2a3050" x="146.4" y="416.3" width="12.2" height="24.65" shape-rendering="crispEdges"/><rect fill="#2a3050" x="158.6" y="416.3" width="12.2" height="24.65" shape-rendering="crispEdges"/><rect fill="#2a3050" x="170.8" y="416.3" width="12.2" height="24.65" shape-rendering="crispEdges"/><rect fill="#2a3050" x="183" y="416.3" width="12.2" height="24.65" shape-rendering="crispEdges"/><rect fill="#2a3050" x="195.2" y="416.3" width="12.2" height="24.65" shape-rendering="crispEdges"/><rect fill="#2a3050" x="207.4" y="416.3" width="12.2" height="24.65" shape-rendering="crispEdges"/><rect fill="#2a3050" x="219.6" y="416.3" width="12.2" height="24.65" shape-rendering="crispEdges"/><rect fill="#2a3050" x="231.8" y="416.3" width="12.2" height="24.65" shape-rendering="crispEdges"/><rect fill="#2a3050" x="244" y="416.3" width="12.2" height="24.65" shape-rendering="crispEdges"/><rect fill="#2a3050" x="256.2" y="416.3" width="12.2" height="24.65" shape-rendering="crispEdges"/><rect fill="#2a3050" x="268.4" y="416.3" width="12.2" height="24.65" shape-rendering="crispEdges"/><rect fill="#2a3050" x="280.6" y="416.3" width="12.2" height="24.65" shape-rendering="crispEdges"/><rect fill="#2a3050" x="292.8" y="416.3" width="12.2" height="24.65" shape-rendering="crispEdges"/><rect fill="#2a3050" x="305" y="416.3" width="12.2" height="24.65" shape-rendering="crispEdges"/><rect fill="#2a3050" x="317.2" y="416.3" width="12.2" height="24.65" shape-rendering="crispEdges"/><rect fill="#2a3050" x="329.4" y="416.3" width="12.2" height="24.65" shape-rendering="crispEdges"/><rect fill="#2a3050" x="341.6" y="416.3" width="12.2" height="24.65" shape-rendering="crispEdges"/><rect fill="#2a3050" x="353.8" y="416.3" width="12.2" height="24.65" shape-rendering="crispEdges"/><rect fill="#2a3050" x="366" y="416.3" width="12.2" height="24.65" shape-rendering="crispEdges"/><rect fill="#2a3050" x="378.2" y="416.3" width="12.2" height="24.65" shape-rendering="crispEdges"/><rect fill="#2a3050" x="390.4" y="416.3" width="12.2" height="24.65" shape-rendering="crispEdges"/><rect fill="#2a3050" x="402.6" y="416.3" width="12.2" height="24.65" shape-rendering="crispEdges"/><rect fill="#2a3050" x="414.8" y="416.3" width="12.2" height="24.65" shape-rendering="crispEdges"/><rect fill="#2a3050" x="427" y="416.3" width="12.2" height="24.65" shape-rendering="crispEdges"/><rect fill="#2a3050" x="439.2" y="416.3" width="12.2" height="24.65" shape-rendering="crispEdges"/><rect fill="#2a3050" x="451.4" y="416.3" width="12.2" height="24.65" shape-rendering="crispEdges"/><rect fill="#2a3050" x="463.6" y="416.3" width="12.2" height="24.65" shape-rendering="crispEdges"/><rect fill="#2a3050" x="475.8" y="416.3" width="12.2" height="24.65" shape-rendering="crispEdges"/><rect fill="#2a3050" x="488" y="416.3" width="12.2" height="24.65" shape-rendering="crispEdges"/><rect fill="#2a3050" x="500.2" y="416.3" width="12.2" height="24.65" shape-rendering="crispEdges"/><rect fill="#2a3050" x="512.4" y="416.3" width="12.2" height="24.65" shape-rendering="crispEdges"/><rect fill="#2a3050" x="524.6" y="416.3" width="12.2" height="24.65" shape-rendering="crispEdges"/><rect fill="#2a3050" x="536.8" y="416.3" width="12.2" height="24.65" shape-rendering="crispEdges"/><rect fill="#2a3050" x="549" y="416.3" width="12.2" height="24.65" shape-rendering="crispEdges"/><rect fill="#2a3050" x="561.2" y="416.3" width="12.2" height="24.65" shape-rendering="crispEdges"/><rect fill="#2a3050" x="573.4" y="416.3" width="12.2" height="24.65" shape-rendering="crispEdges"/><rect fill="#2a3050" x="585.6" y="416.3" width="12.2" height="24.65" shape-rendering="crispEdges"/><rect fill="#2a3050" x="597.8" y="416.3" width="12.2" height="24.65" shape-rendering="crispEdges"/><rect fill="#2a3050" x="610" y="416.3" width="12.2" height="24.65" shape-rendering="crispEdges"/><rect fill="#2a3050" x="622.2" y="416.3" width="12.2" height="24.65" shape-rendering="crispEdges"/><rect fill="#2a3050" x="634.4" y="416.3" width="12.2" height="24.65" shape-rendering="crispEdges"/><rect fill="#2a3050" x="646.6" y="416.3" width="12.2" height="24.65" shape-rendering="crispEdges"/><rect fill="#2a3050" x="658.8" y="416.3" width="12.2" height="24.65" shape-rendering="crispEdges"/><rect fill="#2a3050" x="671" y="416.3" width="12.2" height="24.65" shape-rendering="crispEdges"/><rect fill="#2a3050" x="683.2" y="416.3" width="12.2" height="24.65" shape-rendering="crispEdges"/><rect fill="#2a3050" x="695.4" y="416.3" width="12.2" height="24.65" shape-rendering="crispEdges"/><rect fill="#2a3050" x="707.6" y="416.3" width="12.2" height="24.65" shape-rendering="crispEdges"/><rect fill="#2a3050" x="719.8" y="416.3" width="12.2" height="24.65" shape-rendering="crispEdges"/><rect fill="#2a3050" x="732" y="416.3" width="12.2" height="24.65" shape-rendering="crispEdges"/><rect fill="#2a3050" x="744.2" y="416.3" width="12.2" height="24.65" shape-rendering="crispEdges"/><rect fill="#2a3050" x="756.4" y="416.3" width="12.2" height="24.65" shape-rendering="crispEdges"/><rect fill="#2a3050" x="768.6" y="416.3" width="12.2" height="24.65" shape-rendering="crispEdges"/><rect fill="#2a3050" x="780.8" y="416.3" width="12.2" height="24.65" shape-rendering="crispEdges"/><rect fill="#2a3050" x="793" y="416.3" width="12.2" height="24.65" shape-rendering="crispEdges"/><rect fill="#2a3050" x="805.2" y="416.3" width="12.2" height="24.65" shape-rendering="crispEdges"/><rect fill="#2a3050" x="817.4" y="416.3" width="12.2" height="24.65" shape-rendering="crispEdges"/><rect fill="#2a3050" x="829.6" y="416.3" width="12.2" height="24.65" shape-rendering="crispEdges"/><rect fill="#2a3050" x="841.8" y="416.3" width="12.2" height="24.65" shape-rendering="crispEdges"/><rect fill="#2a3050" x="854" y="416.3" width="12.2" height="24.65" shape-rendering="crispEdges"/><rect fill="#2a3050" x="866.2" y="416.3" width="12.2" height="24.65" shape-rendering="crispEdges"/><rect fill="#2a3050" x="878.4" y="416.3" width="12.2" height="24.65" shape-rendering="crispEdges"/><rect fill="#2a3050" x="890.6" y="416.3" width="12.2" height="24.65" shape-rendering="crispEdges"/><rect fill="#2a3050" x="902.8" y="416.3" width="12.2" height="24.65" shape-rendering="crispEdges"/><rect fill="#2a3050" x="915" y="416.3" width="12.2" height="24.65" shape-rendering="crispEdges"/><rect fill="#111525" x="927.2" y="416.3" width="12.2" height="24.65" shape-rendering="crispEdges"/><rect fill="#000000" x="939.4" y="416.3" width="24.4" height="24.65" shape-rendering="crispEdges"/><rect fill="#0a0d18" x="963.8" y="416.3" width="12.2" height="24.65" shape-rendering="crispEdges"/><rect fill="#0a0d18" x="0" y="440.7" width="24.4" height="24.65" shape-rendering="crispEdges"/><rect fill="#0a0d18" x="24.4" y="440.7" width="146.4" height="24.65" shape-rendering="crispEdges"/><rect fill="#0a0d18" x="170.8" y="440.7" width="780.8" height="24.65" shape-rendering="crispEdges"/><rect fill="#0a0d18" x="951.6" y="440.7" width="24.4" height="24.65" shape-rendering="crispEdges"/><rect fill="#0a0d18" x="0" y="465.1" width="24.4" height="24.65" shape-rendering="crispEdges"/><rect fill="#0a0d18" x="24.4" y="465.1" width="146.4" height="24.65" shape-rendering="crispEdges"/><rect fill="#0a0d18" x="170.8" y="465.1" width="780.8" height="24.65" shape-rendering="crispEdges"/><rect fill="#0a0d18" x="951.6" y="465.1" width="24.4" height="24.65" shape-rendering="crispEdges"/><rect fill="#111525" x="0" y="489.5" width="24.4" height="24.65" shape-rendering="crispEdges"/><rect fill="#111525" x="24.4" y="489.5" width="0" height="24.65" shape-rendering="crispEdges"/><rect fill="#111525" x="24.4" y="489.5" width="927.2" height="24.65" shape-rendering="crispEdges"/><rect fill="#111525" x="951.6" y="489.5" width="24.4" height="24.65" shape-rendering="crispEdges"/><rect fill="#0e1122" x="0" y="513.9" width="12.2" height="24.65" shape-rendering="crispEdges"/><rect fill="#0e1122" x="12.2" y="513.9" width="500.2" height="24.65" shape-rendering="crispEdges"/><rect fill="#0e1122" x="512.4" y="513.9" width="12.2" height="24.65" shape-rendering="crispEdges"/><rect fill="#181b2b" x="524.6" y="513.9" width="24.4" height="24.65" shape-rendering="crispEdges"/><rect fill="#181b2b" x="549" y="513.9" width="195.2" height="24.65" shape-rendering="crispEdges"/><rect fill="#181b2b" x="744.2" y="513.9" width="195.2" height="24.65" shape-rendering="crispEdges"/><rect fill="#181b2b" x="939.4" y="513.9" width="24.4" height="24.65" shape-rendering="crispEdges"/><rect fill="#0e1122" x="963.8" y="513.9" width="12.2" height="24.65" shape-rendering="crispEdges"/><rect fill="#0e1122" x="0" y="538.3" width="12.2" height="24.65" shape-rendering="crispEdges"/><rect fill="#0e1122" x="12.2" y="538.3" width="512.4" height="24.65" shape-rendering="crispEdges"/><rect fill="#181b2b" x="524.6" y="538.3" width="24.4" height="24.65" shape-rendering="crispEdges"/><rect fill="#181b2b" x="549" y="538.3" width="390.4" height="24.65" shape-rendering="crispEdges"/><rect fill="#181b2b" x="939.4" y="538.3" width="24.4" height="24.65" shape-rendering="crispEdges"/><rect fill="#0e1122" x="963.8" y="538.3" width="12.2" height="24.65" shape-rendering="crispEdges"/><rect fill="#0e1122" x="0" y="562.7" width="12.2" height="24.65" shape-rendering="crispEdges"/><rect fill="#0e1122" x="12.2" y="562.7" width="512.4" height="24.65" shape-rendering="crispEdges"/><rect fill="#181b2b" x="524.6" y="562.7" width="24.4" height="24.65" shape-rendering="crispEdges"/><rect fill="#181b2b" x="549" y="562.7" width="390.4" height="24.65" shape-rendering="crispEdges"/><rect fill="#181b2b" x="939.4" y="562.7" width="24.4" height="24.65" shape-rendering="crispEdges"/><rect fill="#0e1122" x="963.8" y="562.7" width="12.2" height="24.65" shape-rendering="crispEdges"/>
    <g class="terminal-2315124752-matrix">
    <text class="terminal-2315124752-r2" x="24.4" y="20" textLength="268.4" clip-path="url(#terminal-2315124752-line-0)">Moon&#160;Traveler&#160;Terminal</text><text class="terminal-2315124752-r1" x="976" y="20" textLength="12.2" clip-path="url(#terminal-2315124752-line-0)">
</text><text class="terminal-2315124752-r1" x="976" y="44.4" textLength="12.2" clip-path="url(#terminal-2315124752-line-1)">
</text><text class="terminal-2315124752-r4" x="36.6" y="68.8" textLength="170.8" clip-path="url(#terminal-2315124752-line-2)">Surface&#160;temp:&#160;</text><text class="terminal-2315124752-r5" x="207.4" y="68.8" textLength="73.2" clip-path="url(#terminal-2315124752-line-2)">-201°C</text><text class="terminal-2315124752-r4" x="280.6" y="68.8" textLength="573.4" clip-path="url(#terminal-2315124752-line-2)">.&#160;Atmosphere:&#160;not&#160;breathable.&#160;Gravity:&#160;0.0113g.</text><text class="terminal-2315124752-r1" x="976" y="68.8" textLength="12.2" clip-path="url(#terminal-2315124752-line-2)">
</text><text class="terminal-2315124752-r4" x="36.6" y="93.2" textLength="854" clip-path="url(#terminal-2315124752-line-3)">The&#160;hull&#160;is&#160;torn&#160;open.&#160;Most&#160;supplies&#160;vented&#160;into&#160;the&#160;vacuum&#160;on&#160;impact.</text><text class="terminal-2315124752-r1" x="976" y="93.2" textLength="12.2" clip-path="url(#terminal-2315124752-line-3)">
</text><text class="terminal-2315124752-r4" x="36.6" y="117.6" textLength="183" clip-path="url(#terminal-2315124752-line-4)">Food&#160;reserves:&#160;</text><text class="terminal-2315124752-r6" x="219.6" y="117.6" textLength="48.8" clip-path="url(#terminal-2315124752-line-4)">100%</text><text class="terminal-2315124752-r4" x="268.4" y="117.6" textLength="109.8" clip-path="url(#terminal-2315124752-line-4)">.&#160;Water:&#160;</text><text class="terminal-2315124752-r6" x="378.2" y="117.6" textLength="48.8" clip-path="url(#terminal-2315124752-line-4)">100%</text><text class="terminal-2315124752-r4" x="427" y="117.6" textLength="219.6" clip-path="url(#terminal-2315124752-line-4)">.&#160;Won&#x27;t&#160;last&#160;long.</text><text class="terminal-2315124752-r1" x="976" y="117.6" textLength="12.2" clip-path="url(#terminal-2315124752-line-4)">
</text><text class="terminal-2315124752-r4" x="36.6" y="142" textLength="829.6" clip-path="url(#terminal-2315124752-line-5)">Outside,&#160;cryovolcanic&#160;storms&#160;blast&#160;the&#160;surface&#160;with&#160;ice&#160;particulates</text><text class="terminal-2315124752-r1" x="976" y="142" textLength="12.2" clip-path="url(#terminal-2315124752-line-5)">
</text><text class="terminal-2315124752-r4" x="36.6" y="166.4" textLength="768.6" clip-path="url(#terminal-2315124752-line-6)">that&#160;are&#160;grinding&#160;your&#160;suit&#160;down&#160;hour&#160;by&#160;hour.&#160;Suit&#160;integrity:&#160;</text><text class="terminal-2315124752-r6" x="805.2" y="166.4" textLength="36.6" clip-path="url(#terminal-2315124752-line-6)">92%</text><text class="terminal-2315124752-r4" x="841.8" y="166.4" textLength="12.2" clip-path="url(#terminal-2315124752-line-6)">.</text><text class="terminal-2315124752-r1" x="976" y="166.4" textLength="12.2" clip-path="url(#terminal-2315124752-line-6)">
</text><text class="terminal-2315124752-r1" x="976" y="190.8" textLength="12.2" clip-path="url(#terminal-2315124752-line-7)">
</text><text class="terminal-2315124752-r4" x="36.6" y="215.2" textLength="500.2" clip-path="url(#terminal-2315124752-line-8)">If&#160;the&#160;suit&#160;fails,&#160;you&#160;freeze&#160;in&#160;seconds.</text><text class="terminal-2315124752-r1" x="976" y="215.2" textLength="12.2" clip-path="url(#terminal-2315124752-line-8)">
</text><text class="terminal-2315124752-r4" x="36.6" y="239.6" textLength="500.2" clip-path="url(#terminal-2315124752-line-9)">If&#160;the&#160;food&#160;runs&#160;out,&#160;you&#160;starve&#160;in&#160;days.</text><text class="terminal-2315124752-r1" x="976" y="239.6" textLength="12.2" clip-path="url(#terminal-2315124752-line-9)">
</text><text class="terminal-2315124752-r4" x="36.6" y="264" textLength="549" clip-path="url(#terminal-2315124752-line-10)">If&#160;you&#160;can&#x27;t&#160;repair&#160;this&#160;ship&#160;—&#160;you&#160;die&#160;here.</text><text class="terminal-2315124752-r1" x="976" y="264" textLength="12.2" clip-path="url(#terminal-2315124752-line-10)">
</text><text class="terminal-2315124752-r1" x="976" y="288.4" textLength="12.2" clip-path="url(#terminal-2315124752-line-11)">
</text><text class="terminal-2315124752-r7" x="36.6" y="312.8" textLength="561.2" clip-path="url(#terminal-2315124752-line-12)">No&#160;rescue&#160;is&#160;coming.&#160;No&#160;one&#160;knows&#160;you&#160;crashed.</text><text class="terminal-2315124752-r8" x="939.4" y="312.8" textLength="24.4" clip-path="url(#terminal-2315124752-line-12)">▇▇</text><text class="terminal-2315124752-r1" x="976" y="312.8" textLength="12.2" clip-path="url(#terminal-2315124752-line-12)">
</text><text class="terminal-2315124752-r7" x="36.6" y="337.2" textLength="744.2" clip-path="url(#terminal-2315124752-line-13)">Find&#160;materials.&#160;Find&#160;allies.&#160;Fix&#160;the&#160;ship.&#160;Get&#160;off&#160;this&#160;moon.</text><text class="terminal-2315124752-r1" x="976" y="337.2" textLength="12.2" clip-path="url(#terminal-2315124752-line-13)">
</text><text class="terminal-2315124752-r1" x="976" y="361.6" textLength="12.2" clip-path="url(#terminal-2315124752-line-14)">
</text><text class="terminal-2315124752-r10" x="12.2" y="386" textLength="73.2" clip-path="url(#terminal-2315124752-line-15)">DRONE:</text><text class="terminal-2315124752-r11" x="97.6" y="386" textLength="744.2" clip-path="url(#terminal-2315124752-line-15)">Scan&#160;complete.&#160;Systems&#160;holding.&#160;Let&#x27;s&#160;get&#160;to&#160;work,&#160;Commander.</text><text class="terminal-2315124752-r1" x="976" y="386" textLength="12.2" clip-path="url(#terminal-2315124752-line-15)">
</text><text class="terminal-2315124752-r1" x="976" y="410.4" textLength="12.2" clip-path="url(#terminal-2315124752-line-16)">
</text><text class="terminal-2315124752-r8" x="927.2" y="434.8" textLength="12.2" clip-path="url(#terminal-2315124752-line-17)">▏</text><text class="terminal-2315124752-r1" x="976" y="434.8" textLength="12.2" clip-path="url(#terminal-2315124752-line-17)">
</text><text class="terminal-2315124752-r12" x="24.4" y="459.2" textLength="146.4" clip-path="url(#terminal-2315124752-line-18)">&#160;.---.&#160;.---.</text><text class="terminal-2315124752-r1" x="976" y="459.2" textLength="12.2" clip-path="url(#terminal-2315124752-line-18)">
</text><text class="terminal-2315124752-r12" x="24.4" y="483.6" textLength="146.4" clip-path="url(#terminal-2315124752-line-19)">&#160;(&#160;o&#160;)-(&#160;o&#160;)</text><text class="terminal-2315124752-r1" x="976" y="483.6" textLength="12.2" clip-path="url(#terminal-2315124752-line-19)">
</text><text class="terminal-2315124752-r1" x="976" y="508" textLength="12.2" clip-path="url(#terminal-2315124752-line-20)">
</text><text class="terminal-2315124752-r14" x="12.2" y="532.4" textLength="500.2" clip-path="url(#terminal-2315124752-line-21)">Enter&#160;your&#160;name&#160;(Enter&#160;for&#160;&#x27;Commander&#x27;):&#160;</text><text class="terminal-2315124752-r15" x="549" y="532.4" textLength="195.2" clip-path="url(#terminal-2315124752-line-21)">Enter&#160;command...</text><text class="terminal-2315124752-r1" x="976" y="532.4" textLength="12.2" clip-path="url(#terminal-2315124752-line-21)">
</text><text class="terminal-2315124752-r1" x="976" y="556.8" textLength="12.2" clip-path="url(#terminal-2315124752-line-22)">
</text>
    </g>
    </g>
</svg>
