<svg class="rich-terminal" viewBox="0 0 994 635.5999999999999" xmlns="http://www.w3.org/2000/svg">
    <!-- Generated with Rich https://www.textualize.io -->
    <style>

    @font-face {
        font-family: "Fira Code";
        src: local("FiraCode-Regular"),
                url("https://cdnjs.cloudflare.com/ajax/libs/firacode/6.2.0/woff2/FiraCode-Regular.woff2") format("woff2"),
                url("https://cdnjs.cloudflare.com/ajax/libs/firacode/6.2.0/woff/FiraCode-Regular.woff") format("woff");
        font-style: normal;
        font-weight: 400;
    }
    @font-face {
        font-family: "Fira Code";
        src: local("FiraCode-Bold"),
                url("https://cdnjs.cloudflare.com/ajax/libs/firacode/6.2.0/woff2/FiraCode-Bold.woff2") format("woff2"),
                url("https://cdnjs.cloudflare.com/ajax/libs/firacode/6.2.0/woff/FiraCode-Bold.woff") format("woff");
        font-style: bold;
        font-weight: 700;
    }

    .terminal-3429788910-matrix {
        font-family: Fira Code, monospace;
        font-size: 20px;
        line-height: 24.4px;
        font-variant-east-asian: full-width;
    }

    .terminal-3429788910-title {
        font-size: 18px;
        font-weight: bold;
        font-family: arial;
    }

    .terminal-3429788910-r1 { fill: #c5c8c6 }
.terminal-3429788910-r2 { fill: #c89450;font-weight: bold }
.terminal-3429788910-r3 { fill: #e0e0e0 }
.terminal-3429788910-r4 { fill: #97989c }
.terminal-3429788910-r5 { fill: #98e024 }
.terminal-3429788910-r6 { fill: #58d1eb }
.terminal-3429788910-r7 { fill: #f6f6ef;font-weight: bold }
.terminal-3429788910-r8 { fill: #c4c5b5 }
.terminal-3429788910-r9 { fill: #0a0d18 }
.terminal-3429788910-r10 { fill: #e0e0e0;font-weight: bold }
.terminal-3429788910-r11 { fill: #98e024;font-weight: bold }
.terminal-3429788910-r12 { fill: #2a3050 }
.terminal-3429788910-r13 { fill: #b4bcd4 }
.terminal-3429788910-r14 { fill: #ab04b0 }
.terminal-3429788910-r15 { fill: #7a8094;font-style: italic; }
.terminal-3429788910-r16 { fill: #008000 }
.terminal-3429788910-r17 { fill: #8890b0 }
.terminal-3429788910-r18 { fill: #5f6680 }
.terminal-3429788910-r19 { fill: #00ffff }
.terminal-3429788910-r20 { fill: #c89450 }
.terminal-3429788910-r21 { fill: #a080d0 }
.terminal-3429788910-r22 { fill: #ff0000 }
.terminal-3429788910-r23 { fill: #8890b0;font-weight: bold }
.terminal-3429788910-r24 { fill: #5ca8c8;font-weight: bold }
.terminal-3429788910-r25 { fill: #6f717b }
    </style>

    <defs>
    <clipPath id="terminal-3429788910-clip-terminal">
      <rect x="0" y="0" width="975.0" height="584.5999999999999" />
    </clipPath>
    <clipPath id="terminal-3429788910-line-0">
    <rect x="0" y="1.5" width="976" height="24.65"/>
            </clipPath>
<clipPath id="terminal-3429788910-line-1">
    <rect x="0" y="25.9" width="976" height="24.65"/>
            </clipPath>
<clipPath id="terminal-3429788910-line-2">
    <rect x="0" y="50.3" width="976" height="24.65"/>
            </clipPath>
<clipPath id="terminal-3429788910-line-3">
    <rect x="0" y="74.7" width="976" height="24.65"/>
            </clipPath>
<clipPath id="terminal-3429788910-line-4">
    <rect x="0" y="99.1" width="976" height="24.65"/>
            </clipPath>
<clipPath id="terminal-3429788910-line-5">
    <rect x="0" y="123.5" width="976" height="24.65"/>
            </clipPath>
<clipPath id="terminal-3429788910-line-6">
    <rect x="0" y="147.9" width="976" height="24.65"/>
            </clipPath>
<clipPath id="terminal-3429788910-line-7">
    <rect x="0" y="172.3" width="976" height="24.65"/>
            </clipPath>
<clipPath id="terminal-3429788910-line-8">
    <rect x="0" y="196.7" width="976" height="24.65"/>
            </clipPath>
<clipPath id="terminal-3429788910-line-9">
    <rect x="0" y="221.1" width="976" height="24.65"/>
            </clipPath>
<clipPath id="terminal-3429788910-line-10">
    <rect x="0" y="245.5" width="976" height="24.65"/>
            </clipPath>
<clipPath id="terminal-3429788910-line-11">
    <rect x="0" y="269.9" width="976" height="24.65"/>
            </clipPath>
<clipPath id="terminal-3429788910-line-12">
    <rect x="0" y="294.3" width="976" height="24.65"/>
            </clipPath>
<clipPath id="terminal-3429788910-line-13">
    <rect x="0" y="318.7" width="976" height="24.65"/>
            </clipPath>
<clipPath id="terminal-3429788910-line-14">
    <rect x="0" y="343.1" width="976" height="24.65"/>
            </clipPath>
<clipPath id="terminal-3429788910-line-15">
    <rect x="0" y="367.5" width="976" height="24.65"/>
            </clipPath>
<clipPath id="terminal-3429788910-line-16">
    <rect x="0" y="391.9" width="976" height="24.65"/>
            </clipPath>
<clipPath id="terminal-3429788910-line-17">
    <rect x="0" y="416.3" width="976" height="24.65"/>
            </clipPath>
<clipPath id="terminal-3429788910-line-18">
    <rect x="0" y="440.7" width="976" height="24.65"/>
            </clipPath>
<clipPath id="terminal-3429788910-line-19">
    <rect x="0" y="465.1" width="976" height="24.65"/>
            </clipPath>
<clipPath id="terminal-3429788910-line-20">
    <rect x="0" y="489.5" width="976" height="24.65"/>
            </clipPath>
<clipPath id="terminal-3429788910-line-21">
    <rect x="0" y="513.9" width="976" height="24.65"/>
            </clipPath>
<clipPath id="terminal-3429788910-line-22">
    <rect x="0" y="538.3" width="976" height="24.65"/>
            </clipPath>
    </defs>

    <rect fill="#292929" stroke="rgba(255,255,255,0.35)" stroke-width="1" x="1" y="1" width="992" height="633.6" rx="8"/><text class="terminal-3429788910-title" fill="#c5c8c6" text-anchor="middle" x="496" y="27">Moon&#160;Traveler&#160;Terminal</text>
            <g transform="translate(26,22)">
            <circle cx="0" cy="0" r="7" fill="#ff5f57"/>
            <circle cx="22" cy="0" r="7" fill="#febc2e"/>
            <circle cx="44" cy="0" r="7" fill="#28c840"/>
            </g>

    <g transform="translate(9, 41)" clip-path="url(#terminal-3429788910-clip-terminal)">
    <rect fill="#111525" x="0" y="1.5" width="24.4" height="24.65" shape-rendering="crispEdges"/><rect fill="#111525" x="24.4" y="1.5" width="268.4" height="24.65" shape-rendering="crispEdges"/><rect fill="#111525" x="292.8" y="1.5" width="658.8" height="24.65" shape-rendering="crispEdges"/><rect fill="#111525" x="951.6" y="1.5" width="24.4" height="24.65" shape-rendering="crispEdges"/><rect fill="#0a0d18" x="0" y="25.9" width="12.2" height="24.65" shape-rendering="crispEdges"/><rect fill="#0a0d18" x="12.2" y="25.9" width="927.2" height="24.65" shape-rendering="crispEdges"/><rect fill="#111525" x="939.4" y="25.9" width="24.4" height="24.65" shape-rendering="crispEdges"/><rect fill="#0a0d18" x="963.8" y="25.9" width="12.2" height="24.65" shape-rendering="crispEdges"/><rect fill="#0a0d18" x="0" y="50.3" width="12.2" height="24.65" shape-rendering="crispEdges"/><rect fill="#0a0d18" x="12.2" y="50.3" width="475.8" height="24.65" shape-rendering="crispEdges"/><rect fill="#0a0d18" x="488" y="50.3" width="451.4" height="24.65" shape-rendering="crispEdges"/><rect fill="#111525" x="939.4" y="50.3" width="24.4" height="24.65" shape-rendering="crispEdges"/><rect fill="#0a0d18" x="963.8" y="50.3" width="12.2" height="24.65" shape-rendering="crispEdges"/><rect fill="#0a0d18" x="0" y="74.7" width="12.2" height="24.65" shape-rendering="crispEdges"/><rect fill="#0a0d18" x="12.2" y="74.7" width="366" height="24.65" shape-rendering="crispEdges"/><rect fill="#0a0d18" x="378.2" y="74.7" width="561.2" height="24.65" shape-rendering="crispEdges"/><rect fill="#111525" x="939.4" y="74.7" width="24.4" height="24.65" shape-rendering="crispEdges"/><rect fill="#0a0d18" x="963.8" y="74.7" width="12.2" height="24.65" shape-rendering="crispEdges"/><rect fill="#0a0d18" x="0" y="99.1" width="12.2" height="24.65" shape-rendering="crispEdges"/><rect fill="#0a0d18" x="12.2" y="99.1" width="927.2" height="24.65" shape-rendering="crispEdges"/><rect fill="#111525" x="939.4" y="99.1" width="24.4" height="24.65" shape-rendering="crispEdges"/><rect fill="#0a0d18" x="963.8" y="99.1" width="12.2" height="24.65" shape-rendering="crispEdges"/><rect fill="#0a0d18" x="0" y="123.5" width="12.2" height="24.65" shape-rendering="crispEdges"/><rect fill="#0a0d18" x="12.2" y="123.5" width="24.4" height="24.65" shape-rendering="crispEdges"/><rect fill="#0a0d18" x="36.6" y="123.5" width="85.4" height="24.65" shape-rendering="crispEdges"/><rect fill="#0a0d18" x="122" y="123.5" width="817.4" height="24.65" shape-rendering="crispEdges"/><rect fill="#111525" x="939.4" y="123.5" width="24.4" height="24.65" shape-rendering="crispEdges"/><rect fill="#0a0d18" x="963.8" y="123.5" width="12.2" height="24.65" shape-rendering="crispEdges"/><rect fill="#0a0d18" x="0" y="147.9" width="12.2" height="24.65" shape-rendering="crispEdges"/><rect fill="#0a0d18" x="12.2" y="147.9" width="927.2" height="24.65" shape-rendering="crispEdges"/><rect fill="#111525" x="939.4" y="147.9" width="24.4" height="24.65" shape-rendering="crispEdges"/><rect fill="#0a0d18" x="963.8" y="147.9" width="12.2" height="24.65" shape-rendering="crispEdges"/><rect fill="#0a0d18" x="0" y="172.3" width="12.2" height="24.65" shape-rendering="crispEdges"/><rect fill="#0a0d18" x="12.2" y="172.3" width="292.8" height="24.65" shape-rendering="crispEdges"/><rect fill="#0a0d18" x="305" y="172.3" width="634.4" height="24.65" shape-rendering="crispEdges"/><rect fill="#111525" x="939.4" y="172.3" width="24.4" height="24.65" shape-rendering="crispEdges"/><rect fill="#0a0d18" x="963.8" y="172.3" width="12.2" height="24.65" shape-rendering="crispEdges"/><rect fill="#0a0d18" x="0" y="196.7" width="12.2" height="24.65" shape-rendering="crispEdges"/><rect fill="#0a0d18" x="12.2" y="196.7" width="366" height="24.65" shape-rendering="crispEdges"/><rect fill="#0a0d18" x="378.2" y="196.7" width="561.2" height="24.65" shape-rendering="crispEdges"/><rect fill="#111525" x="939.4" y="196.7" width="24.4" height="24.65" shape-rendering="crispEdges"/><rect fill="#0a0d18" x="963.8" y="196.7" width="12.2" height="24.65" shape-rendering="crispEdges"/><rect fill="#0a0d18" x="0" y="221.1" width="12.2" height="24.65" shape-rendering="crispEdges"/><rect fill="#0a0d18" x="12.2" y="221.1" width="927.2" height="24.65" shape-rendering="crispEdges"/><rect fill="#111525" x="939.4" y="221.1" width="24.4" height="24.65" shape-rendering="crispEdges"/><rect fill="#0a0d18" x="963.8" y="221.1" width="12.2" height="24.65" shape-rendering="crispEdges"/><rect fill="#0a0d18" x="0" y="245.5" width="12.2" height="24.65" shape-rendering="crispEdges"/><rect fill="#0a0d18" x="12.2" y="245.5" width="317.2" height="24.65" shape-rendering="crispEdges"/><rect fill="#0a0d18" x="329.4" y="245.5" width="610" height="24.65" shape-rendering="crispEdges"/><rect fill="#111525" x="939.4" y="245.5" width="24.4" height="24.65" shape-rendering="crispEdges"/><rect fill="#0a0d18" x="963.8" y="245.5" width="12.2" height="24.65" shape-rendering="crispEdges"/><rect fill="#0a0d18" x="0" y="269.9" width="12.2" height="24.65" shape-rendering="crispEdges"/><rect fill="#0a0d18" x="12.2" y="269.9" width="61" height="24.65" shape-rendering="crispEdges"/><rect fill="#0a0d18" x="73.2" y="269.9" width="12.2" height="24.65" shape-rendering="crispEdges"/><rect fill="#0a0d18" x="85.4" y="269.9" width="622.2" height="24.65" shape-rendering="crispEdges"/><rect fill="#0a0d18" x="707.6" y="269.9" width="231.8" height="24.65" shape-rendering="crispEdges"/><rect fill="#111525" x="939.4" y="269.9" width="24.4" height="24.65" shape-rendering="crispEdges"/><rect fill="#0a0d18" x="963.8" y="269.9" width="12.2" height="24.65" shape-rendering="crispEdges"/><rect fill="#0a0d18" x="0" y="294.3" width="12.2" height="24.65" shape-rendering="crispEdges"/><rect fill="#0a0d18" x="12.2" y="294.3" width="756.4" height="24.65" shape-rendering="crispEdges"/><rect fill="#0a0d18" x="768.6" y="294.3" width="170.8" height="24.65" shape-rendering="crispEdges"/><rect fill="#2a3050" x="939.4" y="294.3" width="24.4" height="24.65" shape-rendering="crispEdges"/><rect fill="#0a0d18" x="963.8" y="294.3" width="12.2" height="24.65" shape-rendering="crispEdges"/><rect fill="#0a0d18" x="0" y="318.7" width="12.2" height="24.65" shape-rendering="crispEdges"/><rect fill="#0a0d18" x="12.2" y="318.7" width="927.2" height="24.65" shape-rendering="crispEdges"/><rect fill="#2a3050" x="939.4" y="318.7" width="24.4" height="24.65" shape-rendering="crispEdges"/><rect fill="#0a0d18" x="963.8" y="318.7" width="12.2" height="24.65" shape-rendering="crispEdges"/><rect fill="#0a0d18" x="0" y="343.1" width="12.2" height="24.65" shape-rendering="crispEdges"/><rect fill="#0a0d18" x="12.2" y="343.1" width="48.8" height="24.65" shape-rendering="crispEdges"/><rect fill="#0a0d18" x="61" y="343.1" width="73.2" height="24.65" shape-rendering="crispEdges"/><rect fill="#0a0d18" x="134.2" y="343.1" width="244" height="24.65" shape-rendering="crispEdges"/><rect fill="#0a0d18" x="378.2" y="343.1" width="561.2" height="24.65" shape-rendering="crispEdges"/><rect fill="#2a3050" x="939.4" y="343.1" width="24.4" height="24.65" shape-rendering="crispEdges"/><rect fill="#0a0d18" x="963.8" y="343.1" width="12.2" height="24.65" shape-rendering="crispEdges"/><rect fill="#0a0d18" x="0" y="367.5" width="12.2" height="24.65" shape-rendering="crispEdges"/><rect fill="#0a0d18" x="12.2" y="367.5" width="597.8" height="24.65" shape-rendering="crispEdges"/><rect fill="#0a0d18" x="610" y="367.5" width="329.4" height="24.65" shape-rendering="crispEdges"/><rect fill="#2a3050" x="939.4" y="367.5" width="24.4" height="24.65" shape-rendering="crispEdges"/><rect fill="#0a0d18" x="963.8" y="367.5" width="12.2" height="24.65" shape-rendering="crispEdges"/><rect fill="#0a0d18" x="0" y="391.9" width="12.2" height="24.65" shape-rendering="crispEdges"/><rect fill="#2a3050" x="12.2" y="391.9" width="12.2" height="24.65" shape-rendering="crispEdges"/><rect fill="#2a3050" x="24.4" y="391.9" width="12.2" height="24.65" shape-rendering="crispEdges"/><rect fill="#2a3050" x="36.6" y="391.9" width="12.2" height="24.65" shape-rendering="crispEdges"/><rect fill="#2a3050" x="48.8" y="391.9" width="12.2" height="24.65" shape-rendering="crispEdges"/><rect fill="#2a3050" x="61" y="391.9" width="12.2" height="24.65" shape-rendering="crispEdges"/><rect fill="#2a3050" x="73.2" y="391.9" width="12.2" height="24.65" shape-rendering="crispEdges"/><rect fill="#2a3050" x="85.4" y="391.9" width="12.2" height="24.65" shape-rendering="crispEdges"/><rect fill="#2a3050" x="97.6" y="391.9" width="12.2" height="24.65" shape-rendering="crispEdges"/><rect fill="#2a3050" x="109.8" y="391.9" width="12.2" height="24.65" shape-rendering="crispEdges"/><rect fill="#2a3050" x="122" y="391.9" width="12.2" height="24.65" shape-rendering="crispEdges"/><rect fill="#2a3050" x="134.2" y="391.9" width="12.2" height="24.65" shape-rendering="crispEdges"/><rect fill="#2a3050" x="146.4" y="391.9" width="12.2" height="24.65" shape-rendering="crispEdges"/><rect fill="#2a3050" x="158.6" y="391.9" width="12.2" height="24.65" shape-rendering="crispEdges"/><rect fill="#2a3050" x="170.8" y="391.9" width="12.2" height="24.65" shape-rendering="crispEdges"/><rect fill="#2a3050" x="183" y="391.9" width="12.2" height="24.65" shape-rendering="crispEdges"/><rect fill="#2a3050" x="195.2" y="391.9" width="12.2" height="24.65" shape-rendering="crispEdges"/><rect fill="#2a3050" x="207.4" y="391.9" width="12.2" height="24.65" shape-rendering="crispEdges"/><rect fill="#2a3050" x="219.6" y="391.9" width="12.2" height="24.65" shape-rendering="crispEdges"/><rect fill="#2a3050" x="231.8" y="391.9" width="12.2" height="24.65" shape-rendering="crispEdges"/><rect fill="#2a3050" x="244" y="391.9" width="12.2" height="24.65" shape-rendering="crispEdges"/><rect fill="#2a3050" x="256.2" y="391.9" width="12.2" height="24.65" shape-rendering="crispEdges"/><rect fill="#2a3050" x="268.4" y="391.9" width="12.2" height="24.65" shape-rendering="crispEdges"/><rect fill="#2a3050" x="280.6" y="391.9" width="12.2" height="24.65" shape-rendering="crispEdges"/><rect fill="#2a3050" x="292.8" y="391.9" width="12.2" height="24.65" shape-rendering="crispEdges"/><rect fill="#2a3050" x="305" y="391.9" width="12.2" height="24.65" shape-rendering="crispEdges"/><rect fill="#2a3050" x="317.2" y="391.9" width="12.2" height="24.65" shape-rendering="crispEdges"/><rect fill="#2a3050" x="329.4" y="391.9" width="12.2" height="24.65" shape-rendering="crispEdges"/><rect fill="#2a3050" x="341.6" y="391.9" width="12.2" height="24.65" shape-rendering="crispEdges"/><rect fill="#2a3050" x="353.8" y="391.9" width="12.2" height="24.65" shape-rendering="crispEdges"/><rect fill="#2a3050" x="366" y="391.9" width="12.2" height="24.65" shape-rendering="crispEdges"/><rect fill="#2a3050" x="378.2" y="391.9" width="12.2" height="24.65" shape-rendering="crispEdges"/><rect fill="#2a3050" x="390.4" y="391.9" width="12.2" height="24.65" shape-rendering="crispEdges"/><rect fill="#2a3050" x="402.6" y="391.9" width="12.2" height="24.65" shape-rendering="crispEdges"/><rect fill="#2a3050" x="414.8" y="391.9" width="12.2" height="24.65" shape-rendering="crispEdges"/><rect fill="#2a3050" x="427" y="391.9" width="12.2" height="24.65" shape-rendering="crispEdges"/><rect fill="#2a3050" x="439.2" y="391.9" width="12.2" height="24.65" shape-rendering="crispEdges"/><rect fill="#2a3050" x="451.4" y="391.9" width="12.2" height="24.65" shape-rendering="crispEdges"/><rect fill="#2a3050" x="463.6" y="391.9" width="12.2" height="24.65" shape-rendering="crispEdges"/><rect fill="#2a3050" x="475.8" y="391.9" width="12.2" height="24.65" shape-rendering="crispEdges"/><rect fill="#2a3050" x="488" y="391.9" width="12.2" height="24.65" shape-rendering="crispEdges"/><rect fill="#2a3050" x="500.2" y="391.9" width="12.2" height="24.65" shape-rendering="crispEdges"/><rect fill="#2a3050" x="512.4" y="391.9" width="12.2" height="24.65" shape-rendering="crispEdges"/><rect fill="#2a3050" x="524.6" y="391.9" width="12.2" height="24.65" shape-rendering="crispEdges"/><rect fill="#2a3050" x="536.8" y="391.9" width="12.2" height="24.65" shape-rendering="crispEdges"/><rect fill="#2a3050" x="549" y="391.9" width="12.2" height="24.65" shape-rendering="crispEdges"/><rect fill="#2a3050" x="561.2" y="391.9" width="12.2" height="24.65" shape-rendering="crispEdges"/><rect fill="#2a3050" x="573.4" y="391.9" width="12.2" height="24.65" shape-rendering="crispEdges"/><rect fill="#2a3050" x="585.6" y="391.9" width="12.2" height="24.65" shape-rendering="crispEdges"/><rect fill="#2a3050" x="597.8" y="391.9" width="12.2" height="24.65" shape-rendering="crispEdges"/><rect fill="#2a3050" x="610" y="391.9" width="12.2" height="24.65" shape-rendering="crispEdges"/><rect fill="#2a3050" x="622.2" y="391.9" width="12.2" height="24.65" shape-rendering="crispEdges"/><rect fill="#2a3050" x="634.4" y="391.9" width="12.2" height="24.65" shape-rendering="crispEdges"/><rect fill="#2a3050" x="646.6" y="391.9" width="12.2" height="24.65" shape-rendering="crispEdges"/><rect fill="#2a3050" x="658.8" y="391.9" width="12.2" height="24.65" shape-rendering="crispEdges"/><rect fill="#2a3050" x="671" y="391.9" width="12.2" height="24.65" shape-rendering="crispEdges"/><rect fill="#2a3050" x="683.2" y="391.9" width="12.2" height="24.65" shape-rendering="crispEdges"/><rect fill="#2a3050" x="695.4" y="391.9" width="12.2" height="24.65" shape-rendering="crispEdges"/><rect fill="#2a3050" x="707.6" y="391.9" width="12.2" height="24.65" shape-rendering="crispEdges"/><rect fill="#2a3050" x="719.8" y="391.9" width="12.2" height="24.65" shape-rendering="crispEdges"/><rect fill="#2a3050" x="732" y="391.9" width="12.2" height="24.65" shape-rendering="crispEdges"/><rect fill="#2a3050" x="744.2" y="391.9" width="12.2" height="24.65" shape-rendering="crispEdges"/><rect fill="#2a3050" x="756.4" y="391.9" width="12.2" height="24.65" shape-rendering="crispEdges"/><rect fill="#2a3050" x="768.6" y="391.9" width="12.2" height="24.65" shape-rendering="crispEdges"/><rect fill="#2a3050" x="780.8" y="391.9" width="12.2" height="24.65" shape-rendering="crispEdges"/><rect fill="#2a3050" x="793" y="391.9" width="12.2" height="24.65" shape-rendering="crispEdges"/><rect fill="#2a3050" x="805.2" y="391.9" width="12.2" height="24.65" shape-rendering="crispEdges"/><rect fill="#2a3050" x="817.4" y="391.9" width="12.2" height="24.65" shape-rendering="crispEdges"/><rect fill="#2a3050" x="829.6" y="391.9" width="12.2" height="24.65" shape-rendering="crispEdges"/><rect fill="#2a3050" x="841.8" y="391.9" width="12.2" height="24.65" shape-rendering="crispEdges"/><rect fill="#2a3050" x="854" y="391.9" width="12.2" height="24.65" shape-rendering="crispEdges"/><rect fill="#2a3050" x="866.2" y="391.9" width="12.2" height="24.65" shape-rendering="crispEdges"/><rect fill="#2a3050" x="878.4" y="391.9" width="12.2" height="24.65" shape-rendering="crispEdges"/><rect fill="#2a3050" x="890.6" y="391.9" width="12.2" height="24.65" shape-rendering="crispEdges"/><rect fill="#2a3050" x="902.8" y="391.9" width="12.2" height="24.65" shape-rendering="crispEdges"/><rect fill="#111525" x="915" y="391.9" width="12.2" height="24.65" shape-rendering="crispEdges"/><rect fill="#111525" x="927.2" y="391.9" width="12.2" height="24.65" shape-rendering="crispEdges"/><rect fill="#000000" x="939.4" y="391.9" width="24.4" height="24.65" shape-rendering="crispEdges"/><rect fill="#0a0d18" x="963.8" y="391.9" width="12.2" height="24.65" shape-rendering="crispEdges"/><rect fill="#0a0d18" x="0" y="416.3" width="24.4" height="24.65" shape-rendering="crispEdges"/><rect fill="#0a0d18" x="24.4" y="416.3" width="24.4" height="24.65" shape-rendering="crispEdges"/><rect fill="#0a0d18" x="48.8" y="416.3" width="109.8" height="24.65" shape-rendering="crispEdges"/><rect fill="#0a0d18" x="158.6" y="416.3" width="12.2" height="24.65" shape-rendering="crispEdges"/><rect fill="#0a0d18" x="170.8" y="416.3" width="732" height="24.65" shape-rendering="crispEdges"/><rect fill="#0a0d18" x="902.8" y="416.3" width="48.8" height="24.65" shape-rendering="crispEdges"/><rect fill="#0a0d18" x="951.6" y="416.3" width="24.4" height="24.65" shape-rendering="crispEdges"/><rect fill="#0a0d18" x="0" y="440.7" width="24.4" height="24.65" shape-rendering="crispEdges"/><rect fill="#0a0d18" x="24.4" y="440.7" width="549" height="24.65" shape-rendering="crispEdges"/><rect fill="#0a0d18" x="573.4" y="440.7" width="378.2" height="24.65" shape-rendering="crispEdges"/><rect fill="#0a0d18" x="951.6" y="440.7" width="24.4" height="24.65" shape-rendering="crispEdges"/><rect fill="#111525" x="0" y="465.1" width="24.4" height="24.65" shape-rendering="crispEdges"/><rect fill="#111525" x="24.4" y="465.1" width="48.8" height="24.65" shape-rendering="crispEdges"/><rect fill="#111525" x="73.2" y="465.1" width="12.2" height="24.65" shape-rendering="crispEdges"/><rect fill="#111525" x="85.4" y="465.1" width="61" height="24.65" shape-rendering="crispEdges"/><rect fill="#111525" x="146.4" y="465.1" width="12.2" height="24.65" shape-rendering="crispEdges"/><rect fill="#111525" x="158.6" y="465.1" width="36.6" height="24.65" shape-rendering="crispEdges"/><rect fill="#111525" x="195.2" y="465.1" width="24.4" height="24.65" shape-rendering="crispEdges"/><rect fill="#111525" x="219.6" y="465.1" width="61" height="24.65" shape-rendering="crispEdges"/><rect fill="#111525" x="280.6" y="465.1" width="12.2" height="24.65" shape-rendering="crispEdges"/><rect fill="#111525" x="292.8" y="465.1" width="61" height="24.65" shape-rendering="crispEdges"/><rect fill="#111525" x="353.8" y="465.1" width="12.2" height="24.65" shape-rendering="crispEdges"/><rect fill="#111525" x="366" y="465.1" width="48.8" height="24.65" shape-rendering="crispEdges"/><rect fill="#111525" x="414.8" y="465.1" width="24.4" height="24.65" shape-rendering="crispEdges"/><rect fill="#111525" x="439.2" y="465.1" width="48.8" height="24.65" shape-rendering="crispEdges"/><rect fill="#111525" x="488" y="465.1" width="12.2" height="24.65" shape-rendering="crispEdges"/><rect fill="#111525" x="500.2" y="465.1" width="61" height="24.65" shape-rendering="crispEdges"/><rect fill="#111525" x="561.2" y="465.1" width="12.2" height="24.65" shape-rendering="crispEdges"/><rect fill="#111525" x="573.4" y="465.1" width="36.6" height="24.65" shape-rendering="crispEdges"/><rect fill="#111525" x="610" y="465.1" width="24.4" height="24.65" shape-rendering="crispEdges"/><rect fill="#111525" x="634.4" y="465.1" width="48.8" height="24.65" shape-rendering="crispEdges"/><rect fill="#111525" x="683.2" y="465.1" width="12.2" height="24.65" shape-rendering="crispEdges"/><rect fill="#111525" x="695.4" y="465.1" width="36.6" height="24.65" shape-rendering="crispEdges"/><rect fill="#111525" x="732" y="465.1" width="24.4" height="24.65" shape-rendering="crispEdges"/><rect fill="#111525" x="756.4" y="465.1" width="12.2" height="24.65" shape-rendering="crispEdges"/><rect fill="#111525" x="768.6" y="465.1" width="36.6" height="24.65" shape-rendering="crispEdges"/><rect fill="#111525" x="805.2" y="465.1" width="146.4" height="24.65" shape-rendering="crispEdges"/><rect fill="#111525" x="951.6" y="465.1" width="24.4" height="24.65" shape-rendering="crispEdges"/><rect fill="#111525" x="0" y="489.5" width="24.4" height="24.65" shape-rendering="crispEdges"/><rect fill="#111525" x="24.4" y="489.5" width="97.6" height="24.65" shape-rendering="crispEdges"/><rect fill="#111525" x="122" y="489.5" width="24.4" height="24.65" shape-rendering="crispEdges"/><rect fill="#111525" x="146.4" y="489.5" width="97.6" height="24.65" shape-rendering="crispEdges"/><rect fill="#111525" x="244" y="489.5" width="24.4" height="24.65" shape-rendering="crispEdges"/><rect fill="#111525" x="268.4" y="489.5" width="48.8" height="24.65" shape-rendering="crispEdges"/><rect fill="#111525" x="317.2" y="489.5" width="24.4" height="24.65" shape-rendering="crispEdges"/><rect fill="#111525" x="341.6" y="489.5" width="12.2" height="24.65" shape-rendering="crispEdges"/><rect fill="#111525" x="353.8" y="489.5" width="12.2" height="24.65" shape-rendering="crispEdges"/><rect fill="#111525" x="366" y="489.5" width="73.2" height="24.65" shape-rendering="crispEdges"/><rect fill="#111525" x="439.2" y="489.5" width="12.2" height="24.65" shape-rendering="crispEdges"/><rect fill="#111525" x="451.4" y="489.5" width="97.6" height="24.65" shape-rendering="crispEdges"/><rect fill="#111525" x="549" y="489.5" width="12.2" height="24.65" shape-rendering="crispEdges"/><rect fill="#111525" x="561.2" y="489.5" width="97.6" height="24.65" shape-rendering="crispEdges"/><rect fill="#111525" x="658.8" y="489.5" width="85.4" height="24.65" shape-rendering="crispEdges"/><rect fill="#111525" x="744.2" y="489.5" width="61" height="24.65" shape-rendering="crispEdges"/><rect fill="#111525" x="805.2" y="489.5" width="12.2" height="24.65" shape-rendering="crispEdges"/><rect fill="#111525" x="817.4" y="489.5" width="36.6" height="24.65" shape-rendering="crispEdges"/><rect fill="#111525" x="854" y="489.5" width="97.6" height="24.65" shape-rendering="crispEdges"/><rect fill="#111525" x="951.6" y="489.5" width="24.4" height="24.65" shape-rendering="crispEdges"/><rect fill="#0e1122" x="0" y="513.9" width="12.2" height="24.65" shape-rendering="crispEdges"/><rect fill="#0e1122" x="12.2" y="513.9" width="97.6" height="24.65" shape-rendering="crispEdges"/><rect fill="#0e1122" x="109.8" y="513.9" width="12.2" height="24.65" shape-rendering="crispEdges"/><rect fill="#181b2b" x="122" y="513.9" width="24.4" height="24.65" shape-rendering="crispEdges"/><rect fill="#181b2b" x="146.4" y="513.9" width="195.2" height="24.65" shape-rendering="crispEdges"/><rect fill="#181b2b" x="341.6" y="513.9" width="597.8" height="24.65" shape-rendering="crispEdges"/><rect fill="#181b2b" x="939.4" y="513.9" width="24.4" height="24.65" shape-rendering="crispEdges"/><rect fill="#0e1122" x="963.8" y="513.9" width="12.2" height="24.65" shape-rendering="crispEdges"/><rect fill="#0e1122" x="0" y="538.3" width="12.2" height="24.65" shape-rendering="crispEdges"/><rect fill="#0e1122" x="12.2" y="538.3" width="109.8" height="24.65" shape-rendering="crispEdges"/><rect fill="#181b2b" x="122" y="538.3" width="24.4" height="24.65" shape-rendering="crispEdges"/><rect fill="#181b2b" x="146.4" y="538.3" width="793" height="24.65" shape-rendering="crispEdges"/><rect fill="#181b2b" x="939.4" y="538.3" width="24.4" height="24.65" shape-rendering="crispEdges"/><rect fill="#0e1122" x="963.8" y="538.3" width="12.2" height="24.65" shape-rendering="crispEdges"/><rect fill="#0e1122" x="0" y="562.7" width="12.2" height="24.65" shape-rendering="crispEdges"/><rect fill="#0e1122" x="12.2" y="562.7" width="109.8" height="24.65" shape-rendering="crispEdges"/><rect fill="#181b2b" x="122" y="562.7" width="24.4" height="24.65" shape-rendering="crispEdges"/><rect fill="#181b2b" x="146.4" y="562.7" width="793" height="24.65" shape-rendering="crispEdges"/><rect fill="#181b2b" x="939.4" y="562.7" width="24.4" height="24.65" shape-rendering="crispEdges"/><rect fill="#0e1122" x="963.8" y="562.7" width="12.2" height="24.65" shape-rendering="crispEdges"/>
    <g class="terminal-3429788910-matrix">
    <text class="terminal-3429788910-r2" x="24.4" y="20" textLength="268.4" clip-path="url(#terminal-3429788910-line-0)">Moon&#160;Traveler&#160;Terminal</text><text class="terminal-3429788910-r1" x="976" y="20" textLength="12.2" clip-path="url(#terminal-3429788910-line-0)">
</text><text class="terminal-3429788910-r3" x="12.2" y="44.4" textLength="927.2" clip-path="url(#terminal-3429788910-line-1)">where&#160;you&#160;came&#160;from.&#160;I&#x27;m&#160;Yuleth,&#160;and&#160;things&#160;on&#160;Enceladus&#160;are&#160;not&#160;always&#160;easy</text><text class="terminal-3429788910-r1" x="976" y="44.4" textLength="12.2" clip-path="url(#terminal-3429788910-line-1)">
</text><text class="terminal-3429788910-r3" x="12.2" y="68.8" textLength="475.8" clip-path="url(#terminal-3429788910-line-2)">especially&#160;with&#160;the&#160;sickness&#160;spreading.</text><text class="terminal-3429788910-r1" x="976" y="68.8" textLength="12.2" clip-path="url(#terminal-3429788910-line-2)">
</text><text class="terminal-3429788910-r4" x="12.2" y="93.2" textLength="366" clip-path="url(#terminal-3429788910-line-3)">+5&#160;trust&#160;(100/100&#160;—&#160;max&#160;trust)</text><text class="terminal-3429788910-r1" x="976" y="93.2" textLength="12.2" clip-path="url(#terminal-3429788910-line-3)">
</text><text class="terminal-3429788910-r1" x="976" y="117.6" textLength="12.2" clip-path="url(#terminal-3429788910-line-4)">
</text><text class="terminal-3429788910-r5" x="36.6" y="142" textLength="85.4" clip-path="url(#terminal-3429788910-line-5)">Yuleth:</text><text class="terminal-3429788910-r3" x="122" y="142" textLength="817.4" clip-path="url(#terminal-3429788910-line-5)">&#160;I&#160;might&#160;be&#160;able&#160;to&#160;offer&#160;some&#160;guidance,&#160;but&#160;I&#160;can&#x27;t&#160;just&#160;wander&#160;ov</text><text class="terminal-3429788910-r1" x="976" y="142" textLength="12.2" clip-path="url(#terminal-3429788910-line-5)">
</text><text class="terminal-3429788910-r3" x="12.2" y="166.4" textLength="927.2" clip-path="url(#terminal-3429788910-line-6)">and&#160;start&#160;fixing&#160;things&#160;for&#160;a&#160;stranger.&#160;I&#160;need&#160;to&#160;know&#160;what&#160;you&#160;need&#160;and&#160;why</text><text class="terminal-3429788910-r1" x="976" y="166.4" textLength="12.2" clip-path="url(#terminal-3429788910-line-6)">
</text><text class="terminal-3429788910-r3" x="12.2" y="190.8" textLength="292.8" clip-path="url(#terminal-3429788910-line-7)">you&#160;are&#160;here&#160;on&#160;my&#160;moon.</text><text class="terminal-3429788910-r1" x="976" y="190.8" textLength="12.2" clip-path="url(#terminal-3429788910-line-7)">
</text><text class="terminal-3429788910-r4" x="12.2" y="215.2" textLength="366" clip-path="url(#terminal-3429788910-line-8)">+5&#160;trust&#160;(100/100&#160;—&#160;max&#160;trust)</text><text class="terminal-3429788910-r1" x="976" y="215.2" textLength="12.2" clip-path="url(#terminal-3429788910-line-8)">
</text><text class="terminal-3429788910-r1" x="976" y="239.6" textLength="12.2" clip-path="url(#terminal-3429788910-line-9)">
</text><text class="terminal-3429788910-r6" x="12.2" y="264" textLength="317.2" clip-path="url(#terminal-3429788910-line-10)">You&#160;step&#160;away&#160;from&#160;Yuleth.</text><text class="terminal-3429788910-r1" x="976" y="264" textLength="12.2" clip-path="url(#terminal-3429788910-line-10)">
</text><text class="terminal-3429788910-r7" x="12.2" y="288.4" textLength="61" clip-path="url(#terminal-3429788910-line-11)">ARIA:</text><text class="terminal-3429788910-r8" x="85.4" y="288.4" textLength="622.2" clip-path="url(#terminal-3429788910-line-11)">Yuleth&#160;appears&#160;highly&#160;cooperative.&#160;Trust&#160;is&#160;strong.</text><text class="terminal-3429788910-r1" x="976" y="288.4" textLength="12.2" clip-path="url(#terminal-3429788910-line-11)">
</text><text class="terminal-3429788910-r4" x="12.2" y="312.8" textLength="756.4" clip-path="url(#terminal-3429788910-line-12)">Tip:&#160;Yuleth&#160;trusts&#160;you&#160;enough&#160;to&#160;escort.&#160;Type&#160;&#x27;escort&#x27;&#160;to&#160;ask.</text><text class="terminal-3429788910-r1" x="976" y="312.8" textLength="12.2" clip-path="url(#terminal-3429788910-line-12)">
</text><text class="terminal-3429788910-r1" x="976" y="337.2" textLength="12.2" clip-path="url(#terminal-3429788910-line-13)">
</text><text class="terminal-3429788910-r10" x="12.2" y="361.6" textLength="48.8" clip-path="url(#terminal-3429788910-line-14)">Ask&#160;</text><text class="terminal-3429788910-r11" x="61" y="361.6" textLength="73.2" clip-path="url(#terminal-3429788910-line-14)">Yuleth</text><text class="terminal-3429788910-r10" x="134.2" y="361.6" textLength="244" clip-path="url(#terminal-3429788910-line-14)">&#160;to&#160;travel&#160;with&#160;you?</text><text class="terminal-3429788910-r1" x="976" y="361.6" textLength="12.2" clip-path="url(#terminal-3429788910-line-14)">
</text><text class="terminal-3429788910-r4" x="12.2" y="386" textLength="597.8" clip-path="url(#terminal-3429788910-line-15)">&#160;&#160;Companions&#160;help&#160;with&#160;repairs&#160;at&#160;the&#160;Crash&#160;Site.</text><text class="terminal-3429788910-r1" x="976" y="386" textLength="12.2" clip-path="url(#terminal-3429788910-line-15)">
</text><text class="terminal-3429788910-r12" x="915" y="410.4" textLength="12.2" clip-path="url(#terminal-3429788910-line-16)">▏</text><text class="terminal-3429788910-r1" x="976" y="410.4" textLength="12.2" clip-path="url(#terminal-3429788910-line-16)">
</text><text class="terminal-3429788910-r14" x="48.8" y="434.8" textLength="109.8" clip-path="url(#terminal-3429788910-line-17)">&lt;&#160;DRONE&#160;&gt;</text><text class="terminal-3429788910-r15" x="170.8" y="434.8" textLength="732" clip-path="url(#terminal-3429788910-line-17)">Ask&#160;Yuleth&#160;about&#160;the&#160;creature&#x27;s&#160;history&#160;or&#160;preferred&#160;trading</text><text class="terminal-3429788910-r1" x="976" y="434.8" textLength="12.2" clip-path="url(#terminal-3429788910-line-17)">
</text><text class="terminal-3429788910-r15" x="24.4" y="459.2" textLength="549" clip-path="url(#terminal-3429788910-line-18)">routes&#160;to&#160;gauge&#160;their&#160;knowledge&#160;base&#160;further.</text><text class="terminal-3429788910-r1" x="976" y="459.2" textLength="12.2" clip-path="url(#terminal-3429788910-line-18)">
</text><text class="terminal-3429788910-r16" x="24.4" y="483.6" textLength="48.8" clip-path="url(#terminal-3429788910-line-19)">Food</text><text class="terminal-3429788910-r16" x="85.4" y="483.6" textLength="61" clip-path="url(#terminal-3429788910-line-19)">█████</text><text class="terminal-3429788910-r18" x="158.6" y="483.6" textLength="36.6" clip-path="url(#terminal-3429788910-line-19)">98%</text><text class="terminal-3429788910-r19" x="219.6" y="483.6" textLength="61" clip-path="url(#terminal-3429788910-line-19)">Water</text><text class="terminal-3429788910-r16" x="292.8" y="483.6" textLength="61" clip-path="url(#terminal-3429788910-line-19)">█████</text><text class="terminal-3429788910-r18" x="366" y="483.6" textLength="48.8" clip-path="url(#terminal-3429788910-line-19)">100%</text><text class="terminal-3429788910-r20" x="439.2" y="483.6" textLength="48.8" clip-path="url(#terminal-3429788910-line-19)">Suit</text><text class="terminal-3429788910-r16" x="500.2" y="483.6" textLength="61" clip-path="url(#terminal-3429788910-line-19)">█████</text><text class="terminal-3429788910-r18" x="573.4" y="483.6" textLength="36.6" clip-path="url(#terminal-3429788910-line-19)">94%</text><text class="terminal-3429788910-r21" x="634.4" y="483.6" textLength="48.8" clip-path="url(#terminal-3429788910-line-19)">Batt</text><text class="terminal-3429788910-r16" x="695.4" y="483.6" textLength="36.6" clip-path="url(#terminal-3429788910-line-19)">███</text><text class="terminal-3429788910-r18" x="732" y="483.6" textLength="24.4" clip-path="url(#terminal-3429788910-line-19)">░░</text><text class="terminal-3429788910-r18" x="768.6" y="483.6" textLength="36.6" clip-path="url(#terminal-3429788910-line-19)">68%</text><text class="terminal-3429788910-r1" x="976" y="483.6" textLength="12.2" clip-path="url(#terminal-3429788910-line-19)">
</text><text class="terminal-3429788910-r22" x="24.4" y="508" textLength="97.6" clip-path="url(#terminal-3429788910-line-20)">Ship&#160;0/3</text><text class="terminal-3429788910-r18" x="146.4" y="508" textLength="97.6" clip-path="url(#terminal-3429788910-line-20)">Inv&#160;5/15</text><text class="terminal-3429788910-r18" x="268.4" y="508" textLength="48.8" clip-path="url(#terminal-3429788910-line-20)">⏱&#160;1h</text><text class="terminal-3429788910-r18" x="341.6" y="508" textLength="12.2" clip-path="url(#terminal-3429788910-line-20)">│</text><text class="terminal-3429788910-r23" x="366" y="508" textLength="73.2" clip-path="url(#terminal-3429788910-line-20)">Yuleth</text><text class="terminal-3429788910-r18" x="451.4" y="508" textLength="97.6" clip-path="url(#terminal-3429788910-line-20)">Merchant</text><text class="terminal-3429788910-r16" x="561.2" y="508" textLength="97.6" clip-path="url(#terminal-3429788910-line-20)">friendly</text><text class="terminal-3429788910-r17" x="658.8" y="508" textLength="85.4" clip-path="url(#terminal-3429788910-line-20)">&#160;Trust&#160;</text><text class="terminal-3429788910-r16" x="744.2" y="508" textLength="61" clip-path="url(#terminal-3429788910-line-20)">█████</text><text class="terminal-3429788910-r18" x="817.4" y="508" textLength="36.6" clip-path="url(#terminal-3429788910-line-20)">100</text><text class="terminal-3429788910-r1" x="976" y="508" textLength="12.2" clip-path="url(#terminal-3429788910-line-20)">
</text><text class="terminal-3429788910-r24" x="12.2" y="532.4" textLength="97.6" clip-path="url(#terminal-3429788910-line-21)">(y/n)&#160;&gt;&#160;</text><text class="terminal-3429788910-r25" x="146.4" y="532.4" textLength="195.2" clip-path="url(#terminal-3429788910-line-21)">Enter&#160;command...</text><text class="terminal-3429788910-r1" x="976" y="532.4" textLength="12.2" clip-path="url(#terminal-3429788910-line-21)">
</text><text class="terminal-3429788910-r1" x="976" y="556.8" textLength="12.2" clip-path="url(#terminal-3429788910-line-22)">
</text>
    </g>
    </g>
</svg>
