<svg class="rich-terminal" viewBox="0 0 994 635.5999999999999" xmlns="http://www.w3.org/2000/svg">
    <!-- Generated with Rich https://www.textualize.io -->
    <style>

    @font-face {
        font-family: "Fira Code";
        src: local("FiraCode-Regular"),
                url("https://cdnjs.cloudflare.com/ajax/libs/firacode/6.2.0/woff2/FiraCode-Regular.woff2") format("woff2"),
                url("https://cdnjs.cloudflare.com/ajax/libs/firacode/6.2.0/woff/FiraCode-Regular.woff") format("woff");
        font-style: normal;
        font-weight: 400;
    }
    @font-face {
        font-family: "Fira Code";
        src: local("FiraCode-Bold"),
                url("https://cdnjs.cloudflare.com/ajax/libs/firacode/6.2.0/woff2/FiraCode-Bold.woff2") format("woff2"),
                url("https://cdnjs.cloudflare.com/ajax/libs/firacode/6.2.0/woff/FiraCode-Bold.woff") format("woff");
        font-style: bold;
        font-weight: 700;
    }

    .terminal-4288775252-matrix {
        font-family: Fira Code, monospace;
        font-size: 20px;
        line-height: 24.4px;
        font-variant-east-asian: full-width;
    }

    .terminal-4288775252-title {
        font-size: 18px;
        font-weight: bold;
        font-family: arial;
    }

    .terminal-4288775252-r1 { fill: #c5c8c6 }
.terminal-4288775252-r2 { fill: #c89450;font-weight: bold }
.terminal-4288775252-r3 { fill: #e0e0e0 }
.terminal-4288775252-r4 { fill: #58d1eb }
.terminal-4288775252-r5 { fill: #e0e0e0;font-weight: bold }
.terminal-4288775252-r6 { fill: #2a3050 }
.terminal-4288775252-r7 { fill: #0a0d18 }
.terminal-4288775252-r8 { fill: #008000 }
.terminal-4288775252-r9 { fill: #8890b0 }
.terminal-4288775252-r10 { fill: #5f6680 }
.terminal-4288775252-r11 { fill: #00ffff }
.terminal-4288775252-r12 { fill: #c89450 }
.terminal-4288775252-r13 { fill: #a080d0 }
.terminal-4288775252-r14 { fill: #ff0000 }
.terminal-4288775252-r15 { fill: #5ca8c8;font-weight: bold }
.terminal-4288775252-r16 { fill: #6f717b }
.terminal-4288775252-r17 { fill: #b4bcd4 }
    </style>

    <defs>
    <clipPath id="terminal-4288775252-clip-terminal">
      <rect x="0" y="0" width="975.0" height="584.5999999999999" />
    </clipPath>
    <clipPath id="terminal-4288775252-line-0">
    <rect x="0" y="1.5" width="976" height="24.65"/>
            </clipPath>
<clipPath id="terminal-4288775252-line-1">
    <rect x="0" y="25.9" width="976" height="24.65"/>
            </clipPath>
<clipPath id="terminal-4288775252-line-2">
    <rect x="0" y="50.3" width="976" height="24.65"/>
            </clipPath>
<clipPath id="terminal-4288775252-line-3">
    <rect x="0" y="74.7" width="976" height="24.65"/>
            </clipPath>
<clipPath id="terminal-4288775252-line-4">
    <rect x="0" y="99.1" width="976" height="24.65"/>
            </clipPath>
<clipPath id="terminal-4288775252-line-5">
    <rect x="0" y="123.5" width="976" height="24.65"/>
            </clipPath>
<clipPath id="terminal-4288775252-line-6">
    <rect x="0" y="147.9" width="976" height="24.65"/>
            </clipPath>
<clipPath id="terminal-4288775252-line-7">
    <rect x="0" y="172.3" width="976" height="24.65"/>
            </clipPath>
<clipPath id="terminal-4288775252-line-8">
    <rect x="0" y="196.7" width="976" height="24.65"/>
            </clipPath>
<clipPath id="terminal-4288775252-line-9">
    <rect x="0" y="221.1" width="976" height="24.65"/>
            </clipPath>
<clipPath id="terminal-4288775252-line-10">
    <rect x="0" y="245.5" width="976" height="24.65"/>
            </clipPath>
<clipPath id="terminal-4288775252-line-11">
    <rect x="0" y="269.9" width="976" height="24.65"/>
            </clipPath>
<clipPath id="terminal-4288775252-line-12">
    <rect x="0" y="294.3" width="976" height="24.65"/>
            </clipPath>
<clipPath id="terminal-4288775252-line-13">
    <rect x="0" y="318.7" width="976" height="24.65"/>
            </clipPath>
<clipPath id="terminal-4288775252-line-14">
    <rect x="0" y="343.1" width="976" height="24.65"/>
            </clipPath>
<clipPath id="terminal-4288775252-line-15">
    <rect x="0" y="367.5" width="976" height="24.65"/>
            </clipPath>
<clipPath id="terminal-4288775252-line-16">
    <rect x="0" y="391.9" width="976" height="24.65"/>
            </clipPath>
<clipPath id="terminal-4288775252-line-17">
    <rect x="0" y="416.3" width="976" height="24.65"/>
            </clipPath>
<clipPath id="terminal-4288775252-line-18">
    <rect x="0" y="440.7" width="976" height="24.65"/>
            </clipPath>
<clipPath id="terminal-4288775252-line-19">
    <rect x="0" y="465.1" width="976" height="24.65"/>
            </clipPath>
<clipPath id="terminal-4288775252-line-20">
    <rect x="0" y="489.5" width="976" height="24.65"/>
            </clipPath>
<clipPath id="terminal-4288775252-line-21">
    <rect x="0" y="513.9" width="976" height="24.65"/>
            </clipPath>
<clipPath id="terminal-4288775252-line-22">
    <rect x="0" y="538.3" width="976" height="24.65"/>
            </clipPath>
    </defs>

    <rect fill="#292929" stroke="rgba(255,255,255,0.35)" stroke-width="1" x="1" y="1" width="992" height="633.6" rx="8"/><text class="terminal-4288775252-title" fill="#c5c8c6" text-anchor="middle" x="496" y="27">Moon&#160;Traveler&#160;Terminal</text>
            <g transform="translate(26,22)">
            <circle cx="0" cy="0" r="7" fill="#ff5f57"/>
            <circle cx="22" cy="0" r="7" fill="#febc2e"/>
            <circle cx="44" cy="0" r="7" fill="#28c840"/>
            </g>

    <g transform="translate(9, 41)" clip-path="url(#terminal-4288775252-clip-terminal)">
    <rect fill="#111525" x="0" y="1.5" width="24.4" height="24.65" shape-rendering="crispEdges"/><rect fill="#111525" x="24.4" y="1.5" width="268.4" height="24.65" shape-rendering="crispEdges"/><rect fill="#111525" x="292.8" y="1.5" width="658.8" height="24.65" shape-rendering="crispEdges"/><rect fill="#111525" x="951.6" y="1.5" width="24.4" height="24.65" shape-rendering="crispEdges"/><rect fill="#0a0d18" x="0" y="25.9" width="12.2" height="24.65" shape-rendering="crispEdges"/><rect fill="#0a0d18" x="12.2" y="25.9" width="24.4" height="24.65" shape-rendering="crispEdges"/><rect fill="#0a0d18" x="36.6" y="25.9" width="61" height="24.65" shape-rendering="crispEdges"/><rect fill="#0a0d18" x="97.6" y="25.9" width="463.6" height="24.65" shape-rendering="crispEdges"/><rect fill="#0a0d18" x="561.2" y="25.9" width="378.2" height="24.65" shape-rendering="crispEdges"/><rect fill="#111525" x="939.4" y="25.9" width="24.4" height="24.65" shape-rendering="crispEdges"/><rect fill="#0a0d18" x="963.8" y="25.9" width="12.2" height="24.65" shape-rendering="crispEdges"/><rect fill="#0a0d18" x="0" y="50.3" width="12.2" height="24.65" shape-rendering="crispEdges"/><rect fill="#0a0d18" x="12.2" y="50.3" width="24.4" height="24.65" shape-rendering="crispEdges"/><rect fill="#0a0d18" x="36.6" y="50.3" width="122" height="24.65" shape-rendering="crispEdges"/><rect fill="#0a0d18" x="158.6" y="50.3" width="439.2" height="24.65" shape-rendering="crispEdges"/><rect fill="#0a0d18" x="597.8" y="50.3" width="341.6" height="24.65" shape-rendering="crispEdges"/><rect fill="#111525" x="939.4" y="50.3" width="24.4" height="24.65" shape-rendering="crispEdges"/><rect fill="#0a0d18" x="963.8" y="50.3" width="12.2" height="24.65" shape-rendering="crispEdges"/><rect fill="#0a0d18" x="0" y="74.7" width="12.2" height="24.65" shape-rendering="crispEdges"/><rect fill="#0a0d18" x="12.2" y="74.7" width="24.4" height="24.65" shape-rendering="crispEdges"/><rect fill="#0a0d18" x="36.6" y="74.7" width="97.6" height="24.65" shape-rendering="crispEdges"/><rect fill="#0a0d18" x="134.2" y="74.7" width="414.8" height="24.65" shape-rendering="crispEdges"/><rect fill="#0a0d18" x="549" y="74.7" width="390.4" height="24.65" shape-rendering="crispEdges"/><rect fill="#111525" x="939.4" y="74.7" width="24.4" height="24.65" shape-rendering="crispEdges"/><rect fill="#0a0d18" x="963.8" y="74.7" width="12.2" height="24.65" shape-rendering="crispEdges"/><rect fill="#0a0d18" x="0" y="99.1" width="12.2" height="24.65" shape-rendering="crispEdges"/><rect fill="#0a0d18" x="12.2" y="99.1" width="24.4" height="24.65" shape-rendering="crispEdges"/><rect fill="#0a0d18" x="36.6" y="99.1" width="73.2" height="24.65" shape-rendering="crispEdges"/><rect fill="#0a0d18" x="109.8" y="99.1" width="683.2" height="24.65" shape-rendering="crispEdges"/><rect fill="#0a0d18" x="793" y="99.1" width="146.4" height="24.65" shape-rendering="crispEdges"/><rect fill="#111525" x="939.4" y="99.1" width="24.4" height="24.65" shape-rendering="crispEdges"/><rect fill="#0a0d18" x="963.8" y="99.1" width="12.2" height="24.65" shape-rendering="crispEdges"/><rect fill="#0a0d18" x="0" y="123.5" width="12.2" height="24.65" shape-rendering="crispEdges"/><rect fill="#0a0d18" x="12.2" y="123.5" width="24.4" height="24.65" shape-rendering="crispEdges"/><rect fill="#0a0d18" x="36.6" y="123.5" width="61" height="24.65" shape-rendering="crispEdges"/><rect fill="#0a0d18" x="97.6" y="123.5" width="36.6" height="24.65" shape-rendering="crispEdges"/><rect fill="#0a0d18" x="134.2" y="123.5" width="36.6" height="24.65" shape-rendering="crispEdges"/><rect fill="#0a0d18" x="170.8" y="123.5" width="341.6" height="24.65" shape-rendering="crispEdges"/><rect fill="#0a0d18" x="512.4" y="123.5" width="427" height="24.65" shape-rendering="crispEdges"/><rect fill="#111525" x="939.4" y="123.5" width="24.4" height="24.65" shape-rendering="crispEdges"/><rect fill="#0a0d18" x="963.8" y="123.5" width="12.2" height="24.65" shape-rendering="crispEdges"/><rect fill="#0a0d18" x="0" y="147.9" width="12.2" height="24.65" shape-rendering="crispEdges"/><rect fill="#0a0d18" x="12.2" y="147.9" width="24.4" height="24.65" shape-rendering="crispEdges"/><rect fill="#0a0d18" x="36.6" y="147.9" width="48.8" height="24.65" shape-rendering="crispEdges"/><rect fill="#0a0d18" x="85.4" y="147.9" width="500.2" height="24.65" shape-rendering="crispEdges"/><rect fill="#0a0d18" x="585.6" y="147.9" width="353.8" height="24.65" shape-rendering="crispEdges"/><rect fill="#111525" x="939.4" y="147.9" width="24.4" height="24.65" shape-rendering="crispEdges"/><rect fill="#0a0d18" x="963.8" y="147.9" width="12.2" height="24.65" shape-rendering="crispEdges"/><rect fill="#0a0d18" x="0" y="172.3" width="12.2" height="24.65" shape-rendering="crispEdges"/><rect fill="#0a0d18" x="12.2" y="172.3" width="24.4" height="24.65" shape-rendering="crispEdges"/><rect fill="#0a0d18" x="36.6" y="172.3" width="48.8" height="24.65" shape-rendering="crispEdges"/><rect fill="#0a0d18" x="85.4" y="172.3" width="36.6" height="24.65" shape-rendering="crispEdges"/><rect fill="#0a0d18" x="122" y="172.3" width="48.8" height="24.65" shape-rendering="crispEdges"/><rect fill="#0a0d18" x="170.8" y="172.3" width="268.4" height="24.65" shape-rendering="crispEdges"/><rect fill="#0a0d18" x="439.2" y="172.3" width="500.2" height="24.65" shape-rendering="crispEdges"/><rect fill="#111525" x="939.4" y="172.3" width="24.4" height="24.65" shape-rendering="crispEdges"/><rect fill="#0a0d18" x="963.8" y="172.3" width="12.2" height="24.65" shape-rendering="crispEdges"/><rect fill="#0a0d18" x="0" y="196.7" width="12.2" height="24.65" shape-rendering="crispEdges"/><rect fill="#0a0d18" x="12.2" y="196.7" width="927.2" height="24.65" shape-rendering="crispEdges"/><rect fill="#111525" x="939.4" y="196.7" width="24.4" height="24.65" shape-rendering="crispEdges"/><rect fill="#0a0d18" x="963.8" y="196.7" width="12.2" height="24.65" shape-rendering="crispEdges"/><rect fill="#0a0d18" x="0" y="221.1" width="12.2" height="24.65" shape-rendering="crispEdges"/><rect fill="#0a0d18" x="12.2" y="221.1" width="927.2" height="24.65" shape-rendering="crispEdges"/><rect fill="#111525" x="939.4" y="221.1" width="24.4" height="24.65" shape-rendering="crispEdges"/><rect fill="#0a0d18" x="963.8" y="221.1" width="12.2" height="24.65" shape-rendering="crispEdges"/><rect fill="#0a0d18" x="0" y="245.5" width="12.2" height="24.65" shape-rendering="crispEdges"/><rect fill="#0a0d18" x="12.2" y="245.5" width="280.6" height="24.65" shape-rendering="crispEdges"/><rect fill="#0a0d18" x="292.8" y="245.5" width="646.6" height="24.65" shape-rendering="crispEdges"/><rect fill="#111525" x="939.4" y="245.5" width="24.4" height="24.65" shape-rendering="crispEdges"/><rect fill="#0a0d18" x="963.8" y="245.5" width="12.2" height="24.65" shape-rendering="crispEdges"/><rect fill="#0a0d18" x="0" y="269.9" width="12.2" height="24.65" shape-rendering="crispEdges"/><rect fill="#0a0d18" x="12.2" y="269.9" width="24.4" height="24.65" shape-rendering="crispEdges"/><rect fill="#0a0d18" x="36.6" y="269.9" width="134.2" height="24.65" shape-rendering="crispEdges"/><rect fill="#0a0d18" x="170.8" y="269.9" width="634.4" height="24.65" shape-rendering="crispEdges"/><rect fill="#0a0d18" x="805.2" y="269.9" width="134.2" height="24.65" shape-rendering="crispEdges"/><rect fill="#111525" x="939.4" y="269.9" width="24.4" height="24.65" shape-rendering="crispEdges"/><rect fill="#0a0d18" x="963.8" y="269.9" width="12.2" height="24.65" shape-rendering="crispEdges"/><rect fill="#0a0d18" x="0" y="294.3" width="12.2" height="24.65" shape-rendering="crispEdges"/><rect fill="#0a0d18" x="12.2" y="294.3" width="24.4" height="24.65" shape-rendering="crispEdges"/><rect fill="#0a0d18" x="36.6" y="294.3" width="146.4" height="24.65" shape-rendering="crispEdges"/><rect fill="#0a0d18" x="183" y="294.3" width="597.8" height="24.65" shape-rendering="crispEdges"/><rect fill="#0a0d18" x="780.8" y="294.3" width="158.6" height="24.65" shape-rendering="crispEdges"/><rect fill="#111525" x="939.4" y="294.3" width="24.4" height="24.65" shape-rendering="crispEdges"/><rect fill="#0a0d18" x="963.8" y="294.3" width="12.2" height="24.65" shape-rendering="crispEdges"/><rect fill="#0a0d18" x="0" y="318.7" width="12.2" height="24.65" shape-rendering="crispEdges"/><rect fill="#0a0d18" x="12.2" y="318.7" width="24.4" height="24.65" shape-rendering="crispEdges"/><rect fill="#0a0d18" x="36.6" y="318.7" width="146.4" height="24.65" shape-rendering="crispEdges"/><rect fill="#0a0d18" x="183" y="318.7" width="756.4" height="24.65" shape-rendering="crispEdges"/><rect fill="#111525" x="939.4" y="318.7" width="24.4" height="24.65" shape-rendering="crispEdges"/><rect fill="#0a0d18" x="963.8" y="318.7" width="12.2" height="24.65" shape-rendering="crispEdges"/><rect fill="#0a0d18" x="0" y="343.1" width="12.2" height="24.65" shape-rendering="crispEdges"/><rect fill="#0a0d18" x="12.2" y="343.1" width="24.4" height="24.65" shape-rendering="crispEdges"/><rect fill="#0a0d18" x="36.6" y="343.1" width="158.6" height="24.65" shape-rendering="crispEdges"/><rect fill="#0a0d18" x="195.2" y="343.1" width="707.6" height="24.65" shape-rendering="crispEdges"/><rect fill="#0a0d18" x="902.8" y="343.1" width="36.6" height="24.65" shape-rendering="crispEdges"/><rect fill="#111525" x="939.4" y="343.1" width="24.4" height="24.65" shape-rendering="crispEdges"/><rect fill="#0a0d18" x="963.8" y="343.1" width="12.2" height="24.65" shape-rendering="crispEdges"/><rect fill="#0a0d18" x="0" y="367.5" width="12.2" height="24.65" shape-rendering="crispEdges"/><rect fill="#0a0d18" x="12.2" y="367.5" width="73.2" height="24.65" shape-rendering="crispEdges"/><rect fill="#0a0d18" x="85.4" y="367.5" width="854" height="24.65" shape-rendering="crispEdges"/><rect fill="#111525" x="939.4" y="367.5" width="24.4" height="24.65" shape-rendering="crispEdges"/><rect fill="#0a0d18" x="963.8" y="367.5" width="12.2" height="24.65" shape-rendering="crispEdges"/><rect fill="#0a0d18" x="0" y="391.9" width="12.2" height="24.65" shape-rendering="crispEdges"/><rect fill="#0a0d18" x="12.2" y="391.9" width="24.4" height="24.65" shape-rendering="crispEdges"/><rect fill="#0a0d18" x="36.6" y="391.9" width="146.4" height="24.65" shape-rendering="crispEdges"/><rect fill="#0a0d18" x="183" y="391.9" width="695.4" height="24.65" shape-rendering="crispEdges"/><rect fill="#0a0d18" x="878.4" y="391.9" width="61" height="24.65" shape-rendering="crispEdges"/><rect fill="#111525" x="939.4" y="391.9" width="24.4" height="24.65" shape-rendering="crispEdges"/><rect fill="#0a0d18" x="963.8" y="391.9" width="12.2" height="24.65" shape-rendering="crispEdges"/><rect fill="#0a0d18" x="0" y="416.3" width="12.2" height="24.65" shape-rendering="crispEdges"/><rect fill="#0a0d18" x="12.2" y="416.3" width="927.2" height="24.65" shape-rendering="crispEdges"/><rect fill="#2a3050" x="939.4" y="416.3" width="24.4" height="24.65" shape-rendering="crispEdges"/><rect fill="#0a0d18" x="963.8" y="416.3" width="12.2" height="24.65" shape-rendering="crispEdges"/><rect fill="#0a0d18" x="0" y="440.7" width="12.2" height="24.65" shape-rendering="crispEdges"/><rect fill="#2a3050" x="12.2" y="440.7" width="12.2" height="24.65" shape-rendering="crispEdges"/><rect fill="#2a3050" x="24.4" y="440.7" width="12.2" height="24.65" shape-rendering="crispEdges"/><rect fill="#2a3050" x="36.6" y="440.7" width="12.2" height="24.65" shape-rendering="crispEdges"/><rect fill="#2a3050" x="48.8" y="440.7" width="12.2" height="24.65" shape-rendering="crispEdges"/><rect fill="#2a3050" x="61" y="440.7" width="12.2" height="24.65" shape-rendering="crispEdges"/><rect fill="#2a3050" x="73.2" y="440.7" width="12.2" height="24.65" shape-rendering="crispEdges"/><rect fill="#2a3050" x="85.4" y="440.7" width="12.2" height="24.65" shape-rendering="crispEdges"/><rect fill="#2a3050" x="97.6" y="440.7" width="12.2" height="24.65" shape-rendering="crispEdges"/><rect fill="#2a3050" x="109.8" y="440.7" width="12.2" height="24.65" shape-rendering="crispEdges"/><rect fill="#2a3050" x="122" y="440.7" width="12.2" height="24.65" shape-rendering="crispEdges"/><rect fill="#2a3050" x="134.2" y="440.7" width="12.2" height="24.65" shape-rendering="crispEdges"/><rect fill="#2a3050" x="146.4" y="440.7" width="12.2" height="24.65" shape-rendering="crispEdges"/><rect fill="#2a3050" x="158.6" y="440.7" width="12.2" height="24.65" shape-rendering="crispEdges"/><rect fill="#2a3050" x="170.8" y="440.7" width="12.2" height="24.65" shape-rendering="crispEdges"/><rect fill="#2a3050" x="183" y="440.7" width="12.2" height="24.65" shape-rendering="crispEdges"/><rect fill="#2a3050" x="195.2" y="440.7" width="12.2" height="24.65" shape-rendering="crispEdges"/><rect fill="#2a3050" x="207.4" y="440.7" width="12.2" height="24.65" shape-rendering="crispEdges"/><rect fill="#2a3050" x="219.6" y="440.7" width="12.2" height="24.65" shape-rendering="crispEdges"/><rect fill="#2a3050" x="231.8" y="440.7" width="12.2" height="24.65" shape-rendering="crispEdges"/><rect fill="#2a3050" x="244" y="440.7" width="12.2" height="24.65" shape-rendering="crispEdges"/><rect fill="#2a3050" x="256.2" y="440.7" width="12.2" height="24.65" shape-rendering="crispEdges"/><rect fill="#2a3050" x="268.4" y="440.7" width="12.2" height="24.65" shape-rendering="crispEdges"/><rect fill="#2a3050" x="280.6" y="440.7" width="12.2" height="24.65" shape-rendering="crispEdges"/><rect fill="#2a3050" x="292.8" y="440.7" width="12.2" height="24.65" shape-rendering="crispEdges"/><rect fill="#2a3050" x="305" y="440.7" width="12.2" height="24.65" shape-rendering="crispEdges"/><rect fill="#2a3050" x="317.2" y="440.7" width="12.2" height="24.65" shape-rendering="crispEdges"/><rect fill="#2a3050" x="329.4" y="440.7" width="12.2" height="24.65" shape-rendering="crispEdges"/><rect fill="#2a3050" x="341.6" y="440.7" width="12.2" height="24.65" shape-rendering="crispEdges"/><rect fill="#2a3050" x="353.8" y="440.7" width="12.2" height="24.65" shape-rendering="crispEdges"/><rect fill="#2a3050" x="366" y="440.7" width="12.2" height="24.65" shape-rendering="crispEdges"/><rect fill="#2a3050" x="378.2" y="440.7" width="12.2" height="24.65" shape-rendering="crispEdges"/><rect fill="#2a3050" x="390.4" y="440.7" width="12.2" height="24.65" shape-rendering="crispEdges"/><rect fill="#2a3050" x="402.6" y="440.7" width="12.2" height="24.65" shape-rendering="crispEdges"/><rect fill="#2a3050" x="414.8" y="440.7" width="12.2" height="24.65" shape-rendering="crispEdges"/><rect fill="#2a3050" x="427" y="440.7" width="12.2" height="24.65" shape-rendering="crispEdges"/><rect fill="#2a3050" x="439.2" y="440.7" width="12.2" height="24.65" shape-rendering="crispEdges"/><rect fill="#2a3050" x="451.4" y="440.7" width="12.2" height="24.65" shape-rendering="crispEdges"/><rect fill="#2a3050" x="463.6" y="440.7" width="12.2" height="24.65" shape-rendering="crispEdges"/><rect fill="#2a3050" x="475.8" y="440.7" width="12.2" height="24.65" shape-rendering="crispEdges"/><rect fill="#2a3050" x="488" y="440.7" width="12.2" height="24.65" shape-rendering="crispEdges"/><rect fill="#2a3050" x="500.2" y="440.7" width="12.2" height="24.65" shape-rendering="crispEdges"/><rect fill="#2a3050" x="512.4" y="440.7" width="12.2" height="24.65" shape-rendering="crispEdges"/><rect fill="#2a3050" x="524.6" y="440.7" width="12.2" height="24.65" shape-rendering="crispEdges"/><rect fill="#2a3050" x="536.8" y="440.7" width="12.2" height="24.65" shape-rendering="crispEdges"/><rect fill="#2a3050" x="549" y="440.7" width="12.2" height="24.65" shape-rendering="crispEdges"/><rect fill="#2a3050" x="561.2" y="440.7" width="12.2" height="24.65" shape-rendering="crispEdges"/><rect fill="#2a3050" x="573.4" y="440.7" width="12.2" height="24.65" shape-rendering="crispEdges"/><rect fill="#2a3050" x="585.6" y="440.7" width="12.2" height="24.65" shape-rendering="crispEdges"/><rect fill="#2a3050" x="597.8" y="440.7" width="12.2" height="24.65" shape-rendering="crispEdges"/><rect fill="#2a3050" x="610" y="440.7" width="12.2" height="24.65" shape-rendering="crispEdges"/><rect fill="#2a3050" x="622.2" y="440.7" width="12.2" height="24.65" shape-rendering="crispEdges"/><rect fill="#2a3050" x="634.4" y="440.7" width="12.2" height="24.65" shape-rendering="crispEdges"/><rect fill="#2a3050" x="646.6" y="440.7" width="12.2" height="24.65" shape-rendering="crispEdges"/><rect fill="#2a3050" x="658.8" y="440.7" width="12.2" height="24.65" shape-rendering="crispEdges"/><rect fill="#2a3050" x="671" y="440.7" width="12.2" height="24.65" shape-rendering="crispEdges"/><rect fill="#2a3050" x="683.2" y="440.7" width="12.2" height="24.65" shape-rendering="crispEdges"/><rect fill="#2a3050" x="695.4" y="440.7" width="12.2" height="24.65" shape-rendering="crispEdges"/><rect fill="#2a3050" x="707.6" y="440.7" width="12.2" height="24.65" shape-rendering="crispEdges"/><rect fill="#2a3050" x="719.8" y="440.7" width="12.2" height="24.65" shape-rendering="crispEdges"/><rect fill="#2a3050" x="732" y="440.7" width="12.2" height="24.65" shape-rendering="crispEdges"/><rect fill="#2a3050" x="744.2" y="440.7" width="12.2" height="24.65" shape-rendering="crispEdges"/><rect fill="#2a3050" x="756.4" y="440.7" width="12.2" height="24.65" shape-rendering="crispEdges"/><rect fill="#2a3050" x="768.6" y="440.7" width="12.2" height="24.65" shape-rendering="crispEdges"/><rect fill="#2a3050" x="780.8" y="440.7" width="12.2" height="24.65" shape-rendering="crispEdges"/><rect fill="#2a3050" x="793" y="440.7" width="12.2" height="24.65" shape-rendering="crispEdges"/><rect fill="#2a3050" x="805.2" y="440.7" width="12.2" height="24.65" shape-rendering="crispEdges"/><rect fill="#2a3050" x="817.4" y="440.7" width="12.2" height="24.65" shape-rendering="crispEdges"/><rect fill="#2a3050" x="829.6" y="440.7" width="12.2" height="24.65" shape-rendering="crispEdges"/><rect fill="#2a3050" x="841.8" y="440.7" width="12.2" height="24.65" shape-rendering="crispEdges"/><rect fill="#2a3050" x="854" y="440.7" width="12.2" height="24.65" shape-rendering="crispEdges"/><rect fill="#2a3050" x="866.2" y="440.7" width="12.2" height="24.65" shape-rendering="crispEdges"/><rect fill="#2a3050" x="878.4" y="440.7" width="12.2" height="24.65" shape-rendering="crispEdges"/><rect fill="#2a3050" x="890.6" y="440.7" width="12.2" height="24.65" shape-rendering="crispEdges"/><rect fill="#2a3050" x="902.8" y="440.7" width="12.2" height="24.65" shape-rendering="crispEdges"/><rect fill="#111525" x="915" y="440.7" width="12.2" height="24.65" shape-rendering="crispEdges"/><rect fill="#111525" x="927.2" y="440.7" width="12.2" height="24.65" shape-rendering="crispEdges"/><rect fill="#000000" x="939.4" y="440.7" width="24.4" height="24.65" shape-rendering="crispEdges"/><rect fill="#0a0d18" x="963.8" y="440.7" width="12.2" height="24.65" shape-rendering="crispEdges"/><rect fill="#111525" x="0" y="465.1" width="24.4" height="24.65" shape-rendering="crispEdges"/><rect fill="#111525" x="24.4" y="465.1" width="48.8" height="24.65" shape-rendering="crispEdges"/><rect fill="#111525" x="73.2" y="465.1" width="12.2" height="24.65" shape-rendering="crispEdges"/><rect fill="#111525" x="85.4" y="465.1" width="61" height="24.65" shape-rendering="crispEdges"/><rect fill="#111525" x="146.4" y="465.1" width="12.2" height="24.65" shape-rendering="crispEdges"/><rect fill="#111525" x="158.6" y="465.1" width="48.8" height="24.65" shape-rendering="crispEdges"/><rect fill="#111525" x="207.4" y="465.1" width="24.4" height="24.65" shape-rendering="crispEdges"/><rect fill="#111525" x="231.8" y="465.1" width="61" height="24.65" shape-rendering="crispEdges"/><rect fill="#111525" x="292.8" y="465.1" width="12.2" height="24.65" shape-rendering="crispEdges"/><rect fill="#111525" x="305" y="465.1" width="61" height="24.65" shape-rendering="crispEdges"/><rect fill="#111525" x="366" y="465.1" width="12.2" height="24.65" shape-rendering="crispEdges"/><rect fill="#111525" x="378.2" y="465.1" width="48.8" height="24.65" shape-rendering="crispEdges"/><rect fill="#111525" x="427" y="465.1" width="24.4" height="24.65" shape-rendering="crispEdges"/><rect fill="#111525" x="451.4" y="465.1" width="48.8" height="24.65" shape-rendering="crispEdges"/><rect fill="#111525" x="500.2" y="465.1" width="12.2" height="24.65" shape-rendering="crispEdges"/><rect fill="#111525" x="512.4" y="465.1" width="61" height="24.65" shape-rendering="crispEdges"/><rect fill="#111525" x="573.4" y="465.1" width="12.2" height="24.65" shape-rendering="crispEdges"/><rect fill="#111525" x="585.6" y="465.1" width="48.8" height="24.65" shape-rendering="crispEdges"/><rect fill="#111525" x="634.4" y="465.1" width="24.4" height="24.65" shape-rendering="crispEdges"/><rect fill="#111525" x="658.8" y="465.1" width="48.8" height="24.65" shape-rendering="crispEdges"/><rect fill="#111525" x="707.6" y="465.1" width="12.2" height="24.65" shape-rendering="crispEdges"/><rect fill="#111525" x="719.8" y="465.1" width="73.2" height="24.65" shape-rendering="crispEdges"/><rect fill="#111525" x="793" y="465.1" width="12.2" height="24.65" shape-rendering="crispEdges"/><rect fill="#111525" x="805.2" y="465.1" width="48.8" height="24.65" shape-rendering="crispEdges"/><rect fill="#111525" x="854" y="465.1" width="97.6" height="24.65" shape-rendering="crispEdges"/><rect fill="#111525" x="951.6" y="465.1" width="24.4" height="24.65" shape-rendering="crispEdges"/><rect fill="#111525" x="0" y="489.5" width="24.4" height="24.65" shape-rendering="crispEdges"/><rect fill="#111525" x="24.4" y="489.5" width="97.6" height="24.65" shape-rendering="crispEdges"/><rect fill="#111525" x="122" y="489.5" width="24.4" height="24.65" shape-rendering="crispEdges"/><rect fill="#111525" x="146.4" y="489.5" width="97.6" height="24.65" shape-rendering="crispEdges"/><rect fill="#111525" x="244" y="489.5" width="24.4" height="24.65" shape-rendering="crispEdges"/><rect fill="#111525" x="268.4" y="489.5" width="48.8" height="24.65" shape-rendering="crispEdges"/><rect fill="#111525" x="317.2" y="489.5" width="634.4" height="24.65" shape-rendering="crispEdges"/><rect fill="#111525" x="951.6" y="489.5" width="24.4" height="24.65" shape-rendering="crispEdges"/><rect fill="#0e1122" x="0" y="513.9" width="12.2" height="24.65" shape-rendering="crispEdges"/><rect fill="#0e1122" x="12.2" y="513.9" width="158.6" height="24.65" shape-rendering="crispEdges"/><rect fill="#0e1122" x="170.8" y="513.9" width="12.2" height="24.65" shape-rendering="crispEdges"/><rect fill="#181b2b" x="183" y="513.9" width="24.4" height="24.65" shape-rendering="crispEdges"/><rect fill="#181b2b" x="207.4" y="513.9" width="195.2" height="24.65" shape-rendering="crispEdges"/><rect fill="#181b2b" x="402.6" y="513.9" width="536.8" height="24.65" shape-rendering="crispEdges"/><rect fill="#181b2b" x="939.4" y="513.9" width="24.4" height="24.65" shape-rendering="crispEdges"/><rect fill="#0e1122" x="963.8" y="513.9" width="12.2" height="24.65" shape-rendering="crispEdges"/><rect fill="#0e1122" x="0" y="538.3" width="12.2" height="24.65" shape-rendering="crispEdges"/><rect fill="#0e1122" x="12.2" y="538.3" width="170.8" height="24.65" shape-rendering="crispEdges"/><rect fill="#181b2b" x="183" y="538.3" width="24.4" height="24.65" shape-rendering="crispEdges"/><rect fill="#181b2b" x="207.4" y="538.3" width="732" height="24.65" shape-rendering="crispEdges"/><rect fill="#181b2b" x="939.4" y="538.3" width="24.4" height="24.65" shape-rendering="crispEdges"/><rect fill="#0e1122" x="963.8" y="538.3" width="12.2" height="24.65" shape-rendering="crispEdges"/><rect fill="#0e1122" x="0" y="562.7" width="12.2" height="24.65" shape-rendering="crispEdges"/><rect fill="#0e1122" x="12.2" y="562.7" width="170.8" height="24.65" shape-rendering="crispEdges"/><rect fill="#181b2b" x="183" y="562.7" width="24.4" height="24.65" shape-rendering="crispEdges"/><rect fill="#181b2b" x="207.4" y="562.7" width="732" height="24.65" shape-rendering="crispEdges"/><rect fill="#181b2b" x="939.4" y="562.7" width="24.4" height="24.65" shape-rendering="crispEdges"/><rect fill="#0e1122" x="963.8" y="562.7" width="12.2" height="24.65" shape-rendering="crispEdges"/>
    <g class="terminal-4288775252-matrix">
    <text class="terminal-4288775252-r2" x="24.4" y="20" textLength="268.4" clip-path="url(#terminal-4288775252-line-0)">Moon&#160;Traveler&#160;Terminal</text><text class="terminal-4288775252-r1" x="976" y="20" textLength="12.2" clip-path="url(#terminal-4288775252-line-0)">
</text><text class="terminal-4288775252-r4" x="36.6" y="44.4" textLength="61" clip-path="url(#terminal-4288775252-line-1)">sound</text><text class="terminal-4288775252-r3" x="97.6" y="44.4" textLength="463.6" clip-path="url(#terminal-4288775252-line-1)">&#160;&#160;&#160;&#160;&#160;&#160;&#160;&#160;&#160;&#160;&#160;&#160;&#160;&#160;&#160;&#160;—&#160;Toggle&#160;sound&#160;effects</text><text class="terminal-4288775252-r1" x="976" y="44.4" textLength="12.2" clip-path="url(#terminal-4288775252-line-1)">
</text><text class="terminal-4288775252-r4" x="36.6" y="68.8" textLength="122" clip-path="url(#terminal-4288775252-line-2)">screenshot</text><text class="terminal-4288775252-r3" x="158.6" y="68.8" textLength="439.2" clip-path="url(#terminal-4288775252-line-2)">&#160;&#160;&#160;&#160;&#160;&#160;&#160;&#160;&#160;&#160;&#160;—&#160;Save&#160;a&#160;screenshot&#160;(F12)</text><text class="terminal-4288775252-r1" x="976" y="68.8" textLength="12.2" clip-path="url(#terminal-4288775252-line-2)">
</text><text class="terminal-4288775252-r4" x="36.6" y="93.2" textLength="97.6" clip-path="url(#terminal-4288775252-line-3)">tutorial</text><text class="terminal-4288775252-r3" x="134.2" y="93.2" textLength="414.8" clip-path="url(#terminal-4288775252-line-3)">&#160;&#160;&#160;&#160;&#160;&#160;&#160;&#160;&#160;&#160;&#160;&#160;&#160;—&#160;Replay&#160;the&#160;tutorial</text><text class="terminal-4288775252-r1" x="976" y="93.2" textLength="12.2" clip-path="url(#terminal-4288775252-line-3)">
</text><text class="terminal-4288775252-r4" x="36.6" y="117.6" textLength="73.2" clip-path="url(#terminal-4288775252-line-4)">config</text><text class="terminal-4288775252-r3" x="109.8" y="117.6" textLength="683.2" clip-path="url(#terminal-4288775252-line-4)">&#160;&#160;&#160;&#160;&#160;&#160;&#160;&#160;&#160;&#160;&#160;&#160;&#160;&#160;&#160;—&#160;Game&#160;settings&#160;(save&#160;path,&#160;GPU,&#160;context)</text><text class="terminal-4288775252-r1" x="976" y="117.6" textLength="12.2" clip-path="url(#terminal-4288775252-line-4)">
</text><text class="terminal-4288775252-r4" x="36.6" y="142" textLength="61" clip-path="url(#terminal-4288775252-line-5)">clear</text><text class="terminal-4288775252-r3" x="97.6" y="142" textLength="36.6" clip-path="url(#terminal-4288775252-line-5)">&#160;/&#160;</text><text class="terminal-4288775252-r4" x="134.2" y="142" textLength="36.6" clip-path="url(#terminal-4288775252-line-5)">cls</text><text class="terminal-4288775252-r3" x="170.8" y="142" textLength="341.6" clip-path="url(#terminal-4288775252-line-5)">&#160;&#160;&#160;&#160;&#160;&#160;&#160;&#160;&#160;&#160;—&#160;Clear&#160;the&#160;screen</text><text class="terminal-4288775252-r1" x="976" y="142" textLength="12.2" clip-path="url(#terminal-4288775252-line-5)">
</text><text class="terminal-4288775252-r4" x="36.6" y="166.4" textLength="48.8" clip-path="url(#terminal-4288775252-line-6)">help</text><text class="terminal-4288775252-r3" x="85.4" y="166.4" textLength="500.2" clip-path="url(#terminal-4288775252-line-6)">&#160;&#160;&#160;&#160;&#160;&#160;&#160;&#160;&#160;&#160;&#160;&#160;&#160;&#160;&#160;&#160;&#160;—&#160;Show&#160;this&#160;help&#160;message</text><text class="terminal-4288775252-r1" x="976" y="166.4" textLength="12.2" clip-path="url(#terminal-4288775252-line-6)">
</text><text class="terminal-4288775252-r4" x="36.6" y="190.8" textLength="48.8" clip-path="url(#terminal-4288775252-line-7)">quit</text><text class="terminal-4288775252-r3" x="85.4" y="190.8" textLength="36.6" clip-path="url(#terminal-4288775252-line-7)">&#160;/&#160;</text><text class="terminal-4288775252-r4" x="122" y="190.8" textLength="48.8" clip-path="url(#terminal-4288775252-line-7)">exit</text><text class="terminal-4288775252-r3" x="170.8" y="190.8" textLength="268.4" clip-path="url(#terminal-4288775252-line-7)">&#160;&#160;&#160;&#160;&#160;&#160;&#160;&#160;&#160;&#160;&#160;—&#160;Exit&#160;game</text><text class="terminal-4288775252-r1" x="976" y="190.8" textLength="12.2" clip-path="url(#terminal-4288775252-line-7)">
</text><text class="terminal-4288775252-r1" x="976" y="215.2" textLength="12.2" clip-path="url(#terminal-4288775252-line-8)">
</text><text class="terminal-4288775252-r1" x="976" y="239.6" textLength="12.2" clip-path="url(#terminal-4288775252-line-9)">
</text><text class="terminal-4288775252-r5" x="12.2" y="264" textLength="280.6" clip-path="url(#terminal-4288775252-line-10)">Ship&#160;Bays&#160;(Crash&#160;Site):</text><text class="terminal-4288775252-r1" x="976" y="264" textLength="12.2" clip-path="url(#terminal-4288775252-line-10)">
</text><text class="terminal-4288775252-r4" x="36.6" y="288.4" textLength="134.2" clip-path="url(#terminal-4288775252-line-11)">ship&#160;repair</text><text class="terminal-4288775252-r3" x="170.8" y="288.4" textLength="634.4" clip-path="url(#terminal-4288775252-line-11)">&#160;&#160;&#160;&#160;&#160;&#160;&#160;&#160;&#160;&#160;—&#160;Install&#160;repair&#160;materials&#160;to&#160;fix&#160;the&#160;ship</text><text class="terminal-4288775252-r1" x="976" y="288.4" textLength="12.2" clip-path="url(#terminal-4288775252-line-11)">
</text><text class="terminal-4288775252-r4" x="36.6" y="312.8" textLength="146.4" clip-path="url(#terminal-4288775252-line-12)">ship&#160;storage</text><text class="terminal-4288775252-r3" x="183" y="312.8" textLength="597.8" clip-path="url(#terminal-4288775252-line-12)">&#160;&#160;&#160;&#160;&#160;&#160;&#160;&#160;&#160;—&#160;Stash/retrieve&#160;items&#160;from&#160;ship&#160;storage</text><text class="terminal-4288775252-r1" x="976" y="312.8" textLength="12.2" clip-path="url(#terminal-4288775252-line-12)">
</text><text class="terminal-4288775252-r4" x="36.6" y="337.2" textLength="146.4" clip-path="url(#terminal-4288775252-line-13)">ship&#160;kitchen</text><text class="terminal-4288775252-r3" x="183" y="337.2" textLength="756.4" clip-path="url(#terminal-4288775252-line-13)">&#160;&#160;&#160;&#160;&#160;&#160;&#160;&#160;&#160;—&#160;Cook&#160;bio_gel&#160;(+40%&#160;food)&#160;or&#160;ice_crystal&#160;(+40%&#160;water</text><text class="terminal-4288775252-r1" x="976" y="337.2" textLength="12.2" clip-path="url(#terminal-4288775252-line-13)">
</text><text class="terminal-4288775252-r4" x="36.6" y="361.6" textLength="158.6" clip-path="url(#terminal-4288775252-line-14)">ship&#160;charging</text><text class="terminal-4288775252-r3" x="195.2" y="361.6" textLength="707.6" clip-path="url(#terminal-4288775252-line-14)">&#160;&#160;&#160;&#160;&#160;&#160;&#160;&#160;—&#160;Recharge&#160;drone&#160;battery,&#160;overcharge,&#160;auto-charge&#160;</text><text class="terminal-4288775252-r1" x="976" y="361.6" textLength="12.2" clip-path="url(#terminal-4288775252-line-14)">
</text><text class="terminal-4288775252-r3" x="12.2" y="386" textLength="73.2" clip-path="url(#terminal-4288775252-line-15)">toggle</text><text class="terminal-4288775252-r1" x="976" y="386" textLength="12.2" clip-path="url(#terminal-4288775252-line-15)">
</text><text class="terminal-4288775252-r4" x="36.6" y="410.4" textLength="146.4" clip-path="url(#terminal-4288775252-line-16)">ship&#160;medical</text><text class="terminal-4288775252-r3" x="183" y="410.4" textLength="695.4" clip-path="url(#terminal-4288775252-line-16)">&#160;&#160;&#160;&#160;&#160;&#160;&#160;&#160;&#160;—&#160;Repair&#160;suit&#160;(costs&#160;battery)&#160;or&#160;rest&#160;to&#160;recover</text><text class="terminal-4288775252-r6" x="939.4" y="410.4" textLength="24.4" clip-path="url(#terminal-4288775252-line-16)">▄▄</text><text class="terminal-4288775252-r1" x="976" y="410.4" textLength="12.2" clip-path="url(#terminal-4288775252-line-16)">
</text><text class="terminal-4288775252-r1" x="976" y="434.8" textLength="12.2" clip-path="url(#terminal-4288775252-line-17)">
</text><text class="terminal-4288775252-r6" x="915" y="459.2" textLength="12.2" clip-path="url(#terminal-4288775252-line-18)">▏</text><text class="terminal-4288775252-r1" x="976" y="459.2" textLength="12.2" clip-path="url(#terminal-4288775252-line-18)">
</text><text class="terminal-4288775252-r8" x="24.4" y="483.6" textLength="48.8" clip-path="url(#terminal-4288775252-line-19)">Food</text><text class="terminal-4288775252-r8" x="85.4" y="483.6" textLength="61" clip-path="url(#terminal-4288775252-line-19)">█████</text><text class="terminal-4288775252-r10" x="158.6" y="483.6" textLength="48.8" clip-path="url(#terminal-4288775252-line-19)">100%</text><text class="terminal-4288775252-r11" x="231.8" y="483.6" textLength="61" clip-path="url(#terminal-4288775252-line-19)">Water</text><text class="terminal-4288775252-r8" x="305" y="483.6" textLength="61" clip-path="url(#terminal-4288775252-line-19)">█████</text><text class="terminal-4288775252-r10" x="378.2" y="483.6" textLength="48.8" clip-path="url(#terminal-4288775252-line-19)">100%</text><text class="terminal-4288775252-r12" x="451.4" y="483.6" textLength="48.8" clip-path="url(#terminal-4288775252-line-19)">Suit</text><text class="terminal-4288775252-r8" x="512.4" y="483.6" textLength="61" clip-path="url(#terminal-4288775252-line-19)">█████</text><text class="terminal-4288775252-r10" x="585.6" y="483.6" textLength="48.8" clip-path="url(#terminal-4288775252-line-19)">100%</text><text class="terminal-4288775252-r13" x="658.8" y="483.6" textLength="48.8" clip-path="url(#terminal-4288775252-line-19)">Batt</text><text class="terminal-4288775252-r8" x="719.8" y="483.6" textLength="73.2" clip-path="url(#terminal-4288775252-line-19)">██████</text><text class="terminal-4288775252-r10" x="805.2" y="483.6" textLength="48.8" clip-path="url(#terminal-4288775252-line-19)">115%</text><text class="terminal-4288775252-r1" x="976" y="483.6" textLength="12.2" clip-path="url(#terminal-4288775252-line-19)">
</text><text class="terminal-4288775252-r14" x="24.4" y="508" textLength="97.6" clip-path="url(#terminal-4288775252-line-20)">Ship&#160;0/3</text><text class="terminal-4288775252-r10" x="146.4" y="508" textLength="97.6" clip-path="url(#terminal-4288775252-line-20)">Inv&#160;3/15</text><text class="terminal-4288775252-r10" x="268.4" y="508" textLength="48.8" clip-path="url(#terminal-4288775252-line-20)">⏱&#160;0h</text><text class="terminal-4288775252-r1" x="976" y="508" textLength="12.2" clip-path="url(#terminal-4288775252-line-20)">
</text><text class="terminal-4288775252-r15" x="12.2" y="532.4" textLength="158.6" clip-path="url(#terminal-4288775252-line-21)">Crash&#160;Site&#160;&gt;&#160;</text><text class="terminal-4288775252-r16" x="207.4" y="532.4" textLength="195.2" clip-path="url(#terminal-4288775252-line-21)">Enter&#160;command...</text><text class="terminal-4288775252-r1" x="976" y="532.4" textLength="12.2" clip-path="url(#terminal-4288775252-line-21)">
</text><text class="terminal-4288775252-r1" x="976" y="556.8" textLength="12.2" clip-path="url(#terminal-4288775252-line-22)">
</text>
    </g>
    </g>
</svg>
