<svg class="rich-terminal" viewBox="0 0 1678 1001.5999999999999" xmlns="http://www.w3.org/2000/svg">
    <!-- Generated with Rich https://www.textualize.io -->
    <style>

    @font-face {
        font-family: "Fira Code";
        src: local("FiraCode-Regular"),
                url("https://cdnjs.cloudflare.com/ajax/libs/firacode/6.2.0/woff2/FiraCode-Regular.woff2") format("woff2"),
                url("https://cdnjs.cloudflare.com/ajax/libs/firacode/6.2.0/woff/FiraCode-Regular.woff") format("woff");
        font-style: normal;
        font-weight: 400;
    }
    @font-face {
        font-family: "Fira Code";
        src: local("FiraCode-Bold"),
                url("https://cdnjs.cloudflare.com/ajax/libs/firacode/6.2.0/woff2/FiraCode-Bold.woff2") format("woff2"),
                url("https://cdnjs.cloudflare.com/ajax/libs/firacode/6.2.0/woff/FiraCode-Bold.woff") format("woff");
        font-style: bold;
        font-weight: 700;
    }

    .terminal-253614563-matrix {
        font-family: Fira Code, monospace;
        font-size: 20px;
        line-height: 24.4px;
        font-variant-east-asian: full-width;
    }

    .terminal-253614563-title {
        font-size: 18px;
        font-weight: bold;
        font-family: arial;
    }

    .terminal-253614563-r1 { fill: #c5c8c6 }
.terminal-253614563-r2 { fill: #c89450;font-weight: bold }
.terminal-253614563-r3 { fill: #e0e0e0 }
.terminal-253614563-r4 { fill: #97989c }
.terminal-253614563-r5 { fill: #58d1eb }
.terminal-253614563-r6 { fill: #98e024 }
.terminal-253614563-r7 { fill: #e0e0e0;font-style: italic; }
.terminal-253614563-r8 { fill: #f6f6ef;font-weight: bold }
.terminal-253614563-r9 { fill: #c4c5b5 }
.terminal-253614563-r10 { fill: #58d1eb;font-weight: bold }
.terminal-253614563-r11 { fill: #e0e0e0;font-weight: bold }
.terminal-253614563-r12 { fill: #008000 }
.terminal-253614563-r13 { fill: #8890b0 }
.terminal-253614563-r14 { fill: #5f6680 }
.terminal-253614563-r15 { fill: #00ffff }
.terminal-253614563-r16 { fill: #c89450 }
.terminal-253614563-r17 { fill: #a080d0 }
.terminal-253614563-r18 { fill: #ff0000 }
.terminal-253614563-r19 { fill: #8890b0;font-weight: bold }
.terminal-253614563-r20 { fill: #5ca8c8;font-weight: bold }
.terminal-253614563-r21 { fill: #121212 }
.terminal-253614563-r22 { fill: #6f717b }
.terminal-253614563-r23 { fill: #b4bcd4 }
    </style>

    <defs>
    <clipPath id="terminal-253614563-clip-terminal">
      <rect x="0" y="0" width="1658.1999999999998" height="950.5999999999999" />
    </clipPath>
    <clipPath id="terminal-253614563-line-0">
    <rect x="0" y="1.5" width="1659.2" height="24.65"/>
            </clipPath>
<clipPath id="terminal-253614563-line-1">
    <rect x="0" y="25.9" width="1659.2" height="24.65"/>
            </clipPath>
<clipPath id="terminal-253614563-line-2">
    <rect x="0" y="50.3" width="1659.2" height="24.65"/>
            </clipPath>
<clipPath id="terminal-253614563-line-3">
    <rect x="0" y="74.7" width="1659.2" height="24.65"/>
            </clipPath>
<clipPath id="terminal-253614563-line-4">
    <rect x="0" y="99.1" width="1659.2" height="24.65"/>
            </clipPath>
<clipPath id="terminal-253614563-line-5">
    <rect x="0" y="123.5" width="1659.2" height="24.65"/>
            </clipPath>
<clipPath id="terminal-253614563-line-6">
    <rect x="0" y="147.9" width="1659.2" height="24.65"/>
            </clipPath>
<clipPath id="terminal-253614563-line-7">
    <rect x="0" y="172.3" width="1659.2" height="24.65"/>
            </clipPath>
<clipPath id="terminal-253614563-line-8">
    <rect x="0" y="196.7" width="1659.2" height="24.65"/>
            </clipPath>
<clipPath id="terminal-253614563-line-9">
    <rect x="0" y="221.1" width="1659.2" height="24.65"/>
            </clipPath>
<clipPath id="terminal-253614563-line-10">
    <rect x="0" y="245.5" width="1659.2" height="24.65"/>
            </clipPath>
<clipPath id="terminal-253614563-line-11">
    <rect x="0" y="269.9" width="1659.2" height="24.65"/>
            </clipPath>
<clipPath id="terminal-253614563-line-12">
    <rect x="0" y="294.3" width="1659.2" height="24.65"/>
            </clipPath>
<clipPath id="terminal-253614563-line-13">
    <rect x="0" y="318.7" width="1659.2" height="24.65"/>
            </clipPath>
<clipPath id="terminal-253614563-line-14">
    <rect x="0" y="343.1" width="1659.2" height="24.65"/>
            </clipPath>
<clipPath id="terminal-253614563-line-15">
    <rect x="0" y="367.5" width="1659.2" height="24.65"/>
            </clipPath>
<clipPath id="terminal-253614563-line-16">
    <rect x="0" y="391.9" width="1659.2" height="24.65"/>
            </clipPath>
<clipPath id="terminal-253614563-line-17">
    <rect x="0" y="416.3" width="1659.2" height="24.65"/>
            </clipPath>
<clipPath id="terminal-253614563-line-18">
    <rect x="0" y="440.7" width="1659.2" height="24.65"/>
            </clipPath>
<clipPath id="terminal-253614563-line-19">
    <rect x="0" y="465.1" width="1659.2" height="24.65"/>
            </clipPath>
<clipPath id="terminal-253614563-line-20">
    <rect x="0" y="489.5" width="1659.2" height="24.65"/>
            </clipPath>
<clipPath id="terminal-253614563-line-21">
    <rect x="0" y="513.9" width="1659.2" height="24.65"/>
            </clipPath>
<clipPath id="terminal-253614563-line-22">
    <rect x="0" y="538.3" width="1659.2" height="24.65"/>
            </clipPath>
<clipPath id="terminal-253614563-line-23">
    <rect x="0" y="562.7" width="1659.2" height="24.65"/>
            </clipPath>
<clipPath id="terminal-253614563-line-24">
    <rect x="0" y="587.1" width="1659.2" height="24.65"/>
            </clipPath>
<clipPath id="terminal-253614563-line-25">
    <rect x="0" y="611.5" width="1659.2" height="24.65"/>
            </clipPath>
<clipPath id="terminal-253614563-line-26">
    <rect x="0" y="635.9" width="1659.2" height="24.65"/>
            </clipPath>
<clipPath id="terminal-253614563-line-27">
    <rect x="0" y="660.3" width="1659.2" height="24.65"/>
            </clipPath>
<clipPath id="terminal-253614563-line-28">
    <rect x="0" y="684.7" width="1659.2" height="24.65"/>
            </clipPath>
<clipPath id="terminal-253614563-line-29">
    <rect x="0" y="709.1" width="1659.2" height="24.65"/>
            </clipPath>
<clipPath id="terminal-253614563-line-30">
    <rect x="0" y="733.5" width="1659.2" height="24.65"/>
            </clipPath>
<clipPath id="terminal-253614563-line-31">
    <rect x="0" y="757.9" width="1659.2" height="24.65"/>
            </clipPath>
<clipPath id="terminal-253614563-line-32">
    <rect x="0" y="782.3" width="1659.2" height="24.65"/>
            </clipPath>
<clipPath id="terminal-253614563-line-33">
    <rect x="0" y="806.7" width="1659.2" height="24.65"/>
            </clipPath>
<clipPath id="terminal-253614563-line-34">
    <rect x="0" y="831.1" width="1659.2" height="24.65"/>
            </clipPath>
<clipPath id="terminal-253614563-line-35">
    <rect x="0" y="855.5" width="1659.2" height="24.65"/>
            </clipPath>
<clipPath id="terminal-253614563-line-36">
    <rect x="0" y="879.9" width="1659.2" height="24.65"/>
            </clipPath>
<clipPath id="terminal-253614563-line-37">
    <rect x="0" y="904.3" width="1659.2" height="24.65"/>
            </clipPath>
    </defs>

    <rect fill="#292929" stroke="rgba(255,255,255,0.35)" stroke-width="1" x="1" y="1" width="1676" height="999.6" rx="8"/><text class="terminal-253614563-title" fill="#c5c8c6" text-anchor="middle" x="838" y="27">Moon&#160;Traveler&#160;Terminal</text>
            <g transform="translate(26,22)">
            <circle cx="0" cy="0" r="7" fill="#ff5f57"/>
            <circle cx="22" cy="0" r="7" fill="#febc2e"/>
            <circle cx="44" cy="0" r="7" fill="#28c840"/>
            </g>
        
    <g transform="translate(9, 41)" clip-path="url(#terminal-253614563-clip-terminal)">
    <rect fill="#111525" x="0" y="1.5" width="24.4" height="24.65" shape-rendering="crispEdges"/><rect fill="#111525" x="24.4" y="1.5" width="268.4" height="24.65" shape-rendering="crispEdges"/><rect fill="#111525" x="292.8" y="1.5" width="1342" height="24.65" shape-rendering="crispEdges"/><rect fill="#111525" x="1634.8" y="1.5" width="24.4" height="24.65" shape-rendering="crispEdges"/><rect fill="#0a0d18" x="0" y="25.9" width="12.2" height="24.65" shape-rendering="crispEdges"/><rect fill="#0a0d18" x="12.2" y="25.9" width="24.4" height="24.65" shape-rendering="crispEdges"/><rect fill="#0a0d18" x="36.6" y="25.9" width="146.4" height="24.65" shape-rendering="crispEdges"/><rect fill="#0a0d18" x="183" y="25.9" width="12.2" height="24.65" shape-rendering="crispEdges"/><rect fill="#0a0d18" x="195.2" y="25.9" width="122" height="24.65" shape-rendering="crispEdges"/><rect fill="#0a0d18" x="317.2" y="25.9" width="36.6" height="24.65" shape-rendering="crispEdges"/><rect fill="#0a0d18" x="353.8" y="25.9" width="1268.8" height="24.65" shape-rendering="crispEdges"/><rect fill="#111525" x="1622.6" y="25.9" width="24.4" height="24.65" shape-rendering="crispEdges"/><rect fill="#0a0d18" x="1647" y="25.9" width="12.2" height="24.65" shape-rendering="crispEdges"/><rect fill="#0a0d18" x="0" y="50.3" width="12.2" height="24.65" shape-rendering="crispEdges"/><rect fill="#0a0d18" x="12.2" y="50.3" width="24.4" height="24.65" shape-rendering="crispEdges"/><rect fill="#0a0d18" x="36.6" y="50.3" width="268.4" height="24.65" shape-rendering="crispEdges"/><rect fill="#0a0d18" x="305" y="50.3" width="1317.6" height="24.65" shape-rendering="crispEdges"/><rect fill="#111525" x="1622.6" y="50.3" width="24.4" height="24.65" shape-rendering="crispEdges"/><rect fill="#0a0d18" x="1647" y="50.3" width="12.2" height="24.65" shape-rendering="crispEdges"/><rect fill="#0a0d18" x="0" y="74.7" width="12.2" height="24.65" shape-rendering="crispEdges"/><rect fill="#0a0d18" x="12.2" y="74.7" width="134.2" height="24.65" shape-rendering="crispEdges"/><rect fill="#0a0d18" x="146.4" y="74.7" width="122" height="24.65" shape-rendering="crispEdges"/><rect fill="#0a0d18" x="268.4" y="74.7" width="366" height="24.65" shape-rendering="crispEdges"/><rect fill="#0a0d18" x="634.4" y="74.7" width="988.2" height="24.65" shape-rendering="crispEdges"/><rect fill="#111525" x="1622.6" y="74.7" width="24.4" height="24.65" shape-rendering="crispEdges"/><rect fill="#0a0d18" x="1647" y="74.7" width="12.2" height="24.65" shape-rendering="crispEdges"/><rect fill="#0a0d18" x="0" y="99.1" width="12.2" height="24.65" shape-rendering="crispEdges"/><rect fill="#0a0d18" x="12.2" y="99.1" width="768.6" height="24.65" shape-rendering="crispEdges"/><rect fill="#0a0d18" x="780.8" y="99.1" width="841.8" height="24.65" shape-rendering="crispEdges"/><rect fill="#111525" x="1622.6" y="99.1" width="24.4" height="24.65" shape-rendering="crispEdges"/><rect fill="#0a0d18" x="1647" y="99.1" width="12.2" height="24.65" shape-rendering="crispEdges"/><rect fill="#0a0d18" x="0" y="123.5" width="12.2" height="24.65" shape-rendering="crispEdges"/><rect fill="#0a0d18" x="12.2" y="123.5" width="61" height="24.65" shape-rendering="crispEdges"/><rect fill="#0a0d18" x="73.2" y="123.5" width="12.2" height="24.65" shape-rendering="crispEdges"/><rect fill="#0a0d18" x="85.4" y="123.5" width="1122.4" height="24.65" shape-rendering="crispEdges"/><rect fill="#0a0d18" x="1207.8" y="123.5" width="414.8" height="24.65" shape-rendering="crispEdges"/><rect fill="#111525" x="1622.6" y="123.5" width="24.4" height="24.65" shape-rendering="crispEdges"/><rect fill="#0a0d18" x="1647" y="123.5" width="12.2" height="24.65" shape-rendering="crispEdges"/><rect fill="#0a0d18" x="0" y="147.9" width="12.2" height="24.65" shape-rendering="crispEdges"/><rect fill="#0a0d18" x="12.2" y="147.9" width="585.6" height="24.65" shape-rendering="crispEdges"/><rect fill="#0a0d18" x="597.8" y="147.9" width="1024.8" height="24.65" shape-rendering="crispEdges"/><rect fill="#111525" x="1622.6" y="147.9" width="24.4" height="24.65" shape-rendering="crispEdges"/><rect fill="#0a0d18" x="1647" y="147.9" width="12.2" height="24.65" shape-rendering="crispEdges"/><rect fill="#0a0d18" x="0" y="172.3" width="12.2" height="24.65" shape-rendering="crispEdges"/><rect fill="#0a0d18" x="12.2" y="172.3" width="1610.4" height="24.65" shape-rendering="crispEdges"/><rect fill="#111525" x="1622.6" y="172.3" width="24.4" height="24.65" shape-rendering="crispEdges"/><rect fill="#0a0d18" x="1647" y="172.3" width="12.2" height="24.65" shape-rendering="crispEdges"/><rect fill="#0a0d18" x="0" y="196.7" width="12.2" height="24.65" shape-rendering="crispEdges"/><rect fill="#0a0d18" x="12.2" y="196.7" width="24.4" height="24.65" shape-rendering="crispEdges"/><rect fill="#0a0d18" x="36.6" y="196.7" width="573.4" height="24.65" shape-rendering="crispEdges"/><rect fill="#0a0d18" x="610" y="196.7" width="12.2" height="24.65" shape-rendering="crispEdges"/><rect fill="#0a0d18" x="622.2" y="196.7" width="122" height="24.65" shape-rendering="crispEdges"/><rect fill="#0a0d18" x="744.2" y="196.7" width="170.8" height="24.65" shape-rendering="crispEdges"/><rect fill="#0a0d18" x="915" y="196.7" width="585.6" height="24.65" shape-rendering="crispEdges"/><rect fill="#0a0d18" x="1500.6" y="196.7" width="24.4" height="24.65" shape-rendering="crispEdges"/><rect fill="#0a0d18" x="1525" y="196.7" width="97.6" height="24.65" shape-rendering="crispEdges"/><rect fill="#111525" x="1622.6" y="196.7" width="24.4" height="24.65" shape-rendering="crispEdges"/><rect fill="#0a0d18" x="1647" y="196.7" width="12.2" height="24.65" shape-rendering="crispEdges"/><rect fill="#0a0d18" x="0" y="221.1" width="12.2" height="24.65" shape-rendering="crispEdges"/><rect fill="#0a0d18" x="12.2" y="221.1" width="12.2" height="24.65" shape-rendering="crispEdges"/><rect fill="#0a0d18" x="24.4" y="221.1" width="12.2" height="24.65" shape-rendering="crispEdges"/><rect fill="#0a0d18" x="36.6" y="221.1" width="1464" height="24.65" shape-rendering="crispEdges"/><rect fill="#0a0d18" x="1500.6" y="221.1" width="12.2" height="24.65" shape-rendering="crispEdges"/><rect fill="#0a0d18" x="1512.8" y="221.1" width="12.2" height="24.65" shape-rendering="crispEdges"/><rect fill="#0a0d18" x="1525" y="221.1" width="97.6" height="24.65" shape-rendering="crispEdges"/><rect fill="#111525" x="1622.6" y="221.1" width="24.4" height="24.65" shape-rendering="crispEdges"/><rect fill="#0a0d18" x="1647" y="221.1" width="12.2" height="24.65" shape-rendering="crispEdges"/><rect fill="#0a0d18" x="0" y="245.5" width="12.2" height="24.65" shape-rendering="crispEdges"/><rect fill="#0a0d18" x="12.2" y="245.5" width="1512.8" height="24.65" shape-rendering="crispEdges"/><rect fill="#0a0d18" x="1525" y="245.5" width="97.6" height="24.65" shape-rendering="crispEdges"/><rect fill="#111525" x="1622.6" y="245.5" width="24.4" height="24.65" shape-rendering="crispEdges"/><rect fill="#0a0d18" x="1647" y="245.5" width="12.2" height="24.65" shape-rendering="crispEdges"/><rect fill="#0a0d18" x="0" y="269.9" width="12.2" height="24.65" shape-rendering="crispEdges"/><rect fill="#0a0d18" x="12.2" y="269.9" width="402.6" height="24.65" shape-rendering="crispEdges"/><rect fill="#0a0d18" x="414.8" y="269.9" width="1207.8" height="24.65" shape-rendering="crispEdges"/><rect fill="#111525" x="1622.6" y="269.9" width="24.4" height="24.65" shape-rendering="crispEdges"/><rect fill="#0a0d18" x="1647" y="269.9" width="12.2" height="24.65" shape-rendering="crispEdges"/><rect fill="#0a0d18" x="0" y="294.3" width="12.2" height="24.65" shape-rendering="crispEdges"/><rect fill="#0a0d18" x="12.2" y="294.3" width="317.2" height="24.65" shape-rendering="crispEdges"/><rect fill="#0a0d18" x="329.4" y="294.3" width="1293.2" height="24.65" shape-rendering="crispEdges"/><rect fill="#111525" x="1622.6" y="294.3" width="24.4" height="24.65" shape-rendering="crispEdges"/><rect fill="#0a0d18" x="1647" y="294.3" width="12.2" height="24.65" shape-rendering="crispEdges"/><rect fill="#0a0d18" x="0" y="318.7" width="12.2" height="24.65" shape-rendering="crispEdges"/><rect fill="#0a0d18" x="12.2" y="318.7" width="536.8" height="24.65" shape-rendering="crispEdges"/><rect fill="#0a0d18" x="549" y="318.7" width="1073.6" height="24.65" shape-rendering="crispEdges"/><rect fill="#111525" x="1622.6" y="318.7" width="24.4" height="24.65" shape-rendering="crispEdges"/><rect fill="#0a0d18" x="1647" y="318.7" width="12.2" height="24.65" shape-rendering="crispEdges"/><rect fill="#0a0d18" x="0" y="343.1" width="12.2" height="24.65" shape-rendering="crispEdges"/><rect fill="#0a0d18" x="12.2" y="343.1" width="61" height="24.65" shape-rendering="crispEdges"/><rect fill="#0a0d18" x="73.2" y="343.1" width="12.2" height="24.65" shape-rendering="crispEdges"/><rect fill="#0a0d18" x="85.4" y="343.1" width="768.6" height="24.65" shape-rendering="crispEdges"/><rect fill="#0a0d18" x="854" y="343.1" width="768.6" height="24.65" shape-rendering="crispEdges"/><rect fill="#111525" x="1622.6" y="343.1" width="24.4" height="24.65" shape-rendering="crispEdges"/><rect fill="#0a0d18" x="1647" y="343.1" width="12.2" height="24.65" shape-rendering="crispEdges"/><rect fill="#0a0d18" x="0" y="367.5" width="12.2" height="24.65" shape-rendering="crispEdges"/><rect fill="#0a0d18" x="12.2" y="367.5" width="219.6" height="24.65" shape-rendering="crispEdges"/><rect fill="#0a0d18" x="231.8" y="367.5" width="1390.8" height="24.65" shape-rendering="crispEdges"/><rect fill="#111525" x="1622.6" y="367.5" width="24.4" height="24.65" shape-rendering="crispEdges"/><rect fill="#0a0d18" x="1647" y="367.5" width="12.2" height="24.65" shape-rendering="crispEdges"/><rect fill="#0a0d18" x="0" y="391.9" width="12.2" height="24.65" shape-rendering="crispEdges"/><rect fill="#0a0d18" x="12.2" y="391.9" width="24.4" height="24.65" shape-rendering="crispEdges"/><rect fill="#0a0d18" x="36.6" y="391.9" width="61" height="24.65" shape-rendering="crispEdges"/><rect fill="#0a0d18" x="97.6" y="391.9" width="12.2" height="24.65" shape-rendering="crispEdges"/><rect fill="#0a0d18" x="109.8" y="391.9" width="207.4" height="24.65" shape-rendering="crispEdges"/><rect fill="#0a0d18" x="317.2" y="391.9" width="1305.4" height="24.65" shape-rendering="crispEdges"/><rect fill="#111525" x="1622.6" y="391.9" width="24.4" height="24.65" shape-rendering="crispEdges"/><rect fill="#0a0d18" x="1647" y="391.9" width="12.2" height="24.65" shape-rendering="crispEdges"/><rect fill="#0a0d18" x="0" y="416.3" width="12.2" height="24.65" shape-rendering="crispEdges"/><rect fill="#0a0d18" x="12.2" y="416.3" width="1610.4" height="24.65" shape-rendering="crispEdges"/><rect fill="#111525" x="1622.6" y="416.3" width="24.4" height="24.65" shape-rendering="crispEdges"/><rect fill="#0a0d18" x="1647" y="416.3" width="12.2" height="24.65" shape-rendering="crispEdges"/><rect fill="#0a0d18" x="0" y="440.7" width="12.2" height="24.65" shape-rendering="crispEdges"/><rect fill="#0a0d18" x="12.2" y="440.7" width="341.6" height="24.65" shape-rendering="crispEdges"/><rect fill="#0a0d18" x="353.8" y="440.7" width="1268.8" height="24.65" shape-rendering="crispEdges"/><rect fill="#111525" x="1622.6" y="440.7" width="24.4" height="24.65" shape-rendering="crispEdges"/><rect fill="#0a0d18" x="1647" y="440.7" width="12.2" height="24.65" shape-rendering="crispEdges"/><rect fill="#0a0d18" x="0" y="465.1" width="12.2" height="24.65" shape-rendering="crispEdges"/><rect fill="#0a0d18" x="12.2" y="465.1" width="1610.4" height="24.65" shape-rendering="crispEdges"/><rect fill="#111525" x="1622.6" y="465.1" width="24.4" height="24.65" shape-rendering="crispEdges"/><rect fill="#0a0d18" x="1647" y="465.1" width="12.2" height="24.65" shape-rendering="crispEdges"/><rect fill="#0a0d18" x="0" y="489.5" width="12.2" height="24.65" shape-rendering="crispEdges"/><rect fill="#0a0d18" x="12.2" y="489.5" width="24.4" height="24.65" shape-rendering="crispEdges"/><rect fill="#0a0d18" x="36.6" y="489.5" width="61" height="24.65" shape-rendering="crispEdges"/><rect fill="#0a0d18" x="97.6" y="489.5" width="256.2" height="24.65" shape-rendering="crispEdges"/><rect fill="#0a0d18" x="353.8" y="489.5" width="1268.8" height="24.65" shape-rendering="crispEdges"/><rect fill="#111525" x="1622.6" y="489.5" width="24.4" height="24.65" shape-rendering="crispEdges"/><rect fill="#0a0d18" x="1647" y="489.5" width="12.2" height="24.65" shape-rendering="crispEdges"/><rect fill="#0a0d18" x="0" y="513.9" width="12.2" height="24.65" shape-rendering="crispEdges"/><rect fill="#0a0d18" x="12.2" y="513.9" width="585.6" height="24.65" shape-rendering="crispEdges"/><rect fill="#0a0d18" x="597.8" y="513.9" width="1024.8" height="24.65" shape-rendering="crispEdges"/><rect fill="#111525" x="1622.6" y="513.9" width="24.4" height="24.65" shape-rendering="crispEdges"/><rect fill="#0a0d18" x="1647" y="513.9" width="12.2" height="24.65" shape-rendering="crispEdges"/><rect fill="#0a0d18" x="0" y="538.3" width="12.2" height="24.65" shape-rendering="crispEdges"/><rect fill="#0a0d18" x="12.2" y="538.3" width="414.8" height="24.65" shape-rendering="crispEdges"/><rect fill="#0a0d18" x="427" y="538.3" width="1195.6" height="24.65" shape-rendering="crispEdges"/><rect fill="#111525" x="1622.6" y="538.3" width="24.4" height="24.65" shape-rendering="crispEdges"/><rect fill="#0a0d18" x="1647" y="538.3" width="12.2" height="24.65" shape-rendering="crispEdges"/><rect fill="#0a0d18" x="0" y="562.7" width="12.2" height="24.65" shape-rendering="crispEdges"/><rect fill="#0a0d18" x="12.2" y="562.7" width="390.4" height="24.65" shape-rendering="crispEdges"/><rect fill="#0a0d18" x="402.6" y="562.7" width="1220" height="24.65" shape-rendering="crispEdges"/><rect fill="#111525" x="1622.6" y="562.7" width="24.4" height="24.65" shape-rendering="crispEdges"/><rect fill="#0a0d18" x="1647" y="562.7" width="12.2" height="24.65" shape-rendering="crispEdges"/><rect fill="#0a0d18" x="0" y="587.1" width="12.2" height="24.65" shape-rendering="crispEdges"/><rect fill="#0a0d18" x="12.2" y="587.1" width="158.6" height="24.65" shape-rendering="crispEdges"/><rect fill="#0a0d18" x="170.8" y="587.1" width="1451.8" height="24.65" shape-rendering="crispEdges"/><rect fill="#111525" x="1622.6" y="587.1" width="24.4" height="24.65" shape-rendering="crispEdges"/><rect fill="#0a0d18" x="1647" y="587.1" width="12.2" height="24.65" shape-rendering="crispEdges"/><rect fill="#0a0d18" x="0" y="611.5" width="12.2" height="24.65" shape-rendering="crispEdges"/><rect fill="#0a0d18" x="12.2" y="611.5" width="1610.4" height="24.65" shape-rendering="crispEdges"/><rect fill="#111525" x="1622.6" y="611.5" width="24.4" height="24.65" shape-rendering="crispEdges"/><rect fill="#0a0d18" x="1647" y="611.5" width="12.2" height="24.65" shape-rendering="crispEdges"/><rect fill="#0a0d18" x="0" y="635.9" width="12.2" height="24.65" shape-rendering="crispEdges"/><rect fill="#0a0d18" x="12.2" y="635.9" width="549" height="24.65" shape-rendering="crispEdges"/><rect fill="#0a0d18" x="561.2" y="635.9" width="1061.4" height="24.65" shape-rendering="crispEdges"/><rect fill="#111525" x="1622.6" y="635.9" width="24.4" height="24.65" shape-rendering="crispEdges"/><rect fill="#0a0d18" x="1647" y="635.9" width="12.2" height="24.65" shape-rendering="crispEdges"/><rect fill="#0a0d18" x="0" y="660.3" width="12.2" height="24.65" shape-rendering="crispEdges"/><rect fill="#0a0d18" x="12.2" y="660.3" width="1610.4" height="24.65" shape-rendering="crispEdges"/><rect fill="#111525" x="1622.6" y="660.3" width="24.4" height="24.65" shape-rendering="crispEdges"/><rect fill="#0a0d18" x="1647" y="660.3" width="12.2" height="24.65" shape-rendering="crispEdges"/><rect fill="#0a0d18" x="0" y="684.7" width="12.2" height="24.65" shape-rendering="crispEdges"/><rect fill="#0a0d18" x="12.2" y="684.7" width="1610.4" height="24.65" shape-rendering="crispEdges"/><rect fill="#111525" x="1622.6" y="684.7" width="24.4" height="24.65" shape-rendering="crispEdges"/><rect fill="#0a0d18" x="1647" y="684.7" width="12.2" height="24.65" shape-rendering="crispEdges"/><rect fill="#0a0d18" x="0" y="709.1" width="12.2" height="24.65" shape-rendering="crispEdges"/><rect fill="#0a0d18" x="12.2" y="709.1" width="1610.4" height="24.65" shape-rendering="crispEdges"/><rect fill="#111525" x="1622.6" y="709.1" width="24.4" height="24.65" shape-rendering="crispEdges"/><rect fill="#0a0d18" x="1647" y="709.1" width="12.2" height="24.65" shape-rendering="crispEdges"/><rect fill="#0a0d18" x="0" y="733.5" width="12.2" height="24.65" shape-rendering="crispEdges"/><rect fill="#0a0d18" x="12.2" y="733.5" width="1610.4" height="24.65" shape-rendering="crispEdges"/><rect fill="#111525" x="1622.6" y="733.5" width="24.4" height="24.65" shape-rendering="crispEdges"/><rect fill="#0a0d18" x="1647" y="733.5" width="12.2" height="24.65" shape-rendering="crispEdges"/><rect fill="#0a0d18" x="0" y="757.9" width="12.2" height="24.65" shape-rendering="crispEdges"/><rect fill="#0a0d18" x="12.2" y="757.9" width="1610.4" height="24.65" shape-rendering="crispEdges"/><rect fill="#111525" x="1622.6" y="757.9" width="24.4" height="24.65" shape-rendering="crispEdges"/><rect fill="#0a0d18" x="1647" y="757.9" width="12.2" height="24.65" shape-rendering="crispEdges"/><rect fill="#0a0d18" x="0" y="782.3" width="12.2" height="24.65" shape-rendering="crispEdges"/><rect fill="#0a0d18" x="12.2" y="782.3" width="1610.4" height="24.65" shape-rendering="crispEdges"/><rect fill="#111525" x="1622.6" y="782.3" width="24.4" height="24.65" shape-rendering="crispEdges"/><rect fill="#0a0d18" x="1647" y="782.3" width="12.2" height="24.65" shape-rendering="crispEdges"/><rect fill="#0a0d18" x="0" y="806.7" width="12.2" height="24.65" shape-rendering="crispEdges"/><rect fill="#0a0d18" x="12.2" y="806.7" width="1610.4" height="24.65" shape-rendering="crispEdges"/><rect fill="#111525" x="1622.6" y="806.7" width="24.4" height="24.65" shape-rendering="crispEdges"/><rect fill="#0a0d18" x="1647" y="806.7" width="12.2" height="24.65" shape-rendering="crispEdges"/><rect fill="#0a0d18" x="0" y="831.1" width="12.2" height="24.65" shape-rendering="crispEdges"/><rect fill="#0a0d18" x="12.2" y="831.1" width="1610.4" height="24.65" shape-rendering="crispEdges"/><rect fill="#111525" x="1622.6" y="831.1" width="24.4" height="24.65" shape-rendering="crispEdges"/><rect fill="#0a0d18" x="1647" y="831.1" width="12.2" height="24.65" shape-rendering="crispEdges"/><rect fill="#111525" x="0" y="855.5" width="24.4" height="24.65" shape-rendering="crispEdges"/><rect fill="#111525" x="24.4" y="855.5" width="48.8" height="24.65" shape-rendering="crispEdges"/><rect fill="#111525" x="73.2" y="855.5" width="12.2" height="24.65" shape-rendering="crispEdges"/><rect fill="#111525" x="85.4" y="855.5" width="61" height="24.65" shape-rendering="crispEdges"/><rect fill="#111525" x="146.4" y="855.5" width="12.2" height="24.65" shape-rendering="crispEdges"/><rect fill="#111525" x="158.6" y="855.5" width="36.6" height="24.65" shape-rendering="crispEdges"/><rect fill="#111525" x="195.2" y="855.5" width="24.4" height="24.65" shape-rendering="crispEdges"/><rect fill="#111525" x="219.6" y="855.5" width="61" height="24.65" shape-rendering="crispEdges"/><rect fill="#111525" x="280.6" y="855.5" width="12.2" height="24.65" shape-rendering="crispEdges"/><rect fill="#111525" x="292.8" y="855.5" width="61" height="24.65" shape-rendering="crispEdges"/><rect fill="#111525" x="353.8" y="855.5" width="12.2" height="24.65" shape-rendering="crispEdges"/><rect fill="#111525" x="366" y="855.5" width="36.6" height="24.65" shape-rendering="crispEdges"/><rect fill="#111525" x="402.6" y="855.5" width="24.4" height="24.65" shape-rendering="crispEdges"/><rect fill="#111525" x="427" y="855.5" width="48.8" height="24.65" shape-rendering="crispEdges"/><rect fill="#111525" x="475.8" y="855.5" width="12.2" height="24.65" shape-rendering="crispEdges"/><rect fill="#111525" x="488" y="855.5" width="61" height="24.65" shape-rendering="crispEdges"/><rect fill="#111525" x="549" y="855.5" width="12.2" height="24.65" shape-rendering="crispEdges"/><rect fill="#111525" x="561.2" y="855.5" width="48.8" height="24.65" shape-rendering="crispEdges"/><rect fill="#111525" x="610" y="855.5" width="24.4" height="24.65" shape-rendering="crispEdges"/><rect fill="#111525" x="634.4" y="855.5" width="48.8" height="24.65" shape-rendering="crispEdges"/><rect fill="#111525" x="683.2" y="855.5" width="12.2" height="24.65" shape-rendering="crispEdges"/><rect fill="#111525" x="695.4" y="855.5" width="36.6" height="24.65" shape-rendering="crispEdges"/><rect fill="#111525" x="732" y="855.5" width="24.4" height="24.65" shape-rendering="crispEdges"/><rect fill="#111525" x="756.4" y="855.5" width="12.2" height="24.65" shape-rendering="crispEdges"/><rect fill="#111525" x="768.6" y="855.5" width="36.6" height="24.65" shape-rendering="crispEdges"/><rect fill="#111525" x="805.2" y="855.5" width="24.4" height="24.65" shape-rendering="crispEdges"/><rect fill="#111525" x="829.6" y="855.5" width="97.6" height="24.65" shape-rendering="crispEdges"/><rect fill="#111525" x="927.2" y="855.5" width="24.4" height="24.65" shape-rendering="crispEdges"/><rect fill="#111525" x="951.6" y="855.5" width="97.6" height="24.65" shape-rendering="crispEdges"/><rect fill="#111525" x="1049.2" y="855.5" width="24.4" height="24.65" shape-rendering="crispEdges"/><rect fill="#111525" x="1073.6" y="855.5" width="48.8" height="24.65" shape-rendering="crispEdges"/><rect fill="#111525" x="1122.4" y="855.5" width="24.4" height="24.65" shape-rendering="crispEdges"/><rect fill="#111525" x="1146.8" y="855.5" width="12.2" height="24.65" shape-rendering="crispEdges"/><rect fill="#111525" x="1159" y="855.5" width="24.4" height="24.65" shape-rendering="crispEdges"/><rect fill="#111525" x="1183.4" y="855.5" width="122" height="24.65" shape-rendering="crispEdges"/><rect fill="#111525" x="1305.4" y="855.5" width="12.2" height="24.65" shape-rendering="crispEdges"/><rect fill="#111525" x="1317.6" y="855.5" width="61" height="24.65" shape-rendering="crispEdges"/><rect fill="#111525" x="1378.6" y="855.5" width="256.2" height="24.65" shape-rendering="crispEdges"/><rect fill="#111525" x="1634.8" y="855.5" width="24.4" height="24.65" shape-rendering="crispEdges"/><rect fill="#0e1122" x="0" y="879.9" width="12.2" height="24.65" shape-rendering="crispEdges"/><rect fill="#0e1122" x="12.2" y="879.9" width="366" height="24.65" shape-rendering="crispEdges"/><rect fill="#0e1122" x="378.2" y="879.9" width="12.2" height="24.65" shape-rendering="crispEdges"/><rect fill="#181b2b" x="390.4" y="879.9" width="24.4" height="24.65" shape-rendering="crispEdges"/><rect fill="#e0e0e0" x="414.8" y="879.9" width="12.2" height="24.65" shape-rendering="crispEdges"/><rect fill="#181b2b" x="427" y="879.9" width="183" height="24.65" shape-rendering="crispEdges"/><rect fill="#181b2b" x="610" y="879.9" width="1012.6" height="24.65" shape-rendering="crispEdges"/><rect fill="#181b2b" x="1622.6" y="879.9" width="24.4" height="24.65" shape-rendering="crispEdges"/><rect fill="#0e1122" x="1647" y="879.9" width="12.2" height="24.65" shape-rendering="crispEdges"/><rect fill="#0e1122" x="0" y="904.3" width="12.2" height="24.65" shape-rendering="crispEdges"/><rect fill="#0e1122" x="12.2" y="904.3" width="378.2" height="24.65" shape-rendering="crispEdges"/><rect fill="#181b2b" x="390.4" y="904.3" width="24.4" height="24.65" shape-rendering="crispEdges"/><rect fill="#181b2b" x="414.8" y="904.3" width="1207.8" height="24.65" shape-rendering="crispEdges"/><rect fill="#181b2b" x="1622.6" y="904.3" width="24.4" height="24.65" shape-rendering="crispEdges"/><rect fill="#0e1122" x="1647" y="904.3" width="12.2" height="24.65" shape-rendering="crispEdges"/><rect fill="#0e1122" x="0" y="928.7" width="12.2" height="24.65" shape-rendering="crispEdges"/><rect fill="#0e1122" x="12.2" y="928.7" width="378.2" height="24.65" shape-rendering="crispEdges"/><rect fill="#181b2b" x="390.4" y="928.7" width="24.4" height="24.65" shape-rendering="crispEdges"/><rect fill="#181b2b" x="414.8" y="928.7" width="1207.8" height="24.65" shape-rendering="crispEdges"/><rect fill="#181b2b" x="1622.6" y="928.7" width="24.4" height="24.65" shape-rendering="crispEdges"/><rect fill="#0e1122" x="1647" y="928.7" width="12.2" height="24.65" shape-rendering="crispEdges"/>
    <g class="terminal-253614563-matrix">
    <text class="terminal-253614563-r2" x="24.4" y="20" textLength="268.4" clip-path="url(#terminal-253614563-line-0)">Moon&#160;Traveler&#160;Terminal</text><text class="terminal-253614563-r1" x="1659.2" y="20" textLength="12.2" clip-path="url(#terminal-253614563-line-0)">
</text><text class="terminal-253614563-r4" x="36.6" y="44.4" textLength="146.4" clip-path="url(#terminal-253614563-line-1)">Traveling&#160;to</text><text class="terminal-253614563-r5" x="195.2" y="44.4" textLength="122" clip-path="url(#terminal-253614563-line-1)">Crash&#160;Site</text><text class="terminal-253614563-r4" x="317.2" y="44.4" textLength="36.6" clip-path="url(#terminal-253614563-line-1)">...</text><text class="terminal-253614563-r1" x="1659.2" y="44.4" textLength="12.2" clip-path="url(#terminal-253614563-line-1)">
</text><text class="terminal-253614563-r6" x="36.6" y="68.8" textLength="268.4" clip-path="url(#terminal-253614563-line-2)">Arrived&#160;at&#160;Crash&#160;Site.</text><text class="terminal-253614563-r1" x="1659.2" y="68.8" textLength="12.2" clip-path="url(#terminal-253614563-line-2)">
</text><text class="terminal-253614563-r3" x="12.2" y="93.2" textLength="134.2" clip-path="url(#terminal-253614563-line-3)">Arrived&#160;at&#160;</text><text class="terminal-253614563-r5" x="146.4" y="93.2" textLength="122" clip-path="url(#terminal-253614563-line-3)">Crash&#160;Site</text><text class="terminal-253614563-r3" x="268.4" y="93.2" textLength="366" clip-path="url(#terminal-253614563-line-3)">&#160;after&#160;1h&#160;of&#160;travel&#160;(13.0&#160;km).</text><text class="terminal-253614563-r1" x="1659.2" y="93.2" textLength="12.2" clip-path="url(#terminal-253614563-line-3)">
</text><text class="terminal-253614563-r7" x="12.2" y="117.6" textLength="768.6" clip-path="url(#terminal-253614563-line-4)">A&#160;shadow&#160;passes&#160;overhead.&#160;Just&#160;Saturn,&#160;drifting&#160;across&#160;the&#160;sky.</text><text class="terminal-253614563-r1" x="1659.2" y="117.6" textLength="12.2" clip-path="url(#terminal-253614563-line-4)">
</text><text class="terminal-253614563-r8" x="12.2" y="142" textLength="61" clip-path="url(#terminal-253614563-line-5)">ARIA:</text><text class="terminal-253614563-r9" x="85.4" y="142" textLength="1122.4" clip-path="url(#terminal-253614563-line-5)">Arrived&#160;at&#160;Crash&#160;Site.&#160;Food:&#160;96%&#160;(-2)&#160;|&#160;Water:&#160;94%&#160;(-3)&#160;|&#160;Suit:&#160;99%&#160;(-0)&#160;|&#160;Battery:&#160;62%&#160;(-7)</text><text class="terminal-253614563-r1" x="1659.2" y="142" textLength="12.2" clip-path="url(#terminal-253614563-line-5)">
</text><text class="terminal-253614563-r4" x="12.2" y="166.4" textLength="585.6" clip-path="url(#terminal-253614563-line-6)">Tip:&#160;Use&#160;&#x27;ship&#160;charging&#x27;&#160;to&#160;recharge&#160;your&#160;drone.</text><text class="terminal-253614563-r1" x="1659.2" y="166.4" textLength="12.2" clip-path="url(#terminal-253614563-line-6)">
</text><text class="terminal-253614563-r1" x="1659.2" y="190.8" textLength="12.2" clip-path="url(#terminal-253614563-line-7)">
</text><text class="terminal-253614563-r5" x="12.2" y="215.2" textLength="24.4" clip-path="url(#terminal-253614563-line-8)">╭─</text><text class="terminal-253614563-r5" x="36.6" y="215.2" textLength="573.4" clip-path="url(#terminal-253614563-line-8)">───────────────────────────────────────────────</text><text class="terminal-253614563-r10" x="622.2" y="215.2" textLength="122" clip-path="url(#terminal-253614563-line-8)">Crash&#160;Site</text><text class="terminal-253614563-r5" x="744.2" y="215.2" textLength="170.8" clip-path="url(#terminal-253614563-line-8)">&#160;[Crash&#160;Site]&#160;</text><text class="terminal-253614563-r5" x="915" y="215.2" textLength="585.6" clip-path="url(#terminal-253614563-line-8)">────────────────────────────────────────────────</text><text class="terminal-253614563-r5" x="1500.6" y="215.2" textLength="24.4" clip-path="url(#terminal-253614563-line-8)">─╮</text><text class="terminal-253614563-r1" x="1659.2" y="215.2" textLength="12.2" clip-path="url(#terminal-253614563-line-8)">
</text><text class="terminal-253614563-r5" x="12.2" y="239.6" textLength="12.2" clip-path="url(#terminal-253614563-line-9)">│</text><text class="terminal-253614563-r7" x="36.6" y="239.6" textLength="1464" clip-path="url(#terminal-253614563-line-9)">Your&#160;ship&#160;lies&#160;crumpled&#160;in&#160;a&#160;shallow&#160;crater,&#160;venting&#160;steam&#160;into&#160;the&#160;thin&#160;atmosphere.&#160;Debris&#160;is&#160;scattered&#160;across&#160;the&#160;ice.</text><text class="terminal-253614563-r5" x="1512.8" y="239.6" textLength="12.2" clip-path="url(#terminal-253614563-line-9)">│</text><text class="terminal-253614563-r1" x="1659.2" y="239.6" textLength="12.2" clip-path="url(#terminal-253614563-line-9)">
</text><text class="terminal-253614563-r5" x="12.2" y="264" textLength="1512.8" clip-path="url(#terminal-253614563-line-10)">╰──────────────────────────────────────────────────────────────────────────────────────────────────────────────────────────╯</text><text class="terminal-253614563-r1" x="1659.2" y="264" textLength="12.2" clip-path="url(#terminal-253614563-line-10)">
</text><text class="terminal-253614563-r4" x="12.2" y="288.4" textLength="402.6" clip-path="url(#terminal-253614563-line-11)">Drone&#160;autopilot:&#160;scanning&#160;area...</text><text class="terminal-253614563-r1" x="1659.2" y="288.4" textLength="12.2" clip-path="url(#terminal-253614563-line-11)">
</text><text class="terminal-253614563-r3" x="12.2" y="312.8" textLength="317.2" clip-path="url(#terminal-253614563-line-12)">&#160;&#160;Scanning&#160;surroundings...</text><text class="terminal-253614563-r1" x="1659.2" y="312.8" textLength="12.2" clip-path="url(#terminal-253614563-line-12)">
</text><text class="terminal-253614563-r5" x="12.2" y="337.2" textLength="536.8" clip-path="url(#terminal-253614563-line-13)">No&#160;new&#160;locations&#160;found&#160;within&#160;scanner&#160;range.</text><text class="terminal-253614563-r1" x="1659.2" y="337.2" textLength="12.2" clip-path="url(#terminal-253614563-line-13)">
</text><text class="terminal-253614563-r8" x="12.2" y="361.6" textLength="61" clip-path="url(#terminal-253614563-line-14)">ARIA:</text><text class="terminal-253614563-r9" x="85.4" y="361.6" textLength="768.6" clip-path="url(#terminal-253614563-line-14)">No&#160;new&#160;signatures&#160;in&#160;range.&#160;Try&#160;moving&#160;to&#160;a&#160;different&#160;location.</text><text class="terminal-253614563-r1" x="1659.2" y="361.6" textLength="12.2" clip-path="url(#terminal-253614563-line-14)">
</text><text class="terminal-253614563-r4" x="12.2" y="386" textLength="219.6" clip-path="url(#terminal-253614563-line-15)">Drone&#160;battery:&#160;52%</text><text class="terminal-253614563-r1" x="1659.2" y="386" textLength="12.2" clip-path="url(#terminal-253614563-line-15)">
</text><text class="terminal-253614563-r6" x="36.6" y="410.4" textLength="61" clip-path="url(#terminal-253614563-line-16)">Iyren</text><text class="terminal-253614563-r4" x="109.8" y="410.4" textLength="207.4" clip-path="url(#terminal-253614563-line-16)">travels&#160;with&#160;you.</text><text class="terminal-253614563-r1" x="1659.2" y="410.4" textLength="12.2" clip-path="url(#terminal-253614563-line-16)">
</text><text class="terminal-253614563-r1" x="1659.2" y="434.8" textLength="12.2" clip-path="url(#terminal-253614563-line-17)">
</text><text class="terminal-253614563-r11" x="12.2" y="459.2" textLength="341.6" clip-path="url(#terminal-253614563-line-18)">──&#160;Companions&#160;at&#160;the&#160;Ship&#160;──</text><text class="terminal-253614563-r1" x="1659.2" y="459.2" textLength="12.2" clip-path="url(#terminal-253614563-line-18)">
</text><text class="terminal-253614563-r1" x="1659.2" y="483.6" textLength="12.2" clip-path="url(#terminal-253614563-line-19)">
</text><text class="terminal-253614563-r6" x="36.6" y="508" textLength="61" clip-path="url(#terminal-253614563-line-20)">Iyren</text><text class="terminal-253614563-r3" x="97.6" y="508" textLength="256.2" clip-path="url(#terminal-253614563-line-20)">&#160;examines&#160;the&#160;ship...</text><text class="terminal-253614563-r1" x="1659.2" y="508" textLength="12.2" clip-path="url(#terminal-253614563-line-20)">
</text><text class="terminal-253614563-r6" x="12.2" y="532.4" textLength="585.6" clip-path="url(#terminal-253614563-line-21)">&#160;&#160;Iyren&#160;helps&#160;install&#160;Ice&#160;Crystal&#160;into&#160;the&#160;ship!</text><text class="terminal-253614563-r1" x="1659.2" y="532.4" textLength="12.2" clip-path="url(#terminal-253614563-line-21)">
</text><text class="terminal-253614563-r6" x="12.2" y="556.8" textLength="414.8" clip-path="url(#terminal-253614563-line-22)">&#160;&#160;Iyren&#160;contributes:&#160;Circuit&#160;Board</text><text class="terminal-253614563-r1" x="1659.2" y="556.8" textLength="12.2" clip-path="url(#terminal-253614563-line-22)">
</text><text class="terminal-253614563-r6" x="12.2" y="581.2" textLength="390.4" clip-path="url(#terminal-253614563-line-23)">&#160;&#160;Iyren&#160;contributes:&#160;Metal&#160;Shard</text><text class="terminal-253614563-r1" x="1659.2" y="581.2" textLength="12.2" clip-path="url(#terminal-253614563-line-23)">
</text><text class="terminal-253614563-r4" x="12.2" y="605.6" textLength="158.6" clip-path="url(#terminal-253614563-line-24)">&#160;&#160;(+10&#160;trust)</text><text class="terminal-253614563-r1" x="1659.2" y="605.6" textLength="12.2" clip-path="url(#terminal-253614563-line-24)">
</text><text class="terminal-253614563-r1" x="1659.2" y="630" textLength="12.2" clip-path="url(#terminal-253614563-line-25)">
</text><text class="terminal-253614563-r11" x="12.2" y="654.4" textLength="549" clip-path="url(#terminal-253614563-line-26)">Your&#160;companions&#160;can&#160;stay&#160;here&#160;or&#160;return&#160;home.</text><text class="terminal-253614563-r1" x="1659.2" y="654.4" textLength="12.2" clip-path="url(#terminal-253614563-line-26)">
</text><text class="terminal-253614563-r1" x="1659.2" y="678.8" textLength="12.2" clip-path="url(#terminal-253614563-line-27)">
</text><text class="terminal-253614563-r1" x="1659.2" y="703.2" textLength="12.2" clip-path="url(#terminal-253614563-line-28)">
</text><text class="terminal-253614563-r1" x="1659.2" y="727.6" textLength="12.2" clip-path="url(#terminal-253614563-line-29)">
</text><text class="terminal-253614563-r1" x="1659.2" y="752" textLength="12.2" clip-path="url(#terminal-253614563-line-30)">
</text><text class="terminal-253614563-r1" x="1659.2" y="776.4" textLength="12.2" clip-path="url(#terminal-253614563-line-31)">
</text><text class="terminal-253614563-r1" x="1659.2" y="800.8" textLength="12.2" clip-path="url(#terminal-253614563-line-32)">
</text><text class="terminal-253614563-r1" x="1659.2" y="825.2" textLength="12.2" clip-path="url(#terminal-253614563-line-33)">
</text><text class="terminal-253614563-r1" x="1659.2" y="849.6" textLength="12.2" clip-path="url(#terminal-253614563-line-34)">
</text><text class="terminal-253614563-r12" x="24.4" y="874" textLength="48.8" clip-path="url(#terminal-253614563-line-35)">Food</text><text class="terminal-253614563-r12" x="85.4" y="874" textLength="61" clip-path="url(#terminal-253614563-line-35)">█████</text><text class="terminal-253614563-r14" x="158.6" y="874" textLength="36.6" clip-path="url(#terminal-253614563-line-35)">98%</text><text class="terminal-253614563-r15" x="219.6" y="874" textLength="61" clip-path="url(#terminal-253614563-line-35)">Water</text><text class="terminal-253614563-r12" x="292.8" y="874" textLength="61" clip-path="url(#terminal-253614563-line-35)">█████</text><text class="terminal-253614563-r14" x="366" y="874" textLength="36.6" clip-path="url(#terminal-253614563-line-35)">97%</text><text class="terminal-253614563-r16" x="427" y="874" textLength="48.8" clip-path="url(#terminal-253614563-line-35)">Suit</text><text class="terminal-253614563-r12" x="488" y="874" textLength="61" clip-path="url(#terminal-253614563-line-35)">█████</text><text class="terminal-253614563-r14" x="561.2" y="874" textLength="48.8" clip-path="url(#terminal-253614563-line-35)">100%</text><text class="terminal-253614563-r17" x="634.4" y="874" textLength="48.8" clip-path="url(#terminal-253614563-line-35)">Batt</text><text class="terminal-253614563-r12" x="695.4" y="874" textLength="36.6" clip-path="url(#terminal-253614563-line-35)">███</text><text class="terminal-253614563-r14" x="732" y="874" textLength="24.4" clip-path="url(#terminal-253614563-line-35)">░░</text><text class="terminal-253614563-r14" x="768.6" y="874" textLength="36.6" clip-path="url(#terminal-253614563-line-35)">68%</text><text class="terminal-253614563-r18" x="829.6" y="874" textLength="97.6" clip-path="url(#terminal-253614563-line-35)">Ship&#160;0/3</text><text class="terminal-253614563-r14" x="951.6" y="874" textLength="97.6" clip-path="url(#terminal-253614563-line-35)">Inv&#160;3/15</text><text class="terminal-253614563-r14" x="1073.6" y="874" textLength="48.8" clip-path="url(#terminal-253614563-line-35)">⏱&#160;1h</text><text class="terminal-253614563-r14" x="1146.8" y="874" textLength="12.2" clip-path="url(#terminal-253614563-line-35)">│</text><text class="terminal-253614563-r14" x="1183.4" y="874" textLength="122" clip-path="url(#terminal-253614563-line-35)">Following:</text><text class="terminal-253614563-r19" x="1317.6" y="874" textLength="61" clip-path="url(#terminal-253614563-line-35)">Iyren</text><text class="terminal-253614563-r1" x="1659.2" y="874" textLength="12.2" clip-path="url(#terminal-253614563-line-35)">
</text><text class="terminal-253614563-r20" x="12.2" y="898.4" textLength="366" clip-path="url(#terminal-253614563-line-36)">Send&#160;companions&#160;home?&#160;(y/n)&#160;&gt;&#160;</text><text class="terminal-253614563-r21" x="414.8" y="898.4" textLength="12.2" clip-path="url(#terminal-253614563-line-36)">E</text><text class="terminal-253614563-r22" x="427" y="898.4" textLength="183" clip-path="url(#terminal-253614563-line-36)">nter&#160;command...</text><text class="terminal-253614563-r1" x="1659.2" y="898.4" textLength="12.2" clip-path="url(#terminal-253614563-line-36)">
</text><text class="terminal-253614563-r1" x="1659.2" y="922.8" textLength="12.2" clip-path="url(#terminal-253614563-line-37)">
</text>
    </g>
    </g>
</svg>
