<svg class="rich-terminal" viewBox="0 0 994 635.5999999999999" xmlns="http://www.w3.org/2000/svg">
    <!-- Generated with Rich https://www.textualize.io -->
    <style>

    @font-face {
        font-family: "Fira Code";
        src: local("FiraCode-Regular"),
                url("https://cdnjs.cloudflare.com/ajax/libs/firacode/6.2.0/woff2/FiraCode-Regular.woff2") format("woff2"),
                url("https://cdnjs.cloudflare.com/ajax/libs/firacode/6.2.0/woff/FiraCode-Regular.woff") format("woff");
        font-style: normal;
        font-weight: 400;
    }
    @font-face {
        font-family: "Fira Code";
        src: local("FiraCode-Bold"),
                url("https://cdnjs.cloudflare.com/ajax/libs/firacode/6.2.0/woff2/FiraCode-Bold.woff2") format("woff2"),
                url("https://cdnjs.cloudflare.com/ajax/libs/firacode/6.2.0/woff/FiraCode-Bold.woff") format("woff");
        font-style: bold;
        font-weight: 700;
    }

    .terminal-1960506978-matrix {
        font-family: Fira Code, monospace;
        font-size: 20px;
        line-height: 24.4px;
        font-variant-east-asian: full-width;
    }

    .terminal-1960506978-title {
        font-size: 18px;
        font-weight: bold;
        font-family: arial;
    }

    .terminal-1960506978-r1 { fill: #c5c8c6 }
.terminal-1960506978-r2 { fill: #c89450;font-weight: bold }
.terminal-1960506978-r3 { fill: #e0e0e0 }
.terminal-1960506978-r4 { fill: #a40446 }
.terminal-1960506978-r5 { fill: #97989c;font-style: italic; }
.terminal-1960506978-r6 { fill: #f4005f;font-weight: bold }
.terminal-1960506978-r7 { fill: #84867f }
.terminal-1960506978-r8 { fill: #98e024 }
.terminal-1960506978-r9 { fill: #58d1eb;font-weight: bold }
.terminal-1960506978-r10 { fill: #97989c }
.terminal-1960506978-r11 { fill: #2a3050 }
.terminal-1960506978-r12 { fill: #0a0d18 }
.terminal-1960506978-r13 { fill: #008000 }
.terminal-1960506978-r14 { fill: #8890b0 }
.terminal-1960506978-r15 { fill: #5f6680 }
.terminal-1960506978-r16 { fill: #00ffff }
.terminal-1960506978-r17 { fill: #c89450 }
.terminal-1960506978-r18 { fill: #a080d0 }
.terminal-1960506978-r19 { fill: #ff0000 }
.terminal-1960506978-r20 { fill: #5ca8c8;font-weight: bold }
.terminal-1960506978-r21 { fill: #6f717b }
.terminal-1960506978-r22 { fill: #b4bcd4 }
    </style>

    <defs>
    <clipPath id="terminal-1960506978-clip-terminal">
      <rect x="0" y="0" width="975.0" height="584.5999999999999" />
    </clipPath>
    <clipPath id="terminal-1960506978-line-0">
    <rect x="0" y="1.5" width="976" height="24.65"/>
            </clipPath>
<clipPath id="terminal-1960506978-line-1">
    <rect x="0" y="25.9" width="976" height="24.65"/>
            </clipPath>
<clipPath id="terminal-1960506978-line-2">
    <rect x="0" y="50.3" width="976" height="24.65"/>
            </clipPath>
<clipPath id="terminal-1960506978-line-3">
    <rect x="0" y="74.7" width="976" height="24.65"/>
            </clipPath>
<clipPath id="terminal-1960506978-line-4">
    <rect x="0" y="99.1" width="976" height="24.65"/>
            </clipPath>
<clipPath id="terminal-1960506978-line-5">
    <rect x="0" y="123.5" width="976" height="24.65"/>
            </clipPath>
<clipPath id="terminal-1960506978-line-6">
    <rect x="0" y="147.9" width="976" height="24.65"/>
            </clipPath>
<clipPath id="terminal-1960506978-line-7">
    <rect x="0" y="172.3" width="976" height="24.65"/>
            </clipPath>
<clipPath id="terminal-1960506978-line-8">
    <rect x="0" y="196.7" width="976" height="24.65"/>
            </clipPath>
<clipPath id="terminal-1960506978-line-9">
    <rect x="0" y="221.1" width="976" height="24.65"/>
            </clipPath>
<clipPath id="terminal-1960506978-line-10">
    <rect x="0" y="245.5" width="976" height="24.65"/>
            </clipPath>
<clipPath id="terminal-1960506978-line-11">
    <rect x="0" y="269.9" width="976" height="24.65"/>
            </clipPath>
<clipPath id="terminal-1960506978-line-12">
    <rect x="0" y="294.3" width="976" height="24.65"/>
            </clipPath>
<clipPath id="terminal-1960506978-line-13">
    <rect x="0" y="318.7" width="976" height="24.65"/>
            </clipPath>
<clipPath id="terminal-1960506978-line-14">
    <rect x="0" y="343.1" width="976" height="24.65"/>
            </clipPath>
<clipPath id="terminal-1960506978-line-15">
    <rect x="0" y="367.5" width="976" height="24.65"/>
            </clipPath>
<clipPath id="terminal-1960506978-line-16">
    <rect x="0" y="391.9" width="976" height="24.65"/>
            </clipPath>
<clipPath id="terminal-1960506978-line-17">
    <rect x="0" y="416.3" width="976" height="24.65"/>
            </clipPath>
<clipPath id="terminal-1960506978-line-18">
    <rect x="0" y="440.7" width="976" height="24.65"/>
            </clipPath>
<clipPath id="terminal-1960506978-line-19">
    <rect x="0" y="465.1" width="976" height="24.65"/>
            </clipPath>
<clipPath id="terminal-1960506978-line-20">
    <rect x="0" y="489.5" width="976" height="24.65"/>
            </clipPath>
<clipPath id="terminal-1960506978-line-21">
    <rect x="0" y="513.9" width="976" height="24.65"/>
            </clipPath>
<clipPath id="terminal-1960506978-line-22">
    <rect x="0" y="538.3" width="976" height="24.65"/>
            </clipPath>
    </defs>

    <rect fill="#292929" stroke="rgba(255,255,255,0.35)" stroke-width="1" x="1" y="1" width="992" height="633.6" rx="8"/><text class="terminal-1960506978-title" fill="#c5c8c6" text-anchor="middle" x="496" y="27">Moon&#160;Traveler&#160;Terminal</text>
            <g transform="translate(26,22)">
            <circle cx="0" cy="0" r="7" fill="#ff5f57"/>
            <circle cx="22" cy="0" r="7" fill="#febc2e"/>
            <circle cx="44" cy="0" r="7" fill="#28c840"/>
            </g>

    <g transform="translate(9, 41)" clip-path="url(#terminal-1960506978-clip-terminal)">
    <rect fill="#111525" x="0" y="1.5" width="24.4" height="24.65" shape-rendering="crispEdges"/><rect fill="#111525" x="24.4" y="1.5" width="268.4" height="24.65" shape-rendering="crispEdges"/><rect fill="#111525" x="292.8" y="1.5" width="658.8" height="24.65" shape-rendering="crispEdges"/><rect fill="#111525" x="951.6" y="1.5" width="24.4" height="24.65" shape-rendering="crispEdges"/><rect fill="#0a0d18" x="0" y="25.9" width="12.2" height="24.65" shape-rendering="crispEdges"/><rect fill="#0a0d18" x="12.2" y="25.9" width="24.4" height="24.65" shape-rendering="crispEdges"/><rect fill="#0a0d18" x="36.6" y="25.9" width="109.8" height="24.65" shape-rendering="crispEdges"/><rect fill="#0a0d18" x="146.4" y="25.9" width="12.2" height="24.65" shape-rendering="crispEdges"/><rect fill="#0a0d18" x="158.6" y="25.9" width="780.8" height="24.65" shape-rendering="crispEdges"/><rect fill="#111525" x="939.4" y="25.9" width="24.4" height="24.65" shape-rendering="crispEdges"/><rect fill="#0a0d18" x="963.8" y="25.9" width="12.2" height="24.65" shape-rendering="crispEdges"/><rect fill="#0a0d18" x="0" y="50.3" width="12.2" height="24.65" shape-rendering="crispEdges"/><rect fill="#0a0d18" x="12.2" y="50.3" width="219.6" height="24.65" shape-rendering="crispEdges"/><rect fill="#0a0d18" x="231.8" y="50.3" width="707.6" height="24.65" shape-rendering="crispEdges"/><rect fill="#111525" x="939.4" y="50.3" width="24.4" height="24.65" shape-rendering="crispEdges"/><rect fill="#0a0d18" x="963.8" y="50.3" width="12.2" height="24.65" shape-rendering="crispEdges"/><rect fill="#0a0d18" x="0" y="74.7" width="12.2" height="24.65" shape-rendering="crispEdges"/><rect fill="#0a0d18" x="12.2" y="74.7" width="927.2" height="24.65" shape-rendering="crispEdges"/><rect fill="#111525" x="939.4" y="74.7" width="24.4" height="24.65" shape-rendering="crispEdges"/><rect fill="#0a0d18" x="963.8" y="74.7" width="12.2" height="24.65" shape-rendering="crispEdges"/><rect fill="#0a0d18" x="0" y="99.1" width="12.2" height="24.65" shape-rendering="crispEdges"/><rect fill="#0a0d18" x="12.2" y="99.1" width="73.2" height="24.65" shape-rendering="crispEdges"/><rect fill="#0a0d18" x="85.4" y="99.1" width="12.2" height="24.65" shape-rendering="crispEdges"/><rect fill="#0a0d18" x="97.6" y="99.1" width="451.4" height="24.65" shape-rendering="crispEdges"/><rect fill="#0a0d18" x="549" y="99.1" width="390.4" height="24.65" shape-rendering="crispEdges"/><rect fill="#111525" x="939.4" y="99.1" width="24.4" height="24.65" shape-rendering="crispEdges"/><rect fill="#0a0d18" x="963.8" y="99.1" width="12.2" height="24.65" shape-rendering="crispEdges"/><rect fill="#0a0d18" x="0" y="123.5" width="12.2" height="24.65" shape-rendering="crispEdges"/><rect fill="#0a0d18" x="12.2" y="123.5" width="24.4" height="24.65" shape-rendering="crispEdges"/><rect fill="#0a0d18" x="36.6" y="123.5" width="85.4" height="24.65" shape-rendering="crispEdges"/><rect fill="#0a0d18" x="122" y="123.5" width="805.2" height="24.65" shape-rendering="crispEdges"/><rect fill="#0a0d18" x="927.2" y="123.5" width="12.2" height="24.65" shape-rendering="crispEdges"/><rect fill="#111525" x="939.4" y="123.5" width="24.4" height="24.65" shape-rendering="crispEdges"/><rect fill="#0a0d18" x="963.8" y="123.5" width="12.2" height="24.65" shape-rendering="crispEdges"/><rect fill="#0a0d18" x="0" y="147.9" width="12.2" height="24.65" shape-rendering="crispEdges"/><rect fill="#0a0d18" x="12.2" y="147.9" width="915" height="24.65" shape-rendering="crispEdges"/><rect fill="#0a0d18" x="927.2" y="147.9" width="12.2" height="24.65" shape-rendering="crispEdges"/><rect fill="#111525" x="939.4" y="147.9" width="24.4" height="24.65" shape-rendering="crispEdges"/><rect fill="#0a0d18" x="963.8" y="147.9" width="12.2" height="24.65" shape-rendering="crispEdges"/><rect fill="#0a0d18" x="0" y="172.3" width="12.2" height="24.65" shape-rendering="crispEdges"/><rect fill="#0a0d18" x="12.2" y="172.3" width="927.2" height="24.65" shape-rendering="crispEdges"/><rect fill="#111525" x="939.4" y="172.3" width="24.4" height="24.65" shape-rendering="crispEdges"/><rect fill="#0a0d18" x="963.8" y="172.3" width="12.2" height="24.65" shape-rendering="crispEdges"/><rect fill="#0a0d18" x="0" y="196.7" width="12.2" height="24.65" shape-rendering="crispEdges"/><rect fill="#0a0d18" x="12.2" y="196.7" width="585.6" height="24.65" shape-rendering="crispEdges"/><rect fill="#0a0d18" x="597.8" y="196.7" width="341.6" height="24.65" shape-rendering="crispEdges"/><rect fill="#111525" x="939.4" y="196.7" width="24.4" height="24.65" shape-rendering="crispEdges"/><rect fill="#0a0d18" x="963.8" y="196.7" width="12.2" height="24.65" shape-rendering="crispEdges"/><rect fill="#0a0d18" x="0" y="221.1" width="12.2" height="24.65" shape-rendering="crispEdges"/><rect fill="#0a0d18" x="12.2" y="221.1" width="378.2" height="24.65" shape-rendering="crispEdges"/><rect fill="#0a0d18" x="390.4" y="221.1" width="549" height="24.65" shape-rendering="crispEdges"/><rect fill="#111525" x="939.4" y="221.1" width="24.4" height="24.65" shape-rendering="crispEdges"/><rect fill="#0a0d18" x="963.8" y="221.1" width="12.2" height="24.65" shape-rendering="crispEdges"/><rect fill="#0a0d18" x="0" y="245.5" width="12.2" height="24.65" shape-rendering="crispEdges"/><rect fill="#0a0d18" x="12.2" y="245.5" width="366" height="24.65" shape-rendering="crispEdges"/><rect fill="#0a0d18" x="378.2" y="245.5" width="561.2" height="24.65" shape-rendering="crispEdges"/><rect fill="#111525" x="939.4" y="245.5" width="24.4" height="24.65" shape-rendering="crispEdges"/><rect fill="#0a0d18" x="963.8" y="245.5" width="12.2" height="24.65" shape-rendering="crispEdges"/><rect fill="#0a0d18" x="0" y="269.9" width="12.2" height="24.65" shape-rendering="crispEdges"/><rect fill="#0a0d18" x="12.2" y="269.9" width="24.4" height="24.65" shape-rendering="crispEdges"/><rect fill="#0a0d18" x="36.6" y="269.9" width="109.8" height="24.65" shape-rendering="crispEdges"/><rect fill="#0a0d18" x="146.4" y="269.9" width="12.2" height="24.65" shape-rendering="crispEdges"/><rect fill="#0a0d18" x="158.6" y="269.9" width="707.6" height="24.65" shape-rendering="crispEdges"/><rect fill="#0a0d18" x="866.2" y="269.9" width="73.2" height="24.65" shape-rendering="crispEdges"/><rect fill="#111525" x="939.4" y="269.9" width="24.4" height="24.65" shape-rendering="crispEdges"/><rect fill="#0a0d18" x="963.8" y="269.9" width="12.2" height="24.65" shape-rendering="crispEdges"/><rect fill="#0a0d18" x="0" y="294.3" width="12.2" height="24.65" shape-rendering="crispEdges"/><rect fill="#0a0d18" x="12.2" y="294.3" width="390.4" height="24.65" shape-rendering="crispEdges"/><rect fill="#0a0d18" x="402.6" y="294.3" width="536.8" height="24.65" shape-rendering="crispEdges"/><rect fill="#111525" x="939.4" y="294.3" width="24.4" height="24.65" shape-rendering="crispEdges"/><rect fill="#0a0d18" x="963.8" y="294.3" width="12.2" height="24.65" shape-rendering="crispEdges"/><rect fill="#0a0d18" x="0" y="318.7" width="12.2" height="24.65" shape-rendering="crispEdges"/><rect fill="#0a0d18" x="12.2" y="318.7" width="927.2" height="24.65" shape-rendering="crispEdges"/><rect fill="#2a3050" x="939.4" y="318.7" width="24.4" height="24.65" shape-rendering="crispEdges"/><rect fill="#0a0d18" x="963.8" y="318.7" width="12.2" height="24.65" shape-rendering="crispEdges"/><rect fill="#0a0d18" x="0" y="343.1" width="12.2" height="24.65" shape-rendering="crispEdges"/><rect fill="#0a0d18" x="12.2" y="343.1" width="24.4" height="24.65" shape-rendering="crispEdges"/><rect fill="#0a0d18" x="36.6" y="343.1" width="85.4" height="24.65" shape-rendering="crispEdges"/><rect fill="#0a0d18" x="122" y="343.1" width="817.4" height="24.65" shape-rendering="crispEdges"/><rect fill="#2a3050" x="939.4" y="343.1" width="24.4" height="24.65" shape-rendering="crispEdges"/><rect fill="#0a0d18" x="963.8" y="343.1" width="12.2" height="24.65" shape-rendering="crispEdges"/><rect fill="#0a0d18" x="0" y="367.5" width="12.2" height="24.65" shape-rendering="crispEdges"/><rect fill="#0a0d18" x="12.2" y="367.5" width="927.2" height="24.65" shape-rendering="crispEdges"/><rect fill="#2a3050" x="939.4" y="367.5" width="24.4" height="24.65" shape-rendering="crispEdges"/><rect fill="#0a0d18" x="963.8" y="367.5" width="12.2" height="24.65" shape-rendering="crispEdges"/><rect fill="#0a0d18" x="0" y="391.9" width="12.2" height="24.65" shape-rendering="crispEdges"/><rect fill="#0a0d18" x="12.2" y="391.9" width="317.2" height="24.65" shape-rendering="crispEdges"/><rect fill="#0a0d18" x="329.4" y="391.9" width="610" height="24.65" shape-rendering="crispEdges"/><rect fill="#2a3050" x="939.4" y="391.9" width="24.4" height="24.65" shape-rendering="crispEdges"/><rect fill="#0a0d18" x="963.8" y="391.9" width="12.2" height="24.65" shape-rendering="crispEdges"/><rect fill="#0a0d18" x="0" y="416.3" width="12.2" height="24.65" shape-rendering="crispEdges"/><rect fill="#0a0d18" x="12.2" y="416.3" width="366" height="24.65" shape-rendering="crispEdges"/><rect fill="#0a0d18" x="378.2" y="416.3" width="561.2" height="24.65" shape-rendering="crispEdges"/><rect fill="#2a3050" x="939.4" y="416.3" width="24.4" height="24.65" shape-rendering="crispEdges"/><rect fill="#0a0d18" x="963.8" y="416.3" width="12.2" height="24.65" shape-rendering="crispEdges"/><rect fill="#0a0d18" x="0" y="440.7" width="12.2" height="24.65" shape-rendering="crispEdges"/><rect fill="#0a0d18" x="12.2" y="440.7" width="927.2" height="24.65" shape-rendering="crispEdges"/><rect fill="#2a3050" x="939.4" y="440.7" width="24.4" height="24.65" shape-rendering="crispEdges"/><rect fill="#0a0d18" x="963.8" y="440.7" width="12.2" height="24.65" shape-rendering="crispEdges"/><rect fill="#0a0d18" x="0" y="465.1" width="12.2" height="24.65" shape-rendering="crispEdges"/><rect fill="#2a3050" x="12.2" y="465.1" width="12.2" height="24.65" shape-rendering="crispEdges"/><rect fill="#2a3050" x="24.4" y="465.1" width="12.2" height="24.65" shape-rendering="crispEdges"/><rect fill="#2a3050" x="36.6" y="465.1" width="12.2" height="24.65" shape-rendering="crispEdges"/><rect fill="#2a3050" x="48.8" y="465.1" width="12.2" height="24.65" shape-rendering="crispEdges"/><rect fill="#2a3050" x="61" y="465.1" width="12.2" height="24.65" shape-rendering="crispEdges"/><rect fill="#2a3050" x="73.2" y="465.1" width="12.2" height="24.65" shape-rendering="crispEdges"/><rect fill="#2a3050" x="85.4" y="465.1" width="12.2" height="24.65" shape-rendering="crispEdges"/><rect fill="#2a3050" x="97.6" y="465.1" width="12.2" height="24.65" shape-rendering="crispEdges"/><rect fill="#2a3050" x="109.8" y="465.1" width="12.2" height="24.65" shape-rendering="crispEdges"/><rect fill="#2a3050" x="122" y="465.1" width="12.2" height="24.65" shape-rendering="crispEdges"/><rect fill="#2a3050" x="134.2" y="465.1" width="12.2" height="24.65" shape-rendering="crispEdges"/><rect fill="#2a3050" x="146.4" y="465.1" width="12.2" height="24.65" shape-rendering="crispEdges"/><rect fill="#2a3050" x="158.6" y="465.1" width="12.2" height="24.65" shape-rendering="crispEdges"/><rect fill="#2a3050" x="170.8" y="465.1" width="12.2" height="24.65" shape-rendering="crispEdges"/><rect fill="#2a3050" x="183" y="465.1" width="12.2" height="24.65" shape-rendering="crispEdges"/><rect fill="#2a3050" x="195.2" y="465.1" width="12.2" height="24.65" shape-rendering="crispEdges"/><rect fill="#2a3050" x="207.4" y="465.1" width="12.2" height="24.65" shape-rendering="crispEdges"/><rect fill="#2a3050" x="219.6" y="465.1" width="12.2" height="24.65" shape-rendering="crispEdges"/><rect fill="#2a3050" x="231.8" y="465.1" width="12.2" height="24.65" shape-rendering="crispEdges"/><rect fill="#2a3050" x="244" y="465.1" width="12.2" height="24.65" shape-rendering="crispEdges"/><rect fill="#2a3050" x="256.2" y="465.1" width="12.2" height="24.65" shape-rendering="crispEdges"/><rect fill="#2a3050" x="268.4" y="465.1" width="12.2" height="24.65" shape-rendering="crispEdges"/><rect fill="#2a3050" x="280.6" y="465.1" width="12.2" height="24.65" shape-rendering="crispEdges"/><rect fill="#2a3050" x="292.8" y="465.1" width="12.2" height="24.65" shape-rendering="crispEdges"/><rect fill="#2a3050" x="305" y="465.1" width="12.2" height="24.65" shape-rendering="crispEdges"/><rect fill="#2a3050" x="317.2" y="465.1" width="12.2" height="24.65" shape-rendering="crispEdges"/><rect fill="#2a3050" x="329.4" y="465.1" width="12.2" height="24.65" shape-rendering="crispEdges"/><rect fill="#2a3050" x="341.6" y="465.1" width="12.2" height="24.65" shape-rendering="crispEdges"/><rect fill="#2a3050" x="353.8" y="465.1" width="12.2" height="24.65" shape-rendering="crispEdges"/><rect fill="#2a3050" x="366" y="465.1" width="12.2" height="24.65" shape-rendering="crispEdges"/><rect fill="#2a3050" x="378.2" y="465.1" width="12.2" height="24.65" shape-rendering="crispEdges"/><rect fill="#2a3050" x="390.4" y="465.1" width="12.2" height="24.65" shape-rendering="crispEdges"/><rect fill="#2a3050" x="402.6" y="465.1" width="12.2" height="24.65" shape-rendering="crispEdges"/><rect fill="#2a3050" x="414.8" y="465.1" width="12.2" height="24.65" shape-rendering="crispEdges"/><rect fill="#2a3050" x="427" y="465.1" width="12.2" height="24.65" shape-rendering="crispEdges"/><rect fill="#2a3050" x="439.2" y="465.1" width="12.2" height="24.65" shape-rendering="crispEdges"/><rect fill="#2a3050" x="451.4" y="465.1" width="12.2" height="24.65" shape-rendering="crispEdges"/><rect fill="#2a3050" x="463.6" y="465.1" width="12.2" height="24.65" shape-rendering="crispEdges"/><rect fill="#2a3050" x="475.8" y="465.1" width="12.2" height="24.65" shape-rendering="crispEdges"/><rect fill="#2a3050" x="488" y="465.1" width="12.2" height="24.65" shape-rendering="crispEdges"/><rect fill="#2a3050" x="500.2" y="465.1" width="12.2" height="24.65" shape-rendering="crispEdges"/><rect fill="#2a3050" x="512.4" y="465.1" width="12.2" height="24.65" shape-rendering="crispEdges"/><rect fill="#2a3050" x="524.6" y="465.1" width="12.2" height="24.65" shape-rendering="crispEdges"/><rect fill="#2a3050" x="536.8" y="465.1" width="12.2" height="24.65" shape-rendering="crispEdges"/><rect fill="#2a3050" x="549" y="465.1" width="12.2" height="24.65" shape-rendering="crispEdges"/><rect fill="#2a3050" x="561.2" y="465.1" width="12.2" height="24.65" shape-rendering="crispEdges"/><rect fill="#2a3050" x="573.4" y="465.1" width="12.2" height="24.65" shape-rendering="crispEdges"/><rect fill="#2a3050" x="585.6" y="465.1" width="12.2" height="24.65" shape-rendering="crispEdges"/><rect fill="#2a3050" x="597.8" y="465.1" width="12.2" height="24.65" shape-rendering="crispEdges"/><rect fill="#2a3050" x="610" y="465.1" width="12.2" height="24.65" shape-rendering="crispEdges"/><rect fill="#2a3050" x="622.2" y="465.1" width="12.2" height="24.65" shape-rendering="crispEdges"/><rect fill="#2a3050" x="634.4" y="465.1" width="12.2" height="24.65" shape-rendering="crispEdges"/><rect fill="#2a3050" x="646.6" y="465.1" width="12.2" height="24.65" shape-rendering="crispEdges"/><rect fill="#2a3050" x="658.8" y="465.1" width="12.2" height="24.65" shape-rendering="crispEdges"/><rect fill="#2a3050" x="671" y="465.1" width="12.2" height="24.65" shape-rendering="crispEdges"/><rect fill="#2a3050" x="683.2" y="465.1" width="12.2" height="24.65" shape-rendering="crispEdges"/><rect fill="#2a3050" x="695.4" y="465.1" width="12.2" height="24.65" shape-rendering="crispEdges"/><rect fill="#2a3050" x="707.6" y="465.1" width="12.2" height="24.65" shape-rendering="crispEdges"/><rect fill="#2a3050" x="719.8" y="465.1" width="12.2" height="24.65" shape-rendering="crispEdges"/><rect fill="#2a3050" x="732" y="465.1" width="12.2" height="24.65" shape-rendering="crispEdges"/><rect fill="#2a3050" x="744.2" y="465.1" width="12.2" height="24.65" shape-rendering="crispEdges"/><rect fill="#2a3050" x="756.4" y="465.1" width="12.2" height="24.65" shape-rendering="crispEdges"/><rect fill="#2a3050" x="768.6" y="465.1" width="12.2" height="24.65" shape-rendering="crispEdges"/><rect fill="#2a3050" x="780.8" y="465.1" width="12.2" height="24.65" shape-rendering="crispEdges"/><rect fill="#2a3050" x="793" y="465.1" width="12.2" height="24.65" shape-rendering="crispEdges"/><rect fill="#2a3050" x="805.2" y="465.1" width="12.2" height="24.65" shape-rendering="crispEdges"/><rect fill="#2a3050" x="817.4" y="465.1" width="12.2" height="24.65" shape-rendering="crispEdges"/><rect fill="#2a3050" x="829.6" y="465.1" width="12.2" height="24.65" shape-rendering="crispEdges"/><rect fill="#2a3050" x="841.8" y="465.1" width="12.2" height="24.65" shape-rendering="crispEdges"/><rect fill="#2a3050" x="854" y="465.1" width="12.2" height="24.65" shape-rendering="crispEdges"/><rect fill="#2a3050" x="866.2" y="465.1" width="12.2" height="24.65" shape-rendering="crispEdges"/><rect fill="#2a3050" x="878.4" y="465.1" width="12.2" height="24.65" shape-rendering="crispEdges"/><rect fill="#2a3050" x="890.6" y="465.1" width="12.2" height="24.65" shape-rendering="crispEdges"/><rect fill="#2a3050" x="902.8" y="465.1" width="12.2" height="24.65" shape-rendering="crispEdges"/><rect fill="#111525" x="915" y="465.1" width="12.2" height="24.65" shape-rendering="crispEdges"/><rect fill="#111525" x="927.2" y="465.1" width="12.2" height="24.65" shape-rendering="crispEdges"/><rect fill="#000000" x="939.4" y="465.1" width="24.4" height="24.65" shape-rendering="crispEdges"/><rect fill="#0a0d18" x="963.8" y="465.1" width="12.2" height="24.65" shape-rendering="crispEdges"/><rect fill="#111525" x="0" y="489.5" width="24.4" height="24.65" shape-rendering="crispEdges"/><rect fill="#111525" x="24.4" y="489.5" width="48.8" height="24.65" shape-rendering="crispEdges"/><rect fill="#111525" x="73.2" y="489.5" width="12.2" height="24.65" shape-rendering="crispEdges"/><rect fill="#111525" x="85.4" y="489.5" width="61" height="24.65" shape-rendering="crispEdges"/><rect fill="#111525" x="146.4" y="489.5" width="12.2" height="24.65" shape-rendering="crispEdges"/><rect fill="#111525" x="158.6" y="489.5" width="36.6" height="24.65" shape-rendering="crispEdges"/><rect fill="#111525" x="195.2" y="489.5" width="24.4" height="24.65" shape-rendering="crispEdges"/><rect fill="#111525" x="219.6" y="489.5" width="61" height="24.65" shape-rendering="crispEdges"/><rect fill="#111525" x="280.6" y="489.5" width="12.2" height="24.65" shape-rendering="crispEdges"/><rect fill="#111525" x="292.8" y="489.5" width="61" height="24.65" shape-rendering="crispEdges"/><rect fill="#111525" x="353.8" y="489.5" width="12.2" height="24.65" shape-rendering="crispEdges"/><rect fill="#111525" x="366" y="489.5" width="36.6" height="24.65" shape-rendering="crispEdges"/><rect fill="#111525" x="402.6" y="489.5" width="24.4" height="24.65" shape-rendering="crispEdges"/><rect fill="#111525" x="427" y="489.5" width="48.8" height="24.65" shape-rendering="crispEdges"/><rect fill="#111525" x="475.8" y="489.5" width="12.2" height="24.65" shape-rendering="crispEdges"/><rect fill="#111525" x="488" y="489.5" width="61" height="24.65" shape-rendering="crispEdges"/><rect fill="#111525" x="549" y="489.5" width="12.2" height="24.65" shape-rendering="crispEdges"/><rect fill="#111525" x="561.2" y="489.5" width="48.8" height="24.65" shape-rendering="crispEdges"/><rect fill="#111525" x="610" y="489.5" width="24.4" height="24.65" shape-rendering="crispEdges"/><rect fill="#111525" x="634.4" y="489.5" width="48.8" height="24.65" shape-rendering="crispEdges"/><rect fill="#111525" x="683.2" y="489.5" width="12.2" height="24.65" shape-rendering="crispEdges"/><rect fill="#111525" x="695.4" y="489.5" width="36.6" height="24.65" shape-rendering="crispEdges"/><rect fill="#111525" x="732" y="489.5" width="24.4" height="24.65" shape-rendering="crispEdges"/><rect fill="#111525" x="756.4" y="489.5" width="12.2" height="24.65" shape-rendering="crispEdges"/><rect fill="#111525" x="768.6" y="489.5" width="36.6" height="24.65" shape-rendering="crispEdges"/><rect fill="#111525" x="805.2" y="489.5" width="24.4" height="24.65" shape-rendering="crispEdges"/><rect fill="#111525" x="829.6" y="489.5" width="97.6" height="24.65" shape-rendering="crispEdges"/><rect fill="#111525" x="927.2" y="489.5" width="24.4" height="24.65" shape-rendering="crispEdges"/><rect fill="#111525" x="951.6" y="489.5" width="24.4" height="24.65" shape-rendering="crispEdges"/><rect fill="#0e1122" x="0" y="513.9" width="12.2" height="24.65" shape-rendering="crispEdges"/><rect fill="#0e1122" x="12.2" y="513.9" width="61" height="24.65" shape-rendering="crispEdges"/><rect fill="#0e1122" x="73.2" y="513.9" width="12.2" height="24.65" shape-rendering="crispEdges"/><rect fill="#181b2b" x="85.4" y="513.9" width="24.4" height="24.65" shape-rendering="crispEdges"/><rect fill="#181b2b" x="109.8" y="513.9" width="195.2" height="24.65" shape-rendering="crispEdges"/><rect fill="#181b2b" x="305" y="513.9" width="634.4" height="24.65" shape-rendering="crispEdges"/><rect fill="#181b2b" x="939.4" y="513.9" width="24.4" height="24.65" shape-rendering="crispEdges"/><rect fill="#0e1122" x="963.8" y="513.9" width="12.2" height="24.65" shape-rendering="crispEdges"/><rect fill="#0e1122" x="0" y="538.3" width="12.2" height="24.65" shape-rendering="crispEdges"/><rect fill="#0e1122" x="12.2" y="538.3" width="73.2" height="24.65" shape-rendering="crispEdges"/><rect fill="#181b2b" x="85.4" y="538.3" width="24.4" height="24.65" shape-rendering="crispEdges"/><rect fill="#181b2b" x="109.8" y="538.3" width="829.6" height="24.65" shape-rendering="crispEdges"/><rect fill="#181b2b" x="939.4" y="538.3" width="24.4" height="24.65" shape-rendering="crispEdges"/><rect fill="#0e1122" x="963.8" y="538.3" width="12.2" height="24.65" shape-rendering="crispEdges"/><rect fill="#0e1122" x="0" y="562.7" width="12.2" height="24.65" shape-rendering="crispEdges"/><rect fill="#0e1122" x="12.2" y="562.7" width="73.2" height="24.65" shape-rendering="crispEdges"/><rect fill="#181b2b" x="85.4" y="562.7" width="24.4" height="24.65" shape-rendering="crispEdges"/><rect fill="#181b2b" x="109.8" y="562.7" width="829.6" height="24.65" shape-rendering="crispEdges"/><rect fill="#181b2b" x="939.4" y="562.7" width="24.4" height="24.65" shape-rendering="crispEdges"/><rect fill="#0e1122" x="963.8" y="562.7" width="12.2" height="24.65" shape-rendering="crispEdges"/>
    <g class="terminal-1960506978-matrix">
    <text class="terminal-1960506978-r2" x="24.4" y="20" textLength="268.4" clip-path="url(#terminal-1960506978-line-0)">Moon&#160;Traveler&#160;Terminal</text><text class="terminal-1960506978-r1" x="976" y="20" textLength="12.2" clip-path="url(#terminal-1960506978-line-0)">
</text><text class="terminal-1960506978-r4" x="36.6" y="44.4" textLength="109.8" clip-path="url(#terminal-1960506978-line-1)">&lt;&#160;DRONE&#160;&gt;</text><text class="terminal-1960506978-r5" x="158.6" y="44.4" textLength="780.8" clip-path="url(#terminal-1960506978-line-1)">Ask&#160;Lissel&#160;directly&#160;what&#160;materials&#160;she&#160;can&#160;provide&#160;for&#160;the&#160;next&#160;</text><text class="terminal-1960506978-r1" x="976" y="44.4" textLength="12.2" clip-path="url(#terminal-1960506978-line-1)">
</text><text class="terminal-1960506978-r5" x="12.2" y="68.8" textLength="219.6" clip-path="url(#terminal-1960506978-line-2)">stage&#160;of&#160;the&#160;plan.</text><text class="terminal-1960506978-r1" x="976" y="68.8" textLength="12.2" clip-path="url(#terminal-1960506978-line-2)">
</text><text class="terminal-1960506978-r1" x="976" y="93.2" textLength="12.2" clip-path="url(#terminal-1960506978-line-3)">
</text><text class="terminal-1960506978-r6" x="12.2" y="117.6" textLength="73.2" clip-path="url(#terminal-1960506978-line-4)">DRONE:</text><text class="terminal-1960506978-r7" x="97.6" y="117.6" textLength="451.4" clip-path="url(#terminal-1960506978-line-4)">Translation&#160;mostly&#160;clear.&#160;A&#160;few&#160;gaps.</text><text class="terminal-1960506978-r1" x="976" y="117.6" textLength="12.2" clip-path="url(#terminal-1960506978-line-4)">
</text><text class="terminal-1960506978-r8" x="36.6" y="142" textLength="85.4" clip-path="url(#terminal-1960506978-line-5)">Lissel:</text><text class="terminal-1960506978-r3" x="122" y="142" textLength="805.2" clip-path="url(#terminal-1960506978-line-5)">&#160;You&#160;stand&#160;in&#160;the&#160;shadow&#160;of&#160;a&#160;jagged&#160;spire,&#160;the&#160;faint,&#160;unsettling&#160;</text><text class="terminal-1960506978-r1" x="976" y="142" textLength="12.2" clip-path="url(#terminal-1960506978-line-5)">
</text><text class="terminal-1960506978-r3" x="12.2" y="166.4" textLength="915" clip-path="url(#terminal-1960506978-line-6)">glow&#160;of&#160;the&#160;geysers&#160;casting&#160;strange&#160;shadows&#160;across&#160;the&#160;ice.&#160;I&#160;look&#160;at&#160;your&#160;</text><text class="terminal-1960506978-r1" x="976" y="166.4" textLength="12.2" clip-path="url(#terminal-1960506978-line-6)">
</text><text class="terminal-1960506978-r3" x="12.2" y="190.8" textLength="927.2" clip-path="url(#terminal-1960506978-line-7)">drone&#160;with&#160;quiet&#160;curiosity,&#160;not&#160;fear.&#160;Tell&#160;me,&#160;where&#160;does&#160;your&#160;ship&#160;come&#160;fro</text><text class="terminal-1960506978-r1" x="976" y="190.8" textLength="12.2" clip-path="url(#terminal-1960506978-line-7)">
</text><text class="terminal-1960506978-r3" x="12.2" y="215.2" textLength="585.6" clip-path="url(#terminal-1960506978-line-8)">and&#160;what&#160;troubles&#160;have&#160;brought&#160;you&#160;to&#160;Enceladus?</text><text class="terminal-1960506978-r1" x="976" y="215.2" textLength="12.2" clip-path="url(#terminal-1960506978-line-8)">
</text><text class="terminal-1960506978-r9" x="12.2" y="239.6" textLength="378.2" clip-path="url(#terminal-1960506978-line-9)">Lissel&#160;gave&#160;you:&#160;Thermal&#160;Paste!</text><text class="terminal-1960506978-r1" x="976" y="239.6" textLength="12.2" clip-path="url(#terminal-1960506978-line-9)">
</text><text class="terminal-1960506978-r10" x="12.2" y="264" textLength="366" clip-path="url(#terminal-1960506978-line-10)">+5&#160;trust&#160;(100/100&#160;—&#160;max&#160;trust)</text><text class="terminal-1960506978-r1" x="976" y="264" textLength="12.2" clip-path="url(#terminal-1960506978-line-10)">
</text><text class="terminal-1960506978-r4" x="36.6" y="288.4" textLength="109.8" clip-path="url(#terminal-1960506978-line-11)">&lt;&#160;DRONE&#160;&gt;</text><text class="terminal-1960506978-r5" x="158.6" y="288.4" textLength="707.6" clip-path="url(#terminal-1960506978-line-11)">Ask&#160;Lissel&#160;to&#160;describe&#160;the&#160;local&#160;flora&#160;or&#160;fauna&#160;to&#160;assess&#160;</text><text class="terminal-1960506978-r1" x="976" y="288.4" textLength="12.2" clip-path="url(#terminal-1960506978-line-11)">
</text><text class="terminal-1960506978-r5" x="12.2" y="312.8" textLength="390.4" clip-path="url(#terminal-1960506978-line-12)">immediate&#160;environmental&#160;threats.</text><text class="terminal-1960506978-r11" x="939.4" y="312.8" textLength="24.4" clip-path="url(#terminal-1960506978-line-12)">▃▃</text><text class="terminal-1960506978-r1" x="976" y="312.8" textLength="12.2" clip-path="url(#terminal-1960506978-line-12)">
</text><text class="terminal-1960506978-r1" x="976" y="337.2" textLength="12.2" clip-path="url(#terminal-1960506978-line-13)">
</text><text class="terminal-1960506978-r8" x="36.6" y="361.6" textLength="85.4" clip-path="url(#terminal-1960506978-line-14)">Lissel:</text><text class="terminal-1960506978-r3" x="122" y="361.6" textLength="817.4" clip-path="url(#terminal-1960506978-line-14)">&#160;My&#160;solitude&#160;is&#160;deep,&#160;and&#160;I&#160;rarely&#160;venture&#160;from&#160;my&#160;caves,&#160;but&#160;I&#160;see</text><text class="terminal-1960506978-r1" x="976" y="361.6" textLength="12.2" clip-path="url(#terminal-1960506978-line-14)">
</text><text class="terminal-1960506978-r3" x="12.2" y="386" textLength="927.2" clip-path="url(#terminal-1960506978-line-15)">the&#160;distress&#160;in&#160;your&#160;bearing.&#160;If&#160;your&#160;troubles&#160;align&#160;with&#160;what&#160;I&#160;know,&#160;perha</text><text class="terminal-1960506978-r1" x="976" y="386" textLength="12.2" clip-path="url(#terminal-1960506978-line-15)">
</text><text class="terminal-1960506978-r3" x="12.2" y="410.4" textLength="317.2" clip-path="url(#terminal-1960506978-line-16)">I&#160;can&#160;offer&#160;some&#160;guidance.</text><text class="terminal-1960506978-r1" x="976" y="410.4" textLength="12.2" clip-path="url(#terminal-1960506978-line-16)">
</text><text class="terminal-1960506978-r10" x="12.2" y="434.8" textLength="366" clip-path="url(#terminal-1960506978-line-17)">+5&#160;trust&#160;(100/100&#160;—&#160;max&#160;trust)</text><text class="terminal-1960506978-r1" x="976" y="434.8" textLength="12.2" clip-path="url(#terminal-1960506978-line-17)">
</text><text class="terminal-1960506978-r1" x="976" y="459.2" textLength="12.2" clip-path="url(#terminal-1960506978-line-18)">
</text><text class="terminal-1960506978-r11" x="915" y="483.6" textLength="12.2" clip-path="url(#terminal-1960506978-line-19)">▏</text><text class="terminal-1960506978-r1" x="976" y="483.6" textLength="12.2" clip-path="url(#terminal-1960506978-line-19)">
</text><text class="terminal-1960506978-r13" x="24.4" y="508" textLength="48.8" clip-path="url(#terminal-1960506978-line-20)">Food</text><text class="terminal-1960506978-r13" x="85.4" y="508" textLength="61" clip-path="url(#terminal-1960506978-line-20)">█████</text><text class="terminal-1960506978-r15" x="158.6" y="508" textLength="36.6" clip-path="url(#terminal-1960506978-line-20)">98%</text><text class="terminal-1960506978-r16" x="219.6" y="508" textLength="61" clip-path="url(#terminal-1960506978-line-20)">Water</text><text class="terminal-1960506978-r13" x="292.8" y="508" textLength="61" clip-path="url(#terminal-1960506978-line-20)">█████</text><text class="terminal-1960506978-r15" x="366" y="508" textLength="36.6" clip-path="url(#terminal-1960506978-line-20)">97%</text><text class="terminal-1960506978-r17" x="427" y="508" textLength="48.8" clip-path="url(#terminal-1960506978-line-20)">Suit</text><text class="terminal-1960506978-r13" x="488" y="508" textLength="61" clip-path="url(#terminal-1960506978-line-20)">█████</text><text class="terminal-1960506978-r15" x="561.2" y="508" textLength="48.8" clip-path="url(#terminal-1960506978-line-20)">100%</text><text class="terminal-1960506978-r18" x="634.4" y="508" textLength="48.8" clip-path="url(#terminal-1960506978-line-20)">Batt</text><text class="terminal-1960506978-r13" x="695.4" y="508" textLength="36.6" clip-path="url(#terminal-1960506978-line-20)">███</text><text class="terminal-1960506978-r15" x="732" y="508" textLength="24.4" clip-path="url(#terminal-1960506978-line-20)">░░</text><text class="terminal-1960506978-r15" x="768.6" y="508" textLength="36.6" clip-path="url(#terminal-1960506978-line-20)">70%</text><text class="terminal-1960506978-r19" x="829.6" y="508" textLength="97.6" clip-path="url(#terminal-1960506978-line-20)">Ship&#160;0/3</text><text class="terminal-1960506978-r1" x="976" y="508" textLength="12.2" clip-path="url(#terminal-1960506978-line-20)">
</text><text class="terminal-1960506978-r20" x="12.2" y="532.4" textLength="61" clip-path="url(#terminal-1960506978-line-21)">You&gt;&#160;</text><text class="terminal-1960506978-r21" x="109.8" y="532.4" textLength="195.2" clip-path="url(#terminal-1960506978-line-21)">Enter&#160;command...</text><text class="terminal-1960506978-r1" x="976" y="532.4" textLength="12.2" clip-path="url(#terminal-1960506978-line-21)">
</text><text class="terminal-1960506978-r1" x="976" y="556.8" textLength="12.2" clip-path="url(#terminal-1960506978-line-22)">
</text>
    </g>
    </g>
</svg>
