<svg class="rich-terminal" viewBox="0 0 1299 806.4" xmlns="http://www.w3.org/2000/svg">
    <!-- Generated with Rich https://www.textualize.io -->
    <style>

    @font-face {
        font-family: "Fira Code";
        src: local("FiraCode-Regular"),
                url("https://cdnjs.cloudflare.com/ajax/libs/firacode/6.2.0/woff2/FiraCode-Regular.woff2") format("woff2"),
                url("https://cdnjs.cloudflare.com/ajax/libs/firacode/6.2.0/woff/FiraCode-Regular.woff") format("woff");
        font-style: normal;
        font-weight: 400;
    }
    @font-face {
        font-family: "Fira Code";
        src: local("FiraCode-Bold"),
                url("https://cdnjs.cloudflare.com/ajax/libs/firacode/6.2.0/woff2/FiraCode-Bold.woff2") format("woff2"),
                url("https://cdnjs.cloudflare.com/ajax/libs/firacode/6.2.0/woff/FiraCode-Bold.woff") format("woff");
        font-style: bold;
        font-weight: 700;
    }

    .terminal-2463393187-matrix {
        font-family: Fira Code, monospace;
        font-size: 20px;
        line-height: 24.4px;
        font-variant-east-asian: full-width;
    }

    .terminal-2463393187-title {
        font-size: 18px;
        font-weight: bold;
        font-family: arial;
    }

    .terminal-2463393187-r1 { fill: #c5c8c6 }
.terminal-2463393187-r2 { fill: #c89450;font-weight: bold }
.terminal-2463393187-r3 { fill: #e0e0e0 }
.terminal-2463393187-r4 { fill: #e0e0e0;font-weight: bold }
.terminal-2463393187-r5 { fill: #58d1eb }
.terminal-2463393187-r6 { fill: #98e024 }
.terminal-2463393187-r7 { fill: #8890b0 }
.terminal-2463393187-r8 { fill: #5ca8c8;font-weight: bold }
.terminal-2463393187-r9 { fill: #b4bcd4 }
.terminal-2463393187-r10 { fill: #121212 }
    </style>

    <defs>
    <clipPath id="terminal-2463393187-clip-terminal">
      <rect x="0" y="0" width="1280.0" height="755.4" />
    </clipPath>
    <clipPath id="terminal-2463393187-line-0">
    <rect x="0" y="1.5" width="1281" height="24.65"/>
            </clipPath>
<clipPath id="terminal-2463393187-line-1">
    <rect x="0" y="25.9" width="1281" height="24.65"/>
            </clipPath>
<clipPath id="terminal-2463393187-line-2">
    <rect x="0" y="50.3" width="1281" height="24.65"/>
            </clipPath>
<clipPath id="terminal-2463393187-line-3">
    <rect x="0" y="74.7" width="1281" height="24.65"/>
            </clipPath>
<clipPath id="terminal-2463393187-line-4">
    <rect x="0" y="99.1" width="1281" height="24.65"/>
            </clipPath>
<clipPath id="terminal-2463393187-line-5">
    <rect x="0" y="123.5" width="1281" height="24.65"/>
            </clipPath>
<clipPath id="terminal-2463393187-line-6">
    <rect x="0" y="147.9" width="1281" height="24.65"/>
            </clipPath>
<clipPath id="terminal-2463393187-line-7">
    <rect x="0" y="172.3" width="1281" height="24.65"/>
            </clipPath>
<clipPath id="terminal-2463393187-line-8">
    <rect x="0" y="196.7" width="1281" height="24.65"/>
            </clipPath>
<clipPath id="terminal-2463393187-line-9">
    <rect x="0" y="221.1" width="1281" height="24.65"/>
            </clipPath>
<clipPath id="terminal-2463393187-line-10">
    <rect x="0" y="245.5" width="1281" height="24.65"/>
            </clipPath>
<clipPath id="terminal-2463393187-line-11">
    <rect x="0" y="269.9" width="1281" height="24.65"/>
            </clipPath>
<clipPath id="terminal-2463393187-line-12">
    <rect x="0" y="294.3" width="1281" height="24.65"/>
            </clipPath>
<clipPath id="terminal-2463393187-line-13">
    <rect x="0" y="318.7" width="1281" height="24.65"/>
            </clipPath>
<clipPath id="terminal-2463393187-line-14">
    <rect x="0" y="343.1" width="1281" height="24.65"/>
            </clipPath>
<clipPath id="terminal-2463393187-line-15">
    <rect x="0" y="367.5" width="1281" height="24.65"/>
            </clipPath>
<clipPath id="terminal-2463393187-line-16">
    <rect x="0" y="391.9" width="1281" height="24.65"/>
            </clipPath>
<clipPath id="terminal-2463393187-line-17">
    <rect x="0" y="416.3" width="1281" height="24.65"/>
            </clipPath>
<clipPath id="terminal-2463393187-line-18">
    <rect x="0" y="440.7" width="1281" height="24.65"/>
            </clipPath>
<clipPath id="terminal-2463393187-line-19">
    <rect x="0" y="465.1" width="1281" height="24.65"/>
            </clipPath>
<clipPath id="terminal-2463393187-line-20">
    <rect x="0" y="489.5" width="1281" height="24.65"/>
            </clipPath>
<clipPath id="terminal-2463393187-line-21">
    <rect x="0" y="513.9" width="1281" height="24.65"/>
            </clipPath>
<clipPath id="terminal-2463393187-line-22">
    <rect x="0" y="538.3" width="1281" height="24.65"/>
            </clipPath>
<clipPath id="terminal-2463393187-line-23">
    <rect x="0" y="562.7" width="1281" height="24.65"/>
            </clipPath>
<clipPath id="terminal-2463393187-line-24">
    <rect x="0" y="587.1" width="1281" height="24.65"/>
            </clipPath>
<clipPath id="terminal-2463393187-line-25">
    <rect x="0" y="611.5" width="1281" height="24.65"/>
            </clipPath>
<clipPath id="terminal-2463393187-line-26">
    <rect x="0" y="635.9" width="1281" height="24.65"/>
            </clipPath>
<clipPath id="terminal-2463393187-line-27">
    <rect x="0" y="660.3" width="1281" height="24.65"/>
            </clipPath>
<clipPath id="terminal-2463393187-line-28">
    <rect x="0" y="684.7" width="1281" height="24.65"/>
            </clipPath>
<clipPath id="terminal-2463393187-line-29">
    <rect x="0" y="709.1" width="1281" height="24.65"/>
            </clipPath>
    </defs>

    <rect fill="#292929" stroke="rgba(255,255,255,0.35)" stroke-width="1" x="1" y="1" width="1297" height="804.4" rx="8"/><text class="terminal-2463393187-title" fill="#c5c8c6" text-anchor="middle" x="648" y="27">Moon&#160;Traveler&#160;Terminal</text>
            <g transform="translate(26,22)">
            <circle cx="0" cy="0" r="7" fill="#ff5f57"/>
            <circle cx="22" cy="0" r="7" fill="#febc2e"/>
            <circle cx="44" cy="0" r="7" fill="#28c840"/>
            </g>
        
    <g transform="translate(9, 41)" clip-path="url(#terminal-2463393187-clip-terminal)">
    <rect fill="#111525" x="0" y="1.5" width="24.4" height="24.65" shape-rendering="crispEdges"/><rect fill="#111525" x="24.4" y="1.5" width="268.4" height="24.65" shape-rendering="crispEdges"/><rect fill="#111525" x="292.8" y="1.5" width="963.8" height="24.65" shape-rendering="crispEdges"/><rect fill="#111525" x="1256.6" y="1.5" width="24.4" height="24.65" shape-rendering="crispEdges"/><rect fill="#0a0d18" x="0" y="25.9" width="12.2" height="24.65" shape-rendering="crispEdges"/><rect fill="#0a0d18" x="12.2" y="25.9" width="1232.2" height="24.65" shape-rendering="crispEdges"/><rect fill="#111525" x="1244.4" y="25.9" width="24.4" height="24.65" shape-rendering="crispEdges"/><rect fill="#0a0d18" x="1268.8" y="25.9" width="12.2" height="24.65" shape-rendering="crispEdges"/><rect fill="#0a0d18" x="0" y="50.3" width="12.2" height="24.65" shape-rendering="crispEdges"/><rect fill="#0a0d18" x="12.2" y="50.3" width="317.2" height="24.65" shape-rendering="crispEdges"/><rect fill="#0a0d18" x="329.4" y="50.3" width="915" height="24.65" shape-rendering="crispEdges"/><rect fill="#111525" x="1244.4" y="50.3" width="24.4" height="24.65" shape-rendering="crispEdges"/><rect fill="#0a0d18" x="1268.8" y="50.3" width="12.2" height="24.65" shape-rendering="crispEdges"/><rect fill="#0a0d18" x="0" y="74.7" width="12.2" height="24.65" shape-rendering="crispEdges"/><rect fill="#0a0d18" x="12.2" y="74.7" width="24.4" height="24.65" shape-rendering="crispEdges"/><rect fill="#0a0d18" x="36.6" y="74.7" width="12.2" height="24.65" shape-rendering="crispEdges"/><rect fill="#0a0d18" x="48.8" y="74.7" width="122" height="24.65" shape-rendering="crispEdges"/><rect fill="#0a0d18" x="170.8" y="74.7" width="1073.6" height="24.65" shape-rendering="crispEdges"/><rect fill="#111525" x="1244.4" y="74.7" width="24.4" height="24.65" shape-rendering="crispEdges"/><rect fill="#0a0d18" x="1268.8" y="74.7" width="12.2" height="24.65" shape-rendering="crispEdges"/><rect fill="#0a0d18" x="0" y="99.1" width="12.2" height="24.65" shape-rendering="crispEdges"/><rect fill="#0a0d18" x="12.2" y="99.1" width="24.4" height="24.65" shape-rendering="crispEdges"/><rect fill="#0a0d18" x="36.6" y="99.1" width="12.2" height="24.65" shape-rendering="crispEdges"/><rect fill="#0a0d18" x="48.8" y="99.1" width="134.2" height="24.65" shape-rendering="crispEdges"/><rect fill="#0a0d18" x="183" y="99.1" width="1061.4" height="24.65" shape-rendering="crispEdges"/><rect fill="#111525" x="1244.4" y="99.1" width="24.4" height="24.65" shape-rendering="crispEdges"/><rect fill="#0a0d18" x="1268.8" y="99.1" width="12.2" height="24.65" shape-rendering="crispEdges"/><rect fill="#0a0d18" x="0" y="123.5" width="12.2" height="24.65" shape-rendering="crispEdges"/><rect fill="#0a0d18" x="12.2" y="123.5" width="671" height="24.65" shape-rendering="crispEdges"/><rect fill="#0a0d18" x="683.2" y="123.5" width="561.2" height="24.65" shape-rendering="crispEdges"/><rect fill="#111525" x="1244.4" y="123.5" width="24.4" height="24.65" shape-rendering="crispEdges"/><rect fill="#0a0d18" x="1268.8" y="123.5" width="12.2" height="24.65" shape-rendering="crispEdges"/><rect fill="#0a0d18" x="0" y="147.9" width="12.2" height="24.65" shape-rendering="crispEdges"/><rect fill="#0a0d18" x="12.2" y="147.9" width="36.6" height="24.65" shape-rendering="crispEdges"/><rect fill="#0a0d18" x="48.8" y="147.9" width="1195.6" height="24.65" shape-rendering="crispEdges"/><rect fill="#111525" x="1244.4" y="147.9" width="24.4" height="24.65" shape-rendering="crispEdges"/><rect fill="#0a0d18" x="1268.8" y="147.9" width="12.2" height="24.65" shape-rendering="crispEdges"/><rect fill="#0a0d18" x="0" y="172.3" width="12.2" height="24.65" shape-rendering="crispEdges"/><rect fill="#0a0d18" x="12.2" y="172.3" width="1232.2" height="24.65" shape-rendering="crispEdges"/><rect fill="#111525" x="1244.4" y="172.3" width="24.4" height="24.65" shape-rendering="crispEdges"/><rect fill="#0a0d18" x="1268.8" y="172.3" width="12.2" height="24.65" shape-rendering="crispEdges"/><rect fill="#0a0d18" x="0" y="196.7" width="12.2" height="24.65" shape-rendering="crispEdges"/><rect fill="#0a0d18" x="12.2" y="196.7" width="231.8" height="24.65" shape-rendering="crispEdges"/><rect fill="#0a0d18" x="244" y="196.7" width="1000.4" height="24.65" shape-rendering="crispEdges"/><rect fill="#111525" x="1244.4" y="196.7" width="24.4" height="24.65" shape-rendering="crispEdges"/><rect fill="#0a0d18" x="1268.8" y="196.7" width="12.2" height="24.65" shape-rendering="crispEdges"/><rect fill="#0a0d18" x="0" y="221.1" width="12.2" height="24.65" shape-rendering="crispEdges"/><rect fill="#0a0d18" x="12.2" y="221.1" width="24.4" height="24.65" shape-rendering="crispEdges"/><rect fill="#0a0d18" x="36.6" y="221.1" width="12.2" height="24.65" shape-rendering="crispEdges"/><rect fill="#0a0d18" x="48.8" y="221.1" width="207.4" height="24.65" shape-rendering="crispEdges"/><rect fill="#0a0d18" x="256.2" y="221.1" width="988.2" height="24.65" shape-rendering="crispEdges"/><rect fill="#111525" x="1244.4" y="221.1" width="24.4" height="24.65" shape-rendering="crispEdges"/><rect fill="#0a0d18" x="1268.8" y="221.1" width="12.2" height="24.65" shape-rendering="crispEdges"/><rect fill="#0a0d18" x="0" y="245.5" width="12.2" height="24.65" shape-rendering="crispEdges"/><rect fill="#0a0d18" x="12.2" y="245.5" width="24.4" height="24.65" shape-rendering="crispEdges"/><rect fill="#0a0d18" x="36.6" y="245.5" width="12.2" height="24.65" shape-rendering="crispEdges"/><rect fill="#0a0d18" x="48.8" y="245.5" width="256.2" height="24.65" shape-rendering="crispEdges"/><rect fill="#0a0d18" x="305" y="245.5" width="939.4" height="24.65" shape-rendering="crispEdges"/><rect fill="#111525" x="1244.4" y="245.5" width="24.4" height="24.65" shape-rendering="crispEdges"/><rect fill="#0a0d18" x="1268.8" y="245.5" width="12.2" height="24.65" shape-rendering="crispEdges"/><rect fill="#0a0d18" x="0" y="269.9" width="12.2" height="24.65" shape-rendering="crispEdges"/><rect fill="#0a0d18" x="12.2" y="269.9" width="24.4" height="24.65" shape-rendering="crispEdges"/><rect fill="#0a0d18" x="36.6" y="269.9" width="12.2" height="24.65" shape-rendering="crispEdges"/><rect fill="#0a0d18" x="48.8" y="269.9" width="219.6" height="24.65" shape-rendering="crispEdges"/><rect fill="#0a0d18" x="268.4" y="269.9" width="976" height="24.65" shape-rendering="crispEdges"/><rect fill="#111525" x="1244.4" y="269.9" width="24.4" height="24.65" shape-rendering="crispEdges"/><rect fill="#0a0d18" x="1268.8" y="269.9" width="12.2" height="24.65" shape-rendering="crispEdges"/><rect fill="#0a0d18" x="0" y="294.3" width="12.2" height="24.65" shape-rendering="crispEdges"/><rect fill="#0a0d18" x="12.2" y="294.3" width="671" height="24.65" shape-rendering="crispEdges"/><rect fill="#0a0d18" x="683.2" y="294.3" width="561.2" height="24.65" shape-rendering="crispEdges"/><rect fill="#111525" x="1244.4" y="294.3" width="24.4" height="24.65" shape-rendering="crispEdges"/><rect fill="#0a0d18" x="1268.8" y="294.3" width="12.2" height="24.65" shape-rendering="crispEdges"/><rect fill="#0a0d18" x="0" y="318.7" width="12.2" height="24.65" shape-rendering="crispEdges"/><rect fill="#0a0d18" x="12.2" y="318.7" width="1232.2" height="24.65" shape-rendering="crispEdges"/><rect fill="#111525" x="1244.4" y="318.7" width="24.4" height="24.65" shape-rendering="crispEdges"/><rect fill="#0a0d18" x="1268.8" y="318.7" width="12.2" height="24.65" shape-rendering="crispEdges"/><rect fill="#0a0d18" x="0" y="343.1" width="12.2" height="24.65" shape-rendering="crispEdges"/><rect fill="#0a0d18" x="12.2" y="343.1" width="1232.2" height="24.65" shape-rendering="crispEdges"/><rect fill="#111525" x="1244.4" y="343.1" width="24.4" height="24.65" shape-rendering="crispEdges"/><rect fill="#0a0d18" x="1268.8" y="343.1" width="12.2" height="24.65" shape-rendering="crispEdges"/><rect fill="#0a0d18" x="0" y="367.5" width="12.2" height="24.65" shape-rendering="crispEdges"/><rect fill="#0a0d18" x="12.2" y="367.5" width="1232.2" height="24.65" shape-rendering="crispEdges"/><rect fill="#111525" x="1244.4" y="367.5" width="24.4" height="24.65" shape-rendering="crispEdges"/><rect fill="#0a0d18" x="1268.8" y="367.5" width="12.2" height="24.65" shape-rendering="crispEdges"/><rect fill="#0a0d18" x="0" y="391.9" width="12.2" height="24.65" shape-rendering="crispEdges"/><rect fill="#0a0d18" x="12.2" y="391.9" width="1232.2" height="24.65" shape-rendering="crispEdges"/><rect fill="#111525" x="1244.4" y="391.9" width="24.4" height="24.65" shape-rendering="crispEdges"/><rect fill="#0a0d18" x="1268.8" y="391.9" width="12.2" height="24.65" shape-rendering="crispEdges"/><rect fill="#0a0d18" x="0" y="416.3" width="12.2" height="24.65" shape-rendering="crispEdges"/><rect fill="#0a0d18" x="12.2" y="416.3" width="1232.2" height="24.65" shape-rendering="crispEdges"/><rect fill="#111525" x="1244.4" y="416.3" width="24.4" height="24.65" shape-rendering="crispEdges"/><rect fill="#0a0d18" x="1268.8" y="416.3" width="12.2" height="24.65" shape-rendering="crispEdges"/><rect fill="#0a0d18" x="0" y="440.7" width="12.2" height="24.65" shape-rendering="crispEdges"/><rect fill="#0a0d18" x="12.2" y="440.7" width="1232.2" height="24.65" shape-rendering="crispEdges"/><rect fill="#111525" x="1244.4" y="440.7" width="24.4" height="24.65" shape-rendering="crispEdges"/><rect fill="#0a0d18" x="1268.8" y="440.7" width="12.2" height="24.65" shape-rendering="crispEdges"/><rect fill="#0a0d18" x="0" y="465.1" width="12.2" height="24.65" shape-rendering="crispEdges"/><rect fill="#0a0d18" x="12.2" y="465.1" width="1232.2" height="24.65" shape-rendering="crispEdges"/><rect fill="#111525" x="1244.4" y="465.1" width="24.4" height="24.65" shape-rendering="crispEdges"/><rect fill="#0a0d18" x="1268.8" y="465.1" width="12.2" height="24.65" shape-rendering="crispEdges"/><rect fill="#0a0d18" x="0" y="489.5" width="12.2" height="24.65" shape-rendering="crispEdges"/><rect fill="#0a0d18" x="12.2" y="489.5" width="1232.2" height="24.65" shape-rendering="crispEdges"/><rect fill="#111525" x="1244.4" y="489.5" width="24.4" height="24.65" shape-rendering="crispEdges"/><rect fill="#0a0d18" x="1268.8" y="489.5" width="12.2" height="24.65" shape-rendering="crispEdges"/><rect fill="#0a0d18" x="0" y="513.9" width="12.2" height="24.65" shape-rendering="crispEdges"/><rect fill="#0a0d18" x="12.2" y="513.9" width="1232.2" height="24.65" shape-rendering="crispEdges"/><rect fill="#111525" x="1244.4" y="513.9" width="24.4" height="24.65" shape-rendering="crispEdges"/><rect fill="#0a0d18" x="1268.8" y="513.9" width="12.2" height="24.65" shape-rendering="crispEdges"/><rect fill="#0a0d18" x="0" y="538.3" width="12.2" height="24.65" shape-rendering="crispEdges"/><rect fill="#0a0d18" x="12.2" y="538.3" width="1232.2" height="24.65" shape-rendering="crispEdges"/><rect fill="#111525" x="1244.4" y="538.3" width="24.4" height="24.65" shape-rendering="crispEdges"/><rect fill="#0a0d18" x="1268.8" y="538.3" width="12.2" height="24.65" shape-rendering="crispEdges"/><rect fill="#0a0d18" x="0" y="562.7" width="12.2" height="24.65" shape-rendering="crispEdges"/><rect fill="#0a0d18" x="12.2" y="562.7" width="1232.2" height="24.65" shape-rendering="crispEdges"/><rect fill="#111525" x="1244.4" y="562.7" width="24.4" height="24.65" shape-rendering="crispEdges"/><rect fill="#0a0d18" x="1268.8" y="562.7" width="12.2" height="24.65" shape-rendering="crispEdges"/><rect fill="#0a0d18" x="0" y="587.1" width="12.2" height="24.65" shape-rendering="crispEdges"/><rect fill="#0a0d18" x="12.2" y="587.1" width="1232.2" height="24.65" shape-rendering="crispEdges"/><rect fill="#111525" x="1244.4" y="587.1" width="24.4" height="24.65" shape-rendering="crispEdges"/><rect fill="#0a0d18" x="1268.8" y="587.1" width="12.2" height="24.65" shape-rendering="crispEdges"/><rect fill="#0a0d18" x="0" y="611.5" width="12.2" height="24.65" shape-rendering="crispEdges"/><rect fill="#0a0d18" x="12.2" y="611.5" width="1232.2" height="24.65" shape-rendering="crispEdges"/><rect fill="#111525" x="1244.4" y="611.5" width="24.4" height="24.65" shape-rendering="crispEdges"/><rect fill="#0a0d18" x="1268.8" y="611.5" width="12.2" height="24.65" shape-rendering="crispEdges"/><rect fill="#0a0d18" x="0" y="635.9" width="12.2" height="24.65" shape-rendering="crispEdges"/><rect fill="#0a0d18" x="12.2" y="635.9" width="1232.2" height="24.65" shape-rendering="crispEdges"/><rect fill="#111525" x="1244.4" y="635.9" width="24.4" height="24.65" shape-rendering="crispEdges"/><rect fill="#0a0d18" x="1268.8" y="635.9" width="12.2" height="24.65" shape-rendering="crispEdges"/><rect fill="#111525" x="0" y="660.3" width="24.4" height="24.65" shape-rendering="crispEdges"/><rect fill="#111525" x="24.4" y="660.3" width="0" height="24.65" shape-rendering="crispEdges"/><rect fill="#111525" x="24.4" y="660.3" width="1232.2" height="24.65" shape-rendering="crispEdges"/><rect fill="#111525" x="1256.6" y="660.3" width="24.4" height="24.65" shape-rendering="crispEdges"/><rect fill="#0e1122" x="0" y="684.7" width="12.2" height="24.65" shape-rendering="crispEdges"/><rect fill="#0e1122" x="12.2" y="684.7" width="0" height="24.65" shape-rendering="crispEdges"/><rect fill="#0e1122" x="12.2" y="684.7" width="24.4" height="24.65" shape-rendering="crispEdges"/><rect fill="#0e1122" x="36.6" y="684.7" width="12.2" height="24.65" shape-rendering="crispEdges"/><rect fill="#181b2b" x="48.8" y="684.7" width="24.4" height="24.65" shape-rendering="crispEdges"/><rect fill="#181b2b" x="73.2" y="684.7" width="12.2" height="24.65" shape-rendering="crispEdges"/><rect fill="#e0e0e0" x="85.4" y="684.7" width="12.2" height="24.65" shape-rendering="crispEdges"/><rect fill="#181b2b" x="97.6" y="684.7" width="1146.8" height="24.65" shape-rendering="crispEdges"/><rect fill="#181b2b" x="1244.4" y="684.7" width="24.4" height="24.65" shape-rendering="crispEdges"/><rect fill="#0e1122" x="1268.8" y="684.7" width="12.2" height="24.65" shape-rendering="crispEdges"/><rect fill="#0e1122" x="0" y="709.1" width="12.2" height="24.65" shape-rendering="crispEdges"/><rect fill="#0e1122" x="12.2" y="709.1" width="24.4" height="24.65" shape-rendering="crispEdges"/><rect fill="#0e1122" x="36.6" y="709.1" width="12.2" height="24.65" shape-rendering="crispEdges"/><rect fill="#181b2b" x="48.8" y="709.1" width="24.4" height="24.65" shape-rendering="crispEdges"/><rect fill="#181b2b" x="73.2" y="709.1" width="1171.2" height="24.65" shape-rendering="crispEdges"/><rect fill="#181b2b" x="1244.4" y="709.1" width="24.4" height="24.65" shape-rendering="crispEdges"/><rect fill="#0e1122" x="1268.8" y="709.1" width="12.2" height="24.65" shape-rendering="crispEdges"/><rect fill="#0e1122" x="0" y="733.5" width="12.2" height="24.65" shape-rendering="crispEdges"/><rect fill="#0e1122" x="12.2" y="733.5" width="36.6" height="24.65" shape-rendering="crispEdges"/><rect fill="#181b2b" x="48.8" y="733.5" width="24.4" height="24.65" shape-rendering="crispEdges"/><rect fill="#181b2b" x="73.2" y="733.5" width="1171.2" height="24.65" shape-rendering="crispEdges"/><rect fill="#181b2b" x="1244.4" y="733.5" width="24.4" height="24.65" shape-rendering="crispEdges"/><rect fill="#0e1122" x="1268.8" y="733.5" width="12.2" height="24.65" shape-rendering="crispEdges"/>
    <g class="terminal-2463393187-matrix">
    <text class="terminal-2463393187-r2" x="24.4" y="20" textLength="268.4" clip-path="url(#terminal-2463393187-line-0)">Moon&#160;Traveler&#160;Terminal</text><text class="terminal-2463393187-r1" x="1281" y="20" textLength="12.2" clip-path="url(#terminal-2463393187-line-0)">
</text><text class="terminal-2463393187-r1" x="1281" y="44.4" textLength="12.2" clip-path="url(#terminal-2463393187-line-1)">
</text><text class="terminal-2463393187-r4" x="12.2" y="68.8" textLength="317.2" clip-path="url(#terminal-2463393187-line-2)">What&#160;would&#160;you&#160;like&#160;to&#160;do?</text><text class="terminal-2463393187-r1" x="1281" y="68.8" textLength="12.2" clip-path="url(#terminal-2463393187-line-2)">
</text><text class="terminal-2463393187-r5" x="36.6" y="93.2" textLength="12.2" clip-path="url(#terminal-2463393187-line-3)">1</text><text class="terminal-2463393187-r3" x="48.8" y="93.2" textLength="122" clip-path="url(#terminal-2463393187-line-3)">.&#160;New&#160;Game</text><text class="terminal-2463393187-r1" x="1281" y="93.2" textLength="12.2" clip-path="url(#terminal-2463393187-line-3)">
</text><text class="terminal-2463393187-r5" x="36.6" y="117.6" textLength="12.2" clip-path="url(#terminal-2463393187-line-4)">2</text><text class="terminal-2463393187-r3" x="48.8" y="117.6" textLength="134.2" clip-path="url(#terminal-2463393187-line-4)">.&#160;Load&#160;Game</text><text class="terminal-2463393187-r1" x="1281" y="117.6" textLength="12.2" clip-path="url(#terminal-2463393187-line-4)">
</text><text class="terminal-2463393187-r6" x="12.2" y="142" textLength="671" clip-path="url(#terminal-2463393187-line-5)">Screenshot&#160;saved:&#160;assets/screenshot-20260416-235834.svg</text><text class="terminal-2463393187-r1" x="1281" y="142" textLength="12.2" clip-path="url(#terminal-2463393187-line-5)">
</text><text class="terminal-2463393187-r4" x="12.2" y="166.4" textLength="36.6" clip-path="url(#terminal-2463393187-line-6)">&gt;&#160;1</text><text class="terminal-2463393187-r1" x="1281" y="166.4" textLength="12.2" clip-path="url(#terminal-2463393187-line-6)">
</text><text class="terminal-2463393187-r1" x="1281" y="190.8" textLength="12.2" clip-path="url(#terminal-2463393187-line-7)">
</text><text class="terminal-2463393187-r4" x="12.2" y="215.2" textLength="231.8" clip-path="url(#terminal-2463393187-line-8)">Choose&#160;game&#160;length:</text><text class="terminal-2463393187-r1" x="1281" y="215.2" textLength="12.2" clip-path="url(#terminal-2463393187-line-8)">
</text><text class="terminal-2463393187-r5" x="36.6" y="239.6" textLength="12.2" clip-path="url(#terminal-2463393187-line-9)">1</text><text class="terminal-2463393187-r3" x="48.8" y="239.6" textLength="207.4" clip-path="url(#terminal-2463393187-line-9)">.&#160;Short&#160;(~30&#160;min)</text><text class="terminal-2463393187-r1" x="1281" y="239.6" textLength="12.2" clip-path="url(#terminal-2463393187-line-9)">
</text><text class="terminal-2463393187-r5" x="36.6" y="264" textLength="12.2" clip-path="url(#terminal-2463393187-line-10)">2</text><text class="terminal-2463393187-r3" x="48.8" y="264" textLength="256.2" clip-path="url(#terminal-2463393187-line-10)">.&#160;Medium&#160;(~1-2&#160;hours)</text><text class="terminal-2463393187-r1" x="1281" y="264" textLength="12.2" clip-path="url(#terminal-2463393187-line-10)">
</text><text class="terminal-2463393187-r5" x="36.6" y="288.4" textLength="12.2" clip-path="url(#terminal-2463393187-line-11)">3</text><text class="terminal-2463393187-r3" x="48.8" y="288.4" textLength="219.6" clip-path="url(#terminal-2463393187-line-11)">.&#160;Long&#160;(~3+&#160;hours)</text><text class="terminal-2463393187-r1" x="1281" y="288.4" textLength="12.2" clip-path="url(#terminal-2463393187-line-11)">
</text><text class="terminal-2463393187-r6" x="12.2" y="312.8" textLength="671" clip-path="url(#terminal-2463393187-line-12)">Screenshot&#160;saved:&#160;assets/screenshot-20260416-235839.svg</text><text class="terminal-2463393187-r1" x="1281" y="312.8" textLength="12.2" clip-path="url(#terminal-2463393187-line-12)">
</text><text class="terminal-2463393187-r1" x="1281" y="337.2" textLength="12.2" clip-path="url(#terminal-2463393187-line-13)">
</text><text class="terminal-2463393187-r1" x="1281" y="361.6" textLength="12.2" clip-path="url(#terminal-2463393187-line-14)">
</text><text class="terminal-2463393187-r1" x="1281" y="386" textLength="12.2" clip-path="url(#terminal-2463393187-line-15)">
</text><text class="terminal-2463393187-r1" x="1281" y="410.4" textLength="12.2" clip-path="url(#terminal-2463393187-line-16)">
</text><text class="terminal-2463393187-r1" x="1281" y="434.8" textLength="12.2" clip-path="url(#terminal-2463393187-line-17)">
</text><text class="terminal-2463393187-r1" x="1281" y="459.2" textLength="12.2" clip-path="url(#terminal-2463393187-line-18)">
</text><text class="terminal-2463393187-r1" x="1281" y="483.6" textLength="12.2" clip-path="url(#terminal-2463393187-line-19)">
</text><text class="terminal-2463393187-r1" x="1281" y="508" textLength="12.2" clip-path="url(#terminal-2463393187-line-20)">
</text><text class="terminal-2463393187-r1" x="1281" y="532.4" textLength="12.2" clip-path="url(#terminal-2463393187-line-21)">
</text><text class="terminal-2463393187-r1" x="1281" y="556.8" textLength="12.2" clip-path="url(#terminal-2463393187-line-22)">
</text><text class="terminal-2463393187-r1" x="1281" y="581.2" textLength="12.2" clip-path="url(#terminal-2463393187-line-23)">
</text><text class="terminal-2463393187-r1" x="1281" y="605.6" textLength="12.2" clip-path="url(#terminal-2463393187-line-24)">
</text><text class="terminal-2463393187-r1" x="1281" y="630" textLength="12.2" clip-path="url(#terminal-2463393187-line-25)">
</text><text class="terminal-2463393187-r1" x="1281" y="654.4" textLength="12.2" clip-path="url(#terminal-2463393187-line-26)">
</text><text class="terminal-2463393187-r1" x="1281" y="678.8" textLength="12.2" clip-path="url(#terminal-2463393187-line-27)">
</text><text class="terminal-2463393187-r9" x="73.2" y="703.2" textLength="12.2" clip-path="url(#terminal-2463393187-line-28)">1</text><text class="terminal-2463393187-r1" x="1281" y="703.2" textLength="12.2" clip-path="url(#terminal-2463393187-line-28)">
</text><text class="terminal-2463393187-r8" x="12.2" y="727.6" textLength="24.4" clip-path="url(#terminal-2463393187-line-29)">&gt;&#160;</text><text class="terminal-2463393187-r1" x="1281" y="727.6" textLength="12.2" clip-path="url(#terminal-2463393187-line-29)">
</text>
    </g>
    </g>
</svg>
